#VRML V2.0 utf8
# 3D model generated by easyeda2kicad.py (https://github.com/uPesy/easyeda2kicad.py)

Shape{
    appearance Appearance {
        material  Material 	{
            diffuseColor 0.8313725490196079 0.6705882352941176 0.12941176470588237
            specularColor 0.6666666666666666 0.5372549019607843 0.10196078431372549
            ambientIntensity 0.657
            transparency 0.0
            shininess 0.5
        }
    }
    geometry IndexedFaceSet {
        ccw TRUE
        solid FALSE
        coord DEF co Coordinate {
            point [
                -0.5217 -1.3484 0.1614, -0.5217 -1.3484 0.0787, -0.4626 -1.3484 0.1614, -0.4626 -1.3484 0.0787, -0.5217 0.502 0.1614, -0.4626 0.502 0.1614, -0.5217 0.502 0.0394, -0.4626 0.502 0.0394, -0.5217 0.6988 0.0394, -0.4626 0.6988 0.0394, -0.5217 0.6988 0.0, -0.4626 0.6988 0.0, -0.5217 0.4232 0.0, -0.4626 0.4232 0.0, -0.5217 0.4232 0.0787, -0.4626 0.4232 0.0787, -0.3248 -1.3484 0.1614, -0.3248 -1.3484 0.0787, -0.2658 -1.3484 0.1614, -0.2658 -1.3484 0.0787, -0.3248 0.502 0.1614, -0.2658 0.502 0.1614, -0.3248 0.502 0.0394, -0.2658 0.502 0.0394, -0.3248 0.6988 0.0394, -0.2658 0.6988 0.0394, -0.3248 0.6988 0.0, -0.2658 0.6988 0.0, -0.3248 0.4232 0.0, -0.2658 0.4232 0.0, -0.3248 0.4232 0.0787, -0.2658 0.4232 0.0787, -0.128 -1.3484 0.1614, -0.128 -1.3484 0.0787, -0.0689 -1.3484 0.1614, -0.0689 -1.3484 0.0787, -0.128 0.502 0.1614, -0.0689 0.502 0.1614, -0.128 0.502 0.0394, -0.0689 0.502 0.0394, -0.128 0.6988 0.0394, -0.0689 0.6988 0.0394, -0.128 0.6988 0.0, -0.0689 0.6988 0.0, -0.128 0.4232 0.0, -0.0689 0.4232 0.0, -0.128 0.4232 0.0787, -0.0689 0.4232 0.0787, 0.0689 -1.3484 0.1614, 0.0689 -1.3484 0.0787, 0.1279 -1.3484 0.1614, 0.1279 -1.3484 0.0787, 0.0689 0.502 0.1614, 0.1279 0.502 0.1614, 0.0689 0.502 0.0394, 0.1279 0.502 0.0394, 0.0689 0.6988 0.0394, 0.1279 0.6988 0.0394, 0.0689 0.6988 0.0, 0.1279 0.6988 0.0, 0.0689 0.4232 0.0, 0.1279 0.4232 0.0, 0.0689 0.4232 0.0787, 0.1279 0.4232 0.0787, 0.2657 -1.3484 0.1614, 0.2657 -1.3484 0.0787, 0.3248 -1.3484 0.1614, 0.3248 -1.3484 0.0787, 0.2657 0.502 0.1614, 0.3248 0.502 0.1614, 0.2657 0.502 0.0394, 0.3248 0.502 0.0394, 0.2657 0.6988 0.0394, 0.3248 0.6988 0.0394, 0.2657 0.6988 0.0, 0.3248 0.6988 0.0, 0.2657 0.4232 0.0, 0.3248 0.4232 0.0, 0.2657 0.4232 0.0787, 0.3248 0.4232 0.0787, 0.4626 -1.3484 0.1614, 0.4626 -1.3484 0.0787, 0.5216 -1.3484 0.1614, 0.5216 -1.3484 0.0787, 0.4626 0.502 0.1614, 0.5216 0.502 0.1614, 0.4626 0.502 0.0394, 0.5216 0.502 0.0394, 0.4626 0.6988 0.0394, 0.5216 0.6988 0.0394, 0.4626 0.6988 0.0, 0.5216 0.6988 0.0, 0.4626 0.4232 0.0, 0.5216 0.4232 0.0, 0.4626 0.4232 0.0787, 0.5216 0.4232 0.0787, -0.5217 -1.2475 0.6496, -0.4626 -1.2475 0.6496, -0.4626 -1.2556 0.6548, -0.5217 -1.2556 0.6548, -0.4626 -1.2621 0.6618, -0.5217 -1.2621 0.6618, -0.4626 -1.2668 0.6702, -0.5217 -1.2668 0.6702, -0.4626 -1.2693 0.6795, -0.5217 -1.2693 0.6795, -0.4626 -1.2695 0.6891, -0.5217 -1.2695 0.6891, -0.4626 -1.2673 0.6985, -0.5217 -1.2673 0.6985, -0.4626 -1.263 0.707, -0.5217 -1.263 0.707, -0.4626 -1.2567 0.7143, -0.5217 -1.2567 0.7143, -0.4626 -1.2488 0.7198, -0.5217 -1.2488 0.7198, -0.4626 -1.2399 0.7232, -0.5217 -1.2399 0.7232, -0.4626 -1.2303 0.7244, -0.5217 -1.2303 0.7244, -0.5217 0.3445 0.7244, -0.4626 0.3445 0.7244, -0.5217 0.3445 0.6457, -0.4626 0.3445 0.6457, -0.5217 -1.1122 0.6457, -0.4626 -1.1122 0.6457, -0.5217 -1.14 0.5975, -0.4626 -1.14 0.5975, -0.3248 -1.2475 0.6496, -0.2658 -1.2475 0.6496, -0.2658 -1.2556 0.6548, -0.3248 -1.2556 0.6548, -0.2658 -1.2621 0.6618, -0.3248 -1.2621 0.6618, -0.2658 -1.2668 0.6702, -0.3248 -1.2668 0.6702, -0.2658 -1.2693 0.6795, -0.3248 -1.2693 0.6795, -0.2658 -1.2695 0.6891, -0.3248 -1.2695 0.6891, -0.2658 -1.2673 0.6985, -0.3248 -1.2673 0.6985, -0.2658 -1.263 0.707, -0.3248 -1.263 0.707, -0.2658 -1.2567 0.7143, -0.3248 -1.2567 0.7143, -0.2658 -1.2488 0.7198, -0.3248 -1.2488 0.7198, -0.2658 -1.2399 0.7232, -0.3248 -1.2399 0.7232, -0.2658 -1.2303 0.7244, -0.3248 -1.2303 0.7244, -0.3248 0.3445 0.7244, -0.2658 0.3445 0.7244, -0.3248 0.3445 0.6457, -0.2658 0.3445 0.6457, -0.3248 -1.1122 0.6457, -0.2658 -1.1122 0.6457, -0.3248 -1.14 0.5975, -0.2658 -1.14 0.5975, -0.128 -1.2475 0.6496, -0.0689 -1.2475 0.6496, -0.0689 -1.2556 0.6548, -0.128 -1.2556 0.6548, -0.0689 -1.2621 0.6618, -0.128 -1.2621 0.6618, -0.0689 -1.2668 0.6702, -0.128 -1.2668 0.6702, -0.0689 -1.2693 0.6795, -0.128 -1.2693 0.6795, -0.0689 -1.2695 0.6891, -0.128 -1.2695 0.6891, -0.0689 -1.2673 0.6985, -0.128 -1.2673 0.6985, -0.0689 -1.263 0.707, -0.128 -1.263 0.707, -0.0689 -1.2567 0.7143, -0.128 -1.2567 0.7143, -0.0689 -1.2488 0.7198, -0.128 -1.2488 0.7198, -0.0689 -1.2399 0.7232, -0.128 -1.2399 0.7232, -0.0689 -1.2303 0.7244, -0.128 -1.2303 0.7244, -0.128 0.3445 0.7244, -0.0689 0.3445 0.7244, -0.128 0.3445 0.6457, -0.0689 0.3445 0.6457, -0.128 -1.1122 0.6457, -0.0689 -1.1122 0.6457, -0.128 -1.14 0.5975, -0.0689 -1.14 0.5975, 0.0689 -1.2475 0.6496, 0.1279 -1.2475 0.6496, 0.1279 -1.2556 0.6548, 0.0689 -1.2556 0.6548, 0.1279 -1.2621 0.6618, 0.0689 -1.2621 0.6618, 0.1279 -1.2668 0.6702, 0.0689 -1.2668 0.6702, 0.1279 -1.2693 0.6795, 0.0689 -1.2693 0.6795, 0.1279 -1.2695 0.6891, 0.0689 -1.2695 0.6891, 0.1279 -1.2673 0.6985, 0.0689 -1.2673 0.6985, 0.1279 -1.263 0.707, 0.0689 -1.263 0.707, 0.1279 -1.2567 0.7143, 0.0689 -1.2567 0.7143, 0.1279 -1.2488 0.7198, 0.0689 -1.2488 0.7198, 0.1279 -1.2399 0.7232, 0.0689 -1.2399 0.7232, 0.1279 -1.2303 0.7244, 0.0689 -1.2303 0.7244, 0.0689 0.3445 0.7244, 0.1279 0.3445 0.7244, 0.0689 0.3445 0.6457, 0.1279 0.3445 0.6457, 0.0689 -1.1122 0.6457, 0.1279 -1.1122 0.6457, 0.0689 -1.14 0.5975, 0.1279 -1.14 0.5975
            ]
        }
        coordIndex [
            0,1,2,-1,2,1,3,-1,4,0,5,-1,5,0,2,-1,6,4,7,-1,7,4,5,-1,8,6,9,-1,9,6,7,-1,10,8,11,-1,11,8,9,-1,12,10,13,-1,13,10,11,-1,14,12,15,-1,15,12,13,-1,1,14,3,-1,3,14,15,-1,1,0,14,-1,14,0,4,-1,14,4,12,-1,12,4,6,-1,12,6,10,-1,10,6,8,-1,2,3,5,-1,5,3,15,-1,5,15,7,-1,7,15,13,-1,7,13,9,-1,9,13,11,-1,16,17,18,-1,18,17,19,-1,20,16,21,-1,21,16,18,-1,22,20,23,-1,23,20,21,-1,24,22,25,-1,25,22,23,-1,26,24,27,-1,27,24,25,-1,28,26,29,-1,29,26,27,-1,30,28,31,-1,31,28,29,-1,17,30,19,-1,19,30,31,-1,17,16,30,-1,30,16,20,-1,30,20,28,-1,28,20,22,-1,28,22,26,-1,26,22,24,-1,18,19,21,-1,21,19,31,-1,21,31,23,-1,23,31,29,-1,23,29,25,-1,25,29,27,-1,32,33,34,-1,34,33,35,-1,36,32,37,-1,37,32,34,-1,38,36,39,-1,39,36,37,-1,40,38,41,-1,41,38,39,-1,42,40,43,-1,43,40,41,-1,44,42,45,-1,45,42,43,-1,46,44,47,-1,47,44,45,-1,33,46,35,-1,35,46,47,-1,33,32,46,-1,46,32,36,-1,46,36,44,-1,44,36,38,-1,44,38,42,-1,42,38,40,-1,34,35,37,-1,37,35,47,-1,37,47,39,-1,39,47,45,-1,39,45,41,-1,41,45,43,-1,48,49,50,-1,50,49,51,-1,52,48,53,-1,53,48,50,-1,54,52,55,-1,55,52,53,-1,56,54,57,-1,57,54,55,-1,58,56,59,-1,59,56,57,-1,60,58,61,-1,61,58,59,-1,62,60,63,-1,63,60,61,-1,49,62,51,-1,51,62,63,-1,49,48,62,-1,62,48,52,-1,62,52,60,-1,60,52,54,-1,60,54,58,-1,58,54,56,-1,50,51,53,-1,53,51,63,-1,53,63,55,-1,55,63,61,-1,55,61,57,-1,57,61,59,-1,64,65,66,-1,66,65,67,-1,68,64,69,-1,69,64,66,-1,70,68,71,-1,71,68,69,-1,72,70,73,-1,73,70,71,-1,74,72,75,-1,75,72,73,-1,76,74,77,-1,77,74,75,-1,78,76,79,-1,79,76,77,-1,65,78,67,-1,67,78,79,-1,65,64,78,-1,78,64,68,-1,78,68,76,-1,76,68,70,-1,76,70,74,-1,74,70,72,-1,66,67,69,-1,69,67,79,-1,69,79,71,-1,71,79,77,-1,71,77,73,-1,73,77,75,-1,80,81,82,-1,82,81,83,-1,84,80,85,-1,85,80,82,-1,86,84,87,-1,87,84,85,-1,88,86,89,-1,89,86,87,-1,90,88,91,-1,91,88,89,-1,92,90,93,-1,93,90,91,-1,94,92,95,-1,95,92,93,-1,81,94,83,-1,83,94,95,-1,81,80,94,-1,94,80,84,-1,94,84,92,-1,92,84,86,-1,92,86,90,-1,90,86,88,-1,82,83,85,-1,85,83,95,-1,85,95,87,-1,87,95,93,-1,87,93,89,-1,89,93,91,-1,96,97,98,-1,96,98,99,-1,99,98,100,-1,99,100,101,-1,101,100,102,-1,101,102,103,-1,103,102,104,-1,103,104,105,-1,105,104,106,-1,105,106,107,-1,107,106,108,-1,107,108,109,-1,109,108,110,-1,109,110,111,-1,111,110,112,-1,111,112,113,-1,113,112,114,-1,113,114,115,-1,115,114,116,-1,115,116,117,-1,117,116,118,-1,117,118,119,-1,120,119,121,-1,121,119,118,-1,122,120,123,-1,123,120,121,-1,124,122,125,-1,125,122,123,-1,126,124,127,-1,127,124,125,-1,96,126,97,-1,97,126,127,-1,120,122,119,-1,119,122,124,-1,119,124,126,-1,126,96,119,-1,119,96,99,-1,119,99,101,-1,101,103,119,-1,119,103,105,-1,119,105,107,-1,111,113,109,-1,109,113,115,-1,109,115,107,-1,107,115,117,-1,107,117,119,-1,123,121,125,-1,125,121,118,-1,116,114,106,-1,102,100,118,-1,127,125,97,-1,97,125,118,-1,97,118,98,-1,98,118,100,-1,106,114,108,-1,108,114,112,-1,108,112,110,-1,116,106,118,-1,118,106,104,-1,118,104,102,-1,128,129,130,-1,128,130,131,-1,131,130,132,-1,131,132,133,-1,133,132,134,-1,133,134,135,-1,135,134,136,-1,135,136,137,-1,137,136,138,-1,137,138,139,-1,139,138,140,-1,139,140,141,-1,141,140,142,-1,141,142,143,-1,143,142,144,-1,143,144,145,-1,145,144,146,-1,145,146,147,-1,147,146,148,-1,147,148,149,-1,149,148,150,-1,149,150,151,-1,152,151,153,-1,153,151,150,-1,154,152,155,-1,155,152,153,-1,156,154,157,-1,157,154,155,-1,158,156,159,-1,159,156,157,-1,128,158,129,-1,129,158,159,-1,152,154,151,-1,151,154,156,-1,151,156,158,-1,158,128,151,-1,151,128,131,-1,151,131,133,-1,133,135,151,-1,151,135,137,-1,151,137,139,-1,143,145,141,-1,141,145,147,-1,141,147,139,-1,139,147,149,-1,139,149,151,-1,155,153,157,-1,157,153,150,-1,148,146,138,-1,134,132,150,-1,159,157,129,-1,129,157,150,-1,129,150,130,-1,130,150,132,-1,138,146,140,-1,140,146,144,-1,140,144,142,-1,148,138,150,-1,150,138,136,-1,150,136,134,-1,160,161,162,-1,160,162,163,-1,163,162,164,-1,163,164,165,-1,165,164,166,-1,165,166,167,-1,167,166,168,-1,167,168,169,-1,169,168,170,-1,169,170,171,-1,171,170,172,-1,171,172,173,-1,173,172,174,-1,173,174,175,-1,175,174,176,-1,175,176,177,-1,177,176,178,-1,177,178,179,-1,179,178,180,-1,179,180,181,-1,181,180,182,-1,181,182,183,-1,184,183,185,-1,185,183,182,-1,186,184,187,-1,187,184,185,-1,188,186,189,-1,189,186,187,-1,190,188,191,-1,191,188,189,-1,160,190,161,-1,161,190,191,-1,184,186,183,-1,183,186,188,-1,183,188,190,-1,190,160,183,-1,183,160,163,-1,183,163,165,-1,165,167,183,-1,183,167,169,-1,183,169,171,-1,175,177,173,-1,173,177,179,-1,173,179,171,-1,171,179,181,-1,171,181,183,-1,187,185,189,-1,189,185,182,-1,180,178,170,-1,166,164,182,-1,191,189,161,-1,161,189,182,-1,161,182,162,-1,162,182,164,-1,170,178,172,-1,172,178,176,-1,172,176,174,-1,180,170,182,-1,182,170,168,-1,182,168,166,-1,192,193,194,-1,192,194,195,-1,195,194,196,-1,195,196,197,-1,197,196,198,-1,197,198,199,-1,199,198,200,-1,199,200,201,-1,201,200,202,-1,201,202,203,-1,203,202,204,-1,203,204,205,-1,205,204,206,-1,205,206,207,-1,207,206,208,-1,207,208,209,-1,209,208,210,-1,209,210,211,-1,211,210,212,-1,211,212,213,-1,213,212,214,-1,213,214,215,-1,216,215,217,-1,217,215,214,-1,218,216,219,-1,219,216,217,-1,220,218,221,-1,221,218,219,-1,222,220,223,-1,223,220,221,-1,192,222,193,-1,193,222,223,-1,216,218,215,-1,215,218,220,-1,215,220,222,-1,222,192,215,-1,215,192,195,-1,215,195,197,-1,197,199,215,-1,215,199,201,-1,215,201,203,-1,207,209,205,-1,205,209,211,-1,205,211,203,-1,203,211,213,-1,203,213,215,-1,219,217,221,-1,221,217,214,-1,212,210,202,-1,198,196,214,-1,223,221,193,-1,193,221,214,-1,193,214,194,-1,194,214,196,-1,202,210,204,-1,204,210,208,-1,204,208,206,-1,212,202,214,-1,214,202,200,-1,214,200,198,-1,
        ]
    }
}
Shape{
    appearance Appearance {
        material  Material 	{
            diffuseColor 0.8313725490196079 0.8313725490196079 0.8196078431372549
            specularColor 0.6666666666666666 0.6666666666666666 0.6549019607843137
            ambientIntensity 0.83
            transparency 0.0
            shininess 0.5
        }
    }
    geometry IndexedFaceSet {
        ccw TRUE
        solid FALSE
        coord DEF co Coordinate {
            point [
                1.2244 -0.9547 0.0591, 1.2244 -0.9547 0.0118, 1.2285 -0.9542 0.0118, 1.2285 -0.9542 0.0591, 1.2323 -0.9526 0.0118, 1.2323 -0.9526 0.0591, 1.2355 -0.9501 0.0118, 1.2355 -0.9501 0.0591, 1.238 -0.9469 0.0118, 1.238 -0.9469 0.0591, 1.2396 -0.9431 0.0118, 1.2396 -0.9431 0.0591, 1.2401 -0.939 0.0118, 1.2401 -0.939 0.0591, 1.2401 -0.3406 0.0118, 1.2401 -0.3406 0.0591, 1.2396 -0.3365 0.0118, 1.2396 -0.3365 0.0591, 1.238 -0.3327 0.0118, 1.238 -0.3327 0.0591, 1.2355 -0.3294 0.0118, 1.2355 -0.3294 0.0591, 1.2323 -0.3269 0.0118, 1.2323 -0.3269 0.0591, 1.2285 -0.3254 0.0118, 1.2285 -0.3254 0.0591, 1.2244 -0.3248 0.0118, 1.2244 -0.3248 0.0591, 1.0984 -0.3248 0.0118, 1.0984 -0.3248 0.0591, 1.0943 -0.3254 0.0118, 1.0943 -0.3254 0.0591, 1.0905 -0.3269 0.0118, 1.0905 -0.3269 0.0591, 1.0873 -0.3294 0.0118, 1.0873 -0.3294 0.0591, 1.0848 -0.3327 0.0118, 1.0848 -0.3327 0.0591, 1.0832 -0.3365 0.0118, 1.0832 -0.3365 0.0591, 1.0827 -0.3406 0.0118, 1.0827 -0.3406 0.0591, 1.0827 -0.624 0.0118, 1.0827 -0.624 0.0591, 1.0821 -0.6281 0.0591, 1.0821 -0.6281 0.0118, 1.0806 -0.6319 0.0591, 1.0806 -0.6319 0.0118, 1.0781 -0.6352 0.0591, 1.0781 -0.6352 0.0118, 1.0748 -0.6377 0.0591, 1.0748 -0.6377 0.0118, 1.071 -0.6392 0.0591, 1.071 -0.6392 0.0118, 1.0669 -0.6398 0.0591, 1.0669 -0.6398 0.0118, 0.9646 -0.6398 0.0591, 0.8858 -0.6398 0.7047, 0.9646 -0.6398 0.7047, 0.8858 -0.6398 0.0512, 0.8872 -0.6398 0.041, 0.9252 -0.6398 0.0118, 0.915 -0.6398 0.0132, 0.9055 -0.6398 0.0171, 0.8973 -0.6398 0.0233, 0.8911 -0.6398 0.0315, 0.8858 -1.3878 0.0591, 0.8858 -1.3878 0.7047, 0.8858 -0.9547 0.0591, 0.8858 -0.9547 0.0512, 0.9252 -0.9547 0.0118, 0.9646 -0.9547 0.0591, 0.915 -0.9547 0.0132, 0.8872 -0.9547 0.041, 0.8911 -0.9547 0.0315, 0.8973 -0.9547 0.0233, 0.9055 -0.9547 0.0171, 0.9646 -1.3878 0.0591, 0.9646 -1.3878 0.7047
            ]
        }
        coordIndex [
            0,1,2,-1,0,2,3,-1,3,2,4,-1,3,4,5,-1,5,4,6,-1,5,6,7,-1,7,6,8,-1,7,8,9,-1,9,8,10,-1,9,10,11,-1,11,10,12,-1,11,12,13,-1,14,15,12,-1,12,15,13,-1,15,14,16,-1,15,16,17,-1,17,16,18,-1,17,18,19,-1,19,18,20,-1,19,20,21,-1,21,20,22,-1,21,22,23,-1,23,22,24,-1,23,24,25,-1,25,24,26,-1,25,26,27,-1,28,29,26,-1,26,29,27,-1,29,28,30,-1,29,30,31,-1,31,30,32,-1,31,32,33,-1,33,32,34,-1,33,34,35,-1,35,34,36,-1,35,36,37,-1,37,36,38,-1,37,38,39,-1,39,38,40,-1,39,40,41,-1,42,43,40,-1,40,43,41,-1,43,42,44,-1,44,42,45,-1,44,45,46,-1,46,45,47,-1,46,47,48,-1,48,47,49,-1,48,49,50,-1,50,49,51,-1,50,51,52,-1,52,51,53,-1,52,53,54,-1,54,53,55,-1,56,54,55,-1,57,58,59,-1,59,58,56,-1,59,56,60,-1,55,61,56,-1,56,61,62,-1,56,62,63,-1,63,64,56,-1,56,64,65,-1,56,65,60,-1,66,67,68,-1,68,67,57,-1,68,57,69,-1,69,57,59,-1,1,0,70,-1,70,0,71,-1,70,71,72,-1,68,69,71,-1,71,69,73,-1,71,73,74,-1,74,75,71,-1,71,75,76,-1,71,76,72,-1,1,70,61,-1,14,12,42,-1,42,12,45,-1,51,49,12,-1,12,49,47,-1,12,47,45,-1,12,10,51,-1,51,10,8,-1,51,8,6,-1,61,55,1,-1,1,55,53,-1,1,53,2,-1,2,53,51,-1,2,51,4,-1,4,51,6,-1,24,22,14,-1,42,40,28,-1,28,40,38,-1,28,38,36,-1,36,34,28,-1,28,34,32,-1,28,32,30,-1,42,28,14,-1,14,28,26,-1,14,26,24,-1,22,20,14,-1,14,20,18,-1,14,18,16,-1,54,56,71,-1,44,46,13,-1,44,13,43,-1,41,43,29,-1,54,71,52,-1,52,71,0,-1,52,0,3,-1,46,48,13,-1,13,48,50,-1,13,50,11,-1,11,50,52,-1,11,52,9,-1,17,19,27,-1,29,43,27,-1,43,13,27,-1,27,13,15,-1,27,15,17,-1,19,21,27,-1,27,21,23,-1,27,23,25,-1,3,5,52,-1,52,5,7,-1,52,7,9,-1,35,29,33,-1,33,29,31,-1,35,37,29,-1,29,37,39,-1,29,39,41,-1,66,68,77,-1,77,68,71,-1,56,58,71,-1,71,58,78,-1,71,78,77,-1,57,67,58,-1,58,67,78,-1,66,77,67,-1,67,77,78,-1,61,70,72,-1,61,72,62,-1,62,72,76,-1,62,76,63,-1,63,76,75,-1,63,75,64,-1,64,75,74,-1,64,74,65,-1,65,74,73,-1,65,73,60,-1,60,73,69,-1,60,69,59,-1,
        ]
    }
}
Shape{
    appearance Appearance {
        material  Material 	{
            diffuseColor 0.8313725490196079 0.6705882352941176 0.12941176470588237
            specularColor 0.6666666666666666 0.5372549019607843 0.10196078431372549
            ambientIntensity 0.657
            transparency 0.0
            shininess 0.5
        }
    }
    geometry IndexedFaceSet {
        ccw TRUE
        solid FALSE
        coord DEF co Coordinate {
            point [
                0.2657 -1.2475 0.6496, 0.3248 -1.2475 0.6496, 0.3248 -1.2556 0.6548, 0.2657 -1.2556 0.6548, 0.3248 -1.2621 0.6618, 0.2657 -1.2621 0.6618, 0.3248 -1.2668 0.6702, 0.2657 -1.2668 0.6702, 0.3248 -1.2693 0.6795, 0.2657 -1.2693 0.6795, 0.3248 -1.2695 0.6891, 0.2657 -1.2695 0.6891, 0.3248 -1.2673 0.6985, 0.2657 -1.2673 0.6985, 0.3248 -1.263 0.707, 0.2657 -1.263 0.707, 0.3248 -1.2567 0.7143, 0.2657 -1.2567 0.7143, 0.3248 -1.2488 0.7198, 0.2657 -1.2488 0.7198, 0.3248 -1.2399 0.7232, 0.2657 -1.2399 0.7232, 0.3248 -1.2303 0.7244, 0.2657 -1.2303 0.7244, 0.2657 0.3445 0.7244, 0.3248 0.3445 0.7244, 0.2657 0.3445 0.6457, 0.3248 0.3445 0.6457, 0.2657 -1.1122 0.6457, 0.3248 -1.1122 0.6457, 0.2657 -1.14 0.5975, 0.3248 -1.14 0.5975, 0.4626 -1.2475 0.6496, 0.5216 -1.2475 0.6496, 0.5216 -1.2556 0.6548, 0.4626 -1.2556 0.6548, 0.5216 -1.2621 0.6618, 0.4626 -1.2621 0.6618, 0.5216 -1.2668 0.6702, 0.4626 -1.2668 0.6702, 0.5216 -1.2693 0.6795, 0.4626 -1.2693 0.6795, 0.5216 -1.2695 0.6891, 0.4626 -1.2695 0.6891, 0.5216 -1.2673 0.6985, 0.4626 -1.2673 0.6985, 0.5216 -1.263 0.707, 0.4626 -1.263 0.707, 0.5216 -1.2567 0.7143, 0.4626 -1.2567 0.7143, 0.5216 -1.2488 0.7198, 0.4626 -1.2488 0.7198, 0.5216 -1.2399 0.7232, 0.4626 -1.2399 0.7232, 0.5216 -1.2303 0.7244, 0.4626 -1.2303 0.7244, 0.4626 0.3445 0.7244, 0.5216 0.3445 0.7244, 0.4626 0.3445 0.6457, 0.5216 0.3445 0.6457, 0.4626 -1.1122 0.6457, 0.5216 -1.1122 0.6457, 0.4626 -1.14 0.5975, 0.5216 -1.14 0.5975
            ]
        }
        coordIndex [
            0,1,2,-1,0,2,3,-1,3,2,4,-1,3,4,5,-1,5,4,6,-1,5,6,7,-1,7,6,8,-1,7,8,9,-1,9,8,10,-1,9,10,11,-1,11,10,12,-1,11,12,13,-1,13,12,14,-1,13,14,15,-1,15,14,16,-1,15,16,17,-1,17,16,18,-1,17,18,19,-1,19,18,20,-1,19,20,21,-1,21,20,22,-1,21,22,23,-1,24,23,25,-1,25,23,22,-1,26,24,27,-1,27,24,25,-1,28,26,29,-1,29,26,27,-1,30,28,31,-1,31,28,29,-1,0,30,1,-1,1,30,31,-1,24,26,23,-1,23,26,28,-1,23,28,30,-1,30,0,23,-1,23,0,3,-1,23,3,5,-1,5,7,23,-1,23,7,9,-1,23,9,11,-1,15,17,13,-1,13,17,19,-1,13,19,11,-1,11,19,21,-1,11,21,23,-1,27,25,29,-1,29,25,22,-1,20,18,10,-1,6,4,22,-1,31,29,1,-1,1,29,22,-1,1,22,2,-1,2,22,4,-1,10,18,12,-1,12,18,16,-1,12,16,14,-1,20,10,22,-1,22,10,8,-1,22,8,6,-1,32,33,34,-1,32,34,35,-1,35,34,36,-1,35,36,37,-1,37,36,38,-1,37,38,39,-1,39,38,40,-1,39,40,41,-1,41,40,42,-1,41,42,43,-1,43,42,44,-1,43,44,45,-1,45,44,46,-1,45,46,47,-1,47,46,48,-1,47,48,49,-1,49,48,50,-1,49,50,51,-1,51,50,52,-1,51,52,53,-1,53,52,54,-1,53,54,55,-1,56,55,57,-1,57,55,54,-1,58,56,59,-1,59,56,57,-1,60,58,61,-1,61,58,59,-1,62,60,63,-1,63,60,61,-1,32,62,33,-1,33,62,63,-1,56,58,55,-1,55,58,60,-1,55,60,62,-1,62,32,55,-1,55,32,35,-1,55,35,37,-1,37,39,55,-1,55,39,41,-1,55,41,43,-1,47,49,45,-1,45,49,51,-1,45,51,43,-1,43,51,53,-1,43,53,55,-1,59,57,61,-1,61,57,54,-1,52,50,42,-1,38,36,54,-1,63,61,33,-1,33,61,54,-1,33,54,34,-1,34,54,36,-1,42,50,44,-1,44,50,48,-1,44,48,46,-1,52,42,54,-1,54,42,40,-1,54,40,38,-1,
        ]
    }
}
Shape{
    appearance Appearance {
        material  Material 	{
            diffuseColor 0.8313725490196079 0.8313725490196079 0.8196078431372549
            specularColor 0.6666666666666666 0.6666666666666666 0.6549019607843137
            ambientIntensity 0.83
            transparency 0.0
            shininess 0.5
        }
    }
    geometry IndexedFaceSet {
        ccw TRUE
        solid FALSE
        coord DEF co Coordinate {
            point [
                -1.2402 -0.939 0.0591, -1.2402 -0.939 0.0118, -1.2396 -0.9431 0.0118, -1.2396 -0.9431 0.0591, -1.2381 -0.9469 0.0118, -1.2381 -0.9469 0.0591, -1.2356 -0.9501 0.0118, -1.2356 -0.9501 0.0591, -1.2323 -0.9526 0.0118, -1.2323 -0.9526 0.0591, -1.2285 -0.9542 0.0118, -1.2285 -0.9542 0.0591, -1.2244 -0.9547 0.0118, -1.2244 -0.9547 0.0591, -1.2402 -0.3406 0.0591, -1.2402 -0.3406 0.0118, -1.2244 -0.3248 0.0591, -1.2244 -0.3248 0.0118, -1.2285 -0.3254 0.0118, -1.2285 -0.3254 0.0591, -1.2323 -0.3269 0.0118, -1.2323 -0.3269 0.0591, -1.2356 -0.3294 0.0118, -1.2356 -0.3294 0.0591, -1.2381 -0.3327 0.0118, -1.2381 -0.3327 0.0591, -1.2396 -0.3365 0.0118, -1.2396 -0.3365 0.0591, -1.0984 -0.3248 0.0591, -1.0984 -0.3248 0.0118, -1.0827 -0.3406 0.0591, -1.0827 -0.3406 0.0118, -1.0832 -0.3365 0.0118, -1.0832 -0.3365 0.0591, -1.0848 -0.3327 0.0118, -1.0848 -0.3327 0.0591, -1.0873 -0.3294 0.0118, -1.0873 -0.3294 0.0591, -1.0906 -0.3269 0.0118, -1.0906 -0.3269 0.0591, -1.0944 -0.3254 0.0118, -1.0944 -0.3254 0.0591, -1.0827 -0.624 0.0591, -1.0827 -0.624 0.0118, -1.0669 -0.6398 0.0591, -1.0669 -0.6398 0.0118, -1.071 -0.6392 0.0591, -1.071 -0.6392 0.0118, -1.0748 -0.6377 0.0591, -1.0748 -0.6377 0.0118, -1.0781 -0.6352 0.0591, -1.0781 -0.6352 0.0118, -1.0806 -0.6319 0.0591, -1.0806 -0.6319 0.0118, -1.0822 -0.6281 0.0591, -1.0822 -0.6281 0.0118, -0.9646 -0.6398 0.0591, -0.9646 -0.6398 0.7047, -0.8858 -0.6398 0.7047, -0.9252 -0.6398 0.0118, -0.915 -0.6398 0.0132, -0.8858 -0.6398 0.0512, -0.8872 -0.6398 0.041, -0.8911 -0.6398 0.0315, -0.8974 -0.6398 0.0233, -0.9055 -0.6398 0.0171, -0.8858 -0.9547 0.0512, -0.8858 -0.9547 0.0591, -0.8858 -1.3878 0.0591, -0.8858 -1.3878 0.7047, -0.9646 -0.9547 0.0591, -0.8872 -0.9547 0.041, -0.9252 -0.9547 0.0118, -0.915 -0.9547 0.0132, -0.9055 -0.9547 0.0171, -0.8974 -0.9547 0.0233, -0.8911 -0.9547 0.0315, -0.9646 -1.3878 0.0591, -0.9646 -1.3878 0.7047
            ]
        }
        coordIndex [
            0,1,2,-1,0,2,3,-1,3,2,4,-1,3,4,5,-1,5,4,6,-1,5,6,7,-1,7,6,8,-1,7,8,9,-1,9,8,10,-1,9,10,11,-1,11,10,12,-1,11,12,13,-1,14,15,0,-1,0,15,1,-1,16,17,18,-1,16,18,19,-1,19,18,20,-1,19,20,21,-1,21,20,22,-1,21,22,23,-1,23,22,24,-1,23,24,25,-1,25,24,26,-1,25,26,27,-1,27,26,15,-1,27,15,14,-1,28,29,16,-1,16,29,17,-1,30,31,32,-1,30,32,33,-1,33,32,34,-1,33,34,35,-1,35,34,36,-1,35,36,37,-1,37,36,38,-1,37,38,39,-1,39,38,40,-1,39,40,41,-1,41,40,29,-1,41,29,28,-1,42,43,30,-1,30,43,31,-1,44,45,46,-1,46,45,47,-1,46,47,48,-1,48,47,49,-1,48,49,50,-1,50,49,51,-1,50,51,52,-1,52,51,53,-1,52,53,54,-1,54,53,55,-1,54,55,42,-1,42,55,43,-1,56,57,58,-1,45,44,59,-1,59,44,56,-1,59,56,60,-1,58,61,56,-1,56,61,62,-1,56,62,63,-1,63,64,56,-1,56,64,65,-1,56,65,60,-1,66,61,67,-1,67,61,58,-1,67,58,68,-1,68,58,69,-1,70,13,12,-1,66,67,70,-1,66,70,71,-1,12,72,70,-1,70,72,73,-1,70,73,74,-1,74,75,70,-1,70,75,76,-1,70,76,71,-1,55,53,1,-1,55,1,43,-1,31,43,29,-1,53,51,1,-1,1,51,49,-1,1,49,2,-1,2,49,47,-1,26,24,17,-1,29,43,17,-1,43,1,17,-1,17,1,15,-1,17,15,26,-1,8,6,47,-1,47,6,4,-1,47,4,2,-1,24,22,17,-1,17,22,20,-1,17,20,18,-1,59,72,45,-1,45,72,12,-1,45,12,47,-1,47,12,10,-1,47,10,8,-1,36,29,38,-1,38,29,40,-1,36,34,29,-1,29,34,32,-1,29,32,31,-1,14,0,42,-1,42,0,54,-1,48,50,0,-1,0,50,52,-1,0,52,54,-1,0,3,48,-1,48,3,5,-1,48,5,7,-1,7,9,48,-1,48,9,11,-1,48,11,46,-1,46,11,13,-1,46,13,44,-1,44,13,70,-1,44,70,56,-1,19,21,14,-1,42,30,28,-1,28,30,33,-1,28,33,35,-1,35,37,28,-1,28,37,39,-1,28,39,41,-1,42,28,14,-1,14,28,16,-1,14,16,19,-1,21,23,14,-1,14,23,25,-1,14,25,27,-1,67,68,70,-1,70,68,77,-1,77,78,70,-1,70,78,57,-1,70,57,56,-1,69,58,78,-1,78,58,57,-1,77,68,78,-1,78,68,69,-1,61,66,71,-1,61,71,62,-1,62,71,76,-1,62,76,63,-1,63,76,75,-1,63,75,64,-1,64,75,74,-1,64,74,65,-1,65,74,73,-1,65,73,60,-1,60,73,72,-1,60,72,59,-1,
        ]
    }
}
Shape{
    appearance Appearance {
        material  Material 	{
            diffuseColor 0.20784313725490197 0.20784313725490197 0.20784313725490197
            specularColor 0.01568627450980392 0.01568627450980392 0.01568627450980392
            ambientIntensity 0.298
            transparency 0.0
            shininess 0.5
        }
    }
    geometry IndexedFaceSet {
        ccw TRUE
        solid FALSE
        coord DEF co Coordinate {
            point [
                -1.0236 -0.0492 0.7874, -0.748 -0.0492 0.7874, -1.0236 0.6201 0.7874, -0.748 0.246 0.7874, -1.0196 0.6506 0.7874, 0.748 -0.0492 0.7874, 1.0236 -0.0492 0.7874, 0.748 0.246 0.7874, 1.0236 0.6201 0.7874, 1.0196 0.6506 0.7874, -0.9361 0.7341 0.7874, -0.9646 0.7223 0.7874, -0.989 0.7036 0.7874, -1.0078 0.6791 0.7874, 1.0078 0.6791 0.7874, 0.989 0.7036 0.7874, 0.9646 0.7223 0.7874, 0.9361 0.7341 0.7874, 0.9055 0.7382 0.7874, -0.9055 0.7382 0.7874, -0.748 -0.0886 0.315, -1.0236 -0.0886 0.315, -0.748 0.1673 0.315, -1.0236 0.4232 0.315, 0.748 0.1673 0.315, 1.0236 0.4232 0.315, 0.748 -0.0886 0.315, 1.0236 -0.0886 0.315, -1.0236 -0.1673 0.4567, -0.748 -0.1673 0.4567, 0.748 -0.1673 0.4567, 1.0236 -0.1673 0.4567, -1.0236 -0.0798 0.7834, -1.0236 -0.1673 0.6693, -1.0236 0.6201 0.5733, -1.0236 -0.1515 0.7283, -1.0236 -0.1327 0.7528, -1.0236 -0.1083 0.7716, -1.0236 -0.1633 0.6999, 1.0236 0.6201 0.5733, 1.0236 -0.1673 0.6693, 1.0236 -0.1083 0.7716, 1.0236 -0.1327 0.7528, 1.0236 -0.1515 0.7283, 1.0236 -0.0798 0.7834, 1.0236 -0.1633 0.6999, 0.9055 0.7382 0.7283, -0.9055 0.7382 0.7283, -1.0226 0.6355 0.5936, 1.0226 0.6355 0.5936, 1.0196 0.6506 0.6134, -1.0196 0.6506 0.6134, -1.0146 0.6653 0.6327, 1.0146 0.6653 0.6327, -1.0078 0.6791 0.6508, 1.0078 0.6791 0.6508, 0.9992 0.692 0.6677, -0.9992 0.692 0.6677, -0.989 0.7036 0.6829, -0.9774 0.7138 0.6963, -0.9646 0.7223 0.7076, 0.9646 0.7223 0.7076, 0.9774 0.7138 0.6963, 0.989 0.7036 0.6829, -0.9507 0.7292 0.7165, -0.9361 0.7341 0.7231, -0.9209 0.7372 0.727, 0.9209 0.7372 0.727, 0.9361 0.7341 0.7231, 0.9507 0.7292 0.7165, 0.748 -0.1673 0.6693, -0.748 -0.1673 0.6693, -0.748 0.1673 0.7087, -0.748 -0.0798 0.7834, -0.748 -0.1083 0.7716, -0.748 -0.1327 0.7528, -0.748 -0.1515 0.7283, -0.748 -0.1633 0.6999, 0.748 0.1673 0.7087, 0.748 -0.0798 0.7834, 0.748 -0.1633 0.6999, 0.748 -0.1515 0.7283, 0.748 -0.1327 0.7528, 0.748 -0.1083 0.7716
            ]
        }
        coordIndex [
            0,1,2,-1,2,1,3,-1,2,3,4,-1,5,6,7,-1,7,6,8,-1,7,8,9,-1,10,11,3,-1,11,12,3,-1,3,12,13,-1,3,13,4,-1,9,14,7,-1,7,14,15,-1,7,15,16,-1,16,17,7,-1,7,17,18,-1,7,18,3,-1,3,18,19,-1,3,19,10,-1,20,21,22,-1,22,21,23,-1,22,23,24,-1,24,23,25,-1,24,25,26,-1,26,25,27,-1,28,21,29,-1,29,21,20,-1,30,26,31,-1,31,26,27,-1,32,0,33,-1,0,2,34,-1,33,0,28,-1,35,36,37,-1,28,0,21,-1,21,0,34,-1,21,34,23,-1,32,33,37,-1,37,33,38,-1,37,38,35,-1,39,8,6,-1,39,6,25,-1,25,6,27,-1,27,6,40,-1,27,40,31,-1,41,42,43,-1,6,44,40,-1,40,44,41,-1,40,41,45,-1,45,41,43,-1,46,47,18,-1,18,47,19,-1,39,25,23,-1,23,34,39,-1,39,34,48,-1,39,48,49,-1,49,48,50,-1,48,51,50,-1,50,51,52,-1,50,52,53,-1,53,52,54,-1,53,54,55,-1,55,54,56,-1,54,57,56,-1,56,57,47,-1,56,47,46,-1,57,58,47,-1,47,58,59,-1,47,59,60,-1,61,62,46,-1,46,62,63,-1,46,63,56,-1,60,64,47,-1,47,64,65,-1,47,65,66,-1,67,68,46,-1,46,68,69,-1,46,69,61,-1,70,30,40,-1,40,30,31,-1,33,28,71,-1,71,28,29,-1,3,1,72,-1,72,1,73,-1,20,22,29,-1,29,22,72,-1,73,74,72,-1,72,74,75,-1,72,75,76,-1,76,77,72,-1,72,77,71,-1,72,71,29,-1,72,22,78,-1,78,22,24,-1,79,5,78,-1,78,5,7,-1,26,30,24,-1,24,30,78,-1,30,70,78,-1,78,70,80,-1,78,80,81,-1,81,82,78,-1,78,82,83,-1,78,83,79,-1,78,7,72,-1,72,7,3,-1,33,71,77,-1,33,77,38,-1,38,77,76,-1,38,76,35,-1,35,76,75,-1,35,75,36,-1,36,75,74,-1,36,74,37,-1,37,74,73,-1,37,73,32,-1,32,73,1,-1,32,1,0,-1,70,40,45,-1,70,45,80,-1,80,45,43,-1,80,43,81,-1,81,43,42,-1,81,42,82,-1,82,42,41,-1,82,41,83,-1,83,41,44,-1,83,44,79,-1,79,44,6,-1,79,6,5,-1,46,18,67,-1,67,18,17,-1,67,17,68,-1,68,17,69,-1,69,17,16,-1,69,16,61,-1,61,16,62,-1,62,16,15,-1,62,15,63,-1,63,15,56,-1,56,15,14,-1,56,14,55,-1,55,14,53,-1,53,14,9,-1,53,9,50,-1,50,9,49,-1,49,9,8,-1,49,8,39,-1,4,13,54,-1,54,52,4,-1,4,52,51,-1,4,51,2,-1,2,51,48,-1,2,48,34,-1,12,11,60,-1,60,59,12,-1,12,59,58,-1,12,58,13,-1,13,58,57,-1,13,57,54,-1,10,19,47,-1,47,66,10,-1,10,66,65,-1,10,65,11,-1,11,65,64,-1,11,64,60,-1,
        ]
    }
}
Shape{
    appearance Appearance {
        material  Material 	{
            diffuseColor 0.8431372549019608 0.8156862745098039 0.7529411764705882
            specularColor 0.25098039215686274 0.24313725490196078 0.22745098039215686
            ambientIntensity 0.8167
            transparency 0.0
            shininess 0.5
        }
    }
    geometry IndexedFaceSet {
        ccw TRUE
        solid FALSE
        coord DEF co Coordinate {
            point [
                1.0433 0.5413 0.6299, 1.0433 0.5413 0.7874, 1.2008 0.5413 0.6299, 1.2795 0.5413 0.7874, 1.2008 0.5413 0.1575, 1.2795 0.5413 0.0591, 1.0236 0.5413 0.1575, 1.0236 0.5413 0.0591, -1.0236 0.5413 0.1575, -1.0236 0.5413 0.0591, -1.2008 0.5413 0.1575, -1.2795 0.5413 0.0591, -1.2008 0.5413 0.6299, -1.2795 0.5413 0.7874, -1.0433 0.5413 0.6299, -1.0433 0.5413 0.7874, 0.7874 -0.6004 0.6496, 0.7874 -0.2067 0.6496, 0.7874 -0.6004 0.6299, 0.7874 -0.2067 0.6299, -0.7874 -0.6004 0.6299, -0.7874 -0.2067 0.6299, -0.7874 -0.6004 0.6496, -0.7874 -0.2067 0.6496, 0.2429 -0.0904 0.0, 0.2217 -0.0904 0.0, 0.0819 -0.0895 0.0, 0.0841 -0.0897 0.0, 0.0662 -0.0895 0.0, 0.0612 -0.0901 0.0, 0.0053 -0.0904 0.0, 0.0522 -0.0937 0.0, 0.044 -0.0996 0.0, 0.0363 -0.1084 0.0, 0.031 -0.119 0.0, 0.0278 -0.1338 0.0, 0.0274 -0.1466 0.0, 0.0053 -0.2479 0.0, 0.0998 -0.1275 0.0, 0.1037 -0.1434 0.0, 0.0476 -0.1853 0.0, 0.1056 -0.1724 0.0, 0.0484 -0.2002 0.0, 0.1033 -0.2014 0.0, 0.1471 -0.2479 0.0, 0.2429 -0.2479 0.0, 0.689 -1.3878 0.0, 0.689 -0.0895 0.0, 0.0579 -0.2247 0.0, 0.0999 -0.2133 0.0, 0.2217 -0.2304 0.0, 0.1471 -0.2304 0.0, 0.1057 -0.2381 0.0, 0.114 -0.2295 0.0, 0.1199 -0.2194 0.0, 0.1252 -0.2024 0.0, 0.0541 -0.2201 0.0, 0.0511 -0.2136 0.0, 0.1116 -0.1084 0.0, 0.1028 -0.0991 0.0, 0.0938 -0.0931 0.0, 0.1277 -0.1742 0.0, 0.1253 -0.1432 0.0, 0.1195 -0.1224 0.0, 0.0799 -0.2317 0.0, 0.0743 -0.2322 0.0, -0.0993 -0.0895 0.0, -0.0841 -0.0904 0.0, -0.0841 -0.1079 0.0, -0.0887 -0.2304 0.0, -0.0887 -0.2479 0.0, -0.0993 -1.3878 0.0, -0.0159 -0.1742 0.0, -0.0159 -0.2304 0.0, -0.0785 -0.1742 0.0, -0.0785 -0.1567 0.0, -0.0159 -0.1567 0.0, -0.0159 -0.1079 0.0, 0.0851 -0.2299 0.0, 0.0958 -0.2205 0.0, 0.0901 -0.2267 0.0, 0.0488 -0.1312 0.0, 0.0515 -0.1213 0.0, 0.0721 -0.1061 0.0, 0.0541 -0.1162 0.0, 0.066 -0.1071 0.0, 0.0573 -0.1121 0.0, 0.0614 -0.109 0.0, 0.0801 -0.107 0.0, 0.0854 -0.1091 0.0, 0.0476 -0.1466 0.0, 0.0903 -0.1127 0.0, 0.095 -0.1183 0.0, 0.0686 -0.2314 0.0, 0.0635 -0.2292 0.0, 0.0734 -0.1061 0.0, 0.0264 -0.1853 0.0, 0.0285 -0.2066 0.0, 0.0327 -0.2213 0.0, 0.0379 -0.231 0.0, 0.046 -0.2396 0.0, 0.0555 -0.2457 0.0, 0.0648 -0.2488 0.0, 0.0743 -0.2497 0.0, 0.0865 -0.2483 0.0, 0.0967 -0.2443 0.0, 0.689 0.4232 0.0, -0.0993 0.4232 0.0, 0.0734 -0.0886 0.0, -0.183 -0.1014 0.0, -0.1911 -0.1085 0.0, -0.2661 -0.0895 0.0, -0.1978 -0.1184 0.0, -0.2038 -0.1346 0.0, -0.3088 -0.2479 0.0, -0.3309 -0.2479 0.0, -0.689 -1.3878 0.0, -0.689 -0.0895 0.0, -0.202 -0.2088 0.0, -0.1964 -0.2212 0.0, -0.2204 -0.2479 0.0, -0.2959 -0.1991 0.0, -0.2554 -0.1991 0.0, -0.2425 -0.2479 0.0, -0.1412 -0.0904 0.0, -0.1584 -0.0918 0.0, -0.1724 -0.0957 0.0, -0.1099 -0.0904 0.0, -0.1099 -0.2479 0.0, -0.1412 -0.2479 0.0, -0.1509 -0.2474 0.0, -0.1682 -0.2435 0.0, -0.1898 -0.2297 0.0, -0.1806 -0.2372 0.0, -0.2074 -0.1653 0.0, -0.2075 -0.1696 0.0, -0.2059 -0.1922 0.0, -0.2664 -0.0886 0.0, -0.689 0.4232 0.0, -0.2848 -0.0886 0.0, -0.2851 -0.0895 0.0, 1.0433 -0.1673 0.6299, 0.8819 -0.9941 0.6299, 0.7874 -0.9941 0.6299, 0.8819 -0.6398 0.6299, 1.2008 -0.9941 0.6299, 0.9685 -0.9941 0.6299, 0.9685 -0.6398 0.6299, 1.0039 -0.2067 0.6299, 1.0141 -0.2054 0.6299, 1.0236 -0.2014 0.6299, 1.042 -0.1775 0.6299, 1.0318 -0.1952 0.6299, 1.038 -0.187 0.6299, 0.7087 -0.6004 0.6496, 0.7087 -1.3222 0.6496, 0.689 -1.3091 0.6496, 0.6398 -0.2067 0.6496, 0.5413 -1.3091 0.6496, 0.5413 0.1476 0.6496, 0.6398 0.1476 0.6496, -0.6398 -0.2067 0.7283, -0.7677 -0.2067 0.7283, -0.7575 -0.2054 0.7283, -0.748 -0.2014 0.7283, -0.7399 -0.1952 0.7283, -0.7336 -0.187 0.7283, -0.7297 -0.1775 0.7283, -0.7284 -0.1673 0.7283, -0.6398 0.1476 0.7283, -0.7284 0.1083 0.7283, -0.689 0.1476 0.7283, -0.7231 0.1279 0.7283, -0.7168 0.1361 0.7283, -0.7087 0.1423 0.7283, -0.727 0.1184 0.7283, -0.6992 0.1463 0.7283, 0.4429 -1.3878 0.0787, 0.4429 -1.3878 0.0906, 0.3445 -1.3878 0.0906, -0.9685 -1.3878 0.7087, -0.8819 -1.3878 0.7087, -0.8071 -1.3878 0.7874, -0.8071 -1.3878 0.0906, -1.2795 -1.3878 0.0591, -1.2008 -1.3878 0.2953, -1.2795 -1.3878 0.7874, -1.0276 -1.3878 0.2953, 0.3445 -1.3878 0.0787, 0.2461 -1.3878 0.0787, -0.689 -1.3878 0.0591, 0.5413 -1.3878 0.0787, 0.5413 -1.3878 0.0906, 0.689 -1.3878 0.0591, 0.8071 -1.3878 0.0906, 0.8819 -1.3878 0.0591, 0.8071 -1.3878 0.7874, -0.9685 -1.3878 0.0591, -1.0276 -1.3878 0.0984, -1.2008 -1.3878 0.0984, 0.0492 -1.3878 0.0787, 0.0492 -1.3878 0.0906, -0.0492 -1.3878 0.0906, 0.8819 -1.3878 0.7087, 0.9685 -1.3878 0.7087, 1.2795 -1.3878 0.7874, 1.2008 -1.3878 0.2953, 1.2795 -1.3878 0.0591, 1.2008 -1.3878 0.0984, 0.9685 -1.3878 0.0591, 1.0275 -1.3878 0.0984, 1.0275 -1.3878 0.2953, -0.0492 -1.3878 0.0787, -0.1476 -1.3878 0.0787, 0.1476 -1.3878 0.0787, 0.1476 -1.3878 0.0906, 0.2461 -1.3878 0.0906, -0.3445 -1.3878 0.0787, -0.3445 -1.3878 0.0906, -0.4429 -1.3878 0.0906, -0.4429 -1.3878 0.0787, -0.5413 -1.3878 0.0787, -0.2461 -1.3878 0.0787, -0.2461 -1.3878 0.0906, -0.1476 -1.3878 0.0906, -0.5413 -1.3878 0.0906, -0.8819 -1.3878 0.0591, 0.0492 -1.3209 0.1575, 0.0492 0.4626 0.1575, -0.0492 -1.3209 0.1575, -0.0492 0.4626 0.1575, -0.1476 -1.3209 0.1575, -0.1476 0.4626 0.1575, -0.2461 -1.3209 0.1575, -0.2461 0.4626 0.1575, -0.1476 0.4626 0.0787, -0.0492 0.4626 0.0787, -0.3445 -1.3209 0.1575, -0.3445 0.4626 0.1575, -0.4429 -1.3209 0.1575, -0.4429 0.4626 0.1575, -0.3445 0.4626 0.0787, -0.2461 0.4626 0.0787, -0.8819 -0.6398 0.1575, -0.8819 -0.9941 0.1575, -0.7874 -0.9941 0.1575, -0.7087 -0.6004 0.1575, -0.7087 -1.3209 0.1575, -0.5413 -1.3209 0.1575, -1.0276 -0.9941 0.1575, -0.9685 -0.9941 0.1575, -0.9685 -0.6398 0.1575, -1.0236 -0.0492 0.1575, -1.2008 -0.2067 0.1575, -1.0216 -0.0645 0.1575, -1.0157 -0.0788 0.1575, -0.5413 0.4626 0.1575, -0.9055 0.4626 0.1575, -0.9055 -0.0492 0.1575, -0.7874 -0.6004 0.1575, -0.9134 -0.0788 0.1575, -0.9228 -0.091 0.1575, -0.9075 -0.0645 0.1575, -0.935 -0.1004 0.1575, -1.0276 -0.2067 0.1575, -0.9493 -0.1063 0.1575, -0.9646 -0.1083 0.1575, -0.9799 -0.1063 0.1575, -0.9941 -0.1004 0.1575, -1.0063 -0.091 0.1575, -0.5413 0.4626 0.0787, -0.4429 0.4626 0.0787, -0.689 0.4626 0.0591, -0.689 0.4626 0.0079, -0.689 0.4232 0.0079, -0.8819 -0.6398 0.0591, -0.9685 -0.6398 0.0591, -1.0063 -0.091 0.0591, -0.9941 -0.1004 0.0591, -1.0236 -0.0492 0.0591, -1.0216 -0.0645 0.0591, -1.0157 -0.0788 0.0591, -0.9799 -0.1063 0.0591, -0.9646 -0.1083 0.0591, -0.9493 -0.1063 0.0591, -0.935 -0.1004 0.0591, -0.9228 -0.091 0.0591, -0.9134 -0.0788 0.0591, -0.9075 -0.0645 0.0591, -0.9055 -0.0492 0.0591, -0.9055 0.4626 0.0591, 0.7874 -0.9941 0.1575, 0.8819 -0.9941 0.1575, 0.7874 -0.6004 0.1575, 0.8819 -0.6398 0.1575, 0.9798 -0.1063 0.1575, 0.9646 -0.1083 0.1575, 1.0275 -0.2067 0.1575, 0.9055 -0.0492 0.1575, 0.9055 0.4626 0.1575, 0.5413 0.4626 0.1575, 0.9493 -0.1063 0.1575, 0.935 -0.1004 0.1575, 0.9228 -0.091 0.1575, 0.9075 -0.0645 0.1575, 0.7087 -0.6004 0.1575, 0.5413 -1.3209 0.1575, 0.7087 -1.3209 0.1575, 1.2008 -0.2067 0.1575, 1.0236 -0.0492 0.1575, 1.0216 -0.0645 0.1575, 1.0157 -0.0788 0.1575, 1.0063 -0.091 0.1575, 0.9941 -0.1004 0.1575, 0.9685 -0.9941 0.1575, 1.0275 -0.9941 0.1575, 0.9685 -0.6398 0.1575, 0.9134 -0.0788 0.1575, 0.4429 -1.3209 0.1575, 0.4429 0.4626 0.1575, 0.3445 -1.3209 0.1575, 0.3445 0.4626 0.1575, 0.4429 0.4626 0.0787, 0.5413 0.4626 0.0787, 0.2461 -1.3209 0.1575, 0.2461 0.4626 0.1575, 0.1476 -1.3209 0.1575, 0.1476 0.4626 0.1575, 0.0492 0.4626 0.0787, 0.1476 0.4626 0.0787, 0.2461 0.4626 0.0787, 0.3445 0.4626 0.0787, -1.0276 -0.9941 0.2953, -1.2008 -0.9941 0.2953, -1.2008 -0.9941 0.6299, -0.9685 -0.9941 0.6299, -1.038 -0.187 0.7874, -1.0318 -0.1952 0.7874, -1.0236 -0.2014 0.7874, -0.689 -1.3091 0.7874, -1.0141 -0.2054 0.7874, -1.042 -0.1775 0.7874, -1.0433 -0.1673 0.7874, 0.689 -1.3091 0.7874, 1.0141 -0.2054 0.7874, 1.0039 -0.2067 0.7874, 1.0433 -0.1673 0.7874, 1.038 -0.187 0.7874, 1.0318 -0.1952 0.7874, 1.0236 -0.2014 0.7874, 1.042 -0.1775 0.7874, -0.7336 -0.187 0.7874, -0.7399 -0.1952 0.7874, 0.7297 -0.1775 0.7874, -0.748 -0.2014 0.7874, 0.7677 -0.2067 0.7874, 0.7575 -0.2054 0.7874, 0.748 -0.2014 0.7874, 0.7399 -0.1952 0.7874, 0.7336 -0.187 0.7874, -0.7575 -0.2054 0.7874, -0.7677 -0.2067 0.7874, -1.0039 -0.2067 0.7874, 0.7231 0.1279 0.7874, 0.7168 0.1361 0.7874, 0.7087 0.1423 0.7874, 0.6992 0.1463 0.7874, 0.689 0.1476 0.7874, 0.7283 0.1083 0.7874, -0.7284 0.1083 0.7874, 0.7283 -0.1673 0.7874, -0.7284 -0.1673 0.7874, -0.7297 -0.1775 0.7874, 0.727 0.1184 0.7874, -0.7168 0.1361 0.7874, -0.7231 0.1279 0.7874, -0.7087 0.1423 0.7874, -0.6992 0.1463 0.7874, -0.689 0.1476 0.7874, -0.727 0.1184 0.7874, -1.2008 -0.2067 0.0984, -0.8819 -0.9941 0.6299, -0.7874 -0.9941 0.6299, -0.8819 -0.6398 0.6299, -0.9685 -0.6398 0.6299, -1.0318 -0.1952 0.6299, -1.0236 -0.2014 0.6299, -1.0433 -0.1673 0.6299, -1.042 -0.1775 0.6299, -1.038 -0.187 0.6299, -1.0141 -0.2054 0.6299, -1.0039 -0.2067 0.6299, -0.9685 -0.6398 0.7087, -0.8819 -0.6398 0.7087, 1.0275 -0.9941 0.2953, 1.2008 -0.9941 0.2953, 1.2008 -0.2067 0.0984, 1.0236 -0.0492 0.0591, 0.8819 -0.6398 0.0591, 0.689 0.4626 0.0591, 0.9685 -0.6398 0.0591, 1.0216 -0.0645 0.0591, 0.9798 -0.1063 0.0591, 0.9941 -0.1004 0.0591, 0.9055 0.4626 0.0591, 0.9055 -0.0492 0.0591, 0.9075 -0.0645 0.0591, 0.9134 -0.0788 0.0591, 0.9228 -0.091 0.0591, 0.935 -0.1004 0.0591, 0.9493 -0.1063 0.0591, 0.9646 -0.1083 0.0591, 1.0063 -0.091 0.0591, 1.0157 -0.0788 0.0591, 0.9685 -0.6398 0.7087, 0.8819 -0.6398 0.7087, -0.4429 -1.3091 0.6496, -0.4429 0.1476 0.6496, -0.3445 -1.3091 0.6496, -0.3445 0.1476 0.6496, -0.5413 0.1476 0.6496, -0.5413 -1.3091 0.6496, -0.7087 -0.6004 0.6496, -0.689 -1.3091 0.6496, -0.7087 -1.3222 0.6496, -0.6398 0.1476 0.6496, -0.6398 -0.2067 0.6496, -0.5413 0.1476 0.7283, -0.4429 0.1476 0.7283, -0.5413 -1.3091 0.7283, -0.4429 -1.3091 0.7283, -0.2461 -1.3091 0.6496, -0.2461 0.1476 0.6496, -0.1476 -1.3091 0.6496, -0.1476 0.1476 0.6496, -0.3445 0.1476 0.7283, -0.2461 0.1476 0.7283, -0.3445 -1.3091 0.7283, -0.2461 -1.3091 0.7283, -0.0492 -1.3091 0.6496, -0.0492 0.1476 0.6496, 0.0492 -1.3091 0.6496, 0.0492 0.1476 0.6496, -0.1476 0.1476 0.7283, -0.0492 0.1476 0.7283, -0.1476 -1.3091 0.7283, -0.0492 -1.3091 0.7283, 0.1476 -1.3091 0.6496, 0.1476 0.1476 0.6496, 0.2461 -1.3091 0.6496, 0.2461 0.1476 0.6496, 0.0492 0.1476 0.7283, 0.1476 0.1476 0.7283, 0.0492 -1.3091 0.7283, 0.1476 -1.3091 0.7283, 0.3445 -1.3091 0.6496, 0.3445 0.1476 0.6496, 0.4429 -1.3091 0.6496, 0.4429 0.1476 0.6496, 0.2461 0.1476 0.7283, 0.3445 0.1476 0.7283, 0.2461 -1.3091 0.7283, 0.3445 -1.3091 0.7283, 0.4429 0.1476 0.7283, 0.5413 0.1476 0.7283, 0.4429 -1.3091 0.7283, 0.5413 -1.3091 0.7283, 0.7336 -0.187 0.7283, 0.7399 -0.1952 0.7283, 0.6398 -0.2067 0.7283, 0.7297 -0.1775 0.7283, 0.748 -0.2014 0.7283, 0.7575 -0.2054 0.7283, 0.7677 -0.2067 0.7283, 0.6398 0.1476 0.7283, 0.689 0.1476 0.7283, 0.7283 0.1083 0.7283, 0.7283 -0.1673 0.7283, 0.7087 0.1423 0.7283, 0.7168 0.1361 0.7283, 0.7231 0.1279 0.7283, 0.6992 0.1463 0.7283, 0.727 0.1184 0.7283, 0.689 0.4232 0.0079, 0.689 0.4626 0.0079
            ]
        }
        coordIndex [
            0,1,2,-1,2,1,3,-1,2,3,4,-1,4,3,5,-1,4,5,6,-1,6,5,7,-1,8,9,10,-1,10,9,11,-1,10,11,12,-1,12,11,13,-1,12,13,14,-1,14,13,15,-1,16,17,18,-1,18,17,19,-1,20,21,22,-1,22,21,23,-1,24,25,26,-1,26,25,27,-1,28,29,30,-1,30,29,31,-1,31,32,30,-1,30,32,33,-1,30,33,34,-1,34,35,30,-1,30,35,36,-1,30,36,37,-1,38,39,40,-1,40,39,41,-1,40,41,42,-1,42,41,43,-1,44,45,46,-1,46,45,47,-1,48,43,49,-1,25,50,51,-1,52,53,51,-1,51,53,54,-1,51,54,55,-1,48,56,43,-1,43,56,57,-1,43,57,42,-1,58,59,25,-1,25,59,60,-1,25,60,27,-1,55,61,51,-1,51,61,62,-1,51,62,25,-1,25,62,63,-1,25,63,58,-1,49,64,65,-1,66,67,68,-1,68,69,66,-1,66,69,70,-1,66,70,71,-1,71,70,37,-1,72,73,74,-1,74,73,69,-1,74,69,75,-1,75,69,68,-1,75,68,76,-1,76,68,77,-1,64,49,78,-1,78,49,79,-1,78,79,80,-1,81,82,83,-1,83,82,84,-1,83,84,85,-1,85,84,86,-1,85,86,87,-1,88,89,90,-1,90,89,91,-1,90,91,92,-1,65,93,49,-1,49,93,94,-1,49,94,48,-1,81,83,90,-1,90,83,95,-1,90,95,88,-1,92,38,90,-1,90,38,40,-1,90,40,36,-1,36,40,96,-1,36,96,37,-1,37,96,97,-1,97,98,37,-1,37,98,99,-1,37,99,71,-1,71,99,100,-1,71,100,101,-1,101,102,71,-1,71,102,103,-1,71,103,104,-1,46,71,44,-1,44,71,104,-1,44,104,51,-1,51,104,105,-1,51,105,52,-1,45,24,47,-1,47,24,26,-1,47,26,106,-1,106,26,107,-1,26,108,107,-1,107,108,28,-1,107,28,66,-1,66,28,30,-1,66,30,67,-1,109,110,111,-1,111,110,112,-1,111,112,113,-1,114,71,115,-1,115,71,116,-1,115,116,117,-1,118,119,120,-1,121,122,123,-1,120,71,123,-1,123,71,114,-1,123,114,121,-1,124,125,111,-1,111,125,126,-1,111,126,109,-1,127,66,128,-1,128,66,71,-1,128,71,129,-1,129,71,120,-1,129,120,130,-1,130,120,131,-1,119,132,120,-1,120,132,133,-1,120,133,131,-1,113,134,111,-1,111,134,135,-1,111,135,120,-1,120,135,136,-1,120,136,118,-1,127,124,66,-1,66,124,111,-1,66,111,107,-1,107,111,137,-1,107,137,138,-1,138,137,139,-1,138,139,117,-1,117,139,140,-1,117,140,115,-1,141,0,2,-1,142,143,144,-1,144,143,18,-1,145,146,147,-1,18,19,144,-1,144,19,148,-1,144,148,147,-1,147,148,149,-1,147,149,150,-1,145,147,2,-1,2,147,151,-1,2,151,141,-1,150,152,147,-1,147,152,153,-1,147,153,151,-1,154,155,156,-1,17,16,157,-1,157,16,154,-1,156,158,154,-1,154,158,159,-1,154,159,157,-1,157,159,160,-1,161,162,163,-1,163,164,161,-1,161,164,165,-1,161,165,166,-1,166,167,161,-1,161,167,168,-1,161,168,169,-1,169,168,170,-1,169,170,171,-1,172,173,174,-1,170,175,171,-1,171,175,172,-1,171,172,176,-1,176,172,174,-1,177,178,179,-1,180,181,182,-1,182,181,183,-1,184,185,186,-1,186,185,187,-1,188,189,190,-1,190,116,71,-1,191,46,192,-1,192,46,193,-1,192,193,194,-1,194,193,195,-1,194,195,196,-1,182,186,180,-1,180,186,187,-1,180,187,197,-1,197,187,198,-1,197,198,184,-1,184,198,199,-1,184,199,185,-1,179,188,177,-1,177,188,190,-1,177,190,191,-1,191,190,71,-1,191,71,46,-1,200,201,202,-1,195,203,196,-1,196,203,204,-1,196,204,205,-1,205,204,206,-1,205,206,207,-1,207,206,208,-1,207,208,209,-1,209,208,210,-1,209,210,204,-1,204,210,211,-1,204,211,206,-1,212,213,190,-1,202,212,200,-1,200,212,190,-1,200,190,214,-1,214,190,189,-1,214,189,215,-1,215,189,216,-1,217,218,219,-1,220,221,190,-1,219,220,217,-1,217,220,190,-1,217,190,222,-1,222,190,213,-1,222,213,223,-1,223,213,224,-1,221,225,190,-1,190,225,183,-1,190,183,226,-1,226,183,181,-1,227,228,229,-1,229,228,230,-1,231,232,233,-1,233,232,234,-1,235,213,236,-1,236,213,212,-1,229,230,202,-1,202,230,236,-1,202,236,212,-1,232,231,235,-1,235,231,224,-1,235,224,213,-1,237,238,239,-1,239,238,240,-1,241,217,242,-1,242,217,222,-1,233,234,223,-1,223,234,242,-1,223,242,222,-1,238,237,241,-1,241,237,218,-1,241,218,217,-1,243,244,245,-1,246,247,248,-1,249,250,251,-1,8,10,252,-1,252,10,253,-1,252,253,254,-1,254,253,255,-1,256,257,258,-1,259,260,261,-1,248,256,246,-1,246,256,258,-1,246,258,259,-1,259,258,262,-1,259,262,260,-1,261,263,264,-1,264,263,265,-1,264,265,266,-1,266,267,264,-1,264,267,268,-1,264,268,253,-1,253,268,269,-1,253,269,255,-1,245,259,243,-1,243,259,261,-1,243,261,251,-1,251,261,264,-1,251,264,249,-1,270,221,271,-1,271,221,220,-1,239,240,219,-1,219,240,271,-1,219,271,220,-1,256,248,270,-1,270,248,225,-1,270,225,221,-1,117,116,190,-1,272,273,274,-1,138,117,274,-1,274,117,190,-1,274,190,272,-1,272,190,275,-1,275,190,226,-1,197,184,276,-1,276,184,11,-1,276,277,278,-1,9,279,11,-1,11,279,280,-1,11,280,276,-1,276,280,281,-1,276,281,277,-1,278,282,276,-1,276,282,283,-1,276,283,275,-1,283,284,275,-1,275,284,285,-1,275,285,286,-1,286,287,275,-1,275,287,288,-1,275,288,272,-1,272,288,289,-1,272,289,290,-1,291,292,293,-1,293,292,294,-1,295,296,297,-1,298,299,300,-1,296,301,297,-1,297,301,302,-1,297,302,303,-1,304,298,293,-1,293,298,300,-1,293,300,305,-1,305,300,306,-1,305,306,307,-1,4,6,308,-1,308,6,309,-1,308,309,310,-1,310,311,308,-1,308,311,312,-1,308,312,297,-1,297,312,313,-1,297,313,295,-1,314,315,316,-1,316,315,297,-1,316,297,294,-1,294,297,303,-1,294,303,293,-1,293,303,317,-1,293,317,304,-1,318,319,320,-1,320,319,321,-1,322,177,323,-1,323,177,191,-1,306,300,192,-1,192,300,323,-1,192,323,191,-1,319,318,322,-1,322,318,178,-1,322,178,177,-1,324,325,326,-1,326,325,327,-1,328,200,329,-1,329,200,214,-1,326,327,215,-1,215,327,329,-1,215,329,214,-1,228,227,328,-1,328,227,201,-1,328,201,200,-1,330,189,331,-1,331,189,188,-1,320,321,179,-1,179,321,331,-1,179,331,188,-1,325,324,330,-1,330,324,216,-1,330,216,189,-1,250,249,332,-1,333,334,332,-1,332,334,335,-1,332,335,250,-1,186,13,184,-1,184,13,11,-1,336,186,337,-1,337,186,182,-1,337,182,338,-1,338,182,339,-1,338,339,340,-1,336,341,186,-1,186,341,342,-1,186,342,13,-1,13,342,15,-1,343,344,345,-1,205,3,346,-1,346,3,1,-1,347,348,343,-1,343,348,349,-1,343,349,344,-1,343,196,347,-1,347,196,205,-1,347,205,350,-1,350,205,346,-1,351,352,353,-1,353,352,354,-1,345,355,343,-1,343,355,356,-1,343,356,339,-1,339,356,357,-1,357,358,339,-1,339,358,359,-1,339,359,353,-1,354,360,353,-1,353,360,361,-1,353,361,339,-1,339,361,362,-1,339,362,340,-1,363,364,365,-1,366,367,368,-1,368,367,369,-1,368,369,370,-1,370,369,371,-1,370,371,353,-1,353,371,372,-1,353,372,351,-1,366,368,365,-1,365,368,373,-1,365,373,363,-1,374,375,376,-1,376,375,377,-1,367,378,369,-1,369,378,377,-1,369,377,379,-1,379,377,375,-1,10,12,253,-1,253,12,334,-1,253,334,380,-1,380,334,333,-1,380,333,199,-1,199,333,185,-1,381,382,244,-1,244,382,245,-1,382,381,20,-1,20,381,383,-1,335,334,384,-1,384,334,12,-1,385,386,384,-1,14,387,12,-1,12,387,388,-1,12,388,384,-1,384,388,389,-1,384,389,385,-1,386,390,384,-1,384,390,391,-1,384,391,383,-1,383,391,21,-1,383,21,20,-1,392,384,393,-1,393,384,383,-1,275,243,276,-1,276,243,251,-1,393,383,381,-1,243,275,244,-1,244,275,226,-1,244,226,381,-1,381,226,181,-1,381,181,393,-1,276,251,250,-1,384,392,335,-1,335,392,180,-1,335,180,250,-1,250,180,197,-1,250,197,276,-1,180,392,181,-1,181,392,393,-1,315,314,394,-1,394,314,146,-1,394,146,395,-1,395,146,145,-1,3,205,5,-1,5,205,207,-1,208,206,395,-1,2,4,145,-1,145,4,308,-1,145,308,395,-1,395,308,396,-1,395,396,208,-1,143,142,291,-1,291,142,292,-1,397,7,5,-1,195,193,398,-1,398,193,399,-1,207,209,400,-1,207,400,5,-1,5,400,401,-1,5,401,397,-1,402,403,400,-1,404,405,399,-1,399,405,406,-1,399,406,398,-1,398,406,407,-1,398,407,408,-1,408,409,398,-1,398,409,410,-1,398,410,400,-1,400,410,411,-1,400,411,402,-1,403,412,400,-1,400,412,413,-1,400,413,401,-1,147,414,144,-1,144,414,415,-1,294,398,316,-1,316,398,400,-1,398,294,292,-1,144,415,142,-1,142,415,203,-1,142,203,292,-1,292,203,195,-1,292,195,398,-1,414,147,146,-1,316,400,314,-1,314,400,209,-1,314,209,146,-1,146,209,204,-1,146,204,414,-1,414,204,415,-1,415,204,203,-1,416,417,418,-1,418,417,419,-1,420,421,422,-1,422,421,423,-1,422,423,424,-1,425,420,426,-1,426,420,422,-1,426,422,23,-1,23,422,22,-1,427,428,429,-1,429,428,430,-1,428,417,430,-1,430,417,416,-1,421,420,429,-1,429,420,427,-1,431,432,433,-1,433,432,434,-1,435,436,437,-1,437,436,438,-1,436,432,438,-1,438,432,431,-1,418,419,437,-1,437,419,435,-1,439,440,441,-1,441,440,442,-1,443,444,445,-1,445,444,446,-1,444,440,446,-1,446,440,439,-1,433,434,445,-1,445,434,443,-1,447,448,449,-1,449,448,450,-1,451,452,453,-1,453,452,454,-1,452,448,454,-1,454,448,447,-1,441,442,453,-1,453,442,451,-1,455,456,457,-1,457,456,458,-1,459,460,461,-1,461,460,462,-1,460,456,462,-1,462,456,455,-1,449,450,461,-1,461,450,459,-1,463,464,465,-1,465,464,466,-1,464,159,466,-1,466,159,158,-1,457,458,465,-1,465,458,463,-1,467,468,469,-1,467,469,470,-1,468,471,469,-1,469,471,472,-1,469,472,473,-1,469,474,475,-1,475,476,469,-1,469,476,477,-1,469,477,470,-1,478,479,480,-1,475,481,476,-1,476,481,478,-1,476,478,482,-1,482,478,480,-1,469,157,474,-1,474,157,160,-1,148,19,345,-1,345,19,17,-1,355,345,473,-1,473,345,17,-1,473,17,469,-1,469,17,157,-1,426,161,425,-1,425,161,169,-1,23,21,391,-1,362,361,162,-1,161,426,162,-1,162,426,23,-1,162,23,362,-1,362,23,391,-1,47,106,483,-1,46,47,193,-1,193,47,483,-1,193,483,399,-1,399,483,484,-1,170,168,369,-1,369,168,371,-1,387,14,342,-1,342,14,15,-1,346,1,141,-1,141,1,0,-1,368,370,476,-1,476,370,477,-1,169,171,378,-1,460,459,378,-1,463,458,456,-1,436,435,378,-1,378,367,474,-1,474,367,475,-1,451,378,452,-1,452,378,459,-1,452,459,448,-1,448,459,450,-1,456,460,463,-1,463,460,378,-1,463,378,464,-1,464,378,474,-1,464,474,159,-1,159,474,160,-1,443,434,432,-1,427,420,425,-1,432,436,443,-1,443,436,378,-1,443,378,444,-1,444,378,451,-1,444,451,440,-1,440,451,442,-1,425,169,427,-1,427,169,378,-1,427,378,428,-1,428,378,435,-1,428,435,417,-1,417,435,419,-1,
        ]
    }
}
Shape{
    appearance Appearance {
        material  Material 	{
            diffuseColor 0.20784313725490197 0.20784313725490197 0.20784313725490197
            specularColor 0.01568627450980392 0.01568627450980392 0.01568627450980392
            ambientIntensity 0.298
            transparency 0.0
            shininess 0.5
        }
    }
    geometry IndexedFaceSet {
        ccw TRUE
        solid FALSE
        coord DEF co Coordinate {
            point [
                -0.2959 -0.1991 0.0039, -0.2959 -0.1991 0.0, -0.3088 -0.2479 0.0039, -0.3088 -0.2479 0.0, -0.2554 -0.1991 0.0039, -0.2554 -0.1991 0.0, -0.2425 -0.2479 0.0039, -0.2425 -0.2479 0.0, -0.2204 -0.2479 0.0039, -0.2204 -0.2479 0.0, -0.2661 -0.0895 0.0, -0.2664 -0.0886 0.0039, -0.2664 -0.0886 0.0, -0.2848 -0.0886 0.0039, -0.2848 -0.0886 0.0, -0.2851 -0.0895 0.0, -0.3309 -0.2479 0.0039, -0.3309 -0.2479 0.0, -0.26 -0.1816 0.0039, -0.2747 -0.1254 0.0039, -0.2913 -0.1816 0.0039, -0.2765 -0.1254 0.0039, -0.2747 -0.1254 0.0, -0.2765 -0.1254 0.0, -0.26 -0.1816 0.0, -0.2913 -0.1816 0.0, -0.1099 -0.2479 0.0039, -0.1099 -0.2479 0.0, -0.1412 -0.2479 0.0039, -0.1412 -0.2479 0.0, -0.1099 -0.0904 0.0039, -0.1099 -0.0904 0.0, -0.1412 -0.0904 0.0039, -0.1412 -0.0904 0.0, -0.2075 -0.1696 0.0039, -0.2075 -0.1696 0.0, -0.2074 -0.1653 0.0, -0.2074 -0.1653 0.0039, -0.2038 -0.1346 0.0, -0.2038 -0.1346 0.0039, -0.1978 -0.1184 0.0, -0.1978 -0.1184 0.0039, -0.1911 -0.1085 0.0, -0.1911 -0.1085 0.0039, -0.183 -0.1014 0.0, -0.183 -0.1014 0.0039, -0.1724 -0.0957 0.0, -0.1724 -0.0957 0.0039, -0.1584 -0.0918 0.0, -0.1584 -0.0918 0.0039, -0.1509 -0.2474 0.0, -0.1509 -0.2474 0.0039, -0.1682 -0.2435 0.0, -0.1682 -0.2435 0.0039, -0.1806 -0.2372 0.0, -0.1806 -0.2372 0.0039, -0.1898 -0.2297 0.0, -0.1898 -0.2297 0.0039, -0.1964 -0.2212 0.0, -0.1964 -0.2212 0.0039, -0.202 -0.2088 0.0, -0.202 -0.2088 0.0039, -0.2059 -0.1922 0.0, -0.2059 -0.1922 0.0039, -0.131 -0.1079 0.0039, -0.131 -0.2304 0.0039, -0.1412 -0.2304 0.0039, -0.1536 -0.2292 0.0039, -0.1622 -0.2263 0.0039, -0.1693 -0.222 0.0039, -0.1747 -0.2166 0.0039, -0.1789 -0.2097 0.0039, -0.183 -0.1967 0.0039, -0.1412 -0.1079 0.0039, -0.1447 -0.108 0.0039, -0.1564 -0.1099 0.0039, -0.1645 -0.1133 0.0039, -0.1711 -0.1182 0.0039, -0.1762 -0.1243 0.0039, -0.1804 -0.133 0.0039, -0.1839 -0.1476 0.0039, -0.1854 -0.1696 0.0039, -0.131 -0.1079 0.0, -0.1412 -0.1079 0.0, -0.131 -0.2304 0.0, -0.1412 -0.2304 0.0, -0.1854 -0.1696 0.0, -0.183 -0.1967 0.0, -0.1789 -0.2097 0.0, -0.1747 -0.2166 0.0, -0.1693 -0.222 0.0, -0.1622 -0.2263 0.0, -0.1536 -0.2292 0.0, -0.1447 -0.108 0.0, -0.1564 -0.1099 0.0, -0.1645 -0.1133 0.0, -0.1711 -0.1182 0.0, -0.1762 -0.1243 0.0, -0.1804 -0.133 0.0, -0.1839 -0.1476 0.0, 0.0053 -0.0904 0.0039, 0.0053 -0.0904 0.0, 0.0053 -0.2479 0.0039, 0.0053 -0.2479 0.0, -0.0841 -0.0904 0.0039, -0.0841 -0.0904 0.0, -0.0841 -0.1079 0.0039, -0.0841 -0.1079 0.0, -0.0159 -0.1079 0.0039, -0.0159 -0.1079 0.0, -0.0159 -0.1567 0.0039, -0.0159 -0.1567 0.0, -0.0785 -0.1567 0.0039, -0.0785 -0.1567 0.0, -0.0785 -0.1742 0.0039, -0.0785 -0.1742 0.0, -0.0159 -0.1742 0.0039, -0.0159 -0.1742 0.0, -0.0159 -0.2304 0.0039, -0.0159 -0.2304 0.0, -0.0887 -0.2304 0.0039, -0.0887 -0.2304 0.0, -0.0887 -0.2479 0.0039, -0.0887 -0.2479 0.0, 0.1277 -0.1742 0.0039, 0.1277 -0.1742 0.0, 0.1252 -0.2024 0.0, 0.1252 -0.2024 0.0039, 0.1199 -0.2194 0.0, 0.1199 -0.2194 0.0039, 0.114 -0.2295 0.0, 0.114 -0.2295 0.0039, 0.1057 -0.2381 0.0, 0.1057 -0.2381 0.0039, 0.0967 -0.2443 0.0, 0.0967 -0.2443 0.0039, 0.0865 -0.2483 0.0, 0.0865 -0.2483 0.0039, 0.0743 -0.2497 0.0, 0.0743 -0.2497 0.0039, 0.0734 -0.0886 0.0, 0.0819 -0.0895 0.0, 0.0734 -0.0886 0.0039, 0.0841 -0.0897 0.0039, 0.0841 -0.0897 0.0, 0.0938 -0.0931 0.0, 0.0938 -0.0931 0.0039, 0.1028 -0.0991 0.0, 0.1028 -0.0991 0.0039, 0.1116 -0.1084 0.0, 0.1116 -0.1084 0.0039, 0.1195 -0.1224 0.0, 0.1195 -0.1224 0.0039, 0.1253 -0.1432 0.0, 0.1253 -0.1432 0.0039, 0.0662 -0.0895 0.0, 0.0612 -0.0901 0.0039, 0.0612 -0.0901 0.0, 0.0522 -0.0937 0.0039, 0.0522 -0.0937 0.0, 0.044 -0.0996 0.0039, 0.044 -0.0996 0.0, 0.0363 -0.1084 0.0039, 0.0363 -0.1084 0.0, 0.031 -0.119 0.0039, 0.031 -0.119 0.0, 0.0278 -0.1338 0.0039, 0.0278 -0.1338 0.0, 0.0274 -0.1466 0.0039, 0.0274 -0.1466 0.0, 0.0476 -0.1466 0.0039, 0.0476 -0.1466 0.0, 0.0734 -0.1061 0.0039, 0.0734 -0.1061 0.0, 0.0721 -0.1061 0.0, 0.0721 -0.1061 0.0039, 0.066 -0.1071 0.0, 0.066 -0.1071 0.0039, 0.0614 -0.109 0.0, 0.0614 -0.109 0.0039, 0.0573 -0.1121 0.0, 0.0573 -0.1121 0.0039, 0.0541 -0.1162 0.0, 0.0541 -0.1162 0.0039, 0.0515 -0.1213 0.0, 0.0515 -0.1213 0.0039, 0.0488 -0.1312 0.0, 0.0488 -0.1312 0.0039, 0.1056 -0.1724 0.0039, 0.1056 -0.1724 0.0, 0.1037 -0.1434 0.0, 0.1037 -0.1434 0.0039, 0.0998 -0.1275 0.0, 0.0998 -0.1275 0.0039, 0.095 -0.1183 0.0, 0.095 -0.1183 0.0039, 0.0903 -0.1127 0.0, 0.0903 -0.1127 0.0039, 0.0854 -0.1091 0.0, 0.0854 -0.1091 0.0039, 0.0801 -0.107 0.0, 0.0801 -0.107 0.0039, 0.0743 -0.2322 0.0039, 0.0743 -0.2322 0.0, 0.0799 -0.2317 0.0, 0.0799 -0.2317 0.0039, 0.0851 -0.2299 0.0, 0.0851 -0.2299 0.0039, 0.0901 -0.2267 0.0, 0.0901 -0.2267 0.0039, 0.0958 -0.2205 0.0, 0.0958 -0.2205 0.0039, 0.0999 -0.2133 0.0, 0.0999 -0.2133 0.0039, 0.1033 -0.2014 0.0, 0.1033 -0.2014 0.0039, 0.0476 -0.1853 0.0039, 0.0476 -0.1853 0.0, 0.0484 -0.2002 0.0, 0.0484 -0.2002 0.0039, 0.0511 -0.2136 0.0, 0.0511 -0.2136 0.0039, 0.0541 -0.2201 0.0, 0.0541 -0.2201 0.0039, 0.0579 -0.2247 0.0, 0.0579 -0.2247 0.0039, 0.0635 -0.2292 0.0, 0.0635 -0.2292 0.0039, 0.0686 -0.2314 0.0, 0.0686 -0.2314 0.0039, 0.0264 -0.1853 0.0039, 0.0264 -0.1853 0.0, 0.0648 -0.2488 0.0, 0.0648 -0.2488 0.0039, 0.0555 -0.2457 0.0, 0.0555 -0.2457 0.0039, 0.046 -0.2396 0.0, 0.046 -0.2396 0.0039, 0.0379 -0.231 0.0, 0.0379 -0.231 0.0039, 0.0327 -0.2213 0.0, 0.0327 -0.2213 0.0039, 0.0285 -0.2066 0.0, 0.0285 -0.2066 0.0039, 0.2429 -0.0904 0.0039, 0.2429 -0.0904 0.0, 0.2429 -0.2479 0.0039, 0.2429 -0.2479 0.0, 0.2217 -0.0904 0.0039, 0.2217 -0.0904 0.0, 0.2217 -0.2304 0.0039, 0.2217 -0.2304 0.0, 0.1471 -0.2304 0.0039, 0.1471 -0.2304 0.0, 0.1471 -0.2479 0.0039, 0.1471 -0.2479 0.0
            ]
        }
        coordIndex [
            0,1,2,-1,2,1,3,-1,4,5,0,-1,0,5,1,-1,6,7,4,-1,4,7,5,-1,8,9,6,-1,6,9,7,-1,9,8,10,-1,10,8,11,-1,10,11,12,-1,13,14,11,-1,11,14,12,-1,14,13,15,-1,15,13,16,-1,15,16,17,-1,16,2,17,-1,17,2,3,-1,18,19,11,-1,20,16,13,-1,11,19,13,-1,13,19,21,-1,13,21,20,-1,8,6,4,-1,2,16,0,-1,0,16,20,-1,0,20,4,-1,4,20,18,-1,4,18,8,-1,8,18,11,-1,19,22,21,-1,21,22,23,-1,18,24,19,-1,19,24,22,-1,20,25,18,-1,18,25,24,-1,23,25,21,-1,21,25,20,-1,26,27,28,-1,28,27,29,-1,30,31,26,-1,26,31,27,-1,32,33,30,-1,30,33,31,-1,34,35,36,-1,34,36,37,-1,37,36,38,-1,37,38,39,-1,39,38,40,-1,39,40,41,-1,41,40,42,-1,41,42,43,-1,43,42,44,-1,43,44,45,-1,45,44,46,-1,45,46,47,-1,47,46,48,-1,47,48,49,-1,49,48,33,-1,49,33,32,-1,28,29,50,-1,28,50,51,-1,51,50,52,-1,51,52,53,-1,53,52,54,-1,53,54,55,-1,55,54,56,-1,55,56,57,-1,57,56,58,-1,57,58,59,-1,59,58,60,-1,59,60,61,-1,61,60,62,-1,61,62,63,-1,63,62,35,-1,63,35,34,-1,32,30,64,-1,64,30,65,-1,65,30,26,-1,65,26,66,-1,66,26,28,-1,66,28,67,-1,67,28,51,-1,67,51,68,-1,68,51,53,-1,68,53,69,-1,69,53,55,-1,69,55,70,-1,70,55,57,-1,70,57,71,-1,71,57,59,-1,71,59,72,-1,64,73,32,-1,32,73,74,-1,32,74,49,-1,49,74,75,-1,49,75,47,-1,47,75,76,-1,47,76,45,-1,45,76,77,-1,45,77,43,-1,43,77,78,-1,43,78,41,-1,41,78,79,-1,41,79,39,-1,39,79,80,-1,39,80,37,-1,37,80,81,-1,59,61,72,-1,72,61,63,-1,72,63,81,-1,81,63,34,-1,81,34,37,-1,64,82,73,-1,73,82,83,-1,65,84,64,-1,64,84,82,-1,66,85,65,-1,65,85,84,-1,81,86,87,-1,81,87,72,-1,72,87,88,-1,72,88,71,-1,71,88,89,-1,71,89,70,-1,70,89,90,-1,70,90,69,-1,69,90,91,-1,69,91,68,-1,68,91,92,-1,68,92,67,-1,67,92,85,-1,67,85,66,-1,73,83,93,-1,73,93,74,-1,74,93,94,-1,74,94,75,-1,75,94,95,-1,75,95,76,-1,76,95,96,-1,76,96,77,-1,77,96,97,-1,77,97,78,-1,78,97,98,-1,78,98,79,-1,79,98,99,-1,79,99,80,-1,80,99,86,-1,80,86,81,-1,100,101,102,-1,102,101,103,-1,104,105,100,-1,100,105,101,-1,106,107,104,-1,104,107,105,-1,108,109,106,-1,106,109,107,-1,110,111,108,-1,108,111,109,-1,112,113,110,-1,110,113,111,-1,114,115,112,-1,112,115,113,-1,116,117,114,-1,114,117,115,-1,118,119,116,-1,116,119,117,-1,120,121,118,-1,118,121,119,-1,122,123,120,-1,120,123,121,-1,122,102,123,-1,123,102,103,-1,102,122,120,-1,120,118,102,-1,102,118,116,-1,102,116,100,-1,106,104,108,-1,108,104,100,-1,108,100,110,-1,110,100,116,-1,110,116,112,-1,112,116,114,-1,124,125,126,-1,124,126,127,-1,127,126,128,-1,127,128,129,-1,129,128,130,-1,129,130,131,-1,131,130,132,-1,131,132,133,-1,133,132,134,-1,133,134,135,-1,135,134,136,-1,135,136,137,-1,137,136,138,-1,137,138,139,-1,140,141,142,-1,142,141,143,-1,141,144,143,-1,143,144,145,-1,143,145,146,-1,146,145,147,-1,146,147,148,-1,148,147,149,-1,148,149,150,-1,150,149,151,-1,150,151,152,-1,152,151,153,-1,152,153,154,-1,154,153,125,-1,154,125,124,-1,140,142,155,-1,155,142,156,-1,155,156,157,-1,157,156,158,-1,157,158,159,-1,159,158,160,-1,159,160,161,-1,161,160,162,-1,161,162,163,-1,163,162,164,-1,163,164,165,-1,165,164,166,-1,165,166,167,-1,167,166,168,-1,167,168,169,-1,170,171,168,-1,168,171,169,-1,172,173,174,-1,172,174,175,-1,175,174,176,-1,175,176,177,-1,177,176,178,-1,177,178,179,-1,179,178,180,-1,179,180,181,-1,181,180,182,-1,181,182,183,-1,183,182,184,-1,183,184,185,-1,185,184,186,-1,185,186,187,-1,187,186,171,-1,187,171,170,-1,188,189,190,-1,188,190,191,-1,191,190,192,-1,191,192,193,-1,193,192,194,-1,193,194,195,-1,195,194,196,-1,195,196,197,-1,197,196,198,-1,197,198,199,-1,199,198,200,-1,199,200,201,-1,201,200,173,-1,201,173,172,-1,202,203,204,-1,202,204,205,-1,205,204,206,-1,205,206,207,-1,207,206,208,-1,207,208,209,-1,209,208,210,-1,209,210,211,-1,211,210,212,-1,211,212,213,-1,213,212,214,-1,213,214,215,-1,215,214,189,-1,215,189,188,-1,216,217,218,-1,216,218,219,-1,219,218,220,-1,219,220,221,-1,221,220,222,-1,221,222,223,-1,223,222,224,-1,223,224,225,-1,225,224,226,-1,225,226,227,-1,227,226,228,-1,227,228,229,-1,229,228,203,-1,229,203,202,-1,230,231,216,-1,216,231,217,-1,139,138,232,-1,139,232,233,-1,233,232,234,-1,233,234,235,-1,235,234,236,-1,235,236,237,-1,237,236,238,-1,237,238,239,-1,239,238,240,-1,239,240,241,-1,241,240,242,-1,241,242,243,-1,243,242,231,-1,243,231,230,-1,170,168,187,-1,187,168,166,-1,187,166,185,-1,185,166,164,-1,185,164,183,-1,183,164,162,-1,183,162,181,-1,181,162,160,-1,181,160,179,-1,179,160,158,-1,179,158,177,-1,177,158,156,-1,177,156,175,-1,175,156,142,-1,230,216,243,-1,243,216,219,-1,243,219,241,-1,241,219,221,-1,241,221,239,-1,239,221,223,-1,239,223,237,-1,237,223,225,-1,237,225,235,-1,235,225,227,-1,235,227,233,-1,233,227,229,-1,233,229,139,-1,139,229,202,-1,139,202,137,-1,137,202,205,-1,137,205,135,-1,135,205,207,-1,135,207,133,-1,133,207,209,-1,133,209,131,-1,131,209,211,-1,131,211,129,-1,129,211,213,-1,129,213,127,-1,127,213,215,-1,127,215,124,-1,124,215,188,-1,124,188,154,-1,154,188,191,-1,154,191,152,-1,152,191,193,-1,152,193,150,-1,150,193,195,-1,150,195,148,-1,148,195,197,-1,148,197,146,-1,146,197,199,-1,146,199,143,-1,143,199,201,-1,143,201,142,-1,142,201,172,-1,142,172,175,-1,244,245,246,-1,246,245,247,-1,248,249,244,-1,244,249,245,-1,250,251,248,-1,248,251,249,-1,252,253,250,-1,250,253,251,-1,254,255,252,-1,252,255,253,-1,254,246,255,-1,255,246,247,-1,248,244,250,-1,250,244,246,-1,250,246,252,-1,252,246,254,-1,
        ]
    }
}
Shape{
    appearance Appearance {
        material  Material 	{
            diffuseColor 0.8431372549019608 0.8156862745098039 0.7529411764705882
            specularColor 0.25098039215686274 0.24313725490196078 0.22745098039215686
            ambientIntensity 0.8167
            transparency 0.0
            shininess 0.5
        }
    }
    geometry IndexedFaceSet {
        ccw TRUE
        solid FALSE
        coord DEF co Coordinate {
            point [
                -0.2747 -0.1254 0.0, -0.26 -0.1816 0.0, -0.2765 -0.1254 0.0, -0.2913 -0.1816 0.0, -0.1564 -0.1099 0.0, -0.1447 -0.108 0.0, -0.1804 -0.133 0.0, -0.131 -0.1079 0.0, -0.131 -0.2304 0.0, -0.1412 -0.1079 0.0, -0.1412 -0.2304 0.0, -0.183 -0.1967 0.0, -0.1854 -0.1696 0.0, -0.1839 -0.1476 0.0, -0.1536 -0.2292 0.0, -0.1622 -0.2263 0.0, -0.1789 -0.2097 0.0, -0.1693 -0.222 0.0, -0.1747 -0.2166 0.0, -0.1762 -0.1243 0.0, -0.1711 -0.1182 0.0, -0.1645 -0.1133 0.0, -0.7874 -0.6004 0.6299, -0.7874 -0.6004 0.1575, -0.7874 -0.9941 0.6299, -0.7874 -0.9941 0.1575, -0.7087 -0.6004 0.1575, -0.7087 -0.6004 0.6496, -0.7087 -1.3209 0.1575, -0.7087 -1.3222 0.6496, -0.7087 -1.3222 0.1562, -0.7874 -0.6004 0.6496, 0.7874 -0.9941 0.1575, 0.7874 -0.6004 0.1575, 0.7874 -0.9941 0.6299, 0.7874 -0.6004 0.6299, 0.7087 -0.6004 0.6496, 0.7087 -0.6004 0.1575, 0.7087 -1.3222 0.6496, 0.7087 -1.3209 0.1575, 0.7087 -1.3222 0.1562, 0.7874 -0.6004 0.6496, 0.2461 -1.3091 0.7283, 0.3445 -1.3091 0.7283, 0.689 -1.3091 0.7874, -0.2461 -1.3091 0.6496, -0.1476 -1.3091 0.6496, -0.2461 -1.3091 0.7283, -0.1476 -1.3091 0.7283, 0.5413 -1.3091 0.6496, 0.689 -1.3091 0.6496, 0.5413 -1.3091 0.7283, 0.4429 -1.3091 0.7283, 0.4429 -1.3091 0.6496, 0.3445 -1.3091 0.6496, -0.689 -1.3091 0.6496, -0.5413 -1.3091 0.6496, -0.689 -1.3091 0.7874, -0.5413 -1.3091 0.7283, -0.4429 -1.3091 0.7283, 0.1476 -1.3091 0.7283, 0.1476 -1.3091 0.6496, 0.2461 -1.3091 0.6496, -0.4429 -1.3091 0.6496, -0.3445 -1.3091 0.6496, -0.3445 -1.3091 0.7283, -0.0492 -1.3091 0.7283, 0.0492 -1.3091 0.7283, 0.0492 -1.3091 0.6496, -0.0492 -1.3091 0.6496, -0.8071 -1.3878 0.7874, -0.8071 -1.3878 0.0906, 0.8071 -1.3878 0.0906, 0.8071 -1.3878 0.7874, 0.4429 -1.3878 0.0906, 0.4429 -1.3209 0.1575, 0.3445 -1.3878 0.0906, 0.3445 -1.3209 0.1575, 0.2461 -1.3878 0.0906, 0.2461 -1.3209 0.1575, 0.1476 -1.3878 0.0906, 0.1476 -1.3209 0.1575, 0.0492 -1.3878 0.0906, 0.0492 -1.3209 0.1575, -0.0492 -1.3878 0.0906, -0.0492 -1.3209 0.1575, -0.1476 -1.3878 0.0906, -0.1476 -1.3209 0.1575, -0.2461 -1.3878 0.0906, -0.2461 -1.3209 0.1575, -0.3445 -1.3878 0.0906, -0.3445 -1.3209 0.1575, -0.4429 -1.3878 0.0906, -0.4429 -1.3209 0.1575, 0.5413 -1.3209 0.1575, 0.5413 -1.3878 0.0906, -0.5413 -1.3209 0.1575, -0.5413 -1.3878 0.0906, 1.0275 -1.3878 0.2953, 1.0275 -0.9941 0.2953, 1.2008 -1.3878 0.2953, 1.2008 -0.9941 0.2953, 1.2008 -0.2067 0.0984, 1.0275 -0.2067 0.0984, 1.2008 -1.3878 0.0984, 1.0275 -1.3878 0.0984, 1.0275 -0.2067 0.1575, 1.0275 -0.9941 0.1575, 1.2008 -0.2067 0.1575, -1.2008 -1.3878 0.2953, -1.2008 -0.9941 0.2953, -1.0276 -1.3878 0.2953, -1.0276 -0.9941 0.2953, -1.0276 -0.2067 0.1575, -1.0276 -0.2067 0.0984, -1.0276 -0.9941 0.1575, -1.0276 -1.3878 0.0984, -1.2008 -0.2067 0.0984, -1.2008 -1.3878 0.0984, -1.2008 -0.2067 0.1575, -0.689 0.1476 0.7874, -0.689 0.1476 0.7283, -0.6992 0.1463 0.7283, -0.6992 0.1463 0.7874, -0.7087 0.1423 0.7283, -0.7087 0.1423 0.7874, -0.7168 0.1361 0.7283, -0.7168 0.1361 0.7874, -0.7231 0.1279 0.7283, -0.7231 0.1279 0.7874, -0.727 0.1184 0.7283, -0.727 0.1184 0.7874, -0.7284 0.1083 0.7283, -0.7284 0.1083 0.7874, 0.689 0.1476 0.7283, 0.689 0.1476 0.7874, 0.6992 0.1463 0.7874, 0.6992 0.1463 0.7283, 0.7087 0.1423 0.7874, 0.7087 0.1423 0.7283, 0.7168 0.1361 0.7874, 0.7168 0.1361 0.7283, 0.7231 0.1279 0.7874, 0.7231 0.1279 0.7283, 0.727 0.1184 0.7874, 0.727 0.1184 0.7283, 0.7283 0.1083 0.7874, 0.7283 0.1083 0.7283, 1.0433 -0.1673 0.7874, 1.0433 -0.1673 0.6299, 1.042 -0.1775 0.7874, 1.042 -0.1775 0.6299, 1.038 -0.187 0.7874, 1.038 -0.187 0.6299, 1.0318 -0.1952 0.7874, 1.0318 -0.1952 0.6299, 1.0236 -0.2014 0.7874, 1.0236 -0.2014 0.6299, 1.0141 -0.2054 0.7874, 1.0141 -0.2054 0.6299, 1.0039 -0.2067 0.7874, 1.0039 -0.2067 0.6299, 0.7283 -0.1673 0.7283, 0.7283 -0.1673 0.7874, 0.7297 -0.1775 0.7283, 0.7297 -0.1775 0.7874, 0.7336 -0.187 0.7283, 0.7336 -0.187 0.7874, 0.7399 -0.1952 0.7283, 0.7399 -0.1952 0.7874, 0.748 -0.2014 0.7283, 0.748 -0.2014 0.7874, 0.7575 -0.2054 0.7283, 0.7575 -0.2054 0.7874, 0.7677 -0.2067 0.7283, 0.7677 -0.2067 0.7874, -1.0433 -0.1673 0.6299, -1.0433 -0.1673 0.7874, -1.042 -0.1775 0.6299, -1.042 -0.1775 0.7874, -1.038 -0.187 0.6299, -1.038 -0.187 0.7874, -1.0318 -0.1952 0.6299, -1.0318 -0.1952 0.7874, -1.0236 -0.2014 0.6299, -1.0236 -0.2014 0.7874, -1.0141 -0.2054 0.6299, -1.0141 -0.2054 0.7874, -1.0039 -0.2067 0.6299, -1.0039 -0.2067 0.7874, -0.7284 -0.1673 0.7874, -0.7284 -0.1673 0.7283, -0.7297 -0.1775 0.7874, -0.7297 -0.1775 0.7283, -0.7336 -0.187 0.7874, -0.7336 -0.187 0.7283, -0.7399 -0.1952 0.7874, -0.7399 -0.1952 0.7283, -0.748 -0.2014 0.7874, -0.748 -0.2014 0.7283, -0.7575 -0.2054 0.7874, -0.7575 -0.2054 0.7283, -0.7677 -0.2067 0.7874, -0.7677 -0.2067 0.7283, -0.689 0.4232 0.0, -0.689 0.4232 0.0079, -0.0993 0.4232 0.0, 0.689 0.4232 0.0079, 0.689 0.4232 0.0, 0.689 0.4626 0.0079, -0.689 0.4626 0.0079, 0.9055 0.4626 0.1575, 0.9055 -0.0492 0.1575, 0.9055 0.4626 0.0591, 0.9055 -0.0492 0.0591, 1.0236 -0.0492 0.1575, 1.0236 -0.0492 0.0591, 1.0216 -0.0645 0.1575, 1.0216 -0.0645 0.0591, 1.0157 -0.0788 0.1575, 1.0157 -0.0788 0.0591, 1.0063 -0.091 0.1575, 1.0063 -0.091 0.0591, 0.9941 -0.1004 0.1575, 0.9941 -0.1004 0.0591, 0.9798 -0.1063 0.1575, 0.9798 -0.1063 0.0591, 0.9646 -0.1083 0.1575, 0.9646 -0.1083 0.0591, 0.9493 -0.1063 0.1575, 0.9493 -0.1063 0.0591, 0.935 -0.1004 0.1575, 0.935 -0.1004 0.0591, 0.9228 -0.091 0.1575, 0.9228 -0.091 0.0591, 0.9134 -0.0788 0.1575, 0.9134 -0.0788 0.0591, 0.9075 -0.0645 0.1575, 0.9075 -0.0645 0.0591, 1.0236 0.5413 0.0591, 1.0236 0.5413 0.1575, -0.9055 -0.0492 0.1575, -0.9055 -0.0492 0.0591, -0.9075 -0.0645 0.1575, -0.9075 -0.0645 0.0591, -0.9134 -0.0788 0.1575, -0.9134 -0.0788 0.0591, -0.9228 -0.091 0.1575, -0.9228 -0.091 0.0591, -0.935 -0.1004 0.1575, -0.935 -0.1004 0.0591, -0.9493 -0.1063 0.1575, -0.9493 -0.1063 0.0591, -0.9646 -0.1083 0.1575, -0.9646 -0.1083 0.0591, -0.9799 -0.1063 0.1575, -0.9799 -0.1063 0.0591, -0.9941 -0.1004 0.1575, -0.9941 -0.1004 0.0591, -1.0063 -0.091 0.1575, -1.0063 -0.091 0.0591, -1.0157 -0.0788 0.1575, -1.0157 -0.0788 0.0591, -1.0216 -0.0645 0.1575, -1.0216 -0.0645 0.0591, -1.0236 -0.0492 0.1575, -1.0236 -0.0492 0.0591, -0.9055 0.4626 0.0591, -0.9055 0.4626 0.1575, -1.0236 0.5413 0.0591, -1.0236 0.5413 0.1575, -0.4429 0.4626 0.0787, -0.1476 0.4626 0.0787, -0.0492 0.4626 0.0787, -0.689 0.4626 0.0591, -0.5413 0.4626 0.1575, -0.5413 0.4626 0.0787, 0.2461 0.4626 0.0787, 0.3445 0.4626 0.0787, -0.2461 0.4626 0.0787, -0.2461 0.4626 0.1575, -0.1476 0.4626 0.1575, 0.1476 0.4626 0.0787, 0.1476 0.4626 0.1575, 0.2461 0.4626 0.1575, -0.3445 0.4626 0.0787, -0.3445 0.4626 0.1575, -0.4429 0.4626 0.1575, 0.0492 0.4626 0.0787, 0.0492 0.4626 0.1575, -0.0492 0.4626 0.1575, 0.3445 0.4626 0.1575, 0.4429 0.4626 0.1575, 0.4429 0.4626 0.0787, 0.5413 0.4626 0.0787, 0.689 0.4626 0.0591, 0.5413 0.4626 0.1575
            ]
        }
        coordIndex [
            0,1,2,-1,2,1,3,-1,4,5,6,-1,7,8,9,-1,9,8,10,-1,9,10,5,-1,11,12,10,-1,10,12,5,-1,5,12,13,-1,5,13,6,-1,10,14,11,-1,11,14,15,-1,11,15,16,-1,16,15,17,-1,16,17,18,-1,19,20,6,-1,6,20,21,-1,6,21,4,-1,22,23,24,-1,24,23,25,-1,26,27,28,-1,28,27,29,-1,28,29,30,-1,31,27,22,-1,22,27,26,-1,22,26,23,-1,32,33,34,-1,34,33,35,-1,36,37,38,-1,38,37,39,-1,38,39,40,-1,33,37,35,-1,35,37,36,-1,35,36,41,-1,42,43,44,-1,45,46,47,-1,47,46,48,-1,49,50,51,-1,51,50,44,-1,51,44,52,-1,52,44,43,-1,52,43,53,-1,53,43,54,-1,55,56,57,-1,57,56,58,-1,57,58,59,-1,60,61,62,-1,63,64,59,-1,59,64,65,-1,59,65,57,-1,57,65,47,-1,57,47,44,-1,44,47,48,-1,44,48,66,-1,62,42,60,-1,60,42,44,-1,60,44,67,-1,67,44,66,-1,67,66,68,-1,68,66,69,-1,55,57,29,-1,29,57,70,-1,29,70,30,-1,30,70,71,-1,40,72,38,-1,38,72,73,-1,38,73,50,-1,50,73,44,-1,74,75,76,-1,76,75,77,-1,78,79,80,-1,80,79,81,-1,82,83,84,-1,84,83,85,-1,86,87,88,-1,88,87,89,-1,90,91,92,-1,92,91,93,-1,39,94,40,-1,40,94,95,-1,40,95,72,-1,96,28,97,-1,97,28,30,-1,97,30,71,-1,98,99,100,-1,100,99,101,-1,102,103,104,-1,104,103,105,-1,103,106,107,-1,99,98,107,-1,107,98,105,-1,107,105,103,-1,103,102,106,-1,106,102,108,-1,109,110,111,-1,111,110,112,-1,113,114,115,-1,115,114,116,-1,115,116,112,-1,112,116,111,-1,114,117,116,-1,116,117,118,-1,117,114,119,-1,119,114,113,-1,120,121,122,-1,120,122,123,-1,123,122,124,-1,123,124,125,-1,125,124,126,-1,125,126,127,-1,127,126,128,-1,127,128,129,-1,129,128,130,-1,129,130,131,-1,131,130,132,-1,131,132,133,-1,134,135,136,-1,134,136,137,-1,137,136,138,-1,137,138,139,-1,139,138,140,-1,139,140,141,-1,141,140,142,-1,141,142,143,-1,143,142,144,-1,143,144,145,-1,145,144,146,-1,145,146,147,-1,148,149,150,-1,150,149,151,-1,150,151,152,-1,152,151,153,-1,152,153,154,-1,154,153,155,-1,154,155,156,-1,156,155,157,-1,156,157,158,-1,158,157,159,-1,158,159,160,-1,160,159,161,-1,162,163,164,-1,164,163,165,-1,164,165,166,-1,166,165,167,-1,166,167,168,-1,168,167,169,-1,168,169,170,-1,170,169,171,-1,170,171,172,-1,172,171,173,-1,172,173,174,-1,174,173,175,-1,176,177,178,-1,178,177,179,-1,178,179,180,-1,180,179,181,-1,180,181,182,-1,182,181,183,-1,182,183,184,-1,184,183,185,-1,184,185,186,-1,186,185,187,-1,186,187,188,-1,188,187,189,-1,190,191,192,-1,192,191,193,-1,192,193,194,-1,194,193,195,-1,194,195,196,-1,196,195,197,-1,196,197,198,-1,198,197,199,-1,198,199,200,-1,200,199,201,-1,200,201,202,-1,202,201,203,-1,204,205,206,-1,206,205,207,-1,206,207,208,-1,207,205,209,-1,209,205,210,-1,211,212,213,-1,213,212,214,-1,215,216,217,-1,217,216,218,-1,217,218,219,-1,219,218,220,-1,219,220,221,-1,221,220,222,-1,221,222,223,-1,223,222,224,-1,223,224,225,-1,225,224,226,-1,225,226,227,-1,227,226,228,-1,227,228,229,-1,229,228,230,-1,229,230,231,-1,231,230,232,-1,231,232,233,-1,233,232,234,-1,233,234,235,-1,235,234,236,-1,235,236,237,-1,237,236,238,-1,237,238,212,-1,212,238,214,-1,239,216,240,-1,240,216,215,-1,241,242,243,-1,243,242,244,-1,243,244,245,-1,245,244,246,-1,245,246,247,-1,247,246,248,-1,247,248,249,-1,249,248,250,-1,249,250,251,-1,251,250,252,-1,251,252,253,-1,253,252,254,-1,253,254,255,-1,255,254,256,-1,255,256,257,-1,257,256,258,-1,257,258,259,-1,259,258,260,-1,259,260,261,-1,261,260,262,-1,261,262,263,-1,263,262,264,-1,263,264,265,-1,265,264,266,-1,267,242,268,-1,268,242,241,-1,266,269,265,-1,265,269,270,-1,271,209,210,-1,272,273,209,-1,267,268,274,-1,274,268,275,-1,274,275,210,-1,210,275,276,-1,210,276,271,-1,277,278,209,-1,279,280,281,-1,282,283,284,-1,281,272,279,-1,279,272,209,-1,279,209,285,-1,285,209,271,-1,285,271,286,-1,286,271,287,-1,284,277,282,-1,282,277,209,-1,282,209,288,-1,288,209,273,-1,288,273,289,-1,289,273,290,-1,291,292,278,-1,278,292,293,-1,278,293,209,-1,209,293,294,-1,209,294,295,-1,295,294,296,-1,295,296,213,-1,213,296,211,-1,
        ]
    }
}