%TF.GenerationSoftware,KiCad,Pcbnew,10.0.3*%
%TF.CreationDate,2026-07-16T14:01:40+10:00*%
%TF.ProjectId,TapType,54617054-7970-4652-9e6b-696361645f70,rev?*%
%TF.SameCoordinates,Original*%
%TF.FileFunction,Copper,L2,Inr*%
%TF.FilePolarity,Positive*%
%FSLAX46Y46*%
G04 Gerber Fmt 4.6, Leading zero omitted, Abs format (unit mm)*
G04 Created by KiCad (PCBNEW 10.0.3) date 2026-07-16 14:01:40*
%MOMM*%
%LPD*%
G01*
G04 APERTURE LIST*
%TA.AperFunction,WasherPad*%
%ADD10O,4.000000X2.000000*%
%TD*%
%TA.AperFunction,ComponentPad*%
%ADD11C,0.850000*%
%TD*%
%TA.AperFunction,ComponentPad*%
%ADD12C,1.400000*%
%TD*%
%TA.AperFunction,HeatsinkPad*%
%ADD13C,0.600000*%
%TD*%
%TA.AperFunction,ComponentPad*%
%ADD14C,0.650000*%
%TD*%
%TA.AperFunction,ComponentPad*%
%ADD15O,1.100000X2.100000*%
%TD*%
%TA.AperFunction,ComponentPad*%
%ADD16O,1.100000X1.800000*%
%TD*%
%TA.AperFunction,ViaPad*%
%ADD17C,0.600000*%
%TD*%
G04 APERTURE END LIST*
D10*
%TO.N,*%
%TO.C,MOTOR_N_STRAIN_RELIEF1*%
X87740000Y-70215000D03*
%TD*%
%TO.N,*%
%TO.C,MOTOR_P_STRAIN_RELIEF1*%
X87720000Y-79660000D03*
%TD*%
D11*
%TO.N,*%
%TO.C,S1*%
X86922500Y-54840000D03*
X86922500Y-57840000D03*
%TD*%
D12*
%TO.N,Net-(J1-Pin_1)*%
%TO.C,J1*%
X91447500Y-63997500D03*
%TO.N,GND*%
X91447500Y-65997500D03*
%TD*%
D13*
%TO.N,GND*%
%TO.C,U8*%
X126490000Y-58240000D03*
X125090000Y-58240000D03*
X127190000Y-58940000D03*
X125790000Y-58940000D03*
X124390000Y-58940000D03*
X126490000Y-59640000D03*
X125090000Y-59640000D03*
X127190000Y-60340000D03*
X125790000Y-60340000D03*
X124390000Y-60340000D03*
X126490000Y-61040000D03*
X125090000Y-61040000D03*
%TD*%
D14*
%TO.N,*%
%TO.C,J2*%
X107060000Y-83535000D03*
X112840000Y-83535000D03*
D15*
%TO.N,N/C*%
X105630000Y-83055000D03*
D16*
X105630000Y-87235000D03*
D15*
X114270000Y-83055000D03*
D16*
X114270000Y-87235000D03*
%TD*%
D17*
%TO.N,+3.3V*%
X87910000Y-45660000D03*
X119730000Y-85230000D03*
X132210000Y-54700000D03*
X124150000Y-84770000D03*
X104242500Y-68940000D03*
X91445000Y-83900000D03*
X132230000Y-53860000D03*
X89920000Y-76970000D03*
X102400000Y-45660000D03*
X112670000Y-59660000D03*
X116570000Y-84110000D03*
X102382500Y-69080000D03*
X117650000Y-45660000D03*
X116580000Y-81000000D03*
X113940000Y-63877500D03*
X132210000Y-47780000D03*
X127900000Y-45670000D03*
X113920000Y-53740000D03*
X130740000Y-47810000D03*
X133280000Y-53870000D03*
%TO.N,GND*%
X120490000Y-44440000D03*
X104490000Y-52300000D03*
X124210000Y-80290000D03*
X132470000Y-75260000D03*
X119670000Y-78790000D03*
X122200000Y-79310000D03*
X97400000Y-60240000D03*
X94340000Y-52100000D03*
X102230000Y-56482500D03*
X117830000Y-72800000D03*
X134180000Y-53890000D03*
X122200000Y-80250000D03*
X92620000Y-74840000D03*
X99310000Y-52570000D03*
X103530000Y-60880000D03*
X100170000Y-51930000D03*
X123260000Y-80230000D03*
X103510000Y-59090000D03*
X123250000Y-78320000D03*
X132470000Y-72350000D03*
X124860000Y-87590000D03*
X133500000Y-68330000D03*
X89405000Y-86570000D03*
X90750000Y-44390000D03*
X97030000Y-71650000D03*
X95090000Y-60950000D03*
X94290000Y-78990000D03*
X113480000Y-79620000D03*
X130760000Y-44360000D03*
X124260000Y-78280000D03*
X113142040Y-57307453D03*
X105280000Y-44400000D03*
X133790000Y-47780000D03*
X105344265Y-81174265D03*
X95610000Y-48310000D03*
X122210000Y-78280000D03*
X87220000Y-49240000D03*
X131390000Y-47240000D03*
X89930000Y-78310000D03*
X104041027Y-57857500D03*
X94610000Y-51270000D03*
X116520000Y-82550000D03*
X102210000Y-89200000D03*
X98360000Y-72900000D03*
X93510000Y-61310000D03*
X95590000Y-51070000D03*
X106223190Y-54026810D03*
X123260000Y-79290000D03*
X112580000Y-52930000D03*
X110222738Y-80092738D03*
X103140000Y-71020000D03*
X124210000Y-79290000D03*
%TO.N,/RTS*%
X124840000Y-75650000D03*
X123170000Y-74510000D03*
%TO.N,/EN*%
X131640000Y-68500000D03*
X125910000Y-74480000D03*
X131650000Y-71520000D03*
X124640000Y-73210000D03*
%TO.N,/ALERT*%
X110140000Y-59260000D03*
X112570000Y-61050000D03*
%TO.N,VBUS*%
X100650000Y-63240000D03*
X103890000Y-54840000D03*
X109940000Y-76730000D03*
%TO.N,Net-(U8-IO8)*%
X115310000Y-50040000D03*
X116860000Y-50680000D03*
%TO.N,/BOOT*%
X126380000Y-71460000D03*
X129250000Y-73280000D03*
%TO.N,/SDA*%
X102970000Y-47560000D03*
X102970000Y-49670000D03*
%TO.N,/SCL*%
X117120000Y-49300000D03*
X100050000Y-49540000D03*
X105571472Y-75900000D03*
X127370000Y-50830000D03*
X119510000Y-46905000D03*
X98840000Y-48330000D03*
X104260000Y-49640000D03*
X104260000Y-47040000D03*
X107290000Y-75890000D03*
X127370000Y-53690000D03*
%TO.N,/USB_DN*%
X108750000Y-84250000D03*
X110163174Y-84000000D03*
%TO.N,/MOTOR_TRIG*%
X110100000Y-68900000D03*
X112570000Y-66440000D03*
%TD*%
%TA.AperFunction,Conductor*%
%TO.N,GND*%
G36*
X134642539Y-40320185D02*
G01*
X134688294Y-40372989D01*
X134699500Y-40424500D01*
X134699500Y-89575500D01*
X134679815Y-89642539D01*
X134627011Y-89688294D01*
X134575500Y-89699500D01*
X85424500Y-89699500D01*
X85357461Y-89679815D01*
X85311706Y-89627011D01*
X85300500Y-89575500D01*
X85300500Y-86781530D01*
X104579500Y-86781530D01*
X104579500Y-87688469D01*
X104619868Y-87891412D01*
X104619870Y-87891420D01*
X104699058Y-88082596D01*
X104814024Y-88254657D01*
X104960342Y-88400975D01*
X104960345Y-88400977D01*
X105132402Y-88515941D01*
X105323580Y-88595130D01*
X105526530Y-88635499D01*
X105526534Y-88635500D01*
X105526535Y-88635500D01*
X105733466Y-88635500D01*
X105733467Y-88635499D01*
X105936420Y-88595130D01*
X106127598Y-88515941D01*
X106299655Y-88400977D01*
X106445977Y-88254655D01*
X106560941Y-88082598D01*
X106640130Y-87891420D01*
X106680500Y-87688465D01*
X106680500Y-86781535D01*
X106680499Y-86781530D01*
X113219500Y-86781530D01*
X113219500Y-87688469D01*
X113259868Y-87891412D01*
X113259870Y-87891420D01*
X113339058Y-88082596D01*
X113454024Y-88254657D01*
X113600342Y-88400975D01*
X113600345Y-88400977D01*
X113772402Y-88515941D01*
X113963580Y-88595130D01*
X114166530Y-88635499D01*
X114166534Y-88635500D01*
X114166535Y-88635500D01*
X114373466Y-88635500D01*
X114373467Y-88635499D01*
X114576420Y-88595130D01*
X114767598Y-88515941D01*
X114939655Y-88400977D01*
X115085977Y-88254655D01*
X115200941Y-88082598D01*
X115280130Y-87891420D01*
X115320500Y-87688465D01*
X115320500Y-86781535D01*
X115280130Y-86578580D01*
X115200941Y-86387402D01*
X115085977Y-86215345D01*
X115085975Y-86215342D01*
X114939657Y-86069024D01*
X114835957Y-85999735D01*
X114767598Y-85954059D01*
X114576420Y-85874870D01*
X114576412Y-85874868D01*
X114373469Y-85834500D01*
X114373465Y-85834500D01*
X114166535Y-85834500D01*
X114166530Y-85834500D01*
X113963587Y-85874868D01*
X113963579Y-85874870D01*
X113772403Y-85954058D01*
X113600342Y-86069024D01*
X113454024Y-86215342D01*
X113339058Y-86387403D01*
X113259870Y-86578579D01*
X113259868Y-86578587D01*
X113219500Y-86781530D01*
X106680499Y-86781530D01*
X106640130Y-86578580D01*
X106560941Y-86387402D01*
X106445977Y-86215345D01*
X106445975Y-86215342D01*
X106299657Y-86069024D01*
X106195957Y-85999735D01*
X106127598Y-85954059D01*
X105936420Y-85874870D01*
X105936412Y-85874868D01*
X105733469Y-85834500D01*
X105733465Y-85834500D01*
X105526535Y-85834500D01*
X105526530Y-85834500D01*
X105323587Y-85874868D01*
X105323579Y-85874870D01*
X105132403Y-85954058D01*
X104960342Y-86069024D01*
X104814024Y-86215342D01*
X104699058Y-86387403D01*
X104619870Y-86578579D01*
X104619868Y-86578587D01*
X104579500Y-86781530D01*
X85300500Y-86781530D01*
X85300500Y-85151153D01*
X118929500Y-85151153D01*
X118929500Y-85308846D01*
X118960261Y-85463489D01*
X118960264Y-85463501D01*
X119020602Y-85609172D01*
X119020609Y-85609185D01*
X119108210Y-85740288D01*
X119108213Y-85740292D01*
X119219707Y-85851786D01*
X119219711Y-85851789D01*
X119350814Y-85939390D01*
X119350827Y-85939397D01*
X119496498Y-85999735D01*
X119496503Y-85999737D01*
X119651153Y-86030499D01*
X119651156Y-86030500D01*
X119651158Y-86030500D01*
X119808844Y-86030500D01*
X119808845Y-86030499D01*
X119963497Y-85999737D01*
X120109179Y-85939394D01*
X120240289Y-85851789D01*
X120351789Y-85740289D01*
X120439394Y-85609179D01*
X120499737Y-85463497D01*
X120530500Y-85308842D01*
X120530500Y-85151158D01*
X120530500Y-85151155D01*
X120530499Y-85151153D01*
X120530105Y-85149172D01*
X120499737Y-84996503D01*
X120484366Y-84959394D01*
X120439397Y-84850827D01*
X120439390Y-84850814D01*
X120374672Y-84753957D01*
X120351789Y-84719711D01*
X120351786Y-84719707D01*
X120323232Y-84691153D01*
X123349500Y-84691153D01*
X123349500Y-84848846D01*
X123380261Y-85003489D01*
X123380264Y-85003501D01*
X123440602Y-85149172D01*
X123440609Y-85149185D01*
X123528210Y-85280288D01*
X123528213Y-85280292D01*
X123639707Y-85391786D01*
X123639711Y-85391789D01*
X123770814Y-85479390D01*
X123770827Y-85479397D01*
X123916498Y-85539735D01*
X123916503Y-85539737D01*
X124071153Y-85570499D01*
X124071156Y-85570500D01*
X124071158Y-85570500D01*
X124228844Y-85570500D01*
X124228845Y-85570499D01*
X124383497Y-85539737D01*
X124529179Y-85479394D01*
X124660289Y-85391789D01*
X124771789Y-85280289D01*
X124859394Y-85149179D01*
X124919737Y-85003497D01*
X124950500Y-84848842D01*
X124950500Y-84691158D01*
X124950500Y-84691155D01*
X124950499Y-84691153D01*
X124938173Y-84629185D01*
X124919737Y-84536503D01*
X124908879Y-84510289D01*
X124859397Y-84390827D01*
X124859390Y-84390814D01*
X124771789Y-84259711D01*
X124771786Y-84259707D01*
X124660292Y-84148213D01*
X124660288Y-84148210D01*
X124529185Y-84060609D01*
X124529172Y-84060602D01*
X124383501Y-84000264D01*
X124383489Y-84000261D01*
X124228845Y-83969500D01*
X124228842Y-83969500D01*
X124071158Y-83969500D01*
X124071155Y-83969500D01*
X123916510Y-84000261D01*
X123916498Y-84000264D01*
X123770827Y-84060602D01*
X123770814Y-84060609D01*
X123639711Y-84148210D01*
X123639707Y-84148213D01*
X123528213Y-84259707D01*
X123528210Y-84259711D01*
X123440609Y-84390814D01*
X123440602Y-84390827D01*
X123380264Y-84536498D01*
X123380261Y-84536510D01*
X123349500Y-84691153D01*
X120323232Y-84691153D01*
X120240292Y-84608213D01*
X120240288Y-84608210D01*
X120109185Y-84520609D01*
X120109172Y-84520602D01*
X119963501Y-84460264D01*
X119963489Y-84460261D01*
X119808845Y-84429500D01*
X119808842Y-84429500D01*
X119651158Y-84429500D01*
X119651155Y-84429500D01*
X119496510Y-84460261D01*
X119496498Y-84460264D01*
X119350827Y-84520602D01*
X119350814Y-84520609D01*
X119219711Y-84608210D01*
X119219707Y-84608213D01*
X119108213Y-84719707D01*
X119108210Y-84719711D01*
X119020609Y-84850814D01*
X119020602Y-84850827D01*
X118960264Y-84996498D01*
X118960261Y-84996510D01*
X118929500Y-85151153D01*
X85300500Y-85151153D01*
X85300500Y-83821153D01*
X90644500Y-83821153D01*
X90644500Y-83978846D01*
X90675261Y-84133489D01*
X90675264Y-84133501D01*
X90735602Y-84279172D01*
X90735609Y-84279185D01*
X90823210Y-84410288D01*
X90823213Y-84410292D01*
X90934707Y-84521786D01*
X90934711Y-84521789D01*
X91065814Y-84609390D01*
X91065827Y-84609397D01*
X91211498Y-84669735D01*
X91211503Y-84669737D01*
X91366153Y-84700499D01*
X91366156Y-84700500D01*
X91366158Y-84700500D01*
X91523844Y-84700500D01*
X91523845Y-84700499D01*
X91678497Y-84669737D01*
X91809196Y-84615600D01*
X91824172Y-84609397D01*
X91824172Y-84609396D01*
X91824179Y-84609394D01*
X91955289Y-84521789D01*
X92066789Y-84410289D01*
X92154394Y-84279179D01*
X92159626Y-84266549D01*
X92185574Y-84203903D01*
X92214737Y-84133497D01*
X92245500Y-83978842D01*
X92245500Y-83821158D01*
X92245500Y-83821155D01*
X92245499Y-83821153D01*
X92234627Y-83766498D01*
X92214737Y-83666503D01*
X92195812Y-83620814D01*
X92154397Y-83520827D01*
X92154390Y-83520814D01*
X92066789Y-83389711D01*
X92066786Y-83389707D01*
X91955292Y-83278213D01*
X91955288Y-83278210D01*
X91824185Y-83190609D01*
X91824172Y-83190602D01*
X91678501Y-83130264D01*
X91678489Y-83130261D01*
X91523845Y-83099500D01*
X91523842Y-83099500D01*
X91366158Y-83099500D01*
X91366155Y-83099500D01*
X91211510Y-83130261D01*
X91211498Y-83130264D01*
X91065827Y-83190602D01*
X91065814Y-83190609D01*
X90934711Y-83278210D01*
X90934707Y-83278213D01*
X90823213Y-83389707D01*
X90823210Y-83389711D01*
X90735609Y-83520814D01*
X90735602Y-83520827D01*
X90675264Y-83666498D01*
X90675261Y-83666510D01*
X90644500Y-83821153D01*
X85300500Y-83821153D01*
X85300500Y-82451530D01*
X104579500Y-82451530D01*
X104579500Y-83658469D01*
X104619868Y-83861412D01*
X104619870Y-83861420D01*
X104699059Y-84052598D01*
X104716595Y-84078842D01*
X104814024Y-84224657D01*
X104960342Y-84370975D01*
X104960345Y-84370977D01*
X105132402Y-84485941D01*
X105323580Y-84565130D01*
X105526530Y-84605499D01*
X105526534Y-84605500D01*
X105526535Y-84605500D01*
X105733466Y-84605500D01*
X105733467Y-84605499D01*
X105936420Y-84565130D01*
X106127598Y-84485941D01*
X106299655Y-84370977D01*
X106438230Y-84232401D01*
X106499549Y-84198919D01*
X106569241Y-84203903D01*
X106594797Y-84216981D01*
X106658741Y-84259707D01*
X106668982Y-84266550D01*
X106819206Y-84328774D01*
X106819211Y-84328776D01*
X106819215Y-84328776D01*
X106819216Y-84328777D01*
X106978692Y-84360500D01*
X106978695Y-84360500D01*
X107141307Y-84360500D01*
X107248598Y-84339157D01*
X107300789Y-84328776D01*
X107420544Y-84279172D01*
X107451019Y-84266549D01*
X107451023Y-84266547D01*
X107525202Y-84216982D01*
X107586225Y-84176208D01*
X107701208Y-84061225D01*
X107739545Y-84003848D01*
X107793156Y-83959045D01*
X107862481Y-83950337D01*
X107925509Y-83980491D01*
X107962228Y-84039933D01*
X107964264Y-84096931D01*
X107949500Y-84171153D01*
X107949500Y-84328846D01*
X107980261Y-84483489D01*
X107980264Y-84483501D01*
X108040602Y-84629172D01*
X108040609Y-84629185D01*
X108128210Y-84760288D01*
X108128213Y-84760292D01*
X108239707Y-84871786D01*
X108239711Y-84871789D01*
X108370814Y-84959390D01*
X108370827Y-84959397D01*
X108516498Y-85019735D01*
X108516503Y-85019737D01*
X108671153Y-85050499D01*
X108671156Y-85050500D01*
X108671158Y-85050500D01*
X108828844Y-85050500D01*
X108964837Y-85023449D01*
X108964837Y-85023448D01*
X108983497Y-85019737D01*
X109129179Y-84959394D01*
X109260289Y-84871789D01*
X109371789Y-84760289D01*
X109455912Y-84634389D01*
X109509524Y-84589585D01*
X109578849Y-84580878D01*
X109641876Y-84611032D01*
X109646695Y-84615600D01*
X109652881Y-84621786D01*
X109652885Y-84621789D01*
X109783988Y-84709390D01*
X109784001Y-84709397D01*
X109929672Y-84769735D01*
X109929677Y-84769737D01*
X110084327Y-84800499D01*
X110084330Y-84800500D01*
X110084332Y-84800500D01*
X110242018Y-84800500D01*
X110242019Y-84800499D01*
X110396671Y-84769737D01*
X110542353Y-84709394D01*
X110673463Y-84621789D01*
X110784963Y-84510289D01*
X110872568Y-84379179D01*
X110932911Y-84233497D01*
X110963674Y-84078842D01*
X110963674Y-83921158D01*
X110963674Y-83921155D01*
X110963673Y-83921153D01*
X110954793Y-83876510D01*
X110932911Y-83766503D01*
X110921814Y-83739713D01*
X110872571Y-83620827D01*
X110872564Y-83620814D01*
X110869552Y-83616307D01*
X112014499Y-83616307D01*
X112046222Y-83775783D01*
X112046225Y-83775793D01*
X112108450Y-83926019D01*
X112108452Y-83926023D01*
X112198788Y-84061220D01*
X112198794Y-84061228D01*
X112313771Y-84176205D01*
X112313779Y-84176211D01*
X112448976Y-84266547D01*
X112448980Y-84266549D01*
X112599206Y-84328774D01*
X112599211Y-84328776D01*
X112599215Y-84328776D01*
X112599216Y-84328777D01*
X112758692Y-84360500D01*
X112758695Y-84360500D01*
X112921307Y-84360500D01*
X113028598Y-84339157D01*
X113080789Y-84328776D01*
X113231021Y-84266548D01*
X113305202Y-84216982D01*
X113371876Y-84196105D01*
X113439256Y-84214589D01*
X113461771Y-84232404D01*
X113600342Y-84370975D01*
X113600345Y-84370977D01*
X113772402Y-84485941D01*
X113963580Y-84565130D01*
X114166530Y-84605499D01*
X114166534Y-84605500D01*
X114166535Y-84605500D01*
X114373466Y-84605500D01*
X114373467Y-84605499D01*
X114576420Y-84565130D01*
X114767598Y-84485941D01*
X114939655Y-84370977D01*
X115085977Y-84224655D01*
X115200941Y-84052598D01*
X115209824Y-84031153D01*
X115769500Y-84031153D01*
X115769500Y-84188846D01*
X115800261Y-84343489D01*
X115800264Y-84343501D01*
X115860602Y-84489172D01*
X115860609Y-84489185D01*
X115948210Y-84620288D01*
X115948213Y-84620292D01*
X116059707Y-84731786D01*
X116059711Y-84731789D01*
X116190814Y-84819390D01*
X116190827Y-84819397D01*
X116336498Y-84879735D01*
X116336503Y-84879737D01*
X116491153Y-84910499D01*
X116491156Y-84910500D01*
X116491158Y-84910500D01*
X116648844Y-84910500D01*
X116648845Y-84910499D01*
X116803497Y-84879737D01*
X116949179Y-84819394D01*
X117080289Y-84731789D01*
X117191789Y-84620289D01*
X117279394Y-84489179D01*
X117339737Y-84343497D01*
X117370500Y-84188842D01*
X117370500Y-84031158D01*
X117370500Y-84031155D01*
X117370499Y-84031153D01*
X117364355Y-84000264D01*
X117339737Y-83876503D01*
X117339735Y-83876498D01*
X117279397Y-83730827D01*
X117279390Y-83730814D01*
X117191789Y-83599711D01*
X117191786Y-83599707D01*
X117080292Y-83488213D01*
X117080288Y-83488210D01*
X116949185Y-83400609D01*
X116949172Y-83400602D01*
X116803501Y-83340264D01*
X116803489Y-83340261D01*
X116648845Y-83309500D01*
X116648842Y-83309500D01*
X116491158Y-83309500D01*
X116491155Y-83309500D01*
X116336510Y-83340261D01*
X116336498Y-83340264D01*
X116190827Y-83400602D01*
X116190814Y-83400609D01*
X116059711Y-83488210D01*
X116059707Y-83488213D01*
X115948213Y-83599707D01*
X115948210Y-83599711D01*
X115860609Y-83730814D01*
X115860602Y-83730827D01*
X115800264Y-83876498D01*
X115800261Y-83876510D01*
X115769500Y-84031153D01*
X115209824Y-84031153D01*
X115280130Y-83861420D01*
X115320500Y-83658465D01*
X115320500Y-82451535D01*
X115280130Y-82248580D01*
X115200941Y-82057402D01*
X115085977Y-81885345D01*
X115085975Y-81885342D01*
X114939657Y-81739024D01*
X114853626Y-81681541D01*
X114767598Y-81624059D01*
X114576420Y-81544870D01*
X114576412Y-81544868D01*
X114373469Y-81504500D01*
X114373465Y-81504500D01*
X114166535Y-81504500D01*
X114166530Y-81504500D01*
X113963587Y-81544868D01*
X113963579Y-81544870D01*
X113772403Y-81624058D01*
X113600342Y-81739024D01*
X113454024Y-81885342D01*
X113339058Y-82057403D01*
X113259870Y-82248579D01*
X113259868Y-82248587D01*
X113219500Y-82451530D01*
X113219500Y-82617720D01*
X113199815Y-82684759D01*
X113147011Y-82730514D01*
X113077853Y-82740458D01*
X113071309Y-82739337D01*
X112921308Y-82709500D01*
X112921305Y-82709500D01*
X112758695Y-82709500D01*
X112758693Y-82709500D01*
X112599216Y-82741222D01*
X112599206Y-82741225D01*
X112448980Y-82803450D01*
X112448976Y-82803452D01*
X112313779Y-82893788D01*
X112313771Y-82893794D01*
X112198794Y-83008771D01*
X112198788Y-83008779D01*
X112108452Y-83143976D01*
X112108450Y-83143980D01*
X112046225Y-83294206D01*
X112046222Y-83294216D01*
X112014500Y-83453692D01*
X112014500Y-83453695D01*
X112014500Y-83616305D01*
X112014500Y-83616307D01*
X112014499Y-83616307D01*
X110869552Y-83616307D01*
X110802859Y-83516494D01*
X110802858Y-83516492D01*
X110784966Y-83489715D01*
X110784960Y-83489707D01*
X110673466Y-83378213D01*
X110673462Y-83378210D01*
X110542359Y-83290609D01*
X110542346Y-83290602D01*
X110396675Y-83230264D01*
X110396663Y-83230261D01*
X110242019Y-83199500D01*
X110242016Y-83199500D01*
X110084332Y-83199500D01*
X110084329Y-83199500D01*
X109929684Y-83230261D01*
X109929672Y-83230264D01*
X109784001Y-83290602D01*
X109783988Y-83290609D01*
X109652885Y-83378210D01*
X109652881Y-83378213D01*
X109541387Y-83489707D01*
X109541384Y-83489711D01*
X109457261Y-83615609D01*
X109403648Y-83660414D01*
X109334323Y-83669121D01*
X109271296Y-83638966D01*
X109266478Y-83634399D01*
X109260292Y-83628213D01*
X109260288Y-83628210D01*
X109129185Y-83540609D01*
X109129172Y-83540602D01*
X108983501Y-83480264D01*
X108983489Y-83480261D01*
X108828845Y-83449500D01*
X108828842Y-83449500D01*
X108671158Y-83449500D01*
X108671155Y-83449500D01*
X108516510Y-83480261D01*
X108516498Y-83480264D01*
X108370827Y-83540602D01*
X108370814Y-83540609D01*
X108239711Y-83628210D01*
X108239707Y-83628213D01*
X108128213Y-83739707D01*
X108128208Y-83739713D01*
X108094003Y-83790904D01*
X108040390Y-83835709D01*
X107971065Y-83844415D01*
X107908038Y-83814259D01*
X107871320Y-83754816D01*
X107869285Y-83697821D01*
X107883132Y-83628210D01*
X107885500Y-83616306D01*
X107885500Y-83453692D01*
X107853777Y-83294216D01*
X107853776Y-83294215D01*
X107853776Y-83294211D01*
X107852281Y-83290602D01*
X107791549Y-83143980D01*
X107791547Y-83143976D01*
X107701211Y-83008779D01*
X107701205Y-83008771D01*
X107586228Y-82893794D01*
X107586220Y-82893788D01*
X107451023Y-82803452D01*
X107451019Y-82803450D01*
X107300793Y-82741225D01*
X107300783Y-82741222D01*
X107141307Y-82709500D01*
X107141305Y-82709500D01*
X106978695Y-82709500D01*
X106978692Y-82709500D01*
X106828691Y-82739337D01*
X106759100Y-82733110D01*
X106703922Y-82690247D01*
X106680678Y-82624357D01*
X106680500Y-82617720D01*
X106680500Y-82451534D01*
X106680499Y-82451530D01*
X106640131Y-82248587D01*
X106640130Y-82248580D01*
X106560941Y-82057402D01*
X106445977Y-81885345D01*
X106445975Y-81885342D01*
X106299657Y-81739024D01*
X106213626Y-81681541D01*
X106127598Y-81624059D01*
X105936420Y-81544870D01*
X105936412Y-81544868D01*
X105733469Y-81504500D01*
X105733465Y-81504500D01*
X105526535Y-81504500D01*
X105526530Y-81504500D01*
X105323587Y-81544868D01*
X105323579Y-81544870D01*
X105132403Y-81624058D01*
X104960342Y-81739024D01*
X104814024Y-81885342D01*
X104699058Y-82057403D01*
X104619870Y-82248579D01*
X104619868Y-82248587D01*
X104579500Y-82451530D01*
X85300500Y-82451530D01*
X85300500Y-80640661D01*
X85320185Y-80573622D01*
X85372989Y-80527867D01*
X85442147Y-80517923D01*
X85505703Y-80546948D01*
X85524815Y-80567771D01*
X85575483Y-80637510D01*
X85742490Y-80804517D01*
X85933567Y-80943343D01*
X86032991Y-80994002D01*
X86144003Y-81050566D01*
X86144005Y-81050566D01*
X86144008Y-81050568D01*
X86264412Y-81089689D01*
X86368631Y-81123553D01*
X86601903Y-81160500D01*
X86601908Y-81160500D01*
X88838097Y-81160500D01*
X89071368Y-81123553D01*
X89295992Y-81050568D01*
X89506433Y-80943343D01*
X89536975Y-80921153D01*
X115779500Y-80921153D01*
X115779500Y-81078846D01*
X115810261Y-81233489D01*
X115810264Y-81233501D01*
X115870602Y-81379172D01*
X115870609Y-81379185D01*
X115958210Y-81510288D01*
X115958213Y-81510292D01*
X116069707Y-81621786D01*
X116069711Y-81621789D01*
X116200814Y-81709390D01*
X116200827Y-81709397D01*
X116346498Y-81769735D01*
X116346503Y-81769737D01*
X116501153Y-81800499D01*
X116501156Y-81800500D01*
X116501158Y-81800500D01*
X116658844Y-81800500D01*
X116658845Y-81800499D01*
X116813497Y-81769737D01*
X116959179Y-81709394D01*
X117090289Y-81621789D01*
X117201789Y-81510289D01*
X117289394Y-81379179D01*
X117349737Y-81233497D01*
X117380500Y-81078842D01*
X117380500Y-80921158D01*
X117380500Y-80921155D01*
X117380499Y-80921153D01*
X117349737Y-80766503D01*
X117296308Y-80637512D01*
X117289397Y-80620827D01*
X117289390Y-80620814D01*
X117201789Y-80489711D01*
X117201786Y-80489707D01*
X117090292Y-80378213D01*
X117090288Y-80378210D01*
X116959185Y-80290609D01*
X116959172Y-80290602D01*
X116813501Y-80230264D01*
X116813489Y-80230261D01*
X116658845Y-80199500D01*
X116658842Y-80199500D01*
X116501158Y-80199500D01*
X116501155Y-80199500D01*
X116346510Y-80230261D01*
X116346498Y-80230264D01*
X116200827Y-80290602D01*
X116200814Y-80290609D01*
X116069711Y-80378210D01*
X116069707Y-80378213D01*
X115958213Y-80489707D01*
X115958210Y-80489711D01*
X115870609Y-80620814D01*
X115870602Y-80620827D01*
X115810264Y-80766498D01*
X115810261Y-80766510D01*
X115779500Y-80921153D01*
X89536975Y-80921153D01*
X89697510Y-80804517D01*
X89864517Y-80637510D01*
X90003343Y-80446433D01*
X90110568Y-80235992D01*
X90183553Y-80011368D01*
X90220500Y-79778097D01*
X90220500Y-79541902D01*
X90183553Y-79308631D01*
X90110566Y-79084003D01*
X90003342Y-78873566D01*
X89864517Y-78682490D01*
X89697510Y-78515483D01*
X89506433Y-78376657D01*
X89295996Y-78269433D01*
X89071368Y-78196446D01*
X88838097Y-78159500D01*
X88838092Y-78159500D01*
X86601908Y-78159500D01*
X86601903Y-78159500D01*
X86368631Y-78196446D01*
X86144003Y-78269433D01*
X85933566Y-78376657D01*
X85824550Y-78455862D01*
X85742490Y-78515483D01*
X85742488Y-78515485D01*
X85742487Y-78515485D01*
X85575485Y-78682487D01*
X85575478Y-78682496D01*
X85524817Y-78752224D01*
X85469487Y-78794890D01*
X85399874Y-78800868D01*
X85338079Y-78768262D01*
X85303722Y-78707423D01*
X85300500Y-78679338D01*
X85300500Y-76891153D01*
X89119500Y-76891153D01*
X89119500Y-77048846D01*
X89150261Y-77203489D01*
X89150264Y-77203501D01*
X89210602Y-77349172D01*
X89210609Y-77349185D01*
X89298210Y-77480288D01*
X89298213Y-77480292D01*
X89409707Y-77591786D01*
X89409711Y-77591789D01*
X89540814Y-77679390D01*
X89540827Y-77679397D01*
X89686498Y-77739735D01*
X89686503Y-77739737D01*
X89841153Y-77770499D01*
X89841156Y-77770500D01*
X89841158Y-77770500D01*
X89998844Y-77770500D01*
X89998845Y-77770499D01*
X90153497Y-77739737D01*
X90299179Y-77679394D01*
X90430289Y-77591789D01*
X90541789Y-77480289D01*
X90629394Y-77349179D01*
X90689737Y-77203497D01*
X90720500Y-77048842D01*
X90720500Y-76891158D01*
X90720500Y-76891155D01*
X90720499Y-76891153D01*
X90704127Y-76808846D01*
X90689737Y-76736503D01*
X90670682Y-76690499D01*
X90629397Y-76590827D01*
X90629390Y-76590814D01*
X90541789Y-76459711D01*
X90541786Y-76459707D01*
X90430292Y-76348213D01*
X90430288Y-76348210D01*
X90299185Y-76260609D01*
X90299172Y-76260602D01*
X90153501Y-76200264D01*
X90153489Y-76200261D01*
X89998845Y-76169500D01*
X89998842Y-76169500D01*
X89841158Y-76169500D01*
X89841155Y-76169500D01*
X89686510Y-76200261D01*
X89686498Y-76200264D01*
X89540827Y-76260602D01*
X89540814Y-76260609D01*
X89409711Y-76348210D01*
X89409707Y-76348213D01*
X89298213Y-76459707D01*
X89298210Y-76459711D01*
X89210609Y-76590814D01*
X89210602Y-76590827D01*
X89150264Y-76736498D01*
X89150261Y-76736510D01*
X89119500Y-76891153D01*
X85300500Y-76891153D01*
X85300500Y-75821153D01*
X104770972Y-75821153D01*
X104770972Y-75978846D01*
X104801733Y-76133489D01*
X104801736Y-76133501D01*
X104862074Y-76279172D01*
X104862081Y-76279185D01*
X104949682Y-76410288D01*
X104949685Y-76410292D01*
X105061179Y-76521786D01*
X105061183Y-76521789D01*
X105192286Y-76609390D01*
X105192299Y-76609397D01*
X105313835Y-76659738D01*
X105337975Y-76669737D01*
X105492625Y-76700499D01*
X105492628Y-76700500D01*
X105492630Y-76700500D01*
X105650316Y-76700500D01*
X105650317Y-76700499D01*
X105804969Y-76669737D01*
X105950651Y-76609394D01*
X106081761Y-76521789D01*
X106193261Y-76410289D01*
X106280866Y-76279179D01*
X106280867Y-76279176D01*
X106280869Y-76279173D01*
X106318246Y-76188935D01*
X106362086Y-76134531D01*
X106428380Y-76112466D01*
X106496080Y-76129745D01*
X106543690Y-76180882D01*
X106547368Y-76188935D01*
X106580602Y-76269172D01*
X106580609Y-76269185D01*
X106668210Y-76400288D01*
X106668213Y-76400292D01*
X106779707Y-76511786D01*
X106779711Y-76511789D01*
X106910814Y-76599390D01*
X106910827Y-76599397D01*
X107035779Y-76651153D01*
X107056503Y-76659737D01*
X107211153Y-76690499D01*
X107211156Y-76690500D01*
X107211158Y-76690500D01*
X107368844Y-76690500D01*
X107368845Y-76690499D01*
X107523497Y-76659737D01*
X107544220Y-76651153D01*
X109139500Y-76651153D01*
X109139500Y-76808846D01*
X109170261Y-76963489D01*
X109170264Y-76963501D01*
X109230602Y-77109172D01*
X109230609Y-77109185D01*
X109318210Y-77240288D01*
X109318213Y-77240292D01*
X109429707Y-77351786D01*
X109429711Y-77351789D01*
X109560814Y-77439390D01*
X109560827Y-77439397D01*
X109659558Y-77480292D01*
X109706503Y-77499737D01*
X109861153Y-77530499D01*
X109861156Y-77530500D01*
X109861158Y-77530500D01*
X110018844Y-77530500D01*
X110018845Y-77530499D01*
X110173497Y-77499737D01*
X110319179Y-77439394D01*
X110450289Y-77351789D01*
X110561789Y-77240289D01*
X110649394Y-77109179D01*
X110709737Y-76963497D01*
X110740500Y-76808842D01*
X110740500Y-76651158D01*
X110740500Y-76651155D01*
X110740499Y-76651153D01*
X110732193Y-76609397D01*
X110709737Y-76496503D01*
X110709735Y-76496498D01*
X110649397Y-76350827D01*
X110649390Y-76350814D01*
X110561789Y-76219711D01*
X110561786Y-76219707D01*
X110450292Y-76108213D01*
X110450288Y-76108210D01*
X110319185Y-76020609D01*
X110319172Y-76020602D01*
X110173501Y-75960264D01*
X110173489Y-75960261D01*
X110018845Y-75929500D01*
X110018842Y-75929500D01*
X109861158Y-75929500D01*
X109861155Y-75929500D01*
X109706510Y-75960261D01*
X109706498Y-75960264D01*
X109560827Y-76020602D01*
X109560814Y-76020609D01*
X109429711Y-76108210D01*
X109429707Y-76108213D01*
X109318213Y-76219707D01*
X109318210Y-76219711D01*
X109230609Y-76350814D01*
X109230602Y-76350827D01*
X109170264Y-76496498D01*
X109170261Y-76496510D01*
X109139500Y-76651153D01*
X107544220Y-76651153D01*
X107636166Y-76613067D01*
X107669172Y-76599397D01*
X107669172Y-76599396D01*
X107669179Y-76599394D01*
X107669185Y-76599390D01*
X107755130Y-76541964D01*
X107785327Y-76521786D01*
X107800289Y-76511789D01*
X107911789Y-76400289D01*
X107999394Y-76269179D01*
X108059737Y-76123497D01*
X108090500Y-75968842D01*
X108090500Y-75811158D01*
X108090500Y-75811155D01*
X108090499Y-75811153D01*
X108074127Y-75728846D01*
X108059737Y-75656503D01*
X108036773Y-75601063D01*
X107999397Y-75510827D01*
X107999390Y-75510814D01*
X107911789Y-75379711D01*
X107911786Y-75379707D01*
X107800292Y-75268213D01*
X107800288Y-75268210D01*
X107669185Y-75180609D01*
X107669172Y-75180602D01*
X107523501Y-75120264D01*
X107523489Y-75120261D01*
X107368845Y-75089500D01*
X107368842Y-75089500D01*
X107211158Y-75089500D01*
X107211155Y-75089500D01*
X107056510Y-75120261D01*
X107056498Y-75120264D01*
X106910827Y-75180602D01*
X106910814Y-75180609D01*
X106779711Y-75268210D01*
X106779707Y-75268213D01*
X106668213Y-75379707D01*
X106668210Y-75379711D01*
X106580609Y-75510814D01*
X106580604Y-75510824D01*
X106543225Y-75601065D01*
X106499384Y-75655469D01*
X106433089Y-75677533D01*
X106365390Y-75660253D01*
X106317780Y-75609116D01*
X106314113Y-75601088D01*
X106280866Y-75520821D01*
X106280862Y-75520814D01*
X106193261Y-75389711D01*
X106193258Y-75389707D01*
X106081764Y-75278213D01*
X106081760Y-75278210D01*
X105950657Y-75190609D01*
X105950644Y-75190602D01*
X105804973Y-75130264D01*
X105804961Y-75130261D01*
X105650317Y-75099500D01*
X105650314Y-75099500D01*
X105492630Y-75099500D01*
X105492627Y-75099500D01*
X105337982Y-75130261D01*
X105337970Y-75130264D01*
X105192299Y-75190602D01*
X105192286Y-75190609D01*
X105061183Y-75278210D01*
X105061179Y-75278213D01*
X104949685Y-75389707D01*
X104949682Y-75389711D01*
X104862081Y-75520814D01*
X104862074Y-75520827D01*
X104801736Y-75666498D01*
X104801733Y-75666510D01*
X104770972Y-75821153D01*
X85300500Y-75821153D01*
X85300500Y-74431153D01*
X122369500Y-74431153D01*
X122369500Y-74588846D01*
X122400261Y-74743489D01*
X122400264Y-74743501D01*
X122460602Y-74889172D01*
X122460609Y-74889185D01*
X122548210Y-75020288D01*
X122548213Y-75020292D01*
X122659707Y-75131786D01*
X122659711Y-75131789D01*
X122790814Y-75219390D01*
X122790827Y-75219397D01*
X122914992Y-75270827D01*
X122936503Y-75279737D01*
X123091153Y-75310499D01*
X123091156Y-75310500D01*
X123091158Y-75310500D01*
X123248844Y-75310500D01*
X123248845Y-75310499D01*
X123403497Y-75279737D01*
X123549179Y-75219394D01*
X123680289Y-75131789D01*
X123791789Y-75020289D01*
X123879394Y-74889179D01*
X123939737Y-74743497D01*
X123970500Y-74588842D01*
X123970500Y-74431158D01*
X123970500Y-74431155D01*
X123970499Y-74431153D01*
X123939738Y-74276510D01*
X123939737Y-74276503D01*
X123927309Y-74246498D01*
X123879397Y-74130827D01*
X123879390Y-74130814D01*
X123791789Y-73999711D01*
X123791786Y-73999707D01*
X123680292Y-73888213D01*
X123680288Y-73888210D01*
X123549185Y-73800609D01*
X123549172Y-73800602D01*
X123403501Y-73740264D01*
X123403489Y-73740261D01*
X123248845Y-73709500D01*
X123248842Y-73709500D01*
X123091158Y-73709500D01*
X123091155Y-73709500D01*
X122936510Y-73740261D01*
X122936498Y-73740264D01*
X122790827Y-73800602D01*
X122790814Y-73800609D01*
X122659711Y-73888210D01*
X122659707Y-73888213D01*
X122548213Y-73999707D01*
X122548210Y-73999711D01*
X122460609Y-74130814D01*
X122460602Y-74130827D01*
X122400264Y-74276498D01*
X122400261Y-74276510D01*
X122369500Y-74431153D01*
X85300500Y-74431153D01*
X85300500Y-73131153D01*
X123839500Y-73131153D01*
X123839500Y-73288846D01*
X123870261Y-73443489D01*
X123870264Y-73443501D01*
X123930602Y-73589172D01*
X123930609Y-73589185D01*
X124018210Y-73720288D01*
X124018213Y-73720292D01*
X124129707Y-73831786D01*
X124129711Y-73831789D01*
X124260814Y-73919390D01*
X124260827Y-73919397D01*
X124382288Y-73969707D01*
X124406503Y-73979737D01*
X124561153Y-74010499D01*
X124561156Y-74010500D01*
X124561158Y-74010500D01*
X124718844Y-74010500D01*
X124718845Y-74010499D01*
X124873497Y-73979737D01*
X125019179Y-73919394D01*
X125047607Y-73900398D01*
X125114283Y-73879520D01*
X125181664Y-73898003D01*
X125228355Y-73949981D01*
X125239533Y-74018951D01*
X125219602Y-74072389D01*
X125200611Y-74100811D01*
X125200602Y-74100827D01*
X125140264Y-74246498D01*
X125140261Y-74246510D01*
X125109500Y-74401153D01*
X125109500Y-74558846D01*
X125141346Y-74718947D01*
X125135119Y-74788538D01*
X125092256Y-74843716D01*
X125026366Y-74866960D01*
X124995538Y-74864755D01*
X124918846Y-74849500D01*
X124918842Y-74849500D01*
X124761158Y-74849500D01*
X124761155Y-74849500D01*
X124606510Y-74880261D01*
X124606498Y-74880264D01*
X124460827Y-74940602D01*
X124460814Y-74940609D01*
X124329711Y-75028210D01*
X124329707Y-75028213D01*
X124218213Y-75139707D01*
X124218210Y-75139711D01*
X124130609Y-75270814D01*
X124130602Y-75270827D01*
X124070264Y-75416498D01*
X124070261Y-75416510D01*
X124039500Y-75571153D01*
X124039500Y-75728846D01*
X124070261Y-75883489D01*
X124070264Y-75883501D01*
X124130602Y-76029172D01*
X124130609Y-76029185D01*
X124218210Y-76160288D01*
X124218213Y-76160292D01*
X124329707Y-76271786D01*
X124329711Y-76271789D01*
X124460814Y-76359390D01*
X124460827Y-76359397D01*
X124606498Y-76419735D01*
X124606503Y-76419737D01*
X124761153Y-76450499D01*
X124761156Y-76450500D01*
X124761158Y-76450500D01*
X124918844Y-76450500D01*
X124918845Y-76450499D01*
X125073497Y-76419737D01*
X125219179Y-76359394D01*
X125350289Y-76271789D01*
X125461789Y-76160289D01*
X125549394Y-76029179D01*
X125609737Y-75883497D01*
X125640500Y-75728842D01*
X125640500Y-75571158D01*
X125640500Y-75571155D01*
X125608653Y-75411053D01*
X125614880Y-75341461D01*
X125657743Y-75286284D01*
X125723633Y-75263039D01*
X125754461Y-75265243D01*
X125771545Y-75268642D01*
X125831156Y-75280500D01*
X125831158Y-75280500D01*
X125988844Y-75280500D01*
X125988845Y-75280499D01*
X126143497Y-75249737D01*
X126289179Y-75189394D01*
X126420289Y-75101789D01*
X126531789Y-74990289D01*
X126619394Y-74859179D01*
X126679737Y-74713497D01*
X126710500Y-74558842D01*
X126710500Y-74401158D01*
X126710500Y-74401155D01*
X126710499Y-74401153D01*
X126679737Y-74246503D01*
X126631823Y-74130827D01*
X126619397Y-74100827D01*
X126619390Y-74100814D01*
X126531789Y-73969711D01*
X126531786Y-73969707D01*
X126420292Y-73858213D01*
X126420288Y-73858210D01*
X126289185Y-73770609D01*
X126289172Y-73770602D01*
X126143501Y-73710264D01*
X126143489Y-73710261D01*
X125988845Y-73679500D01*
X125988842Y-73679500D01*
X125831158Y-73679500D01*
X125831155Y-73679500D01*
X125676510Y-73710261D01*
X125676498Y-73710264D01*
X125530827Y-73770602D01*
X125530811Y-73770611D01*
X125502389Y-73789602D01*
X125435712Y-73810479D01*
X125368332Y-73791994D01*
X125321642Y-73740014D01*
X125310467Y-73671044D01*
X125330398Y-73617608D01*
X125349394Y-73589179D01*
X125409737Y-73443497D01*
X125440500Y-73288842D01*
X125440500Y-73201153D01*
X128449500Y-73201153D01*
X128449500Y-73358846D01*
X128480261Y-73513489D01*
X128480264Y-73513501D01*
X128540602Y-73659172D01*
X128540609Y-73659185D01*
X128628210Y-73790288D01*
X128628213Y-73790292D01*
X128739707Y-73901786D01*
X128739711Y-73901789D01*
X128870814Y-73989390D01*
X128870827Y-73989397D01*
X128942178Y-74018951D01*
X129016503Y-74049737D01*
X129130382Y-74072389D01*
X129171153Y-74080499D01*
X129171156Y-74080500D01*
X129171158Y-74080500D01*
X129328844Y-74080500D01*
X129328845Y-74080499D01*
X129483497Y-74049737D01*
X129629179Y-73989394D01*
X129760289Y-73901789D01*
X129871789Y-73790289D01*
X129959394Y-73659179D01*
X130019737Y-73513497D01*
X130050500Y-73358842D01*
X130050500Y-73201158D01*
X130050500Y-73201155D01*
X130050499Y-73201153D01*
X130019738Y-73046510D01*
X130019737Y-73046503D01*
X129990745Y-72976510D01*
X129959397Y-72900827D01*
X129959390Y-72900814D01*
X129871789Y-72769711D01*
X129871786Y-72769707D01*
X129760292Y-72658213D01*
X129760288Y-72658210D01*
X129629185Y-72570609D01*
X129629172Y-72570602D01*
X129483501Y-72510264D01*
X129483489Y-72510261D01*
X129328845Y-72479500D01*
X129328842Y-72479500D01*
X129171158Y-72479500D01*
X129171155Y-72479500D01*
X129016510Y-72510261D01*
X129016498Y-72510264D01*
X128870827Y-72570602D01*
X128870814Y-72570609D01*
X128739711Y-72658210D01*
X128739707Y-72658213D01*
X128628213Y-72769707D01*
X128628210Y-72769711D01*
X128540609Y-72900814D01*
X128540602Y-72900827D01*
X128480264Y-73046498D01*
X128480261Y-73046510D01*
X128449500Y-73201153D01*
X125440500Y-73201153D01*
X125440500Y-73131158D01*
X125440500Y-73131155D01*
X125440499Y-73131153D01*
X125409738Y-72976510D01*
X125409737Y-72976503D01*
X125409735Y-72976498D01*
X125349397Y-72830827D01*
X125349390Y-72830814D01*
X125261789Y-72699711D01*
X125261786Y-72699707D01*
X125150292Y-72588213D01*
X125150288Y-72588210D01*
X125019185Y-72500609D01*
X125019172Y-72500602D01*
X124873501Y-72440264D01*
X124873489Y-72440261D01*
X124718845Y-72409500D01*
X124718842Y-72409500D01*
X124561158Y-72409500D01*
X124561155Y-72409500D01*
X124406510Y-72440261D01*
X124406498Y-72440264D01*
X124260827Y-72500602D01*
X124260814Y-72500609D01*
X124129711Y-72588210D01*
X124129707Y-72588213D01*
X124018213Y-72699707D01*
X124018210Y-72699711D01*
X123930609Y-72830814D01*
X123930602Y-72830827D01*
X123870264Y-72976498D01*
X123870261Y-72976510D01*
X123839500Y-73131153D01*
X85300500Y-73131153D01*
X85300500Y-71168133D01*
X85320185Y-71101094D01*
X85372989Y-71055339D01*
X85442147Y-71045395D01*
X85505703Y-71074420D01*
X85524817Y-71095246D01*
X85595483Y-71192510D01*
X85762490Y-71359517D01*
X85953567Y-71498343D01*
X86033051Y-71538842D01*
X86164003Y-71605566D01*
X86164005Y-71605566D01*
X86164008Y-71605568D01*
X86284412Y-71644689D01*
X86388631Y-71678553D01*
X86621903Y-71715500D01*
X86621908Y-71715500D01*
X88858097Y-71715500D01*
X89091368Y-71678553D01*
X89315992Y-71605568D01*
X89526433Y-71498343D01*
X89687731Y-71381153D01*
X125579500Y-71381153D01*
X125579500Y-71538846D01*
X125610261Y-71693489D01*
X125610264Y-71693501D01*
X125670602Y-71839172D01*
X125670609Y-71839185D01*
X125758210Y-71970288D01*
X125758213Y-71970292D01*
X125869707Y-72081786D01*
X125869711Y-72081789D01*
X126000814Y-72169390D01*
X126000827Y-72169397D01*
X126145665Y-72229390D01*
X126146503Y-72229737D01*
X126301153Y-72260499D01*
X126301156Y-72260500D01*
X126301158Y-72260500D01*
X126458844Y-72260500D01*
X126458845Y-72260499D01*
X126613497Y-72229737D01*
X126759179Y-72169394D01*
X126890289Y-72081789D01*
X127001789Y-71970289D01*
X127089394Y-71839179D01*
X127149737Y-71693497D01*
X127180500Y-71538842D01*
X127180500Y-71441153D01*
X130849500Y-71441153D01*
X130849500Y-71598846D01*
X130880261Y-71753489D01*
X130880264Y-71753501D01*
X130940602Y-71899172D01*
X130940609Y-71899185D01*
X131028210Y-72030288D01*
X131028213Y-72030292D01*
X131139707Y-72141786D01*
X131139711Y-72141789D01*
X131270814Y-72229390D01*
X131270827Y-72229397D01*
X131416498Y-72289735D01*
X131416503Y-72289737D01*
X131571153Y-72320499D01*
X131571156Y-72320500D01*
X131571158Y-72320500D01*
X131728844Y-72320500D01*
X131728845Y-72320499D01*
X131883497Y-72289737D01*
X132029179Y-72229394D01*
X132160289Y-72141789D01*
X132271789Y-72030289D01*
X132359394Y-71899179D01*
X132419737Y-71753497D01*
X132450500Y-71598842D01*
X132450500Y-71441158D01*
X132450500Y-71441155D01*
X132450499Y-71441153D01*
X132438565Y-71381158D01*
X132419737Y-71286503D01*
X132419735Y-71286498D01*
X132359397Y-71140827D01*
X132359390Y-71140814D01*
X132271789Y-71009711D01*
X132271786Y-71009707D01*
X132160292Y-70898213D01*
X132160288Y-70898210D01*
X132029185Y-70810609D01*
X132029172Y-70810602D01*
X131883501Y-70750264D01*
X131883489Y-70750261D01*
X131728845Y-70719500D01*
X131728842Y-70719500D01*
X131571158Y-70719500D01*
X131571155Y-70719500D01*
X131416510Y-70750261D01*
X131416498Y-70750264D01*
X131270827Y-70810602D01*
X131270814Y-70810609D01*
X131139711Y-70898210D01*
X131139707Y-70898213D01*
X131028213Y-71009707D01*
X131028210Y-71009711D01*
X130940609Y-71140814D01*
X130940602Y-71140827D01*
X130880264Y-71286498D01*
X130880261Y-71286510D01*
X130849500Y-71441153D01*
X127180500Y-71441153D01*
X127180500Y-71381158D01*
X127180500Y-71381155D01*
X127180499Y-71381153D01*
X127149738Y-71226510D01*
X127149737Y-71226503D01*
X127114244Y-71140814D01*
X127089397Y-71080827D01*
X127089390Y-71080814D01*
X127001789Y-70949711D01*
X127001786Y-70949707D01*
X126890292Y-70838213D01*
X126890288Y-70838210D01*
X126759185Y-70750609D01*
X126759172Y-70750602D01*
X126613501Y-70690264D01*
X126613489Y-70690261D01*
X126458845Y-70659500D01*
X126458842Y-70659500D01*
X126301158Y-70659500D01*
X126301155Y-70659500D01*
X126146510Y-70690261D01*
X126146498Y-70690264D01*
X126000827Y-70750602D01*
X126000814Y-70750609D01*
X125869711Y-70838210D01*
X125869707Y-70838213D01*
X125758213Y-70949707D01*
X125758210Y-70949711D01*
X125670609Y-71080814D01*
X125670602Y-71080827D01*
X125610264Y-71226498D01*
X125610261Y-71226510D01*
X125579500Y-71381153D01*
X89687731Y-71381153D01*
X89717510Y-71359517D01*
X89884517Y-71192510D01*
X90023343Y-71001433D01*
X90130568Y-70790992D01*
X90203553Y-70566368D01*
X90240500Y-70333097D01*
X90240500Y-70096902D01*
X90203553Y-69863631D01*
X90163545Y-69740500D01*
X90130568Y-69639008D01*
X90130566Y-69639005D01*
X90130566Y-69639003D01*
X90070840Y-69521786D01*
X90023343Y-69428567D01*
X89884517Y-69237490D01*
X89717510Y-69070483D01*
X89622086Y-69001153D01*
X101582000Y-69001153D01*
X101582000Y-69158846D01*
X101612761Y-69313489D01*
X101612764Y-69313501D01*
X101673102Y-69459172D01*
X101673109Y-69459185D01*
X101760710Y-69590288D01*
X101760713Y-69590292D01*
X101872207Y-69701786D01*
X101872211Y-69701789D01*
X102003314Y-69789390D01*
X102003327Y-69789397D01*
X102148998Y-69849735D01*
X102149003Y-69849737D01*
X102303653Y-69880499D01*
X102303656Y-69880500D01*
X102303658Y-69880500D01*
X102461344Y-69880500D01*
X102461345Y-69880499D01*
X102615997Y-69849737D01*
X102761679Y-69789394D01*
X102892789Y-69701789D01*
X103004289Y-69590289D01*
X103091894Y-69459179D01*
X103152237Y-69313497D01*
X103183000Y-69158842D01*
X103183000Y-69001158D01*
X103183000Y-69001155D01*
X103182999Y-69001153D01*
X103158753Y-68879257D01*
X103155151Y-68861153D01*
X103442000Y-68861153D01*
X103442000Y-69018846D01*
X103472761Y-69173489D01*
X103472764Y-69173501D01*
X103533102Y-69319172D01*
X103533109Y-69319185D01*
X103620710Y-69450288D01*
X103620713Y-69450292D01*
X103732207Y-69561786D01*
X103732211Y-69561789D01*
X103863314Y-69649390D01*
X103863327Y-69649397D01*
X104008998Y-69709735D01*
X104009003Y-69709737D01*
X104163653Y-69740499D01*
X104163656Y-69740500D01*
X104163658Y-69740500D01*
X104321344Y-69740500D01*
X104321345Y-69740499D01*
X104475997Y-69709737D01*
X104621679Y-69649394D01*
X104752789Y-69561789D01*
X104864289Y-69450289D01*
X104951894Y-69319179D01*
X105012237Y-69173497D01*
X105043000Y-69018842D01*
X105043000Y-68861158D01*
X105035043Y-68821158D01*
X105035042Y-68821153D01*
X109299500Y-68821153D01*
X109299500Y-68978846D01*
X109330261Y-69133489D01*
X109330264Y-69133501D01*
X109390602Y-69279172D01*
X109390609Y-69279185D01*
X109478210Y-69410288D01*
X109478213Y-69410292D01*
X109589707Y-69521786D01*
X109589711Y-69521789D01*
X109720814Y-69609390D01*
X109720827Y-69609397D01*
X109866498Y-69669735D01*
X109866503Y-69669737D01*
X110021153Y-69700499D01*
X110021156Y-69700500D01*
X110021158Y-69700500D01*
X110178844Y-69700500D01*
X110178845Y-69700499D01*
X110333497Y-69669737D01*
X110479179Y-69609394D01*
X110610289Y-69521789D01*
X110721789Y-69410289D01*
X110809394Y-69279179D01*
X110869737Y-69133497D01*
X110900500Y-68978842D01*
X110900500Y-68821158D01*
X110900500Y-68821155D01*
X110900499Y-68821153D01*
X110869737Y-68666503D01*
X110825965Y-68560827D01*
X110809397Y-68520827D01*
X110809390Y-68520814D01*
X110784763Y-68483957D01*
X110742798Y-68421153D01*
X130839500Y-68421153D01*
X130839500Y-68578846D01*
X130870261Y-68733489D01*
X130870264Y-68733501D01*
X130930602Y-68879172D01*
X130930609Y-68879185D01*
X131018210Y-69010288D01*
X131018213Y-69010292D01*
X131129707Y-69121786D01*
X131129711Y-69121789D01*
X131260814Y-69209390D01*
X131260827Y-69209397D01*
X131406498Y-69269735D01*
X131406503Y-69269737D01*
X131561153Y-69300499D01*
X131561156Y-69300500D01*
X131561158Y-69300500D01*
X131718844Y-69300500D01*
X131718845Y-69300499D01*
X131873497Y-69269737D01*
X132019179Y-69209394D01*
X132150289Y-69121789D01*
X132261789Y-69010289D01*
X132349394Y-68879179D01*
X132356859Y-68861158D01*
X132409735Y-68733501D01*
X132409737Y-68733497D01*
X132440500Y-68578842D01*
X132440500Y-68421158D01*
X132440500Y-68421155D01*
X132440499Y-68421153D01*
X132430445Y-68370609D01*
X132409737Y-68266503D01*
X132409735Y-68266498D01*
X132349397Y-68120827D01*
X132349390Y-68120814D01*
X132261789Y-67989711D01*
X132261786Y-67989707D01*
X132150292Y-67878213D01*
X132150288Y-67878210D01*
X132019185Y-67790609D01*
X132019172Y-67790602D01*
X131873501Y-67730264D01*
X131873489Y-67730261D01*
X131718845Y-67699500D01*
X131718842Y-67699500D01*
X131561158Y-67699500D01*
X131561155Y-67699500D01*
X131406510Y-67730261D01*
X131406498Y-67730264D01*
X131260827Y-67790602D01*
X131260814Y-67790609D01*
X131129711Y-67878210D01*
X131129707Y-67878213D01*
X131018213Y-67989707D01*
X131018210Y-67989711D01*
X130930609Y-68120814D01*
X130930602Y-68120827D01*
X130870264Y-68266498D01*
X130870261Y-68266510D01*
X130839500Y-68421153D01*
X110742798Y-68421153D01*
X110721789Y-68389711D01*
X110721786Y-68389707D01*
X110610292Y-68278213D01*
X110610288Y-68278210D01*
X110479185Y-68190609D01*
X110479172Y-68190602D01*
X110333501Y-68130264D01*
X110333489Y-68130261D01*
X110178845Y-68099500D01*
X110178842Y-68099500D01*
X110021158Y-68099500D01*
X110021155Y-68099500D01*
X109866510Y-68130261D01*
X109866498Y-68130264D01*
X109720827Y-68190602D01*
X109720814Y-68190609D01*
X109589711Y-68278210D01*
X109589707Y-68278213D01*
X109478213Y-68389707D01*
X109478210Y-68389711D01*
X109390609Y-68520814D01*
X109390602Y-68520827D01*
X109330264Y-68666498D01*
X109330261Y-68666510D01*
X109299500Y-68821153D01*
X105035042Y-68821153D01*
X105017605Y-68733489D01*
X105012237Y-68706503D01*
X105009886Y-68700827D01*
X104951897Y-68560827D01*
X104951890Y-68560814D01*
X104864289Y-68429711D01*
X104864286Y-68429707D01*
X104752792Y-68318213D01*
X104752788Y-68318210D01*
X104621685Y-68230609D01*
X104621672Y-68230602D01*
X104476001Y-68170264D01*
X104475989Y-68170261D01*
X104321345Y-68139500D01*
X104321342Y-68139500D01*
X104163658Y-68139500D01*
X104163655Y-68139500D01*
X104009010Y-68170261D01*
X104008998Y-68170264D01*
X103863327Y-68230602D01*
X103863314Y-68230609D01*
X103732211Y-68318210D01*
X103732207Y-68318213D01*
X103620713Y-68429707D01*
X103620710Y-68429711D01*
X103533109Y-68560814D01*
X103533102Y-68560827D01*
X103472764Y-68706498D01*
X103472761Y-68706510D01*
X103442000Y-68861153D01*
X103155151Y-68861153D01*
X103152238Y-68846508D01*
X103152237Y-68846507D01*
X103152237Y-68846503D01*
X103152235Y-68846498D01*
X103091897Y-68700827D01*
X103091890Y-68700814D01*
X103004289Y-68569711D01*
X103004286Y-68569707D01*
X102892792Y-68458213D01*
X102892788Y-68458210D01*
X102761685Y-68370609D01*
X102761672Y-68370602D01*
X102616001Y-68310264D01*
X102615989Y-68310261D01*
X102461345Y-68279500D01*
X102461342Y-68279500D01*
X102303658Y-68279500D01*
X102303655Y-68279500D01*
X102149010Y-68310261D01*
X102148998Y-68310264D01*
X102003327Y-68370602D01*
X102003314Y-68370609D01*
X101872211Y-68458210D01*
X101872207Y-68458213D01*
X101760713Y-68569707D01*
X101760710Y-68569711D01*
X101673109Y-68700814D01*
X101673102Y-68700827D01*
X101612764Y-68846498D01*
X101612761Y-68846510D01*
X101582000Y-69001153D01*
X89622086Y-69001153D01*
X89526433Y-68931657D01*
X89315996Y-68824433D01*
X89091368Y-68751446D01*
X88858097Y-68714500D01*
X88858092Y-68714500D01*
X86621908Y-68714500D01*
X86621903Y-68714500D01*
X86388631Y-68751446D01*
X86164003Y-68824433D01*
X85953566Y-68931657D01*
X85857907Y-69001158D01*
X85762490Y-69070483D01*
X85762488Y-69070485D01*
X85762487Y-69070485D01*
X85595485Y-69237487D01*
X85595485Y-69237488D01*
X85595483Y-69237490D01*
X85536128Y-69319185D01*
X85524818Y-69334752D01*
X85469488Y-69377417D01*
X85399874Y-69383396D01*
X85338079Y-69350790D01*
X85303722Y-69289951D01*
X85300500Y-69261866D01*
X85300500Y-63903013D01*
X90247000Y-63903013D01*
X90247000Y-64091986D01*
X90276559Y-64278618D01*
X90334954Y-64458336D01*
X90400456Y-64586890D01*
X90420740Y-64626699D01*
X90531810Y-64779573D01*
X90665427Y-64913190D01*
X90818301Y-65024260D01*
X90820195Y-65025225D01*
X90821908Y-65026469D01*
X90822449Y-65026801D01*
X90822422Y-65026843D01*
X90851583Y-65048029D01*
X91358906Y-65555352D01*
X91273802Y-65578156D01*
X91171186Y-65637401D01*
X91087401Y-65721186D01*
X91028156Y-65823802D01*
X91005352Y-65908905D01*
X90439616Y-65343169D01*
X90439616Y-65343170D01*
X90421169Y-65368560D01*
X90335414Y-65536862D01*
X90277048Y-65716497D01*
X90247500Y-65903052D01*
X90247500Y-66091947D01*
X90277048Y-66278502D01*
X90335414Y-66458137D01*
X90421166Y-66626433D01*
X90439616Y-66651828D01*
X91005352Y-66086093D01*
X91028156Y-66171198D01*
X91087401Y-66273814D01*
X91171186Y-66357599D01*
X91273802Y-66416844D01*
X91358905Y-66439647D01*
X90793169Y-67005382D01*
X90793170Y-67005383D01*
X90818559Y-67023829D01*
X90986862Y-67109585D01*
X91166497Y-67167951D01*
X91353053Y-67197500D01*
X91541947Y-67197500D01*
X91728502Y-67167951D01*
X91908137Y-67109585D01*
X92076437Y-67023831D01*
X92101828Y-67005383D01*
X92101828Y-67005382D01*
X91536094Y-66439647D01*
X91621198Y-66416844D01*
X91723814Y-66357599D01*
X91807599Y-66273814D01*
X91866844Y-66171198D01*
X91889647Y-66086093D01*
X92455382Y-66651828D01*
X92455383Y-66651828D01*
X92473831Y-66626437D01*
X92559585Y-66458137D01*
X92591097Y-66361153D01*
X111769500Y-66361153D01*
X111769500Y-66518846D01*
X111800261Y-66673489D01*
X111800264Y-66673501D01*
X111860602Y-66819172D01*
X111860609Y-66819185D01*
X111948210Y-66950288D01*
X111948213Y-66950292D01*
X112059707Y-67061786D01*
X112059711Y-67061789D01*
X112190814Y-67149390D01*
X112190827Y-67149397D01*
X112306960Y-67197500D01*
X112336503Y-67209737D01*
X112491153Y-67240499D01*
X112491156Y-67240500D01*
X112491158Y-67240500D01*
X112648844Y-67240500D01*
X112648845Y-67240499D01*
X112803497Y-67209737D01*
X112949179Y-67149394D01*
X113080289Y-67061789D01*
X113191789Y-66950289D01*
X113279394Y-66819179D01*
X113339737Y-66673497D01*
X113370500Y-66518842D01*
X113370500Y-66361158D01*
X113370500Y-66361155D01*
X113370499Y-66361153D01*
X113361666Y-66316748D01*
X113339737Y-66206503D01*
X113292287Y-66091947D01*
X113279397Y-66060827D01*
X113279390Y-66060814D01*
X113191789Y-65929711D01*
X113191786Y-65929707D01*
X113080292Y-65818213D01*
X113080288Y-65818210D01*
X112949185Y-65730609D01*
X112949172Y-65730602D01*
X112803501Y-65670264D01*
X112803489Y-65670261D01*
X112648845Y-65639500D01*
X112648842Y-65639500D01*
X112491158Y-65639500D01*
X112491155Y-65639500D01*
X112336510Y-65670261D01*
X112336498Y-65670264D01*
X112190827Y-65730602D01*
X112190814Y-65730609D01*
X112059711Y-65818210D01*
X112059707Y-65818213D01*
X111948213Y-65929707D01*
X111948210Y-65929711D01*
X111860609Y-66060814D01*
X111860602Y-66060827D01*
X111800264Y-66206498D01*
X111800261Y-66206510D01*
X111769500Y-66361153D01*
X92591097Y-66361153D01*
X92605525Y-66316748D01*
X92617952Y-66278501D01*
X92647500Y-66091947D01*
X92647500Y-65903052D01*
X92617951Y-65716497D01*
X92559585Y-65536862D01*
X92473829Y-65368559D01*
X92455383Y-65343170D01*
X92455382Y-65343169D01*
X91889647Y-65908905D01*
X91866844Y-65823802D01*
X91807599Y-65721186D01*
X91723814Y-65637401D01*
X91621198Y-65578156D01*
X91536094Y-65555352D01*
X92043414Y-65048030D01*
X92072572Y-65026847D01*
X92072546Y-65026804D01*
X92073098Y-65026465D01*
X92074808Y-65025223D01*
X92076699Y-65024260D01*
X92229573Y-64913190D01*
X92363190Y-64779573D01*
X92474260Y-64626699D01*
X92560047Y-64458332D01*
X92618440Y-64278618D01*
X92644988Y-64111001D01*
X92648000Y-64091986D01*
X92648000Y-63903013D01*
X92618440Y-63716381D01*
X92560045Y-63536663D01*
X92474259Y-63368300D01*
X92473465Y-63367207D01*
X92363190Y-63215427D01*
X92308916Y-63161153D01*
X99849500Y-63161153D01*
X99849500Y-63318846D01*
X99880261Y-63473489D01*
X99880264Y-63473501D01*
X99940602Y-63619172D01*
X99940609Y-63619185D01*
X100028210Y-63750288D01*
X100028213Y-63750292D01*
X100139707Y-63861786D01*
X100139711Y-63861789D01*
X100270814Y-63949390D01*
X100270827Y-63949397D01*
X100416498Y-64009735D01*
X100416503Y-64009737D01*
X100571153Y-64040499D01*
X100571156Y-64040500D01*
X100571158Y-64040500D01*
X100728844Y-64040500D01*
X100728845Y-64040499D01*
X100883497Y-64009737D01*
X101029179Y-63949394D01*
X101160289Y-63861789D01*
X101223425Y-63798653D01*
X113139500Y-63798653D01*
X113139500Y-63956346D01*
X113170261Y-64110989D01*
X113170264Y-64111001D01*
X113230602Y-64256672D01*
X113230609Y-64256685D01*
X113318210Y-64387788D01*
X113318213Y-64387792D01*
X113429707Y-64499286D01*
X113429711Y-64499289D01*
X113560814Y-64586890D01*
X113560827Y-64586897D01*
X113706498Y-64647235D01*
X113706503Y-64647237D01*
X113861153Y-64677999D01*
X113861156Y-64678000D01*
X113861158Y-64678000D01*
X114018844Y-64678000D01*
X114018845Y-64677999D01*
X114173497Y-64647237D01*
X114319179Y-64586894D01*
X114450289Y-64499289D01*
X114561789Y-64387789D01*
X114649394Y-64256679D01*
X114709737Y-64110997D01*
X114740500Y-63956342D01*
X114740500Y-63798658D01*
X114740500Y-63798655D01*
X114740499Y-63798653D01*
X114730879Y-63750289D01*
X114709737Y-63644003D01*
X114665276Y-63536663D01*
X114649397Y-63498327D01*
X114649390Y-63498314D01*
X114561789Y-63367211D01*
X114561786Y-63367207D01*
X114450292Y-63255713D01*
X114450288Y-63255710D01*
X114319185Y-63168109D01*
X114319172Y-63168102D01*
X114173501Y-63107764D01*
X114173489Y-63107761D01*
X114018845Y-63077000D01*
X114018842Y-63077000D01*
X113861158Y-63077000D01*
X113861155Y-63077000D01*
X113706510Y-63107761D01*
X113706498Y-63107764D01*
X113560827Y-63168102D01*
X113560814Y-63168109D01*
X113429711Y-63255710D01*
X113429707Y-63255713D01*
X113318213Y-63367207D01*
X113318210Y-63367211D01*
X113230609Y-63498314D01*
X113230602Y-63498327D01*
X113170264Y-63643998D01*
X113170261Y-63644010D01*
X113139500Y-63798653D01*
X101223425Y-63798653D01*
X101271789Y-63750289D01*
X101359394Y-63619179D01*
X101419737Y-63473497D01*
X101450500Y-63318842D01*
X101450500Y-63161158D01*
X101450500Y-63161155D01*
X101450499Y-63161153D01*
X101439879Y-63107763D01*
X101419737Y-63006503D01*
X101404924Y-62970740D01*
X101359397Y-62860827D01*
X101359390Y-62860814D01*
X101271789Y-62729711D01*
X101271786Y-62729707D01*
X101160292Y-62618213D01*
X101160288Y-62618210D01*
X101029185Y-62530609D01*
X101029172Y-62530602D01*
X100883501Y-62470264D01*
X100883489Y-62470261D01*
X100728845Y-62439500D01*
X100728842Y-62439500D01*
X100571158Y-62439500D01*
X100571155Y-62439500D01*
X100416510Y-62470261D01*
X100416498Y-62470264D01*
X100270827Y-62530602D01*
X100270814Y-62530609D01*
X100139711Y-62618210D01*
X100139707Y-62618213D01*
X100028213Y-62729707D01*
X100028210Y-62729711D01*
X99940609Y-62860814D01*
X99940602Y-62860827D01*
X99880264Y-63006498D01*
X99880261Y-63006510D01*
X99849500Y-63161153D01*
X92308916Y-63161153D01*
X92229573Y-63081810D01*
X92076699Y-62970740D01*
X91908336Y-62884954D01*
X91728618Y-62826559D01*
X91541986Y-62797000D01*
X91541981Y-62797000D01*
X91353019Y-62797000D01*
X91353014Y-62797000D01*
X91166381Y-62826559D01*
X90986663Y-62884954D01*
X90818300Y-62970740D01*
X90769068Y-63006510D01*
X90665427Y-63081810D01*
X90665425Y-63081812D01*
X90665424Y-63081812D01*
X90531812Y-63215424D01*
X90531812Y-63215425D01*
X90531810Y-63215427D01*
X90484110Y-63281079D01*
X90420740Y-63368300D01*
X90334954Y-63536663D01*
X90276559Y-63716381D01*
X90247000Y-63903013D01*
X85300500Y-63903013D01*
X85300500Y-60971153D01*
X111769500Y-60971153D01*
X111769500Y-61128846D01*
X111800261Y-61283489D01*
X111800264Y-61283501D01*
X111860602Y-61429172D01*
X111860609Y-61429185D01*
X111948210Y-61560288D01*
X111948213Y-61560292D01*
X112059707Y-61671786D01*
X112059711Y-61671789D01*
X112190814Y-61759390D01*
X112190827Y-61759397D01*
X112336498Y-61819735D01*
X112336503Y-61819737D01*
X112491153Y-61850499D01*
X112491156Y-61850500D01*
X112491158Y-61850500D01*
X112648844Y-61850500D01*
X112648845Y-61850499D01*
X112803497Y-61819737D01*
X112949179Y-61759394D01*
X113080289Y-61671789D01*
X113191789Y-61560289D01*
X113279394Y-61429179D01*
X113339737Y-61283497D01*
X113370500Y-61128842D01*
X113370500Y-60971158D01*
X113370500Y-60971155D01*
X113370499Y-60971153D01*
X113339738Y-60816510D01*
X113339737Y-60816503D01*
X113339735Y-60816498D01*
X113279397Y-60670827D01*
X113279390Y-60670814D01*
X113191789Y-60539711D01*
X113191786Y-60539707D01*
X113139410Y-60487331D01*
X113105925Y-60426008D01*
X113110909Y-60356316D01*
X113152781Y-60300383D01*
X113158202Y-60296547D01*
X113176993Y-60283991D01*
X113180289Y-60281789D01*
X113291789Y-60170289D01*
X113379394Y-60039179D01*
X113439737Y-59893497D01*
X113470500Y-59738842D01*
X113470500Y-59581158D01*
X113470500Y-59581155D01*
X113470499Y-59581153D01*
X113439738Y-59426510D01*
X113439737Y-59426503D01*
X113403427Y-59338842D01*
X113379397Y-59280827D01*
X113379390Y-59280814D01*
X113291789Y-59149711D01*
X113291786Y-59149707D01*
X113180292Y-59038213D01*
X113180288Y-59038210D01*
X113049185Y-58950609D01*
X113049172Y-58950602D01*
X112903501Y-58890264D01*
X112903489Y-58890261D01*
X112748845Y-58859500D01*
X112748842Y-58859500D01*
X112591158Y-58859500D01*
X112591155Y-58859500D01*
X112436510Y-58890261D01*
X112436498Y-58890264D01*
X112290827Y-58950602D01*
X112290814Y-58950609D01*
X112159711Y-59038210D01*
X112159707Y-59038213D01*
X112048213Y-59149707D01*
X112048210Y-59149711D01*
X111960609Y-59280814D01*
X111960602Y-59280827D01*
X111900264Y-59426498D01*
X111900261Y-59426510D01*
X111869500Y-59581153D01*
X111869500Y-59738846D01*
X111900261Y-59893489D01*
X111900264Y-59893501D01*
X111960602Y-60039172D01*
X111960609Y-60039185D01*
X112048210Y-60170288D01*
X112048213Y-60170292D01*
X112100589Y-60222668D01*
X112134074Y-60283991D01*
X112129090Y-60353683D01*
X112087218Y-60409616D01*
X112081801Y-60413450D01*
X112059709Y-60428211D01*
X111948213Y-60539707D01*
X111948210Y-60539711D01*
X111860609Y-60670814D01*
X111860602Y-60670827D01*
X111800264Y-60816498D01*
X111800261Y-60816510D01*
X111769500Y-60971153D01*
X85300500Y-60971153D01*
X85300500Y-59181153D01*
X109339500Y-59181153D01*
X109339500Y-59338846D01*
X109370261Y-59493489D01*
X109370264Y-59493501D01*
X109430602Y-59639172D01*
X109430609Y-59639185D01*
X109518210Y-59770288D01*
X109518213Y-59770292D01*
X109629707Y-59881786D01*
X109629711Y-59881789D01*
X109760814Y-59969390D01*
X109760827Y-59969397D01*
X109906498Y-60029735D01*
X109906503Y-60029737D01*
X110061153Y-60060499D01*
X110061156Y-60060500D01*
X110061158Y-60060500D01*
X110218844Y-60060500D01*
X110218845Y-60060499D01*
X110373497Y-60029737D01*
X110519179Y-59969394D01*
X110650289Y-59881789D01*
X110761789Y-59770289D01*
X110849394Y-59639179D01*
X110909737Y-59493497D01*
X110940500Y-59338842D01*
X110940500Y-59181158D01*
X110940500Y-59181155D01*
X110940499Y-59181153D01*
X110912066Y-59038211D01*
X110909737Y-59026503D01*
X110878298Y-58950602D01*
X110849397Y-58880827D01*
X110849390Y-58880814D01*
X110761789Y-58749711D01*
X110761786Y-58749707D01*
X110650292Y-58638213D01*
X110650288Y-58638210D01*
X110519185Y-58550609D01*
X110519172Y-58550602D01*
X110373501Y-58490264D01*
X110373489Y-58490261D01*
X110218845Y-58459500D01*
X110218842Y-58459500D01*
X110061158Y-58459500D01*
X110061155Y-58459500D01*
X109906510Y-58490261D01*
X109906498Y-58490264D01*
X109760827Y-58550602D01*
X109760814Y-58550609D01*
X109629711Y-58638210D01*
X109629707Y-58638213D01*
X109518213Y-58749707D01*
X109518210Y-58749711D01*
X109430609Y-58880814D01*
X109430602Y-58880827D01*
X109370264Y-59026498D01*
X109370261Y-59026510D01*
X109339500Y-59181153D01*
X85300500Y-59181153D01*
X85300500Y-57931156D01*
X85996999Y-57931156D01*
X86032565Y-58109952D01*
X86032568Y-58109962D01*
X86102331Y-58278387D01*
X86102333Y-58278391D01*
X86203613Y-58429967D01*
X86203619Y-58429975D01*
X86332524Y-58558880D01*
X86332532Y-58558886D01*
X86484108Y-58660166D01*
X86484112Y-58660168D01*
X86652537Y-58729931D01*
X86652542Y-58729933D01*
X86652546Y-58729933D01*
X86652547Y-58729934D01*
X86831343Y-58765500D01*
X86831346Y-58765500D01*
X87013656Y-58765500D01*
X87133945Y-58741572D01*
X87192458Y-58729933D01*
X87360889Y-58660167D01*
X87360891Y-58660166D01*
X87436172Y-58609864D01*
X87512472Y-58558883D01*
X87641383Y-58429972D01*
X87742667Y-58278389D01*
X87812433Y-58109958D01*
X87848000Y-57931154D01*
X87848000Y-57748846D01*
X87848000Y-57748843D01*
X87812434Y-57570047D01*
X87812433Y-57570046D01*
X87812433Y-57570042D01*
X87812431Y-57570037D01*
X87742668Y-57401612D01*
X87742666Y-57401608D01*
X87641386Y-57250032D01*
X87641380Y-57250024D01*
X87512475Y-57121119D01*
X87512467Y-57121113D01*
X87360891Y-57019833D01*
X87360887Y-57019831D01*
X87192462Y-56950068D01*
X87192452Y-56950065D01*
X87013656Y-56914500D01*
X87013654Y-56914500D01*
X86831346Y-56914500D01*
X86831344Y-56914500D01*
X86652547Y-56950065D01*
X86652537Y-56950068D01*
X86484112Y-57019831D01*
X86484108Y-57019833D01*
X86332532Y-57121113D01*
X86332524Y-57121119D01*
X86203619Y-57250024D01*
X86203613Y-57250032D01*
X86102333Y-57401608D01*
X86102331Y-57401612D01*
X86032568Y-57570037D01*
X86032565Y-57570047D01*
X85997000Y-57748843D01*
X85997000Y-57748846D01*
X85997000Y-57931154D01*
X85997000Y-57931156D01*
X85996999Y-57931156D01*
X85300500Y-57931156D01*
X85300500Y-54931156D01*
X85996999Y-54931156D01*
X86032565Y-55109952D01*
X86032568Y-55109962D01*
X86102331Y-55278387D01*
X86102333Y-55278391D01*
X86203613Y-55429967D01*
X86203619Y-55429975D01*
X86332524Y-55558880D01*
X86332532Y-55558886D01*
X86484108Y-55660166D01*
X86484112Y-55660168D01*
X86652537Y-55729931D01*
X86652542Y-55729933D01*
X86652546Y-55729933D01*
X86652547Y-55729934D01*
X86831343Y-55765500D01*
X86831346Y-55765500D01*
X87013656Y-55765500D01*
X87133945Y-55741572D01*
X87192458Y-55729933D01*
X87360889Y-55660167D01*
X87360891Y-55660166D01*
X87436366Y-55609735D01*
X87512472Y-55558883D01*
X87641383Y-55429972D01*
X87742667Y-55278389D01*
X87812433Y-55109958D01*
X87824072Y-55051445D01*
X87848000Y-54931156D01*
X87848000Y-54761153D01*
X103089500Y-54761153D01*
X103089500Y-54918846D01*
X103120261Y-55073489D01*
X103120264Y-55073501D01*
X103180602Y-55219172D01*
X103180609Y-55219185D01*
X103268210Y-55350288D01*
X103268213Y-55350292D01*
X103379707Y-55461786D01*
X103379711Y-55461789D01*
X103510814Y-55549390D01*
X103510827Y-55549397D01*
X103656498Y-55609735D01*
X103656503Y-55609737D01*
X103811153Y-55640499D01*
X103811156Y-55640500D01*
X103811158Y-55640500D01*
X103968844Y-55640500D01*
X103968845Y-55640499D01*
X104123497Y-55609737D01*
X104269179Y-55549394D01*
X104400289Y-55461789D01*
X104511789Y-55350289D01*
X104599394Y-55219179D01*
X104659737Y-55073497D01*
X104690500Y-54918842D01*
X104690500Y-54761158D01*
X104690500Y-54761155D01*
X104690499Y-54761153D01*
X104681643Y-54716631D01*
X104662651Y-54621153D01*
X131409500Y-54621153D01*
X131409500Y-54778846D01*
X131440261Y-54933489D01*
X131440264Y-54933501D01*
X131500602Y-55079172D01*
X131500609Y-55079185D01*
X131588210Y-55210288D01*
X131588213Y-55210292D01*
X131699707Y-55321786D01*
X131699711Y-55321789D01*
X131830814Y-55409390D01*
X131830827Y-55409397D01*
X131976498Y-55469735D01*
X131976503Y-55469737D01*
X132131153Y-55500499D01*
X132131156Y-55500500D01*
X132131158Y-55500500D01*
X132288844Y-55500500D01*
X132288845Y-55500499D01*
X132443497Y-55469737D01*
X132589179Y-55409394D01*
X132720289Y-55321789D01*
X132831789Y-55210289D01*
X132919394Y-55079179D01*
X132979737Y-54933497D01*
X133010500Y-54778842D01*
X133010500Y-54778835D01*
X133011097Y-54772782D01*
X133013624Y-54773030D01*
X133030185Y-54716631D01*
X133082989Y-54670876D01*
X133152147Y-54660932D01*
X133158692Y-54662053D01*
X133201156Y-54670500D01*
X133201158Y-54670500D01*
X133358844Y-54670500D01*
X133358845Y-54670499D01*
X133513497Y-54639737D01*
X133659179Y-54579394D01*
X133790289Y-54491789D01*
X133901789Y-54380289D01*
X133989394Y-54249179D01*
X134049737Y-54103497D01*
X134080500Y-53948842D01*
X134080500Y-53791158D01*
X134080500Y-53791155D01*
X134080499Y-53791153D01*
X134054641Y-53661158D01*
X134049737Y-53636503D01*
X133995888Y-53506498D01*
X133989397Y-53490827D01*
X133989390Y-53490814D01*
X133901789Y-53359711D01*
X133901786Y-53359707D01*
X133790292Y-53248213D01*
X133790288Y-53248210D01*
X133659185Y-53160609D01*
X133659172Y-53160602D01*
X133513501Y-53100264D01*
X133513489Y-53100261D01*
X133358845Y-53069500D01*
X133358842Y-53069500D01*
X133201158Y-53069500D01*
X133201155Y-53069500D01*
X133046510Y-53100261D01*
X133046498Y-53100264D01*
X132900827Y-53160602D01*
X132900816Y-53160608D01*
X132831372Y-53207009D01*
X132764694Y-53227886D01*
X132697314Y-53209401D01*
X132693591Y-53207008D01*
X132609185Y-53150609D01*
X132609172Y-53150602D01*
X132463501Y-53090264D01*
X132463489Y-53090261D01*
X132308845Y-53059500D01*
X132308842Y-53059500D01*
X132151158Y-53059500D01*
X132151155Y-53059500D01*
X131996510Y-53090261D01*
X131996498Y-53090264D01*
X131850827Y-53150602D01*
X131850814Y-53150609D01*
X131719711Y-53238210D01*
X131719707Y-53238213D01*
X131608213Y-53349707D01*
X131608210Y-53349711D01*
X131520609Y-53480814D01*
X131520602Y-53480827D01*
X131460264Y-53626498D01*
X131460261Y-53626510D01*
X131429500Y-53781153D01*
X131429500Y-53938846D01*
X131460261Y-54093489D01*
X131460264Y-54093501D01*
X131508483Y-54209912D01*
X131515952Y-54279381D01*
X131503283Y-54315812D01*
X131500605Y-54320821D01*
X131440264Y-54466498D01*
X131440261Y-54466510D01*
X131409500Y-54621153D01*
X104662651Y-54621153D01*
X104659737Y-54606503D01*
X104659735Y-54606498D01*
X104599397Y-54460827D01*
X104599390Y-54460814D01*
X104511789Y-54329711D01*
X104511786Y-54329707D01*
X104400292Y-54218213D01*
X104400288Y-54218210D01*
X104269185Y-54130609D01*
X104269172Y-54130602D01*
X104123501Y-54070264D01*
X104123489Y-54070261D01*
X103968845Y-54039500D01*
X103968842Y-54039500D01*
X103811158Y-54039500D01*
X103811155Y-54039500D01*
X103656510Y-54070261D01*
X103656498Y-54070264D01*
X103510827Y-54130602D01*
X103510814Y-54130609D01*
X103379711Y-54218210D01*
X103379707Y-54218213D01*
X103268213Y-54329707D01*
X103268210Y-54329711D01*
X103180609Y-54460814D01*
X103180602Y-54460827D01*
X103120264Y-54606498D01*
X103120261Y-54606510D01*
X103089500Y-54761153D01*
X87848000Y-54761153D01*
X87848000Y-54748843D01*
X87812434Y-54570047D01*
X87812433Y-54570046D01*
X87812433Y-54570042D01*
X87812431Y-54570037D01*
X87742668Y-54401612D01*
X87742666Y-54401608D01*
X87641386Y-54250032D01*
X87641380Y-54250024D01*
X87512475Y-54121119D01*
X87512467Y-54121113D01*
X87360891Y-54019833D01*
X87360887Y-54019831D01*
X87192462Y-53950068D01*
X87192452Y-53950065D01*
X87013656Y-53914500D01*
X87013654Y-53914500D01*
X86831346Y-53914500D01*
X86831344Y-53914500D01*
X86652547Y-53950065D01*
X86652537Y-53950068D01*
X86484112Y-54019831D01*
X86484108Y-54019833D01*
X86332532Y-54121113D01*
X86332524Y-54121119D01*
X86203619Y-54250024D01*
X86203613Y-54250032D01*
X86102333Y-54401608D01*
X86102331Y-54401612D01*
X86032568Y-54570037D01*
X86032565Y-54570047D01*
X85997000Y-54748843D01*
X85997000Y-54748846D01*
X85997000Y-54931154D01*
X85997000Y-54931156D01*
X85996999Y-54931156D01*
X85300500Y-54931156D01*
X85300500Y-53661153D01*
X113119500Y-53661153D01*
X113119500Y-53818846D01*
X113150261Y-53973489D01*
X113150264Y-53973501D01*
X113210602Y-54119172D01*
X113210609Y-54119185D01*
X113298210Y-54250288D01*
X113298213Y-54250292D01*
X113409707Y-54361786D01*
X113409711Y-54361789D01*
X113540814Y-54449390D01*
X113540827Y-54449397D01*
X113686498Y-54509735D01*
X113686503Y-54509737D01*
X113841153Y-54540499D01*
X113841156Y-54540500D01*
X113841158Y-54540500D01*
X113998844Y-54540500D01*
X113998845Y-54540499D01*
X114153497Y-54509737D01*
X114164766Y-54505069D01*
X114175786Y-54500505D01*
X114299172Y-54449397D01*
X114299172Y-54449396D01*
X114299179Y-54449394D01*
X114430289Y-54361789D01*
X114541789Y-54250289D01*
X114629394Y-54119179D01*
X114689737Y-53973497D01*
X114720500Y-53818842D01*
X114720500Y-53661158D01*
X114720500Y-53661155D01*
X114714155Y-53629258D01*
X114714155Y-53629257D01*
X114710554Y-53611153D01*
X126569500Y-53611153D01*
X126569500Y-53768846D01*
X126600261Y-53923489D01*
X126600264Y-53923501D01*
X126660602Y-54069172D01*
X126660609Y-54069185D01*
X126748210Y-54200288D01*
X126748213Y-54200292D01*
X126859707Y-54311786D01*
X126859711Y-54311789D01*
X126990814Y-54399390D01*
X126990827Y-54399397D01*
X127136498Y-54459735D01*
X127136503Y-54459737D01*
X127291153Y-54490499D01*
X127291156Y-54490500D01*
X127291158Y-54490500D01*
X127448844Y-54490500D01*
X127448845Y-54490499D01*
X127603497Y-54459737D01*
X127749179Y-54399394D01*
X127880289Y-54311789D01*
X127991789Y-54200289D01*
X128079394Y-54069179D01*
X128139737Y-53923497D01*
X128170500Y-53768842D01*
X128170500Y-53611158D01*
X128170500Y-53611155D01*
X128170499Y-53611153D01*
X128149684Y-53506510D01*
X128139737Y-53456503D01*
X128095501Y-53349707D01*
X128079397Y-53310827D01*
X128079390Y-53310814D01*
X127991789Y-53179711D01*
X127991786Y-53179707D01*
X127880292Y-53068213D01*
X127880288Y-53068210D01*
X127749185Y-52980609D01*
X127749172Y-52980602D01*
X127603501Y-52920264D01*
X127603489Y-52920261D01*
X127448845Y-52889500D01*
X127448842Y-52889500D01*
X127291158Y-52889500D01*
X127291155Y-52889500D01*
X127136510Y-52920261D01*
X127136498Y-52920264D01*
X126990827Y-52980602D01*
X126990814Y-52980609D01*
X126859711Y-53068210D01*
X126859707Y-53068213D01*
X126748213Y-53179707D01*
X126748210Y-53179711D01*
X126660609Y-53310814D01*
X126660602Y-53310827D01*
X126600264Y-53456498D01*
X126600261Y-53456510D01*
X126569500Y-53611153D01*
X114710554Y-53611153D01*
X114689738Y-53506510D01*
X114689737Y-53506503D01*
X114683241Y-53490821D01*
X114629397Y-53360827D01*
X114629390Y-53360814D01*
X114541789Y-53229711D01*
X114541786Y-53229707D01*
X114430292Y-53118213D01*
X114430288Y-53118210D01*
X114299185Y-53030609D01*
X114299172Y-53030602D01*
X114153501Y-52970264D01*
X114153489Y-52970261D01*
X113998845Y-52939500D01*
X113998842Y-52939500D01*
X113841158Y-52939500D01*
X113841155Y-52939500D01*
X113686510Y-52970261D01*
X113686498Y-52970264D01*
X113540827Y-53030602D01*
X113540814Y-53030609D01*
X113409711Y-53118210D01*
X113409707Y-53118213D01*
X113298213Y-53229707D01*
X113298210Y-53229711D01*
X113210609Y-53360814D01*
X113210602Y-53360827D01*
X113150264Y-53506498D01*
X113150261Y-53506510D01*
X113119500Y-53661153D01*
X85300500Y-53661153D01*
X85300500Y-48251153D01*
X98039500Y-48251153D01*
X98039500Y-48408846D01*
X98070261Y-48563489D01*
X98070264Y-48563501D01*
X98130602Y-48709172D01*
X98130609Y-48709185D01*
X98218210Y-48840288D01*
X98218213Y-48840292D01*
X98329707Y-48951786D01*
X98329711Y-48951789D01*
X98460814Y-49039390D01*
X98460827Y-49039397D01*
X98587578Y-49091898D01*
X98606503Y-49099737D01*
X98761153Y-49130499D01*
X98761156Y-49130500D01*
X98761158Y-49130500D01*
X98918844Y-49130500D01*
X98918845Y-49130499D01*
X99073497Y-49099737D01*
X99149896Y-49068091D01*
X99219362Y-49060623D01*
X99281841Y-49091898D01*
X99317494Y-49151986D01*
X99315001Y-49221811D01*
X99311907Y-49230105D01*
X99280264Y-49306498D01*
X99280261Y-49306510D01*
X99249500Y-49461153D01*
X99249500Y-49618846D01*
X99280261Y-49773489D01*
X99280264Y-49773501D01*
X99340602Y-49919172D01*
X99340609Y-49919185D01*
X99428210Y-50050288D01*
X99428213Y-50050292D01*
X99539707Y-50161786D01*
X99539711Y-50161789D01*
X99670814Y-50249390D01*
X99670827Y-50249397D01*
X99794992Y-50300827D01*
X99816503Y-50309737D01*
X99971153Y-50340499D01*
X99971156Y-50340500D01*
X99971158Y-50340500D01*
X100128844Y-50340500D01*
X100128845Y-50340499D01*
X100283497Y-50309737D01*
X100429179Y-50249394D01*
X100560289Y-50161789D01*
X100671789Y-50050289D01*
X100759394Y-49919179D01*
X100764182Y-49907621D01*
X100804623Y-49809986D01*
X100819737Y-49773497D01*
X100850500Y-49618842D01*
X100850500Y-49591153D01*
X102169500Y-49591153D01*
X102169500Y-49748846D01*
X102200261Y-49903489D01*
X102200264Y-49903501D01*
X102260602Y-50049172D01*
X102260609Y-50049185D01*
X102348210Y-50180288D01*
X102348213Y-50180292D01*
X102459707Y-50291786D01*
X102459711Y-50291789D01*
X102590814Y-50379390D01*
X102590827Y-50379397D01*
X102736498Y-50439735D01*
X102736503Y-50439737D01*
X102891153Y-50470499D01*
X102891156Y-50470500D01*
X102891158Y-50470500D01*
X103048844Y-50470500D01*
X103048845Y-50470499D01*
X103203497Y-50439737D01*
X103349179Y-50379394D01*
X103480289Y-50291789D01*
X103542320Y-50229757D01*
X103603639Y-50196274D01*
X103673331Y-50201258D01*
X103717680Y-50229759D01*
X103749707Y-50261786D01*
X103749711Y-50261789D01*
X103880814Y-50349390D01*
X103880827Y-50349397D01*
X104026498Y-50409735D01*
X104026503Y-50409737D01*
X104177312Y-50439735D01*
X104181153Y-50440499D01*
X104181156Y-50440500D01*
X104181158Y-50440500D01*
X104338844Y-50440500D01*
X104338845Y-50440499D01*
X104493497Y-50409737D01*
X104639179Y-50349394D01*
X104770289Y-50261789D01*
X104881789Y-50150289D01*
X104969394Y-50019179D01*
X104986281Y-49978410D01*
X104993429Y-49961153D01*
X114509500Y-49961153D01*
X114509500Y-50118846D01*
X114540261Y-50273489D01*
X114540264Y-50273501D01*
X114600602Y-50419172D01*
X114600609Y-50419185D01*
X114688210Y-50550288D01*
X114688213Y-50550292D01*
X114799707Y-50661786D01*
X114799711Y-50661789D01*
X114930814Y-50749390D01*
X114930827Y-50749397D01*
X115076498Y-50809735D01*
X115076503Y-50809737D01*
X115231153Y-50840499D01*
X115231156Y-50840500D01*
X115231158Y-50840500D01*
X115388844Y-50840500D01*
X115388845Y-50840499D01*
X115543497Y-50809737D01*
X115666369Y-50758842D01*
X115689172Y-50749397D01*
X115689172Y-50749396D01*
X115689179Y-50749394D01*
X115820289Y-50661789D01*
X115820292Y-50661786D01*
X115847819Y-50634260D01*
X115909142Y-50600775D01*
X115978834Y-50605759D01*
X116034767Y-50647631D01*
X116059184Y-50713095D01*
X116059500Y-50721941D01*
X116059500Y-50758846D01*
X116090261Y-50913489D01*
X116090264Y-50913501D01*
X116150602Y-51059172D01*
X116150609Y-51059185D01*
X116238210Y-51190288D01*
X116238213Y-51190292D01*
X116349707Y-51301786D01*
X116349711Y-51301789D01*
X116480814Y-51389390D01*
X116480827Y-51389397D01*
X116626498Y-51449735D01*
X116626503Y-51449737D01*
X116781153Y-51480499D01*
X116781156Y-51480500D01*
X116781158Y-51480500D01*
X116938844Y-51480500D01*
X116938845Y-51480499D01*
X117093497Y-51449737D01*
X117239179Y-51389394D01*
X117370289Y-51301789D01*
X117481789Y-51190289D01*
X117569394Y-51059179D01*
X117629737Y-50913497D01*
X117660500Y-50758842D01*
X117660500Y-50751153D01*
X126569500Y-50751153D01*
X126569500Y-50908846D01*
X126600261Y-51063489D01*
X126600264Y-51063501D01*
X126660602Y-51209172D01*
X126660609Y-51209185D01*
X126748210Y-51340288D01*
X126748213Y-51340292D01*
X126859707Y-51451786D01*
X126859711Y-51451789D01*
X126990814Y-51539390D01*
X126990827Y-51539397D01*
X127136498Y-51599735D01*
X127136503Y-51599737D01*
X127291153Y-51630499D01*
X127291156Y-51630500D01*
X127291158Y-51630500D01*
X127448844Y-51630500D01*
X127448845Y-51630499D01*
X127603497Y-51599737D01*
X127749179Y-51539394D01*
X127880289Y-51451789D01*
X127991789Y-51340289D01*
X128079394Y-51209179D01*
X128139737Y-51063497D01*
X128170500Y-50908842D01*
X128170500Y-50751158D01*
X128170500Y-50751155D01*
X128170499Y-50751153D01*
X128152723Y-50661789D01*
X128139737Y-50596503D01*
X128120594Y-50550288D01*
X128079397Y-50450827D01*
X128079390Y-50450814D01*
X127991789Y-50319711D01*
X127991786Y-50319707D01*
X127880292Y-50208213D01*
X127880288Y-50208210D01*
X127749185Y-50120609D01*
X127749172Y-50120602D01*
X127603501Y-50060264D01*
X127603489Y-50060261D01*
X127448845Y-50029500D01*
X127448842Y-50029500D01*
X127291158Y-50029500D01*
X127291155Y-50029500D01*
X127136510Y-50060261D01*
X127136498Y-50060264D01*
X126990827Y-50120602D01*
X126990814Y-50120609D01*
X126859711Y-50208210D01*
X126859707Y-50208213D01*
X126748213Y-50319707D01*
X126748210Y-50319711D01*
X126660609Y-50450814D01*
X126660602Y-50450827D01*
X126600264Y-50596498D01*
X126600261Y-50596510D01*
X126569500Y-50751153D01*
X117660500Y-50751153D01*
X117660500Y-50601158D01*
X117660500Y-50601155D01*
X117660499Y-50601153D01*
X117630596Y-50450821D01*
X117629737Y-50446503D01*
X117629735Y-50446498D01*
X117569397Y-50300827D01*
X117569390Y-50300814D01*
X117481990Y-50170012D01*
X117461112Y-50103335D01*
X117479596Y-50035955D01*
X117516197Y-49998022D01*
X117630289Y-49921789D01*
X117741789Y-49810289D01*
X117829394Y-49679179D01*
X117889737Y-49533497D01*
X117920500Y-49378842D01*
X117920500Y-49221158D01*
X117920500Y-49221155D01*
X117920499Y-49221153D01*
X117908277Y-49159711D01*
X117889737Y-49066503D01*
X117889735Y-49066498D01*
X117829397Y-48920827D01*
X117829390Y-48920814D01*
X117741789Y-48789711D01*
X117741786Y-48789707D01*
X117630292Y-48678213D01*
X117630288Y-48678210D01*
X117499185Y-48590609D01*
X117499172Y-48590602D01*
X117353501Y-48530264D01*
X117353489Y-48530261D01*
X117198845Y-48499500D01*
X117198842Y-48499500D01*
X117041158Y-48499500D01*
X117041155Y-48499500D01*
X116886510Y-48530261D01*
X116886498Y-48530264D01*
X116740827Y-48590602D01*
X116740814Y-48590609D01*
X116609711Y-48678210D01*
X116609707Y-48678213D01*
X116498213Y-48789707D01*
X116498210Y-48789711D01*
X116410609Y-48920814D01*
X116410602Y-48920827D01*
X116350264Y-49066498D01*
X116350261Y-49066510D01*
X116319500Y-49221153D01*
X116319500Y-49378846D01*
X116350261Y-49533489D01*
X116350264Y-49533501D01*
X116410602Y-49679172D01*
X116410609Y-49679185D01*
X116498008Y-49809986D01*
X116499777Y-49815637D01*
X116503951Y-49819841D01*
X116510099Y-49848601D01*
X116518886Y-49876664D01*
X116517319Y-49882375D01*
X116518557Y-49888167D01*
X116508181Y-49915684D01*
X116500401Y-49944044D01*
X116495456Y-49949431D01*
X116493906Y-49953543D01*
X116477210Y-49969310D01*
X116468859Y-49978410D01*
X116466336Y-49980284D01*
X116349711Y-50058211D01*
X116315756Y-50092165D01*
X116308453Y-50097592D01*
X116283862Y-50106663D01*
X116260858Y-50119225D01*
X116251605Y-50118563D01*
X116242902Y-50121774D01*
X116217311Y-50116110D01*
X116191166Y-50114241D01*
X116183739Y-50108681D01*
X116174683Y-50106677D01*
X116156215Y-50088076D01*
X116135233Y-50072369D01*
X116131991Y-50063678D01*
X116125455Y-50057095D01*
X116119975Y-50031462D01*
X116110816Y-50006905D01*
X116110500Y-49998059D01*
X116110500Y-49961155D01*
X116110499Y-49961153D01*
X116102669Y-49921789D01*
X116079737Y-49806503D01*
X116027001Y-49679185D01*
X116019397Y-49660827D01*
X116019390Y-49660814D01*
X115931789Y-49529711D01*
X115931786Y-49529707D01*
X115820292Y-49418213D01*
X115820288Y-49418210D01*
X115689185Y-49330609D01*
X115689172Y-49330602D01*
X115543501Y-49270264D01*
X115543489Y-49270261D01*
X115388845Y-49239500D01*
X115388842Y-49239500D01*
X115231158Y-49239500D01*
X115231155Y-49239500D01*
X115076510Y-49270261D01*
X115076498Y-49270264D01*
X114930827Y-49330602D01*
X114930814Y-49330609D01*
X114799711Y-49418210D01*
X114799707Y-49418213D01*
X114688213Y-49529707D01*
X114688210Y-49529711D01*
X114600609Y-49660814D01*
X114600602Y-49660827D01*
X114540264Y-49806498D01*
X114540261Y-49806510D01*
X114509500Y-49961153D01*
X104993429Y-49961153D01*
X105015603Y-49907621D01*
X105015605Y-49907614D01*
X105029737Y-49873497D01*
X105060500Y-49718842D01*
X105060500Y-49561158D01*
X105060500Y-49561155D01*
X105060499Y-49561153D01*
X105054244Y-49529707D01*
X105029737Y-49406503D01*
X105018281Y-49378846D01*
X104969397Y-49260827D01*
X104969390Y-49260814D01*
X104881789Y-49129711D01*
X104881786Y-49129707D01*
X104770292Y-49018213D01*
X104770288Y-49018210D01*
X104639185Y-48930609D01*
X104639172Y-48930602D01*
X104493501Y-48870264D01*
X104493489Y-48870261D01*
X104338845Y-48839500D01*
X104338842Y-48839500D01*
X104181158Y-48839500D01*
X104181155Y-48839500D01*
X104026510Y-48870261D01*
X104026498Y-48870264D01*
X103880827Y-48930602D01*
X103880814Y-48930609D01*
X103749711Y-49018210D01*
X103749707Y-49018213D01*
X103687681Y-49080240D01*
X103626358Y-49113725D01*
X103556666Y-49108741D01*
X103512319Y-49080240D01*
X103480292Y-49048213D01*
X103480288Y-49048210D01*
X103349185Y-48960609D01*
X103349172Y-48960602D01*
X103203501Y-48900264D01*
X103203489Y-48900261D01*
X103048845Y-48869500D01*
X103048842Y-48869500D01*
X102891158Y-48869500D01*
X102891155Y-48869500D01*
X102736510Y-48900261D01*
X102736498Y-48900264D01*
X102590827Y-48960602D01*
X102590814Y-48960609D01*
X102459711Y-49048210D01*
X102459707Y-49048213D01*
X102348213Y-49159707D01*
X102348210Y-49159711D01*
X102260609Y-49290814D01*
X102260602Y-49290827D01*
X102200264Y-49436498D01*
X102200261Y-49436510D01*
X102169500Y-49591153D01*
X100850500Y-49591153D01*
X100850500Y-49461158D01*
X100850500Y-49461155D01*
X100850499Y-49461153D01*
X100834127Y-49378846D01*
X100819737Y-49306503D01*
X100813241Y-49290821D01*
X100759397Y-49160827D01*
X100759390Y-49160814D01*
X100671789Y-49029711D01*
X100671786Y-49029707D01*
X100560292Y-48918213D01*
X100560288Y-48918210D01*
X100429185Y-48830609D01*
X100429172Y-48830602D01*
X100283501Y-48770264D01*
X100283489Y-48770261D01*
X100128845Y-48739500D01*
X100128842Y-48739500D01*
X99971158Y-48739500D01*
X99971155Y-48739500D01*
X99816510Y-48770261D01*
X99816498Y-48770264D01*
X99740105Y-48801907D01*
X99670635Y-48809376D01*
X99608156Y-48778100D01*
X99572504Y-48718011D01*
X99574999Y-48648186D01*
X99578083Y-48639916D01*
X99609737Y-48563497D01*
X99640500Y-48408842D01*
X99640500Y-48251158D01*
X99640500Y-48251155D01*
X99640499Y-48251153D01*
X99628173Y-48189185D01*
X99609737Y-48096503D01*
X99598879Y-48070289D01*
X99549397Y-47950827D01*
X99549390Y-47950814D01*
X99461789Y-47819711D01*
X99461786Y-47819707D01*
X99350292Y-47708213D01*
X99350288Y-47708210D01*
X99219185Y-47620609D01*
X99219172Y-47620602D01*
X99144389Y-47589627D01*
X99073501Y-47560264D01*
X99073489Y-47560261D01*
X98918845Y-47529500D01*
X98918842Y-47529500D01*
X98761158Y-47529500D01*
X98761155Y-47529500D01*
X98606510Y-47560261D01*
X98606498Y-47560264D01*
X98460827Y-47620602D01*
X98460814Y-47620609D01*
X98329711Y-47708210D01*
X98329707Y-47708213D01*
X98218213Y-47819707D01*
X98218210Y-47819711D01*
X98130609Y-47950814D01*
X98130602Y-47950827D01*
X98070264Y-48096498D01*
X98070261Y-48096510D01*
X98039500Y-48251153D01*
X85300500Y-48251153D01*
X85300500Y-47481153D01*
X102169500Y-47481153D01*
X102169500Y-47638846D01*
X102200261Y-47793489D01*
X102200264Y-47793501D01*
X102260602Y-47939172D01*
X102260609Y-47939185D01*
X102348210Y-48070288D01*
X102348213Y-48070292D01*
X102459707Y-48181786D01*
X102459711Y-48181789D01*
X102590814Y-48269390D01*
X102590827Y-48269397D01*
X102736498Y-48329735D01*
X102736503Y-48329737D01*
X102891153Y-48360499D01*
X102891156Y-48360500D01*
X102891158Y-48360500D01*
X103048844Y-48360500D01*
X103048845Y-48360499D01*
X103203497Y-48329737D01*
X103349179Y-48269394D01*
X103480289Y-48181789D01*
X103591789Y-48070289D01*
X103679394Y-47939179D01*
X103728539Y-47820529D01*
X103772378Y-47766129D01*
X103838672Y-47744064D01*
X103890549Y-47753423D01*
X104026503Y-47809737D01*
X104181153Y-47840499D01*
X104181156Y-47840500D01*
X104181158Y-47840500D01*
X104338844Y-47840500D01*
X104338845Y-47840499D01*
X104493497Y-47809737D01*
X104639179Y-47749394D01*
X104666479Y-47731153D01*
X129939500Y-47731153D01*
X129939500Y-47888846D01*
X129970261Y-48043489D01*
X129970264Y-48043501D01*
X130030602Y-48189172D01*
X130030609Y-48189185D01*
X130118210Y-48320288D01*
X130118213Y-48320292D01*
X130229707Y-48431786D01*
X130229711Y-48431789D01*
X130360814Y-48519390D01*
X130360827Y-48519397D01*
X130506498Y-48579735D01*
X130506503Y-48579737D01*
X130661153Y-48610499D01*
X130661156Y-48610500D01*
X130661158Y-48610500D01*
X130818844Y-48610500D01*
X130818845Y-48610499D01*
X130973497Y-48579737D01*
X131119179Y-48519394D01*
X131250289Y-48431789D01*
X131361789Y-48320289D01*
X131381919Y-48290161D01*
X131435530Y-48245356D01*
X131504855Y-48236647D01*
X131567883Y-48266801D01*
X131584236Y-48285672D01*
X131584347Y-48285581D01*
X131587740Y-48289715D01*
X131588120Y-48290154D01*
X131588208Y-48290285D01*
X131588213Y-48290292D01*
X131699707Y-48401786D01*
X131699711Y-48401789D01*
X131830814Y-48489390D01*
X131830827Y-48489397D01*
X131976498Y-48549735D01*
X131976503Y-48549737D01*
X132127312Y-48579735D01*
X132131153Y-48580499D01*
X132131156Y-48580500D01*
X132131158Y-48580500D01*
X132288844Y-48580500D01*
X132288845Y-48580499D01*
X132443497Y-48549737D01*
X132589179Y-48489394D01*
X132720289Y-48401789D01*
X132831789Y-48290289D01*
X132919394Y-48159179D01*
X132979737Y-48013497D01*
X133010500Y-47858842D01*
X133010500Y-47701158D01*
X133010500Y-47701155D01*
X133010499Y-47701153D01*
X133005245Y-47674738D01*
X132979737Y-47546503D01*
X132971570Y-47526786D01*
X132919397Y-47400827D01*
X132919390Y-47400814D01*
X132831789Y-47269711D01*
X132831786Y-47269707D01*
X132720292Y-47158213D01*
X132720288Y-47158210D01*
X132589185Y-47070609D01*
X132589172Y-47070602D01*
X132443501Y-47010264D01*
X132443489Y-47010261D01*
X132288845Y-46979500D01*
X132288842Y-46979500D01*
X132131158Y-46979500D01*
X132131155Y-46979500D01*
X131976510Y-47010261D01*
X131976498Y-47010264D01*
X131830827Y-47070602D01*
X131830814Y-47070609D01*
X131699711Y-47158210D01*
X131699707Y-47158213D01*
X131588213Y-47269707D01*
X131588208Y-47269713D01*
X131568078Y-47299840D01*
X131514465Y-47344645D01*
X131445140Y-47353351D01*
X131382113Y-47323195D01*
X131365764Y-47304327D01*
X131365653Y-47304419D01*
X131362253Y-47300277D01*
X131361876Y-47299841D01*
X131361788Y-47299709D01*
X131250292Y-47188213D01*
X131250288Y-47188210D01*
X131119185Y-47100609D01*
X131119172Y-47100602D01*
X130973501Y-47040264D01*
X130973489Y-47040261D01*
X130818845Y-47009500D01*
X130818842Y-47009500D01*
X130661158Y-47009500D01*
X130661155Y-47009500D01*
X130506510Y-47040261D01*
X130506498Y-47040264D01*
X130360827Y-47100602D01*
X130360814Y-47100609D01*
X130229711Y-47188210D01*
X130229707Y-47188213D01*
X130118213Y-47299707D01*
X130118210Y-47299711D01*
X130030609Y-47430814D01*
X130030602Y-47430827D01*
X129970264Y-47576498D01*
X129970261Y-47576510D01*
X129939500Y-47731153D01*
X104666479Y-47731153D01*
X104770289Y-47661789D01*
X104881789Y-47550289D01*
X104969394Y-47419179D01*
X105029737Y-47273497D01*
X105060500Y-47118842D01*
X105060500Y-46961158D01*
X105060500Y-46961155D01*
X105037248Y-46844263D01*
X105037247Y-46844262D01*
X105033645Y-46826153D01*
X118709500Y-46826153D01*
X118709500Y-46983846D01*
X118740261Y-47138489D01*
X118740264Y-47138501D01*
X118800602Y-47284172D01*
X118800609Y-47284185D01*
X118888210Y-47415288D01*
X118888213Y-47415292D01*
X118999707Y-47526786D01*
X118999711Y-47526789D01*
X119130814Y-47614390D01*
X119130827Y-47614397D01*
X119268345Y-47671358D01*
X119276503Y-47674737D01*
X119431153Y-47705499D01*
X119431156Y-47705500D01*
X119431158Y-47705500D01*
X119588844Y-47705500D01*
X119588845Y-47705499D01*
X119743497Y-47674737D01*
X119874182Y-47620606D01*
X119889172Y-47614397D01*
X119889172Y-47614396D01*
X119889179Y-47614394D01*
X120020289Y-47526789D01*
X120131789Y-47415289D01*
X120219394Y-47284179D01*
X120225389Y-47269707D01*
X120271571Y-47158211D01*
X120279737Y-47138497D01*
X120310500Y-46983842D01*
X120310500Y-46826158D01*
X120310500Y-46826155D01*
X120310499Y-46826153D01*
X120303360Y-46790263D01*
X120279737Y-46671503D01*
X120275313Y-46660823D01*
X120219397Y-46525827D01*
X120219390Y-46525814D01*
X120131789Y-46394711D01*
X120131786Y-46394707D01*
X120020292Y-46283213D01*
X120020288Y-46283210D01*
X119889185Y-46195609D01*
X119889172Y-46195602D01*
X119743501Y-46135264D01*
X119743489Y-46135261D01*
X119588845Y-46104500D01*
X119588842Y-46104500D01*
X119431158Y-46104500D01*
X119431155Y-46104500D01*
X119276510Y-46135261D01*
X119276498Y-46135264D01*
X119130827Y-46195602D01*
X119130814Y-46195609D01*
X118999711Y-46283210D01*
X118999707Y-46283213D01*
X118888213Y-46394707D01*
X118888210Y-46394711D01*
X118800609Y-46525814D01*
X118800602Y-46525827D01*
X118740264Y-46671498D01*
X118740261Y-46671510D01*
X118709500Y-46826153D01*
X105033645Y-46826153D01*
X105029737Y-46806503D01*
X105023010Y-46790263D01*
X104969397Y-46660827D01*
X104969390Y-46660814D01*
X104881789Y-46529711D01*
X104881786Y-46529707D01*
X104770292Y-46418213D01*
X104770288Y-46418210D01*
X104639185Y-46330609D01*
X104639172Y-46330602D01*
X104493501Y-46270264D01*
X104493489Y-46270261D01*
X104338845Y-46239500D01*
X104338842Y-46239500D01*
X104181158Y-46239500D01*
X104181155Y-46239500D01*
X104026510Y-46270261D01*
X104026498Y-46270264D01*
X103880827Y-46330602D01*
X103880814Y-46330609D01*
X103749711Y-46418210D01*
X103749707Y-46418213D01*
X103638213Y-46529707D01*
X103638210Y-46529711D01*
X103550609Y-46660814D01*
X103550604Y-46660823D01*
X103501461Y-46779467D01*
X103457620Y-46833870D01*
X103391326Y-46855935D01*
X103339448Y-46846575D01*
X103203501Y-46790264D01*
X103203489Y-46790261D01*
X103048845Y-46759500D01*
X103048842Y-46759500D01*
X102891158Y-46759500D01*
X102891155Y-46759500D01*
X102736510Y-46790261D01*
X102736498Y-46790264D01*
X102590827Y-46850602D01*
X102590814Y-46850609D01*
X102459711Y-46938210D01*
X102459707Y-46938213D01*
X102348213Y-47049707D01*
X102348210Y-47049711D01*
X102260609Y-47180814D01*
X102260602Y-47180827D01*
X102200264Y-47326498D01*
X102200261Y-47326510D01*
X102169500Y-47481153D01*
X85300500Y-47481153D01*
X85300500Y-45581153D01*
X87109500Y-45581153D01*
X87109500Y-45738846D01*
X87140261Y-45893489D01*
X87140264Y-45893501D01*
X87200602Y-46039172D01*
X87200609Y-46039185D01*
X87288210Y-46170288D01*
X87288213Y-46170292D01*
X87399707Y-46281786D01*
X87399711Y-46281789D01*
X87530814Y-46369390D01*
X87530827Y-46369397D01*
X87648681Y-46418213D01*
X87676503Y-46429737D01*
X87831153Y-46460499D01*
X87831156Y-46460500D01*
X87831158Y-46460500D01*
X87988844Y-46460500D01*
X87988845Y-46460499D01*
X88143497Y-46429737D01*
X88256166Y-46383067D01*
X88289172Y-46369397D01*
X88289172Y-46369396D01*
X88289179Y-46369394D01*
X88420289Y-46281789D01*
X88531789Y-46170289D01*
X88619394Y-46039179D01*
X88679737Y-45893497D01*
X88710500Y-45738842D01*
X88710500Y-45581158D01*
X88710500Y-45581155D01*
X88710499Y-45581153D01*
X101599500Y-45581153D01*
X101599500Y-45738846D01*
X101630261Y-45893489D01*
X101630264Y-45893501D01*
X101690602Y-46039172D01*
X101690609Y-46039185D01*
X101778210Y-46170288D01*
X101778213Y-46170292D01*
X101889707Y-46281786D01*
X101889711Y-46281789D01*
X102020814Y-46369390D01*
X102020827Y-46369397D01*
X102138681Y-46418213D01*
X102166503Y-46429737D01*
X102321153Y-46460499D01*
X102321156Y-46460500D01*
X102321158Y-46460500D01*
X102478844Y-46460500D01*
X102478845Y-46460499D01*
X102633497Y-46429737D01*
X102746166Y-46383067D01*
X102779172Y-46369397D01*
X102779172Y-46369396D01*
X102779179Y-46369394D01*
X102910289Y-46281789D01*
X103021789Y-46170289D01*
X103109394Y-46039179D01*
X103169737Y-45893497D01*
X103200500Y-45738842D01*
X103200500Y-45581158D01*
X103200500Y-45581155D01*
X103200499Y-45581153D01*
X116849500Y-45581153D01*
X116849500Y-45738846D01*
X116880261Y-45893489D01*
X116880264Y-45893501D01*
X116940602Y-46039172D01*
X116940609Y-46039185D01*
X117028210Y-46170288D01*
X117028213Y-46170292D01*
X117139707Y-46281786D01*
X117139711Y-46281789D01*
X117270814Y-46369390D01*
X117270827Y-46369397D01*
X117388681Y-46418213D01*
X117416503Y-46429737D01*
X117571153Y-46460499D01*
X117571156Y-46460500D01*
X117571158Y-46460500D01*
X117728844Y-46460500D01*
X117728845Y-46460499D01*
X117883497Y-46429737D01*
X117996166Y-46383067D01*
X118029172Y-46369397D01*
X118029172Y-46369396D01*
X118029179Y-46369394D01*
X118160289Y-46281789D01*
X118271789Y-46170289D01*
X118359394Y-46039179D01*
X118419737Y-45893497D01*
X118450500Y-45738842D01*
X118450500Y-45591153D01*
X127099500Y-45591153D01*
X127099500Y-45748846D01*
X127130261Y-45903489D01*
X127130264Y-45903501D01*
X127190602Y-46049172D01*
X127190609Y-46049185D01*
X127278210Y-46180288D01*
X127278213Y-46180292D01*
X127389707Y-46291786D01*
X127389711Y-46291789D01*
X127520814Y-46379390D01*
X127520827Y-46379397D01*
X127642363Y-46429738D01*
X127666503Y-46439737D01*
X127821153Y-46470499D01*
X127821156Y-46470500D01*
X127821158Y-46470500D01*
X127978844Y-46470500D01*
X127978845Y-46470499D01*
X128133497Y-46439737D01*
X128279179Y-46379394D01*
X128410289Y-46291789D01*
X128521789Y-46180289D01*
X128609394Y-46049179D01*
X128669737Y-45903497D01*
X128700500Y-45748842D01*
X128700500Y-45591158D01*
X128700500Y-45591155D01*
X128700499Y-45591153D01*
X128669738Y-45436510D01*
X128669737Y-45436503D01*
X128665593Y-45426498D01*
X128609397Y-45290827D01*
X128609390Y-45290814D01*
X128521789Y-45159711D01*
X128521786Y-45159707D01*
X128410292Y-45048213D01*
X128410288Y-45048210D01*
X128279185Y-44960609D01*
X128279172Y-44960602D01*
X128133501Y-44900264D01*
X128133489Y-44900261D01*
X127978845Y-44869500D01*
X127978842Y-44869500D01*
X127821158Y-44869500D01*
X127821155Y-44869500D01*
X127666510Y-44900261D01*
X127666498Y-44900264D01*
X127520827Y-44960602D01*
X127520814Y-44960609D01*
X127389711Y-45048210D01*
X127389707Y-45048213D01*
X127278213Y-45159707D01*
X127278210Y-45159711D01*
X127190609Y-45290814D01*
X127190602Y-45290827D01*
X127130264Y-45436498D01*
X127130261Y-45436510D01*
X127099500Y-45591153D01*
X118450500Y-45591153D01*
X118450500Y-45581158D01*
X118450500Y-45581155D01*
X118450499Y-45581153D01*
X118419737Y-45426503D01*
X118363539Y-45290827D01*
X118359397Y-45280827D01*
X118359390Y-45280814D01*
X118271789Y-45149711D01*
X118271786Y-45149707D01*
X118160292Y-45038213D01*
X118160288Y-45038210D01*
X118029185Y-44950609D01*
X118029172Y-44950602D01*
X117883501Y-44890264D01*
X117883489Y-44890261D01*
X117728845Y-44859500D01*
X117728842Y-44859500D01*
X117571158Y-44859500D01*
X117571155Y-44859500D01*
X117416510Y-44890261D01*
X117416498Y-44890264D01*
X117270827Y-44950602D01*
X117270814Y-44950609D01*
X117139711Y-45038210D01*
X117139707Y-45038213D01*
X117028213Y-45149707D01*
X117028210Y-45149711D01*
X116940609Y-45280814D01*
X116940602Y-45280827D01*
X116880264Y-45426498D01*
X116880261Y-45426510D01*
X116849500Y-45581153D01*
X103200499Y-45581153D01*
X103169737Y-45426503D01*
X103113539Y-45290827D01*
X103109397Y-45280827D01*
X103109390Y-45280814D01*
X103021789Y-45149711D01*
X103021786Y-45149707D01*
X102910292Y-45038213D01*
X102910288Y-45038210D01*
X102779185Y-44950609D01*
X102779172Y-44950602D01*
X102633501Y-44890264D01*
X102633489Y-44890261D01*
X102478845Y-44859500D01*
X102478842Y-44859500D01*
X102321158Y-44859500D01*
X102321155Y-44859500D01*
X102166510Y-44890261D01*
X102166498Y-44890264D01*
X102020827Y-44950602D01*
X102020814Y-44950609D01*
X101889711Y-45038210D01*
X101889707Y-45038213D01*
X101778213Y-45149707D01*
X101778210Y-45149711D01*
X101690609Y-45280814D01*
X101690602Y-45280827D01*
X101630264Y-45426498D01*
X101630261Y-45426510D01*
X101599500Y-45581153D01*
X88710499Y-45581153D01*
X88679737Y-45426503D01*
X88623539Y-45290827D01*
X88619397Y-45280827D01*
X88619390Y-45280814D01*
X88531789Y-45149711D01*
X88531786Y-45149707D01*
X88420292Y-45038213D01*
X88420288Y-45038210D01*
X88289185Y-44950609D01*
X88289172Y-44950602D01*
X88143501Y-44890264D01*
X88143489Y-44890261D01*
X87988845Y-44859500D01*
X87988842Y-44859500D01*
X87831158Y-44859500D01*
X87831155Y-44859500D01*
X87676510Y-44890261D01*
X87676498Y-44890264D01*
X87530827Y-44950602D01*
X87530814Y-44950609D01*
X87399711Y-45038210D01*
X87399707Y-45038213D01*
X87288213Y-45149707D01*
X87288210Y-45149711D01*
X87200609Y-45280814D01*
X87200602Y-45280827D01*
X87140264Y-45426498D01*
X87140261Y-45426510D01*
X87109500Y-45581153D01*
X85300500Y-45581153D01*
X85300500Y-40424500D01*
X85320185Y-40357461D01*
X85372989Y-40311706D01*
X85424500Y-40300500D01*
X134575500Y-40300500D01*
X134642539Y-40320185D01*
G37*
%TD.AperFunction*%
%TD*%
M02*
