%TF.GenerationSoftware,KiCad,Pcbnew,10.0.3*%
%TF.CreationDate,2026-07-16T14:01:40+10:00*%
%TF.ProjectId,TapType,54617054-7970-4652-9e6b-696361645f70,rev?*%
%TF.SameCoordinates,Original*%
%TF.FileFunction,Legend,Top*%
%TF.FilePolarity,Positive*%
%FSLAX46Y46*%
G04 Gerber Fmt 4.6, Leading zero omitted, Abs format (unit mm)*
G04 Created by KiCad (PCBNEW 10.0.3) date 2026-07-16 14:01:40*
%MOMM*%
%LPD*%
G01*
G04 APERTURE LIST*
%ADD10C,0.100000*%
%ADD11C,0.150000*%
%ADD12C,0.000000*%
%ADD13C,0.120000*%
%ADD14C,0.250000*%
%ADD15C,0.060000*%
%ADD16C,0.127000*%
%ADD17C,0.200000*%
G04 APERTURE END LIST*
D10*
X97250000Y-59500000D02*
X97500000Y-59500000D01*
X97500000Y-58750000D02*
X98250000Y-58750000D01*
X97500000Y-59500000D02*
X97500000Y-58750000D01*
X98000000Y-58500000D02*
X98250000Y-58750000D01*
X98000000Y-59000000D02*
X98250000Y-58750000D01*
X98250000Y-58750000D02*
X98000000Y-58500000D01*
X107500000Y-62000000D02*
X107500000Y-64000000D01*
X107500000Y-62000000D02*
X111500000Y-62000000D01*
X107500000Y-64000000D02*
X111500000Y-64000000D01*
X109250000Y-57500000D02*
X109500000Y-57250000D01*
X109250000Y-57500000D02*
X109500000Y-57750000D01*
X109250000Y-57500000D02*
X109750000Y-57500000D01*
X109500000Y-57750000D02*
X109250000Y-57500000D01*
X109750000Y-57500000D02*
X109750000Y-62000000D01*
X111500000Y-64000000D02*
X111500000Y-62000000D01*
X114750000Y-71220000D02*
X116250000Y-71220000D01*
X116000000Y-71000000D02*
X116250000Y-71220000D01*
X116000000Y-71500000D02*
X116250000Y-71220000D01*
X116250000Y-71220000D02*
X116000000Y-71000000D01*
X118750000Y-87000000D02*
X119000000Y-87000000D01*
X119000000Y-85250000D02*
X119500000Y-85250000D01*
X119000000Y-87000000D02*
X119000000Y-85250000D01*
X119250000Y-85000000D02*
X119500000Y-85250000D01*
X119250000Y-85500000D02*
X119500000Y-85250000D01*
X119500000Y-85250000D02*
X119250000Y-85000000D01*
X92999122Y-81655211D02*
X93332455Y-81655211D01*
X92932455Y-81855211D02*
X93165789Y-81155211D01*
X93165789Y-81155211D02*
X93399122Y-81855211D01*
X93932455Y-81855211D02*
X93932455Y-81155211D01*
X93932455Y-81821878D02*
X93865789Y-81855211D01*
X93865789Y-81855211D02*
X93732455Y-81855211D01*
X93732455Y-81855211D02*
X93665789Y-81821878D01*
X93665789Y-81821878D02*
X93632455Y-81788544D01*
X93632455Y-81788544D02*
X93599122Y-81721878D01*
X93599122Y-81721878D02*
X93599122Y-81521878D01*
X93599122Y-81521878D02*
X93632455Y-81455211D01*
X93632455Y-81455211D02*
X93665789Y-81421878D01*
X93665789Y-81421878D02*
X93732455Y-81388544D01*
X93732455Y-81388544D02*
X93865789Y-81388544D01*
X93865789Y-81388544D02*
X93932455Y-81421878D01*
X94565788Y-81855211D02*
X94565788Y-81488544D01*
X94565788Y-81488544D02*
X94532455Y-81421878D01*
X94532455Y-81421878D02*
X94465788Y-81388544D01*
X94465788Y-81388544D02*
X94332455Y-81388544D01*
X94332455Y-81388544D02*
X94265788Y-81421878D01*
X94565788Y-81821878D02*
X94499122Y-81855211D01*
X94499122Y-81855211D02*
X94332455Y-81855211D01*
X94332455Y-81855211D02*
X94265788Y-81821878D01*
X94265788Y-81821878D02*
X94232455Y-81755211D01*
X94232455Y-81755211D02*
X94232455Y-81688544D01*
X94232455Y-81688544D02*
X94265788Y-81621878D01*
X94265788Y-81621878D02*
X94332455Y-81588544D01*
X94332455Y-81588544D02*
X94499122Y-81588544D01*
X94499122Y-81588544D02*
X94565788Y-81555211D01*
X94899121Y-81855211D02*
X94899121Y-81388544D01*
X94899121Y-81455211D02*
X94932455Y-81421878D01*
X94932455Y-81421878D02*
X94999121Y-81388544D01*
X94999121Y-81388544D02*
X95099121Y-81388544D01*
X95099121Y-81388544D02*
X95165788Y-81421878D01*
X95165788Y-81421878D02*
X95199121Y-81488544D01*
X95199121Y-81488544D02*
X95199121Y-81855211D01*
X95199121Y-81488544D02*
X95232455Y-81421878D01*
X95232455Y-81421878D02*
X95299121Y-81388544D01*
X95299121Y-81388544D02*
X95399121Y-81388544D01*
X95399121Y-81388544D02*
X95465788Y-81421878D01*
X95465788Y-81421878D02*
X95499121Y-81488544D01*
X95499121Y-81488544D02*
X95499121Y-81855211D01*
X96332454Y-81821878D02*
X96432454Y-81855211D01*
X96432454Y-81855211D02*
X96599121Y-81855211D01*
X96599121Y-81855211D02*
X96665787Y-81821878D01*
X96665787Y-81821878D02*
X96699121Y-81788544D01*
X96699121Y-81788544D02*
X96732454Y-81721878D01*
X96732454Y-81721878D02*
X96732454Y-81655211D01*
X96732454Y-81655211D02*
X96699121Y-81588544D01*
X96699121Y-81588544D02*
X96665787Y-81555211D01*
X96665787Y-81555211D02*
X96599121Y-81521878D01*
X96599121Y-81521878D02*
X96465787Y-81488544D01*
X96465787Y-81488544D02*
X96399121Y-81455211D01*
X96399121Y-81455211D02*
X96365787Y-81421878D01*
X96365787Y-81421878D02*
X96332454Y-81355211D01*
X96332454Y-81355211D02*
X96332454Y-81288544D01*
X96332454Y-81288544D02*
X96365787Y-81221878D01*
X96365787Y-81221878D02*
X96399121Y-81188544D01*
X96399121Y-81188544D02*
X96465787Y-81155211D01*
X96465787Y-81155211D02*
X96632454Y-81155211D01*
X96632454Y-81155211D02*
X96732454Y-81188544D01*
X97032454Y-81855211D02*
X97032454Y-81155211D01*
X97332454Y-81855211D02*
X97332454Y-81488544D01*
X97332454Y-81488544D02*
X97299121Y-81421878D01*
X97299121Y-81421878D02*
X97232454Y-81388544D01*
X97232454Y-81388544D02*
X97132454Y-81388544D01*
X97132454Y-81388544D02*
X97065788Y-81421878D01*
X97065788Y-81421878D02*
X97032454Y-81455211D01*
X97665787Y-81855211D02*
X97665787Y-81388544D01*
X97665787Y-81155211D02*
X97632454Y-81188544D01*
X97632454Y-81188544D02*
X97665787Y-81221878D01*
X97665787Y-81221878D02*
X97699121Y-81188544D01*
X97699121Y-81188544D02*
X97665787Y-81155211D01*
X97665787Y-81155211D02*
X97665787Y-81221878D01*
X97999120Y-81388544D02*
X97999120Y-81855211D01*
X97999120Y-81455211D02*
X98032454Y-81421878D01*
X98032454Y-81421878D02*
X98099120Y-81388544D01*
X98099120Y-81388544D02*
X98199120Y-81388544D01*
X98199120Y-81388544D02*
X98265787Y-81421878D01*
X98265787Y-81421878D02*
X98299120Y-81488544D01*
X98299120Y-81488544D02*
X98299120Y-81855211D01*
X98632453Y-81388544D02*
X98632453Y-81855211D01*
X98632453Y-81455211D02*
X98665787Y-81421878D01*
X98665787Y-81421878D02*
X98732453Y-81388544D01*
X98732453Y-81388544D02*
X98832453Y-81388544D01*
X98832453Y-81388544D02*
X98899120Y-81421878D01*
X98899120Y-81421878D02*
X98932453Y-81488544D01*
X98932453Y-81488544D02*
X98932453Y-81855211D01*
X99565786Y-81855211D02*
X99565786Y-81488544D01*
X99565786Y-81488544D02*
X99532453Y-81421878D01*
X99532453Y-81421878D02*
X99465786Y-81388544D01*
X99465786Y-81388544D02*
X99332453Y-81388544D01*
X99332453Y-81388544D02*
X99265786Y-81421878D01*
X99565786Y-81821878D02*
X99499120Y-81855211D01*
X99499120Y-81855211D02*
X99332453Y-81855211D01*
X99332453Y-81855211D02*
X99265786Y-81821878D01*
X99265786Y-81821878D02*
X99232453Y-81755211D01*
X99232453Y-81755211D02*
X99232453Y-81688544D01*
X99232453Y-81688544D02*
X99265786Y-81621878D01*
X99265786Y-81621878D02*
X99332453Y-81588544D01*
X99332453Y-81588544D02*
X99499120Y-81588544D01*
X99499120Y-81588544D02*
X99565786Y-81555211D01*
X99832453Y-81388544D02*
X99965786Y-81855211D01*
X99965786Y-81855211D02*
X100099119Y-81521878D01*
X100099119Y-81521878D02*
X100232453Y-81855211D01*
X100232453Y-81855211D02*
X100365786Y-81388544D01*
X100632452Y-81855211D02*
X100632452Y-81388544D01*
X100632452Y-81155211D02*
X100599119Y-81188544D01*
X100599119Y-81188544D02*
X100632452Y-81221878D01*
X100632452Y-81221878D02*
X100665786Y-81188544D01*
X100665786Y-81188544D02*
X100632452Y-81155211D01*
X100632452Y-81155211D02*
X100632452Y-81221878D01*
X93032455Y-82982172D02*
X93032455Y-82282172D01*
X93032455Y-82615505D02*
X93432455Y-82615505D01*
X93432455Y-82982172D02*
X93432455Y-82282172D01*
X94065788Y-82515505D02*
X94065788Y-82982172D01*
X93765788Y-82515505D02*
X93765788Y-82882172D01*
X93765788Y-82882172D02*
X93799122Y-82948839D01*
X93799122Y-82948839D02*
X93865788Y-82982172D01*
X93865788Y-82982172D02*
X93965788Y-82982172D01*
X93965788Y-82982172D02*
X94032455Y-82948839D01*
X94032455Y-82948839D02*
X94065788Y-82915505D01*
X94699121Y-82515505D02*
X94699121Y-83082172D01*
X94699121Y-83082172D02*
X94665788Y-83148839D01*
X94665788Y-83148839D02*
X94632455Y-83182172D01*
X94632455Y-83182172D02*
X94565788Y-83215505D01*
X94565788Y-83215505D02*
X94465788Y-83215505D01*
X94465788Y-83215505D02*
X94399121Y-83182172D01*
X94699121Y-82948839D02*
X94632455Y-82982172D01*
X94632455Y-82982172D02*
X94499121Y-82982172D01*
X94499121Y-82982172D02*
X94432455Y-82948839D01*
X94432455Y-82948839D02*
X94399121Y-82915505D01*
X94399121Y-82915505D02*
X94365788Y-82848839D01*
X94365788Y-82848839D02*
X94365788Y-82648839D01*
X94365788Y-82648839D02*
X94399121Y-82582172D01*
X94399121Y-82582172D02*
X94432455Y-82548839D01*
X94432455Y-82548839D02*
X94499121Y-82515505D01*
X94499121Y-82515505D02*
X94632455Y-82515505D01*
X94632455Y-82515505D02*
X94699121Y-82548839D01*
X95132454Y-82982172D02*
X95065788Y-82948839D01*
X95065788Y-82948839D02*
X95032454Y-82915505D01*
X95032454Y-82915505D02*
X94999121Y-82848839D01*
X94999121Y-82848839D02*
X94999121Y-82648839D01*
X94999121Y-82648839D02*
X95032454Y-82582172D01*
X95032454Y-82582172D02*
X95065788Y-82548839D01*
X95065788Y-82548839D02*
X95132454Y-82515505D01*
X95132454Y-82515505D02*
X95232454Y-82515505D01*
X95232454Y-82515505D02*
X95299121Y-82548839D01*
X95299121Y-82548839D02*
X95332454Y-82582172D01*
X95332454Y-82582172D02*
X95365788Y-82648839D01*
X95365788Y-82648839D02*
X95365788Y-82848839D01*
X95365788Y-82848839D02*
X95332454Y-82915505D01*
X95332454Y-82915505D02*
X95299121Y-82948839D01*
X95299121Y-82948839D02*
X95232454Y-82982172D01*
X95232454Y-82982172D02*
X95132454Y-82982172D01*
X96199120Y-82982172D02*
X96199120Y-82282172D01*
X96199120Y-82282172D02*
X96599120Y-82982172D01*
X96599120Y-82982172D02*
X96599120Y-82282172D01*
X97232453Y-82515505D02*
X97232453Y-83082172D01*
X97232453Y-83082172D02*
X97199120Y-83148839D01*
X97199120Y-83148839D02*
X97165787Y-83182172D01*
X97165787Y-83182172D02*
X97099120Y-83215505D01*
X97099120Y-83215505D02*
X96999120Y-83215505D01*
X96999120Y-83215505D02*
X96932453Y-83182172D01*
X97232453Y-82948839D02*
X97165787Y-82982172D01*
X97165787Y-82982172D02*
X97032453Y-82982172D01*
X97032453Y-82982172D02*
X96965787Y-82948839D01*
X96965787Y-82948839D02*
X96932453Y-82915505D01*
X96932453Y-82915505D02*
X96899120Y-82848839D01*
X96899120Y-82848839D02*
X96899120Y-82648839D01*
X96899120Y-82648839D02*
X96932453Y-82582172D01*
X96932453Y-82582172D02*
X96965787Y-82548839D01*
X96965787Y-82548839D02*
X97032453Y-82515505D01*
X97032453Y-82515505D02*
X97165787Y-82515505D01*
X97165787Y-82515505D02*
X97232453Y-82548839D01*
X97865786Y-82515505D02*
X97865786Y-82982172D01*
X97565786Y-82515505D02*
X97565786Y-82882172D01*
X97565786Y-82882172D02*
X97599120Y-82948839D01*
X97599120Y-82948839D02*
X97665786Y-82982172D01*
X97665786Y-82982172D02*
X97765786Y-82982172D01*
X97765786Y-82982172D02*
X97832453Y-82948839D01*
X97832453Y-82948839D02*
X97865786Y-82915505D01*
X98132453Y-82515505D02*
X98299119Y-82982172D01*
X98465786Y-82515505D02*
X98299119Y-82982172D01*
X98299119Y-82982172D02*
X98232453Y-83148839D01*
X98232453Y-83148839D02*
X98199119Y-83182172D01*
X98199119Y-83182172D02*
X98132453Y-83215505D01*
X98999119Y-82948839D02*
X98932452Y-82982172D01*
X98932452Y-82982172D02*
X98799119Y-82982172D01*
X98799119Y-82982172D02*
X98732452Y-82948839D01*
X98732452Y-82948839D02*
X98699119Y-82882172D01*
X98699119Y-82882172D02*
X98699119Y-82615505D01*
X98699119Y-82615505D02*
X98732452Y-82548839D01*
X98732452Y-82548839D02*
X98799119Y-82515505D01*
X98799119Y-82515505D02*
X98932452Y-82515505D01*
X98932452Y-82515505D02*
X98999119Y-82548839D01*
X98999119Y-82548839D02*
X99032452Y-82615505D01*
X99032452Y-82615505D02*
X99032452Y-82682172D01*
X99032452Y-82682172D02*
X98699119Y-82748839D01*
X99332452Y-82515505D02*
X99332452Y-82982172D01*
X99332452Y-82582172D02*
X99365786Y-82548839D01*
X99365786Y-82548839D02*
X99432452Y-82515505D01*
X99432452Y-82515505D02*
X99532452Y-82515505D01*
X99532452Y-82515505D02*
X99599119Y-82548839D01*
X99599119Y-82548839D02*
X99632452Y-82615505D01*
X99632452Y-82615505D02*
X99632452Y-82982172D01*
X93032455Y-83742466D02*
X93265789Y-83742466D01*
X93365789Y-84109133D02*
X93032455Y-84109133D01*
X93032455Y-84109133D02*
X93032455Y-83409133D01*
X93032455Y-83409133D02*
X93365789Y-83409133D01*
X93999122Y-84109133D02*
X93665788Y-84109133D01*
X93665788Y-84109133D02*
X93665788Y-83409133D01*
X94232455Y-83742466D02*
X94465789Y-83742466D01*
X94565789Y-84109133D02*
X94232455Y-84109133D01*
X94232455Y-84109133D02*
X94232455Y-83409133D01*
X94232455Y-83409133D02*
X94565789Y-83409133D01*
X95265788Y-84042466D02*
X95232455Y-84075800D01*
X95232455Y-84075800D02*
X95132455Y-84109133D01*
X95132455Y-84109133D02*
X95065788Y-84109133D01*
X95065788Y-84109133D02*
X94965788Y-84075800D01*
X94965788Y-84075800D02*
X94899122Y-84009133D01*
X94899122Y-84009133D02*
X94865788Y-83942466D01*
X94865788Y-83942466D02*
X94832455Y-83809133D01*
X94832455Y-83809133D02*
X94832455Y-83709133D01*
X94832455Y-83709133D02*
X94865788Y-83575800D01*
X94865788Y-83575800D02*
X94899122Y-83509133D01*
X94899122Y-83509133D02*
X94965788Y-83442466D01*
X94965788Y-83442466D02*
X95065788Y-83409133D01*
X95065788Y-83409133D02*
X95132455Y-83409133D01*
X95132455Y-83409133D02*
X95232455Y-83442466D01*
X95232455Y-83442466D02*
X95265788Y-83475800D01*
X95499122Y-83409133D02*
X95932455Y-83409133D01*
X95932455Y-83409133D02*
X95699122Y-83675800D01*
X95699122Y-83675800D02*
X95799122Y-83675800D01*
X95799122Y-83675800D02*
X95865788Y-83709133D01*
X95865788Y-83709133D02*
X95899122Y-83742466D01*
X95899122Y-83742466D02*
X95932455Y-83809133D01*
X95932455Y-83809133D02*
X95932455Y-83975800D01*
X95932455Y-83975800D02*
X95899122Y-84042466D01*
X95899122Y-84042466D02*
X95865788Y-84075800D01*
X95865788Y-84075800D02*
X95799122Y-84109133D01*
X95799122Y-84109133D02*
X95599122Y-84109133D01*
X95599122Y-84109133D02*
X95532455Y-84075800D01*
X95532455Y-84075800D02*
X95499122Y-84042466D01*
X96599122Y-84109133D02*
X96199122Y-84109133D01*
X96399122Y-84109133D02*
X96399122Y-83409133D01*
X96399122Y-83409133D02*
X96332455Y-83509133D01*
X96332455Y-83509133D02*
X96265789Y-83575800D01*
X96265789Y-83575800D02*
X96199122Y-83609133D01*
X97265789Y-84109133D02*
X96865789Y-84109133D01*
X97065789Y-84109133D02*
X97065789Y-83409133D01*
X97065789Y-83409133D02*
X96999122Y-83509133D01*
X96999122Y-83509133D02*
X96932456Y-83575800D01*
X96932456Y-83575800D02*
X96865789Y-83609133D01*
X97499123Y-83409133D02*
X97965789Y-83409133D01*
X97965789Y-83409133D02*
X97665789Y-84109133D01*
D11*
X117583333Y-87359580D02*
X117535714Y-87407200D01*
X117535714Y-87407200D02*
X117392857Y-87454819D01*
X117392857Y-87454819D02*
X117297619Y-87454819D01*
X117297619Y-87454819D02*
X117154762Y-87407200D01*
X117154762Y-87407200D02*
X117059524Y-87311961D01*
X117059524Y-87311961D02*
X117011905Y-87216723D01*
X117011905Y-87216723D02*
X116964286Y-87026247D01*
X116964286Y-87026247D02*
X116964286Y-86883390D01*
X116964286Y-86883390D02*
X117011905Y-86692914D01*
X117011905Y-86692914D02*
X117059524Y-86597676D01*
X117059524Y-86597676D02*
X117154762Y-86502438D01*
X117154762Y-86502438D02*
X117297619Y-86454819D01*
X117297619Y-86454819D02*
X117392857Y-86454819D01*
X117392857Y-86454819D02*
X117535714Y-86502438D01*
X117535714Y-86502438D02*
X117583333Y-86550057D01*
X117916667Y-86454819D02*
X118583333Y-86454819D01*
X118583333Y-86454819D02*
X118154762Y-87454819D01*
X101904819Y-50416666D02*
X101428628Y-50749999D01*
X101904819Y-50988094D02*
X100904819Y-50988094D01*
X100904819Y-50988094D02*
X100904819Y-50607142D01*
X100904819Y-50607142D02*
X100952438Y-50511904D01*
X100952438Y-50511904D02*
X101000057Y-50464285D01*
X101000057Y-50464285D02*
X101095295Y-50416666D01*
X101095295Y-50416666D02*
X101238152Y-50416666D01*
X101238152Y-50416666D02*
X101333390Y-50464285D01*
X101333390Y-50464285D02*
X101381009Y-50511904D01*
X101381009Y-50511904D02*
X101428628Y-50607142D01*
X101428628Y-50607142D02*
X101428628Y-50988094D01*
X101000057Y-50035713D02*
X100952438Y-49988094D01*
X100952438Y-49988094D02*
X100904819Y-49892856D01*
X100904819Y-49892856D02*
X100904819Y-49654761D01*
X100904819Y-49654761D02*
X100952438Y-49559523D01*
X100952438Y-49559523D02*
X101000057Y-49511904D01*
X101000057Y-49511904D02*
X101095295Y-49464285D01*
X101095295Y-49464285D02*
X101190533Y-49464285D01*
X101190533Y-49464285D02*
X101333390Y-49511904D01*
X101333390Y-49511904D02*
X101904819Y-50083332D01*
X101904819Y-50083332D02*
X101904819Y-49464285D01*
X114812142Y-78294819D02*
X114478809Y-77818628D01*
X114240714Y-78294819D02*
X114240714Y-77294819D01*
X114240714Y-77294819D02*
X114621666Y-77294819D01*
X114621666Y-77294819D02*
X114716904Y-77342438D01*
X114716904Y-77342438D02*
X114764523Y-77390057D01*
X114764523Y-77390057D02*
X114812142Y-77485295D01*
X114812142Y-77485295D02*
X114812142Y-77628152D01*
X114812142Y-77628152D02*
X114764523Y-77723390D01*
X114764523Y-77723390D02*
X114716904Y-77771009D01*
X114716904Y-77771009D02*
X114621666Y-77818628D01*
X114621666Y-77818628D02*
X114240714Y-77818628D01*
X115764523Y-78294819D02*
X115193095Y-78294819D01*
X115478809Y-78294819D02*
X115478809Y-77294819D01*
X115478809Y-77294819D02*
X115383571Y-77437676D01*
X115383571Y-77437676D02*
X115288333Y-77532914D01*
X115288333Y-77532914D02*
X115193095Y-77580533D01*
X116621666Y-77628152D02*
X116621666Y-78294819D01*
X116383571Y-77247200D02*
X116145476Y-77961485D01*
X116145476Y-77961485D02*
X116764523Y-77961485D01*
X123357142Y-88194819D02*
X123023809Y-87718628D01*
X122785714Y-88194819D02*
X122785714Y-87194819D01*
X122785714Y-87194819D02*
X123166666Y-87194819D01*
X123166666Y-87194819D02*
X123261904Y-87242438D01*
X123261904Y-87242438D02*
X123309523Y-87290057D01*
X123309523Y-87290057D02*
X123357142Y-87385295D01*
X123357142Y-87385295D02*
X123357142Y-87528152D01*
X123357142Y-87528152D02*
X123309523Y-87623390D01*
X123309523Y-87623390D02*
X123261904Y-87671009D01*
X123261904Y-87671009D02*
X123166666Y-87718628D01*
X123166666Y-87718628D02*
X122785714Y-87718628D01*
X124309523Y-88194819D02*
X123738095Y-88194819D01*
X124023809Y-88194819D02*
X124023809Y-87194819D01*
X124023809Y-87194819D02*
X123928571Y-87337676D01*
X123928571Y-87337676D02*
X123833333Y-87432914D01*
X123833333Y-87432914D02*
X123738095Y-87480533D01*
X124928571Y-87194819D02*
X125023809Y-87194819D01*
X125023809Y-87194819D02*
X125119047Y-87242438D01*
X125119047Y-87242438D02*
X125166666Y-87290057D01*
X125166666Y-87290057D02*
X125214285Y-87385295D01*
X125214285Y-87385295D02*
X125261904Y-87575771D01*
X125261904Y-87575771D02*
X125261904Y-87813866D01*
X125261904Y-87813866D02*
X125214285Y-88004342D01*
X125214285Y-88004342D02*
X125166666Y-88099580D01*
X125166666Y-88099580D02*
X125119047Y-88147200D01*
X125119047Y-88147200D02*
X125023809Y-88194819D01*
X125023809Y-88194819D02*
X124928571Y-88194819D01*
X124928571Y-88194819D02*
X124833333Y-88147200D01*
X124833333Y-88147200D02*
X124785714Y-88099580D01*
X124785714Y-88099580D02*
X124738095Y-88004342D01*
X124738095Y-88004342D02*
X124690476Y-87813866D01*
X124690476Y-87813866D02*
X124690476Y-87575771D01*
X124690476Y-87575771D02*
X124738095Y-87385295D01*
X124738095Y-87385295D02*
X124785714Y-87290057D01*
X124785714Y-87290057D02*
X124833333Y-87242438D01*
X124833333Y-87242438D02*
X124928571Y-87194819D01*
X127342380Y-75764819D02*
X127009047Y-75288628D01*
X126770952Y-75764819D02*
X126770952Y-74764819D01*
X126770952Y-74764819D02*
X127151904Y-74764819D01*
X127151904Y-74764819D02*
X127247142Y-74812438D01*
X127247142Y-74812438D02*
X127294761Y-74860057D01*
X127294761Y-74860057D02*
X127342380Y-74955295D01*
X127342380Y-74955295D02*
X127342380Y-75098152D01*
X127342380Y-75098152D02*
X127294761Y-75193390D01*
X127294761Y-75193390D02*
X127247142Y-75241009D01*
X127247142Y-75241009D02*
X127151904Y-75288628D01*
X127151904Y-75288628D02*
X126770952Y-75288628D01*
X127723333Y-75717200D02*
X127866190Y-75764819D01*
X127866190Y-75764819D02*
X128104285Y-75764819D01*
X128104285Y-75764819D02*
X128199523Y-75717200D01*
X128199523Y-75717200D02*
X128247142Y-75669580D01*
X128247142Y-75669580D02*
X128294761Y-75574342D01*
X128294761Y-75574342D02*
X128294761Y-75479104D01*
X128294761Y-75479104D02*
X128247142Y-75383866D01*
X128247142Y-75383866D02*
X128199523Y-75336247D01*
X128199523Y-75336247D02*
X128104285Y-75288628D01*
X128104285Y-75288628D02*
X127913809Y-75241009D01*
X127913809Y-75241009D02*
X127818571Y-75193390D01*
X127818571Y-75193390D02*
X127770952Y-75145771D01*
X127770952Y-75145771D02*
X127723333Y-75050533D01*
X127723333Y-75050533D02*
X127723333Y-74955295D01*
X127723333Y-74955295D02*
X127770952Y-74860057D01*
X127770952Y-74860057D02*
X127818571Y-74812438D01*
X127818571Y-74812438D02*
X127913809Y-74764819D01*
X127913809Y-74764819D02*
X128151904Y-74764819D01*
X128151904Y-74764819D02*
X128294761Y-74812438D01*
X128580476Y-74764819D02*
X129151904Y-74764819D01*
X128866190Y-75764819D02*
X128866190Y-74764819D01*
X112934819Y-62836666D02*
X112458628Y-63169999D01*
X112934819Y-63408094D02*
X111934819Y-63408094D01*
X111934819Y-63408094D02*
X111934819Y-63027142D01*
X111934819Y-63027142D02*
X111982438Y-62931904D01*
X111982438Y-62931904D02*
X112030057Y-62884285D01*
X112030057Y-62884285D02*
X112125295Y-62836666D01*
X112125295Y-62836666D02*
X112268152Y-62836666D01*
X112268152Y-62836666D02*
X112363390Y-62884285D01*
X112363390Y-62884285D02*
X112411009Y-62931904D01*
X112411009Y-62931904D02*
X112458628Y-63027142D01*
X112458628Y-63027142D02*
X112458628Y-63408094D01*
X112363390Y-62265237D02*
X112315771Y-62360475D01*
X112315771Y-62360475D02*
X112268152Y-62408094D01*
X112268152Y-62408094D02*
X112172914Y-62455713D01*
X112172914Y-62455713D02*
X112125295Y-62455713D01*
X112125295Y-62455713D02*
X112030057Y-62408094D01*
X112030057Y-62408094D02*
X111982438Y-62360475D01*
X111982438Y-62360475D02*
X111934819Y-62265237D01*
X111934819Y-62265237D02*
X111934819Y-62074761D01*
X111934819Y-62074761D02*
X111982438Y-61979523D01*
X111982438Y-61979523D02*
X112030057Y-61931904D01*
X112030057Y-61931904D02*
X112125295Y-61884285D01*
X112125295Y-61884285D02*
X112172914Y-61884285D01*
X112172914Y-61884285D02*
X112268152Y-61931904D01*
X112268152Y-61931904D02*
X112315771Y-61979523D01*
X112315771Y-61979523D02*
X112363390Y-62074761D01*
X112363390Y-62074761D02*
X112363390Y-62265237D01*
X112363390Y-62265237D02*
X112411009Y-62360475D01*
X112411009Y-62360475D02*
X112458628Y-62408094D01*
X112458628Y-62408094D02*
X112553866Y-62455713D01*
X112553866Y-62455713D02*
X112744342Y-62455713D01*
X112744342Y-62455713D02*
X112839580Y-62408094D01*
X112839580Y-62408094D02*
X112887200Y-62360475D01*
X112887200Y-62360475D02*
X112934819Y-62265237D01*
X112934819Y-62265237D02*
X112934819Y-62074761D01*
X112934819Y-62074761D02*
X112887200Y-61979523D01*
X112887200Y-61979523D02*
X112839580Y-61931904D01*
X112839580Y-61931904D02*
X112744342Y-61884285D01*
X112744342Y-61884285D02*
X112553866Y-61884285D01*
X112553866Y-61884285D02*
X112458628Y-61931904D01*
X112458628Y-61931904D02*
X112411009Y-61979523D01*
X112411009Y-61979523D02*
X112363390Y-62074761D01*
X96704819Y-63583333D02*
X97419104Y-63583333D01*
X97419104Y-63583333D02*
X97561961Y-63630952D01*
X97561961Y-63630952D02*
X97657200Y-63726190D01*
X97657200Y-63726190D02*
X97704819Y-63869047D01*
X97704819Y-63869047D02*
X97704819Y-63964285D01*
X97704819Y-63107142D02*
X96704819Y-63107142D01*
X96704819Y-63107142D02*
X96704819Y-62726190D01*
X96704819Y-62726190D02*
X96752438Y-62630952D01*
X96752438Y-62630952D02*
X96800057Y-62583333D01*
X96800057Y-62583333D02*
X96895295Y-62535714D01*
X96895295Y-62535714D02*
X97038152Y-62535714D01*
X97038152Y-62535714D02*
X97133390Y-62583333D01*
X97133390Y-62583333D02*
X97181009Y-62630952D01*
X97181009Y-62630952D02*
X97228628Y-62726190D01*
X97228628Y-62726190D02*
X97228628Y-63107142D01*
X96800057Y-62154761D02*
X96752438Y-62107142D01*
X96752438Y-62107142D02*
X96704819Y-62011904D01*
X96704819Y-62011904D02*
X96704819Y-61773809D01*
X96704819Y-61773809D02*
X96752438Y-61678571D01*
X96752438Y-61678571D02*
X96800057Y-61630952D01*
X96800057Y-61630952D02*
X96895295Y-61583333D01*
X96895295Y-61583333D02*
X96990533Y-61583333D01*
X96990533Y-61583333D02*
X97133390Y-61630952D01*
X97133390Y-61630952D02*
X97704819Y-62202380D01*
X97704819Y-62202380D02*
X97704819Y-61583333D01*
X116089580Y-81886666D02*
X116137200Y-81934285D01*
X116137200Y-81934285D02*
X116184819Y-82077142D01*
X116184819Y-82077142D02*
X116184819Y-82172380D01*
X116184819Y-82172380D02*
X116137200Y-82315237D01*
X116137200Y-82315237D02*
X116041961Y-82410475D01*
X116041961Y-82410475D02*
X115946723Y-82458094D01*
X115946723Y-82458094D02*
X115756247Y-82505713D01*
X115756247Y-82505713D02*
X115613390Y-82505713D01*
X115613390Y-82505713D02*
X115422914Y-82458094D01*
X115422914Y-82458094D02*
X115327676Y-82410475D01*
X115327676Y-82410475D02*
X115232438Y-82315237D01*
X115232438Y-82315237D02*
X115184819Y-82172380D01*
X115184819Y-82172380D02*
X115184819Y-82077142D01*
X115184819Y-82077142D02*
X115232438Y-81934285D01*
X115232438Y-81934285D02*
X115280057Y-81886666D01*
X116184819Y-81410475D02*
X116184819Y-81219999D01*
X116184819Y-81219999D02*
X116137200Y-81124761D01*
X116137200Y-81124761D02*
X116089580Y-81077142D01*
X116089580Y-81077142D02*
X115946723Y-80981904D01*
X115946723Y-80981904D02*
X115756247Y-80934285D01*
X115756247Y-80934285D02*
X115375295Y-80934285D01*
X115375295Y-80934285D02*
X115280057Y-80981904D01*
X115280057Y-80981904D02*
X115232438Y-81029523D01*
X115232438Y-81029523D02*
X115184819Y-81124761D01*
X115184819Y-81124761D02*
X115184819Y-81315237D01*
X115184819Y-81315237D02*
X115232438Y-81410475D01*
X115232438Y-81410475D02*
X115280057Y-81458094D01*
X115280057Y-81458094D02*
X115375295Y-81505713D01*
X115375295Y-81505713D02*
X115613390Y-81505713D01*
X115613390Y-81505713D02*
X115708628Y-81458094D01*
X115708628Y-81458094D02*
X115756247Y-81410475D01*
X115756247Y-81410475D02*
X115803866Y-81315237D01*
X115803866Y-81315237D02*
X115803866Y-81124761D01*
X115803866Y-81124761D02*
X115756247Y-81029523D01*
X115756247Y-81029523D02*
X115708628Y-80981904D01*
X115708628Y-80981904D02*
X115613390Y-80934285D01*
X94594761Y-55540057D02*
X94499523Y-55492438D01*
X94499523Y-55492438D02*
X94404285Y-55397200D01*
X94404285Y-55397200D02*
X94261428Y-55254342D01*
X94261428Y-55254342D02*
X94166190Y-55206723D01*
X94166190Y-55206723D02*
X94070952Y-55206723D01*
X94118571Y-55444819D02*
X94023333Y-55397200D01*
X94023333Y-55397200D02*
X93928095Y-55301961D01*
X93928095Y-55301961D02*
X93880476Y-55111485D01*
X93880476Y-55111485D02*
X93880476Y-54778152D01*
X93880476Y-54778152D02*
X93928095Y-54587676D01*
X93928095Y-54587676D02*
X94023333Y-54492438D01*
X94023333Y-54492438D02*
X94118571Y-54444819D01*
X94118571Y-54444819D02*
X94309047Y-54444819D01*
X94309047Y-54444819D02*
X94404285Y-54492438D01*
X94404285Y-54492438D02*
X94499523Y-54587676D01*
X94499523Y-54587676D02*
X94547142Y-54778152D01*
X94547142Y-54778152D02*
X94547142Y-55111485D01*
X94547142Y-55111485D02*
X94499523Y-55301961D01*
X94499523Y-55301961D02*
X94404285Y-55397200D01*
X94404285Y-55397200D02*
X94309047Y-55444819D01*
X94309047Y-55444819D02*
X94118571Y-55444819D01*
X95499523Y-55444819D02*
X94928095Y-55444819D01*
X95213809Y-55444819D02*
X95213809Y-54444819D01*
X95213809Y-54444819D02*
X95118571Y-54587676D01*
X95118571Y-54587676D02*
X95023333Y-54682914D01*
X95023333Y-54682914D02*
X94928095Y-54730533D01*
X108177142Y-50594819D02*
X107843809Y-50118628D01*
X107605714Y-50594819D02*
X107605714Y-49594819D01*
X107605714Y-49594819D02*
X107986666Y-49594819D01*
X107986666Y-49594819D02*
X108081904Y-49642438D01*
X108081904Y-49642438D02*
X108129523Y-49690057D01*
X108129523Y-49690057D02*
X108177142Y-49785295D01*
X108177142Y-49785295D02*
X108177142Y-49928152D01*
X108177142Y-49928152D02*
X108129523Y-50023390D01*
X108129523Y-50023390D02*
X108081904Y-50071009D01*
X108081904Y-50071009D02*
X107986666Y-50118628D01*
X107986666Y-50118628D02*
X107605714Y-50118628D01*
X108558095Y-49690057D02*
X108605714Y-49642438D01*
X108605714Y-49642438D02*
X108700952Y-49594819D01*
X108700952Y-49594819D02*
X108939047Y-49594819D01*
X108939047Y-49594819D02*
X109034285Y-49642438D01*
X109034285Y-49642438D02*
X109081904Y-49690057D01*
X109081904Y-49690057D02*
X109129523Y-49785295D01*
X109129523Y-49785295D02*
X109129523Y-49880533D01*
X109129523Y-49880533D02*
X109081904Y-50023390D01*
X109081904Y-50023390D02*
X108510476Y-50594819D01*
X108510476Y-50594819D02*
X109129523Y-50594819D01*
X109748571Y-49594819D02*
X109843809Y-49594819D01*
X109843809Y-49594819D02*
X109939047Y-49642438D01*
X109939047Y-49642438D02*
X109986666Y-49690057D01*
X109986666Y-49690057D02*
X110034285Y-49785295D01*
X110034285Y-49785295D02*
X110081904Y-49975771D01*
X110081904Y-49975771D02*
X110081904Y-50213866D01*
X110081904Y-50213866D02*
X110034285Y-50404342D01*
X110034285Y-50404342D02*
X109986666Y-50499580D01*
X109986666Y-50499580D02*
X109939047Y-50547200D01*
X109939047Y-50547200D02*
X109843809Y-50594819D01*
X109843809Y-50594819D02*
X109748571Y-50594819D01*
X109748571Y-50594819D02*
X109653333Y-50547200D01*
X109653333Y-50547200D02*
X109605714Y-50499580D01*
X109605714Y-50499580D02*
X109558095Y-50404342D01*
X109558095Y-50404342D02*
X109510476Y-50213866D01*
X109510476Y-50213866D02*
X109510476Y-49975771D01*
X109510476Y-49975771D02*
X109558095Y-49785295D01*
X109558095Y-49785295D02*
X109605714Y-49690057D01*
X109605714Y-49690057D02*
X109653333Y-49642438D01*
X109653333Y-49642438D02*
X109748571Y-49594819D01*
X100488095Y-72954819D02*
X100488095Y-73764342D01*
X100488095Y-73764342D02*
X100535714Y-73859580D01*
X100535714Y-73859580D02*
X100583333Y-73907200D01*
X100583333Y-73907200D02*
X100678571Y-73954819D01*
X100678571Y-73954819D02*
X100869047Y-73954819D01*
X100869047Y-73954819D02*
X100964285Y-73907200D01*
X100964285Y-73907200D02*
X101011904Y-73859580D01*
X101011904Y-73859580D02*
X101059523Y-73764342D01*
X101059523Y-73764342D02*
X101059523Y-72954819D01*
X101488095Y-73050057D02*
X101535714Y-73002438D01*
X101535714Y-73002438D02*
X101630952Y-72954819D01*
X101630952Y-72954819D02*
X101869047Y-72954819D01*
X101869047Y-72954819D02*
X101964285Y-73002438D01*
X101964285Y-73002438D02*
X102011904Y-73050057D01*
X102011904Y-73050057D02*
X102059523Y-73145295D01*
X102059523Y-73145295D02*
X102059523Y-73240533D01*
X102059523Y-73240533D02*
X102011904Y-73383390D01*
X102011904Y-73383390D02*
X101440476Y-73954819D01*
X101440476Y-73954819D02*
X102059523Y-73954819D01*
X88738095Y-56157200D02*
X88880952Y-56204819D01*
X88880952Y-56204819D02*
X89119047Y-56204819D01*
X89119047Y-56204819D02*
X89214285Y-56157200D01*
X89214285Y-56157200D02*
X89261904Y-56109580D01*
X89261904Y-56109580D02*
X89309523Y-56014342D01*
X89309523Y-56014342D02*
X89309523Y-55919104D01*
X89309523Y-55919104D02*
X89261904Y-55823866D01*
X89261904Y-55823866D02*
X89214285Y-55776247D01*
X89214285Y-55776247D02*
X89119047Y-55728628D01*
X89119047Y-55728628D02*
X88928571Y-55681009D01*
X88928571Y-55681009D02*
X88833333Y-55633390D01*
X88833333Y-55633390D02*
X88785714Y-55585771D01*
X88785714Y-55585771D02*
X88738095Y-55490533D01*
X88738095Y-55490533D02*
X88738095Y-55395295D01*
X88738095Y-55395295D02*
X88785714Y-55300057D01*
X88785714Y-55300057D02*
X88833333Y-55252438D01*
X88833333Y-55252438D02*
X88928571Y-55204819D01*
X88928571Y-55204819D02*
X89166666Y-55204819D01*
X89166666Y-55204819D02*
X89309523Y-55252438D01*
X90261904Y-56204819D02*
X89690476Y-56204819D01*
X89976190Y-56204819D02*
X89976190Y-55204819D01*
X89976190Y-55204819D02*
X89880952Y-55347676D01*
X89880952Y-55347676D02*
X89785714Y-55442914D01*
X89785714Y-55442914D02*
X89690476Y-55490533D01*
X85231905Y-48254819D02*
X85231905Y-47254819D01*
X85231905Y-47254819D02*
X85470000Y-47254819D01*
X85470000Y-47254819D02*
X85612857Y-47302438D01*
X85612857Y-47302438D02*
X85708095Y-47397676D01*
X85708095Y-47397676D02*
X85755714Y-47492914D01*
X85755714Y-47492914D02*
X85803333Y-47683390D01*
X85803333Y-47683390D02*
X85803333Y-47826247D01*
X85803333Y-47826247D02*
X85755714Y-48016723D01*
X85755714Y-48016723D02*
X85708095Y-48111961D01*
X85708095Y-48111961D02*
X85612857Y-48207200D01*
X85612857Y-48207200D02*
X85470000Y-48254819D01*
X85470000Y-48254819D02*
X85231905Y-48254819D01*
X86136667Y-47254819D02*
X86755714Y-47254819D01*
X86755714Y-47254819D02*
X86422381Y-47635771D01*
X86422381Y-47635771D02*
X86565238Y-47635771D01*
X86565238Y-47635771D02*
X86660476Y-47683390D01*
X86660476Y-47683390D02*
X86708095Y-47731009D01*
X86708095Y-47731009D02*
X86755714Y-47826247D01*
X86755714Y-47826247D02*
X86755714Y-48064342D01*
X86755714Y-48064342D02*
X86708095Y-48159580D01*
X86708095Y-48159580D02*
X86660476Y-48207200D01*
X86660476Y-48207200D02*
X86565238Y-48254819D01*
X86565238Y-48254819D02*
X86279524Y-48254819D01*
X86279524Y-48254819D02*
X86184286Y-48207200D01*
X86184286Y-48207200D02*
X86136667Y-48159580D01*
X101468095Y-53107319D02*
X101468095Y-53916842D01*
X101468095Y-53916842D02*
X101515714Y-54012080D01*
X101515714Y-54012080D02*
X101563333Y-54059700D01*
X101563333Y-54059700D02*
X101658571Y-54107319D01*
X101658571Y-54107319D02*
X101849047Y-54107319D01*
X101849047Y-54107319D02*
X101944285Y-54059700D01*
X101944285Y-54059700D02*
X101991904Y-54012080D01*
X101991904Y-54012080D02*
X102039523Y-53916842D01*
X102039523Y-53916842D02*
X102039523Y-53107319D01*
X103039523Y-54107319D02*
X102468095Y-54107319D01*
X102753809Y-54107319D02*
X102753809Y-53107319D01*
X102753809Y-53107319D02*
X102658571Y-53250176D01*
X102658571Y-53250176D02*
X102563333Y-53345414D01*
X102563333Y-53345414D02*
X102468095Y-53393033D01*
X113730057Y-73657738D02*
X113682438Y-73752976D01*
X113682438Y-73752976D02*
X113587200Y-73848214D01*
X113587200Y-73848214D02*
X113444342Y-73991071D01*
X113444342Y-73991071D02*
X113396723Y-74086309D01*
X113396723Y-74086309D02*
X113396723Y-74181547D01*
X113634819Y-74133928D02*
X113587200Y-74229166D01*
X113587200Y-74229166D02*
X113491961Y-74324404D01*
X113491961Y-74324404D02*
X113301485Y-74372023D01*
X113301485Y-74372023D02*
X112968152Y-74372023D01*
X112968152Y-74372023D02*
X112777676Y-74324404D01*
X112777676Y-74324404D02*
X112682438Y-74229166D01*
X112682438Y-74229166D02*
X112634819Y-74133928D01*
X112634819Y-74133928D02*
X112634819Y-73943452D01*
X112634819Y-73943452D02*
X112682438Y-73848214D01*
X112682438Y-73848214D02*
X112777676Y-73752976D01*
X112777676Y-73752976D02*
X112968152Y-73705357D01*
X112968152Y-73705357D02*
X113301485Y-73705357D01*
X113301485Y-73705357D02*
X113491961Y-73752976D01*
X113491961Y-73752976D02*
X113587200Y-73848214D01*
X113587200Y-73848214D02*
X113634819Y-73943452D01*
X113634819Y-73943452D02*
X113634819Y-74133928D01*
X112634819Y-73372023D02*
X112634819Y-72752976D01*
X112634819Y-72752976D02*
X113015771Y-73086309D01*
X113015771Y-73086309D02*
X113015771Y-72943452D01*
X113015771Y-72943452D02*
X113063390Y-72848214D01*
X113063390Y-72848214D02*
X113111009Y-72800595D01*
X113111009Y-72800595D02*
X113206247Y-72752976D01*
X113206247Y-72752976D02*
X113444342Y-72752976D01*
X113444342Y-72752976D02*
X113539580Y-72800595D01*
X113539580Y-72800595D02*
X113587200Y-72848214D01*
X113587200Y-72848214D02*
X113634819Y-72943452D01*
X113634819Y-72943452D02*
X113634819Y-73229166D01*
X113634819Y-73229166D02*
X113587200Y-73324404D01*
X113587200Y-73324404D02*
X113539580Y-73372023D01*
X123766666Y-44564819D02*
X123766666Y-45279104D01*
X123766666Y-45279104D02*
X123719047Y-45421961D01*
X123719047Y-45421961D02*
X123623809Y-45517200D01*
X123623809Y-45517200D02*
X123480952Y-45564819D01*
X123480952Y-45564819D02*
X123385714Y-45564819D01*
X124671428Y-44564819D02*
X124480952Y-44564819D01*
X124480952Y-44564819D02*
X124385714Y-44612438D01*
X124385714Y-44612438D02*
X124338095Y-44660057D01*
X124338095Y-44660057D02*
X124242857Y-44802914D01*
X124242857Y-44802914D02*
X124195238Y-44993390D01*
X124195238Y-44993390D02*
X124195238Y-45374342D01*
X124195238Y-45374342D02*
X124242857Y-45469580D01*
X124242857Y-45469580D02*
X124290476Y-45517200D01*
X124290476Y-45517200D02*
X124385714Y-45564819D01*
X124385714Y-45564819D02*
X124576190Y-45564819D01*
X124576190Y-45564819D02*
X124671428Y-45517200D01*
X124671428Y-45517200D02*
X124719047Y-45469580D01*
X124719047Y-45469580D02*
X124766666Y-45374342D01*
X124766666Y-45374342D02*
X124766666Y-45136247D01*
X124766666Y-45136247D02*
X124719047Y-45041009D01*
X124719047Y-45041009D02*
X124671428Y-44993390D01*
X124671428Y-44993390D02*
X124576190Y-44945771D01*
X124576190Y-44945771D02*
X124385714Y-44945771D01*
X124385714Y-44945771D02*
X124290476Y-44993390D01*
X124290476Y-44993390D02*
X124242857Y-45041009D01*
X124242857Y-45041009D02*
X124195238Y-45136247D01*
X96261905Y-53954819D02*
X96261905Y-52954819D01*
X96261905Y-52954819D02*
X96500000Y-52954819D01*
X96500000Y-52954819D02*
X96642857Y-53002438D01*
X96642857Y-53002438D02*
X96738095Y-53097676D01*
X96738095Y-53097676D02*
X96785714Y-53192914D01*
X96785714Y-53192914D02*
X96833333Y-53383390D01*
X96833333Y-53383390D02*
X96833333Y-53526247D01*
X96833333Y-53526247D02*
X96785714Y-53716723D01*
X96785714Y-53716723D02*
X96738095Y-53811961D01*
X96738095Y-53811961D02*
X96642857Y-53907200D01*
X96642857Y-53907200D02*
X96500000Y-53954819D01*
X96500000Y-53954819D02*
X96261905Y-53954819D01*
X97690476Y-53288152D02*
X97690476Y-53954819D01*
X97452381Y-52907200D02*
X97214286Y-53621485D01*
X97214286Y-53621485D02*
X97833333Y-53621485D01*
X103744819Y-64593333D02*
X104459104Y-64593333D01*
X104459104Y-64593333D02*
X104601961Y-64640952D01*
X104601961Y-64640952D02*
X104697200Y-64736190D01*
X104697200Y-64736190D02*
X104744819Y-64879047D01*
X104744819Y-64879047D02*
X104744819Y-64974285D01*
X104744819Y-64117142D02*
X103744819Y-64117142D01*
X103744819Y-64117142D02*
X103744819Y-63736190D01*
X103744819Y-63736190D02*
X103792438Y-63640952D01*
X103792438Y-63640952D02*
X103840057Y-63593333D01*
X103840057Y-63593333D02*
X103935295Y-63545714D01*
X103935295Y-63545714D02*
X104078152Y-63545714D01*
X104078152Y-63545714D02*
X104173390Y-63593333D01*
X104173390Y-63593333D02*
X104221009Y-63640952D01*
X104221009Y-63640952D02*
X104268628Y-63736190D01*
X104268628Y-63736190D02*
X104268628Y-64117142D01*
X104744819Y-62593333D02*
X104744819Y-63164761D01*
X104744819Y-62879047D02*
X103744819Y-62879047D01*
X103744819Y-62879047D02*
X103887676Y-62974285D01*
X103887676Y-62974285D02*
X103982914Y-63069523D01*
X103982914Y-63069523D02*
X104030533Y-63164761D01*
X108609580Y-63166666D02*
X108657200Y-63214285D01*
X108657200Y-63214285D02*
X108704819Y-63357142D01*
X108704819Y-63357142D02*
X108704819Y-63452380D01*
X108704819Y-63452380D02*
X108657200Y-63595237D01*
X108657200Y-63595237D02*
X108561961Y-63690475D01*
X108561961Y-63690475D02*
X108466723Y-63738094D01*
X108466723Y-63738094D02*
X108276247Y-63785713D01*
X108276247Y-63785713D02*
X108133390Y-63785713D01*
X108133390Y-63785713D02*
X107942914Y-63738094D01*
X107942914Y-63738094D02*
X107847676Y-63690475D01*
X107847676Y-63690475D02*
X107752438Y-63595237D01*
X107752438Y-63595237D02*
X107704819Y-63452380D01*
X107704819Y-63452380D02*
X107704819Y-63357142D01*
X107704819Y-63357142D02*
X107752438Y-63214285D01*
X107752438Y-63214285D02*
X107800057Y-63166666D01*
X108038152Y-62309523D02*
X108704819Y-62309523D01*
X107657200Y-62547618D02*
X108371485Y-62785713D01*
X108371485Y-62785713D02*
X108371485Y-62166666D01*
X102354819Y-88508094D02*
X101354819Y-88508094D01*
X101354819Y-88508094D02*
X101354819Y-88269999D01*
X101354819Y-88269999D02*
X101402438Y-88127142D01*
X101402438Y-88127142D02*
X101497676Y-88031904D01*
X101497676Y-88031904D02*
X101592914Y-87984285D01*
X101592914Y-87984285D02*
X101783390Y-87936666D01*
X101783390Y-87936666D02*
X101926247Y-87936666D01*
X101926247Y-87936666D02*
X102116723Y-87984285D01*
X102116723Y-87984285D02*
X102211961Y-88031904D01*
X102211961Y-88031904D02*
X102307200Y-88127142D01*
X102307200Y-88127142D02*
X102354819Y-88269999D01*
X102354819Y-88269999D02*
X102354819Y-88508094D01*
X101354819Y-87079523D02*
X101354819Y-87269999D01*
X101354819Y-87269999D02*
X101402438Y-87365237D01*
X101402438Y-87365237D02*
X101450057Y-87412856D01*
X101450057Y-87412856D02*
X101592914Y-87508094D01*
X101592914Y-87508094D02*
X101783390Y-87555713D01*
X101783390Y-87555713D02*
X102164342Y-87555713D01*
X102164342Y-87555713D02*
X102259580Y-87508094D01*
X102259580Y-87508094D02*
X102307200Y-87460475D01*
X102307200Y-87460475D02*
X102354819Y-87365237D01*
X102354819Y-87365237D02*
X102354819Y-87174761D01*
X102354819Y-87174761D02*
X102307200Y-87079523D01*
X102307200Y-87079523D02*
X102259580Y-87031904D01*
X102259580Y-87031904D02*
X102164342Y-86984285D01*
X102164342Y-86984285D02*
X101926247Y-86984285D01*
X101926247Y-86984285D02*
X101831009Y-87031904D01*
X101831009Y-87031904D02*
X101783390Y-87079523D01*
X101783390Y-87079523D02*
X101735771Y-87174761D01*
X101735771Y-87174761D02*
X101735771Y-87365237D01*
X101735771Y-87365237D02*
X101783390Y-87460475D01*
X101783390Y-87460475D02*
X101831009Y-87508094D01*
X101831009Y-87508094D02*
X101926247Y-87555713D01*
X132367142Y-46059580D02*
X132319523Y-46107200D01*
X132319523Y-46107200D02*
X132176666Y-46154819D01*
X132176666Y-46154819D02*
X132081428Y-46154819D01*
X132081428Y-46154819D02*
X131938571Y-46107200D01*
X131938571Y-46107200D02*
X131843333Y-46011961D01*
X131843333Y-46011961D02*
X131795714Y-45916723D01*
X131795714Y-45916723D02*
X131748095Y-45726247D01*
X131748095Y-45726247D02*
X131748095Y-45583390D01*
X131748095Y-45583390D02*
X131795714Y-45392914D01*
X131795714Y-45392914D02*
X131843333Y-45297676D01*
X131843333Y-45297676D02*
X131938571Y-45202438D01*
X131938571Y-45202438D02*
X132081428Y-45154819D01*
X132081428Y-45154819D02*
X132176666Y-45154819D01*
X132176666Y-45154819D02*
X132319523Y-45202438D01*
X132319523Y-45202438D02*
X132367142Y-45250057D01*
X133319523Y-46154819D02*
X132748095Y-46154819D01*
X133033809Y-46154819D02*
X133033809Y-45154819D01*
X133033809Y-45154819D02*
X132938571Y-45297676D01*
X132938571Y-45297676D02*
X132843333Y-45392914D01*
X132843333Y-45392914D02*
X132748095Y-45440533D01*
X134176666Y-45154819D02*
X133986190Y-45154819D01*
X133986190Y-45154819D02*
X133890952Y-45202438D01*
X133890952Y-45202438D02*
X133843333Y-45250057D01*
X133843333Y-45250057D02*
X133748095Y-45392914D01*
X133748095Y-45392914D02*
X133700476Y-45583390D01*
X133700476Y-45583390D02*
X133700476Y-45964342D01*
X133700476Y-45964342D02*
X133748095Y-46059580D01*
X133748095Y-46059580D02*
X133795714Y-46107200D01*
X133795714Y-46107200D02*
X133890952Y-46154819D01*
X133890952Y-46154819D02*
X134081428Y-46154819D01*
X134081428Y-46154819D02*
X134176666Y-46107200D01*
X134176666Y-46107200D02*
X134224285Y-46059580D01*
X134224285Y-46059580D02*
X134271904Y-45964342D01*
X134271904Y-45964342D02*
X134271904Y-45726247D01*
X134271904Y-45726247D02*
X134224285Y-45631009D01*
X134224285Y-45631009D02*
X134176666Y-45583390D01*
X134176666Y-45583390D02*
X134081428Y-45535771D01*
X134081428Y-45535771D02*
X133890952Y-45535771D01*
X133890952Y-45535771D02*
X133795714Y-45583390D01*
X133795714Y-45583390D02*
X133748095Y-45631009D01*
X133748095Y-45631009D02*
X133700476Y-45726247D01*
X90166666Y-51454819D02*
X90166666Y-52169104D01*
X90166666Y-52169104D02*
X90119047Y-52311961D01*
X90119047Y-52311961D02*
X90023809Y-52407200D01*
X90023809Y-52407200D02*
X89880952Y-52454819D01*
X89880952Y-52454819D02*
X89785714Y-52454819D01*
X90642857Y-52454819D02*
X90642857Y-51454819D01*
X90642857Y-51454819D02*
X91023809Y-51454819D01*
X91023809Y-51454819D02*
X91119047Y-51502438D01*
X91119047Y-51502438D02*
X91166666Y-51550057D01*
X91166666Y-51550057D02*
X91214285Y-51645295D01*
X91214285Y-51645295D02*
X91214285Y-51788152D01*
X91214285Y-51788152D02*
X91166666Y-51883390D01*
X91166666Y-51883390D02*
X91119047Y-51931009D01*
X91119047Y-51931009D02*
X91023809Y-51978628D01*
X91023809Y-51978628D02*
X90642857Y-51978628D01*
X92071428Y-51788152D02*
X92071428Y-52454819D01*
X91833333Y-51407200D02*
X91595238Y-52121485D01*
X91595238Y-52121485D02*
X92214285Y-52121485D01*
X107008095Y-78674819D02*
X107008095Y-79484342D01*
X107008095Y-79484342D02*
X107055714Y-79579580D01*
X107055714Y-79579580D02*
X107103333Y-79627200D01*
X107103333Y-79627200D02*
X107198571Y-79674819D01*
X107198571Y-79674819D02*
X107389047Y-79674819D01*
X107389047Y-79674819D02*
X107484285Y-79627200D01*
X107484285Y-79627200D02*
X107531904Y-79579580D01*
X107531904Y-79579580D02*
X107579523Y-79484342D01*
X107579523Y-79484342D02*
X107579523Y-78674819D01*
X108484285Y-79008152D02*
X108484285Y-79674819D01*
X108246190Y-78627200D02*
X108008095Y-79341485D01*
X108008095Y-79341485D02*
X108627142Y-79341485D01*
X112837142Y-71929580D02*
X112789523Y-71977200D01*
X112789523Y-71977200D02*
X112646666Y-72024819D01*
X112646666Y-72024819D02*
X112551428Y-72024819D01*
X112551428Y-72024819D02*
X112408571Y-71977200D01*
X112408571Y-71977200D02*
X112313333Y-71881961D01*
X112313333Y-71881961D02*
X112265714Y-71786723D01*
X112265714Y-71786723D02*
X112218095Y-71596247D01*
X112218095Y-71596247D02*
X112218095Y-71453390D01*
X112218095Y-71453390D02*
X112265714Y-71262914D01*
X112265714Y-71262914D02*
X112313333Y-71167676D01*
X112313333Y-71167676D02*
X112408571Y-71072438D01*
X112408571Y-71072438D02*
X112551428Y-71024819D01*
X112551428Y-71024819D02*
X112646666Y-71024819D01*
X112646666Y-71024819D02*
X112789523Y-71072438D01*
X112789523Y-71072438D02*
X112837142Y-71120057D01*
X113789523Y-72024819D02*
X113218095Y-72024819D01*
X113503809Y-72024819D02*
X113503809Y-71024819D01*
X113503809Y-71024819D02*
X113408571Y-71167676D01*
X113408571Y-71167676D02*
X113313333Y-71262914D01*
X113313333Y-71262914D02*
X113218095Y-71310533D01*
X114741904Y-72024819D02*
X114170476Y-72024819D01*
X114456190Y-72024819D02*
X114456190Y-71024819D01*
X114456190Y-71024819D02*
X114360952Y-71167676D01*
X114360952Y-71167676D02*
X114265714Y-71262914D01*
X114265714Y-71262914D02*
X114170476Y-71310533D01*
X94154819Y-63218094D02*
X93154819Y-63218094D01*
X93154819Y-63218094D02*
X93154819Y-62979999D01*
X93154819Y-62979999D02*
X93202438Y-62837142D01*
X93202438Y-62837142D02*
X93297676Y-62741904D01*
X93297676Y-62741904D02*
X93392914Y-62694285D01*
X93392914Y-62694285D02*
X93583390Y-62646666D01*
X93583390Y-62646666D02*
X93726247Y-62646666D01*
X93726247Y-62646666D02*
X93916723Y-62694285D01*
X93916723Y-62694285D02*
X94011961Y-62741904D01*
X94011961Y-62741904D02*
X94107200Y-62837142D01*
X94107200Y-62837142D02*
X94154819Y-62979999D01*
X94154819Y-62979999D02*
X94154819Y-63218094D01*
X93154819Y-61741904D02*
X93154819Y-62218094D01*
X93154819Y-62218094D02*
X93631009Y-62265713D01*
X93631009Y-62265713D02*
X93583390Y-62218094D01*
X93583390Y-62218094D02*
X93535771Y-62122856D01*
X93535771Y-62122856D02*
X93535771Y-61884761D01*
X93535771Y-61884761D02*
X93583390Y-61789523D01*
X93583390Y-61789523D02*
X93631009Y-61741904D01*
X93631009Y-61741904D02*
X93726247Y-61694285D01*
X93726247Y-61694285D02*
X93964342Y-61694285D01*
X93964342Y-61694285D02*
X94059580Y-61741904D01*
X94059580Y-61741904D02*
X94107200Y-61789523D01*
X94107200Y-61789523D02*
X94154819Y-61884761D01*
X94154819Y-61884761D02*
X94154819Y-62122856D01*
X94154819Y-62122856D02*
X94107200Y-62218094D01*
X94107200Y-62218094D02*
X94059580Y-62265713D01*
X132377142Y-47269580D02*
X132329523Y-47317200D01*
X132329523Y-47317200D02*
X132186666Y-47364819D01*
X132186666Y-47364819D02*
X132091428Y-47364819D01*
X132091428Y-47364819D02*
X131948571Y-47317200D01*
X131948571Y-47317200D02*
X131853333Y-47221961D01*
X131853333Y-47221961D02*
X131805714Y-47126723D01*
X131805714Y-47126723D02*
X131758095Y-46936247D01*
X131758095Y-46936247D02*
X131758095Y-46793390D01*
X131758095Y-46793390D02*
X131805714Y-46602914D01*
X131805714Y-46602914D02*
X131853333Y-46507676D01*
X131853333Y-46507676D02*
X131948571Y-46412438D01*
X131948571Y-46412438D02*
X132091428Y-46364819D01*
X132091428Y-46364819D02*
X132186666Y-46364819D01*
X132186666Y-46364819D02*
X132329523Y-46412438D01*
X132329523Y-46412438D02*
X132377142Y-46460057D01*
X133329523Y-47364819D02*
X132758095Y-47364819D01*
X133043809Y-47364819D02*
X133043809Y-46364819D01*
X133043809Y-46364819D02*
X132948571Y-46507676D01*
X132948571Y-46507676D02*
X132853333Y-46602914D01*
X132853333Y-46602914D02*
X132758095Y-46650533D01*
X134234285Y-46364819D02*
X133758095Y-46364819D01*
X133758095Y-46364819D02*
X133710476Y-46841009D01*
X133710476Y-46841009D02*
X133758095Y-46793390D01*
X133758095Y-46793390D02*
X133853333Y-46745771D01*
X133853333Y-46745771D02*
X134091428Y-46745771D01*
X134091428Y-46745771D02*
X134186666Y-46793390D01*
X134186666Y-46793390D02*
X134234285Y-46841009D01*
X134234285Y-46841009D02*
X134281904Y-46936247D01*
X134281904Y-46936247D02*
X134281904Y-47174342D01*
X134281904Y-47174342D02*
X134234285Y-47269580D01*
X134234285Y-47269580D02*
X134186666Y-47317200D01*
X134186666Y-47317200D02*
X134091428Y-47364819D01*
X134091428Y-47364819D02*
X133853333Y-47364819D01*
X133853333Y-47364819D02*
X133758095Y-47317200D01*
X133758095Y-47317200D02*
X133710476Y-47269580D01*
X127919580Y-49492857D02*
X127967200Y-49540476D01*
X127967200Y-49540476D02*
X128014819Y-49683333D01*
X128014819Y-49683333D02*
X128014819Y-49778571D01*
X128014819Y-49778571D02*
X127967200Y-49921428D01*
X127967200Y-49921428D02*
X127871961Y-50016666D01*
X127871961Y-50016666D02*
X127776723Y-50064285D01*
X127776723Y-50064285D02*
X127586247Y-50111904D01*
X127586247Y-50111904D02*
X127443390Y-50111904D01*
X127443390Y-50111904D02*
X127252914Y-50064285D01*
X127252914Y-50064285D02*
X127157676Y-50016666D01*
X127157676Y-50016666D02*
X127062438Y-49921428D01*
X127062438Y-49921428D02*
X127014819Y-49778571D01*
X127014819Y-49778571D02*
X127014819Y-49683333D01*
X127014819Y-49683333D02*
X127062438Y-49540476D01*
X127062438Y-49540476D02*
X127110057Y-49492857D01*
X128014819Y-48540476D02*
X128014819Y-49111904D01*
X128014819Y-48826190D02*
X127014819Y-48826190D01*
X127014819Y-48826190D02*
X127157676Y-48921428D01*
X127157676Y-48921428D02*
X127252914Y-49016666D01*
X127252914Y-49016666D02*
X127300533Y-49111904D01*
X127110057Y-48159523D02*
X127062438Y-48111904D01*
X127062438Y-48111904D02*
X127014819Y-48016666D01*
X127014819Y-48016666D02*
X127014819Y-47778571D01*
X127014819Y-47778571D02*
X127062438Y-47683333D01*
X127062438Y-47683333D02*
X127110057Y-47635714D01*
X127110057Y-47635714D02*
X127205295Y-47588095D01*
X127205295Y-47588095D02*
X127300533Y-47588095D01*
X127300533Y-47588095D02*
X127443390Y-47635714D01*
X127443390Y-47635714D02*
X128014819Y-48207142D01*
X128014819Y-48207142D02*
X128014819Y-47588095D01*
X92889580Y-78792857D02*
X92937200Y-78840476D01*
X92937200Y-78840476D02*
X92984819Y-78983333D01*
X92984819Y-78983333D02*
X92984819Y-79078571D01*
X92984819Y-79078571D02*
X92937200Y-79221428D01*
X92937200Y-79221428D02*
X92841961Y-79316666D01*
X92841961Y-79316666D02*
X92746723Y-79364285D01*
X92746723Y-79364285D02*
X92556247Y-79411904D01*
X92556247Y-79411904D02*
X92413390Y-79411904D01*
X92413390Y-79411904D02*
X92222914Y-79364285D01*
X92222914Y-79364285D02*
X92127676Y-79316666D01*
X92127676Y-79316666D02*
X92032438Y-79221428D01*
X92032438Y-79221428D02*
X91984819Y-79078571D01*
X91984819Y-79078571D02*
X91984819Y-78983333D01*
X91984819Y-78983333D02*
X92032438Y-78840476D01*
X92032438Y-78840476D02*
X92080057Y-78792857D01*
X92984819Y-77840476D02*
X92984819Y-78411904D01*
X92984819Y-78126190D02*
X91984819Y-78126190D01*
X91984819Y-78126190D02*
X92127676Y-78221428D01*
X92127676Y-78221428D02*
X92222914Y-78316666D01*
X92222914Y-78316666D02*
X92270533Y-78411904D01*
X91984819Y-77507142D02*
X91984819Y-76888095D01*
X91984819Y-76888095D02*
X92365771Y-77221428D01*
X92365771Y-77221428D02*
X92365771Y-77078571D01*
X92365771Y-77078571D02*
X92413390Y-76983333D01*
X92413390Y-76983333D02*
X92461009Y-76935714D01*
X92461009Y-76935714D02*
X92556247Y-76888095D01*
X92556247Y-76888095D02*
X92794342Y-76888095D01*
X92794342Y-76888095D02*
X92889580Y-76935714D01*
X92889580Y-76935714D02*
X92937200Y-76983333D01*
X92937200Y-76983333D02*
X92984819Y-77078571D01*
X92984819Y-77078571D02*
X92984819Y-77364285D01*
X92984819Y-77364285D02*
X92937200Y-77459523D01*
X92937200Y-77459523D02*
X92889580Y-77507142D01*
X96919580Y-59656666D02*
X96967200Y-59704285D01*
X96967200Y-59704285D02*
X97014819Y-59847142D01*
X97014819Y-59847142D02*
X97014819Y-59942380D01*
X97014819Y-59942380D02*
X96967200Y-60085237D01*
X96967200Y-60085237D02*
X96871961Y-60180475D01*
X96871961Y-60180475D02*
X96776723Y-60228094D01*
X96776723Y-60228094D02*
X96586247Y-60275713D01*
X96586247Y-60275713D02*
X96443390Y-60275713D01*
X96443390Y-60275713D02*
X96252914Y-60228094D01*
X96252914Y-60228094D02*
X96157676Y-60180475D01*
X96157676Y-60180475D02*
X96062438Y-60085237D01*
X96062438Y-60085237D02*
X96014819Y-59942380D01*
X96014819Y-59942380D02*
X96014819Y-59847142D01*
X96014819Y-59847142D02*
X96062438Y-59704285D01*
X96062438Y-59704285D02*
X96110057Y-59656666D01*
X96014819Y-59323332D02*
X96014819Y-58704285D01*
X96014819Y-58704285D02*
X96395771Y-59037618D01*
X96395771Y-59037618D02*
X96395771Y-58894761D01*
X96395771Y-58894761D02*
X96443390Y-58799523D01*
X96443390Y-58799523D02*
X96491009Y-58751904D01*
X96491009Y-58751904D02*
X96586247Y-58704285D01*
X96586247Y-58704285D02*
X96824342Y-58704285D01*
X96824342Y-58704285D02*
X96919580Y-58751904D01*
X96919580Y-58751904D02*
X96967200Y-58799523D01*
X96967200Y-58799523D02*
X97014819Y-58894761D01*
X97014819Y-58894761D02*
X97014819Y-59180475D01*
X97014819Y-59180475D02*
X96967200Y-59275713D01*
X96967200Y-59275713D02*
X96919580Y-59323332D01*
X124834819Y-84587857D02*
X124358628Y-84921190D01*
X124834819Y-85159285D02*
X123834819Y-85159285D01*
X123834819Y-85159285D02*
X123834819Y-84778333D01*
X123834819Y-84778333D02*
X123882438Y-84683095D01*
X123882438Y-84683095D02*
X123930057Y-84635476D01*
X123930057Y-84635476D02*
X124025295Y-84587857D01*
X124025295Y-84587857D02*
X124168152Y-84587857D01*
X124168152Y-84587857D02*
X124263390Y-84635476D01*
X124263390Y-84635476D02*
X124311009Y-84683095D01*
X124311009Y-84683095D02*
X124358628Y-84778333D01*
X124358628Y-84778333D02*
X124358628Y-85159285D01*
X124834819Y-83635476D02*
X124834819Y-84206904D01*
X124834819Y-83921190D02*
X123834819Y-83921190D01*
X123834819Y-83921190D02*
X123977676Y-84016428D01*
X123977676Y-84016428D02*
X124072914Y-84111666D01*
X124072914Y-84111666D02*
X124120533Y-84206904D01*
X124834819Y-82683095D02*
X124834819Y-83254523D01*
X124834819Y-82968809D02*
X123834819Y-82968809D01*
X123834819Y-82968809D02*
X123977676Y-83064047D01*
X123977676Y-83064047D02*
X124072914Y-83159285D01*
X124072914Y-83159285D02*
X124120533Y-83254523D01*
X105261905Y-63454819D02*
X105261905Y-62454819D01*
X105261905Y-62454819D02*
X105500000Y-62454819D01*
X105500000Y-62454819D02*
X105642857Y-62502438D01*
X105642857Y-62502438D02*
X105738095Y-62597676D01*
X105738095Y-62597676D02*
X105785714Y-62692914D01*
X105785714Y-62692914D02*
X105833333Y-62883390D01*
X105833333Y-62883390D02*
X105833333Y-63026247D01*
X105833333Y-63026247D02*
X105785714Y-63216723D01*
X105785714Y-63216723D02*
X105738095Y-63311961D01*
X105738095Y-63311961D02*
X105642857Y-63407200D01*
X105642857Y-63407200D02*
X105500000Y-63454819D01*
X105500000Y-63454819D02*
X105261905Y-63454819D01*
X106785714Y-63454819D02*
X106214286Y-63454819D01*
X106500000Y-63454819D02*
X106500000Y-62454819D01*
X106500000Y-62454819D02*
X106404762Y-62597676D01*
X106404762Y-62597676D02*
X106309524Y-62692914D01*
X106309524Y-62692914D02*
X106214286Y-62740533D01*
X110138095Y-55004819D02*
X110138095Y-55814342D01*
X110138095Y-55814342D02*
X110185714Y-55909580D01*
X110185714Y-55909580D02*
X110233333Y-55957200D01*
X110233333Y-55957200D02*
X110328571Y-56004819D01*
X110328571Y-56004819D02*
X110519047Y-56004819D01*
X110519047Y-56004819D02*
X110614285Y-55957200D01*
X110614285Y-55957200D02*
X110661904Y-55909580D01*
X110661904Y-55909580D02*
X110709523Y-55814342D01*
X110709523Y-55814342D02*
X110709523Y-55004819D01*
X111614285Y-55004819D02*
X111423809Y-55004819D01*
X111423809Y-55004819D02*
X111328571Y-55052438D01*
X111328571Y-55052438D02*
X111280952Y-55100057D01*
X111280952Y-55100057D02*
X111185714Y-55242914D01*
X111185714Y-55242914D02*
X111138095Y-55433390D01*
X111138095Y-55433390D02*
X111138095Y-55814342D01*
X111138095Y-55814342D02*
X111185714Y-55909580D01*
X111185714Y-55909580D02*
X111233333Y-55957200D01*
X111233333Y-55957200D02*
X111328571Y-56004819D01*
X111328571Y-56004819D02*
X111519047Y-56004819D01*
X111519047Y-56004819D02*
X111614285Y-55957200D01*
X111614285Y-55957200D02*
X111661904Y-55909580D01*
X111661904Y-55909580D02*
X111709523Y-55814342D01*
X111709523Y-55814342D02*
X111709523Y-55576247D01*
X111709523Y-55576247D02*
X111661904Y-55481009D01*
X111661904Y-55481009D02*
X111614285Y-55433390D01*
X111614285Y-55433390D02*
X111519047Y-55385771D01*
X111519047Y-55385771D02*
X111328571Y-55385771D01*
X111328571Y-55385771D02*
X111233333Y-55433390D01*
X111233333Y-55433390D02*
X111185714Y-55481009D01*
X111185714Y-55481009D02*
X111138095Y-55576247D01*
X109954819Y-63166666D02*
X109478628Y-63499999D01*
X109954819Y-63738094D02*
X108954819Y-63738094D01*
X108954819Y-63738094D02*
X108954819Y-63357142D01*
X108954819Y-63357142D02*
X109002438Y-63261904D01*
X109002438Y-63261904D02*
X109050057Y-63214285D01*
X109050057Y-63214285D02*
X109145295Y-63166666D01*
X109145295Y-63166666D02*
X109288152Y-63166666D01*
X109288152Y-63166666D02*
X109383390Y-63214285D01*
X109383390Y-63214285D02*
X109431009Y-63261904D01*
X109431009Y-63261904D02*
X109478628Y-63357142D01*
X109478628Y-63357142D02*
X109478628Y-63738094D01*
X108954819Y-62261904D02*
X108954819Y-62738094D01*
X108954819Y-62738094D02*
X109431009Y-62785713D01*
X109431009Y-62785713D02*
X109383390Y-62738094D01*
X109383390Y-62738094D02*
X109335771Y-62642856D01*
X109335771Y-62642856D02*
X109335771Y-62404761D01*
X109335771Y-62404761D02*
X109383390Y-62309523D01*
X109383390Y-62309523D02*
X109431009Y-62261904D01*
X109431009Y-62261904D02*
X109526247Y-62214285D01*
X109526247Y-62214285D02*
X109764342Y-62214285D01*
X109764342Y-62214285D02*
X109859580Y-62261904D01*
X109859580Y-62261904D02*
X109907200Y-62309523D01*
X109907200Y-62309523D02*
X109954819Y-62404761D01*
X109954819Y-62404761D02*
X109954819Y-62642856D01*
X109954819Y-62642856D02*
X109907200Y-62738094D01*
X109907200Y-62738094D02*
X109859580Y-62785713D01*
X93566666Y-66974819D02*
X93566666Y-67689104D01*
X93566666Y-67689104D02*
X93519047Y-67831961D01*
X93519047Y-67831961D02*
X93423809Y-67927200D01*
X93423809Y-67927200D02*
X93280952Y-67974819D01*
X93280952Y-67974819D02*
X93185714Y-67974819D01*
X94566666Y-67974819D02*
X93995238Y-67974819D01*
X94280952Y-67974819D02*
X94280952Y-66974819D01*
X94280952Y-66974819D02*
X94185714Y-67117676D01*
X94185714Y-67117676D02*
X94090476Y-67212914D01*
X94090476Y-67212914D02*
X93995238Y-67260533D01*
X114454819Y-52642857D02*
X113978628Y-52976190D01*
X114454819Y-53214285D02*
X113454819Y-53214285D01*
X113454819Y-53214285D02*
X113454819Y-52833333D01*
X113454819Y-52833333D02*
X113502438Y-52738095D01*
X113502438Y-52738095D02*
X113550057Y-52690476D01*
X113550057Y-52690476D02*
X113645295Y-52642857D01*
X113645295Y-52642857D02*
X113788152Y-52642857D01*
X113788152Y-52642857D02*
X113883390Y-52690476D01*
X113883390Y-52690476D02*
X113931009Y-52738095D01*
X113931009Y-52738095D02*
X113978628Y-52833333D01*
X113978628Y-52833333D02*
X113978628Y-53214285D01*
X114454819Y-51690476D02*
X114454819Y-52261904D01*
X114454819Y-51976190D02*
X113454819Y-51976190D01*
X113454819Y-51976190D02*
X113597676Y-52071428D01*
X113597676Y-52071428D02*
X113692914Y-52166666D01*
X113692914Y-52166666D02*
X113740533Y-52261904D01*
X113883390Y-51119047D02*
X113835771Y-51214285D01*
X113835771Y-51214285D02*
X113788152Y-51261904D01*
X113788152Y-51261904D02*
X113692914Y-51309523D01*
X113692914Y-51309523D02*
X113645295Y-51309523D01*
X113645295Y-51309523D02*
X113550057Y-51261904D01*
X113550057Y-51261904D02*
X113502438Y-51214285D01*
X113502438Y-51214285D02*
X113454819Y-51119047D01*
X113454819Y-51119047D02*
X113454819Y-50928571D01*
X113454819Y-50928571D02*
X113502438Y-50833333D01*
X113502438Y-50833333D02*
X113550057Y-50785714D01*
X113550057Y-50785714D02*
X113645295Y-50738095D01*
X113645295Y-50738095D02*
X113692914Y-50738095D01*
X113692914Y-50738095D02*
X113788152Y-50785714D01*
X113788152Y-50785714D02*
X113835771Y-50833333D01*
X113835771Y-50833333D02*
X113883390Y-50928571D01*
X113883390Y-50928571D02*
X113883390Y-51119047D01*
X113883390Y-51119047D02*
X113931009Y-51214285D01*
X113931009Y-51214285D02*
X113978628Y-51261904D01*
X113978628Y-51261904D02*
X114073866Y-51309523D01*
X114073866Y-51309523D02*
X114264342Y-51309523D01*
X114264342Y-51309523D02*
X114359580Y-51261904D01*
X114359580Y-51261904D02*
X114407200Y-51214285D01*
X114407200Y-51214285D02*
X114454819Y-51119047D01*
X114454819Y-51119047D02*
X114454819Y-50928571D01*
X114454819Y-50928571D02*
X114407200Y-50833333D01*
X114407200Y-50833333D02*
X114359580Y-50785714D01*
X114359580Y-50785714D02*
X114264342Y-50738095D01*
X114264342Y-50738095D02*
X114073866Y-50738095D01*
X114073866Y-50738095D02*
X113978628Y-50785714D01*
X113978628Y-50785714D02*
X113931009Y-50833333D01*
X113931009Y-50833333D02*
X113883390Y-50928571D01*
X95624819Y-62386666D02*
X95148628Y-62719999D01*
X95624819Y-62958094D02*
X94624819Y-62958094D01*
X94624819Y-62958094D02*
X94624819Y-62577142D01*
X94624819Y-62577142D02*
X94672438Y-62481904D01*
X94672438Y-62481904D02*
X94720057Y-62434285D01*
X94720057Y-62434285D02*
X94815295Y-62386666D01*
X94815295Y-62386666D02*
X94958152Y-62386666D01*
X94958152Y-62386666D02*
X95053390Y-62434285D01*
X95053390Y-62434285D02*
X95101009Y-62481904D01*
X95101009Y-62481904D02*
X95148628Y-62577142D01*
X95148628Y-62577142D02*
X95148628Y-62958094D01*
X94624819Y-62053332D02*
X94624819Y-61386666D01*
X94624819Y-61386666D02*
X95624819Y-61815237D01*
X111987142Y-79974819D02*
X111653809Y-79498628D01*
X111415714Y-79974819D02*
X111415714Y-78974819D01*
X111415714Y-78974819D02*
X111796666Y-78974819D01*
X111796666Y-78974819D02*
X111891904Y-79022438D01*
X111891904Y-79022438D02*
X111939523Y-79070057D01*
X111939523Y-79070057D02*
X111987142Y-79165295D01*
X111987142Y-79165295D02*
X111987142Y-79308152D01*
X111987142Y-79308152D02*
X111939523Y-79403390D01*
X111939523Y-79403390D02*
X111891904Y-79451009D01*
X111891904Y-79451009D02*
X111796666Y-79498628D01*
X111796666Y-79498628D02*
X111415714Y-79498628D01*
X112939523Y-79974819D02*
X112368095Y-79974819D01*
X112653809Y-79974819D02*
X112653809Y-78974819D01*
X112653809Y-78974819D02*
X112558571Y-79117676D01*
X112558571Y-79117676D02*
X112463333Y-79212914D01*
X112463333Y-79212914D02*
X112368095Y-79260533D01*
X113320476Y-79070057D02*
X113368095Y-79022438D01*
X113368095Y-79022438D02*
X113463333Y-78974819D01*
X113463333Y-78974819D02*
X113701428Y-78974819D01*
X113701428Y-78974819D02*
X113796666Y-79022438D01*
X113796666Y-79022438D02*
X113844285Y-79070057D01*
X113844285Y-79070057D02*
X113891904Y-79165295D01*
X113891904Y-79165295D02*
X113891904Y-79260533D01*
X113891904Y-79260533D02*
X113844285Y-79403390D01*
X113844285Y-79403390D02*
X113272857Y-79974819D01*
X113272857Y-79974819D02*
X113891904Y-79974819D01*
X102957142Y-81294819D02*
X102623809Y-80818628D01*
X102385714Y-81294819D02*
X102385714Y-80294819D01*
X102385714Y-80294819D02*
X102766666Y-80294819D01*
X102766666Y-80294819D02*
X102861904Y-80342438D01*
X102861904Y-80342438D02*
X102909523Y-80390057D01*
X102909523Y-80390057D02*
X102957142Y-80485295D01*
X102957142Y-80485295D02*
X102957142Y-80628152D01*
X102957142Y-80628152D02*
X102909523Y-80723390D01*
X102909523Y-80723390D02*
X102861904Y-80771009D01*
X102861904Y-80771009D02*
X102766666Y-80818628D01*
X102766666Y-80818628D02*
X102385714Y-80818628D01*
X103909523Y-81294819D02*
X103338095Y-81294819D01*
X103623809Y-81294819D02*
X103623809Y-80294819D01*
X103623809Y-80294819D02*
X103528571Y-80437676D01*
X103528571Y-80437676D02*
X103433333Y-80532914D01*
X103433333Y-80532914D02*
X103338095Y-80580533D01*
X104814285Y-80294819D02*
X104338095Y-80294819D01*
X104338095Y-80294819D02*
X104290476Y-80771009D01*
X104290476Y-80771009D02*
X104338095Y-80723390D01*
X104338095Y-80723390D02*
X104433333Y-80675771D01*
X104433333Y-80675771D02*
X104671428Y-80675771D01*
X104671428Y-80675771D02*
X104766666Y-80723390D01*
X104766666Y-80723390D02*
X104814285Y-80771009D01*
X104814285Y-80771009D02*
X104861904Y-80866247D01*
X104861904Y-80866247D02*
X104861904Y-81104342D01*
X104861904Y-81104342D02*
X104814285Y-81199580D01*
X104814285Y-81199580D02*
X104766666Y-81247200D01*
X104766666Y-81247200D02*
X104671428Y-81294819D01*
X104671428Y-81294819D02*
X104433333Y-81294819D01*
X104433333Y-81294819D02*
X104338095Y-81247200D01*
X104338095Y-81247200D02*
X104290476Y-81199580D01*
X85633866Y-77150951D02*
X85633866Y-76389047D01*
X113444819Y-69761904D02*
X114254342Y-69761904D01*
X114254342Y-69761904D02*
X114349580Y-69714285D01*
X114349580Y-69714285D02*
X114397200Y-69666666D01*
X114397200Y-69666666D02*
X114444819Y-69571428D01*
X114444819Y-69571428D02*
X114444819Y-69380952D01*
X114444819Y-69380952D02*
X114397200Y-69285714D01*
X114397200Y-69285714D02*
X114349580Y-69238095D01*
X114349580Y-69238095D02*
X114254342Y-69190476D01*
X114254342Y-69190476D02*
X113444819Y-69190476D01*
X113873390Y-68571428D02*
X113825771Y-68666666D01*
X113825771Y-68666666D02*
X113778152Y-68714285D01*
X113778152Y-68714285D02*
X113682914Y-68761904D01*
X113682914Y-68761904D02*
X113635295Y-68761904D01*
X113635295Y-68761904D02*
X113540057Y-68714285D01*
X113540057Y-68714285D02*
X113492438Y-68666666D01*
X113492438Y-68666666D02*
X113444819Y-68571428D01*
X113444819Y-68571428D02*
X113444819Y-68380952D01*
X113444819Y-68380952D02*
X113492438Y-68285714D01*
X113492438Y-68285714D02*
X113540057Y-68238095D01*
X113540057Y-68238095D02*
X113635295Y-68190476D01*
X113635295Y-68190476D02*
X113682914Y-68190476D01*
X113682914Y-68190476D02*
X113778152Y-68238095D01*
X113778152Y-68238095D02*
X113825771Y-68285714D01*
X113825771Y-68285714D02*
X113873390Y-68380952D01*
X113873390Y-68380952D02*
X113873390Y-68571428D01*
X113873390Y-68571428D02*
X113921009Y-68666666D01*
X113921009Y-68666666D02*
X113968628Y-68714285D01*
X113968628Y-68714285D02*
X114063866Y-68761904D01*
X114063866Y-68761904D02*
X114254342Y-68761904D01*
X114254342Y-68761904D02*
X114349580Y-68714285D01*
X114349580Y-68714285D02*
X114397200Y-68666666D01*
X114397200Y-68666666D02*
X114444819Y-68571428D01*
X114444819Y-68571428D02*
X114444819Y-68380952D01*
X114444819Y-68380952D02*
X114397200Y-68285714D01*
X114397200Y-68285714D02*
X114349580Y-68238095D01*
X114349580Y-68238095D02*
X114254342Y-68190476D01*
X114254342Y-68190476D02*
X114063866Y-68190476D01*
X114063866Y-68190476D02*
X113968628Y-68238095D01*
X113968628Y-68238095D02*
X113921009Y-68285714D01*
X113921009Y-68285714D02*
X113873390Y-68380952D01*
X115256666Y-88594819D02*
X115256666Y-89309104D01*
X115256666Y-89309104D02*
X115209047Y-89451961D01*
X115209047Y-89451961D02*
X115113809Y-89547200D01*
X115113809Y-89547200D02*
X114970952Y-89594819D01*
X114970952Y-89594819D02*
X114875714Y-89594819D01*
X115685238Y-88690057D02*
X115732857Y-88642438D01*
X115732857Y-88642438D02*
X115828095Y-88594819D01*
X115828095Y-88594819D02*
X116066190Y-88594819D01*
X116066190Y-88594819D02*
X116161428Y-88642438D01*
X116161428Y-88642438D02*
X116209047Y-88690057D01*
X116209047Y-88690057D02*
X116256666Y-88785295D01*
X116256666Y-88785295D02*
X116256666Y-88880533D01*
X116256666Y-88880533D02*
X116209047Y-89023390D01*
X116209047Y-89023390D02*
X115637619Y-89594819D01*
X115637619Y-89594819D02*
X116256666Y-89594819D01*
X97359580Y-70666666D02*
X97407200Y-70714285D01*
X97407200Y-70714285D02*
X97454819Y-70857142D01*
X97454819Y-70857142D02*
X97454819Y-70952380D01*
X97454819Y-70952380D02*
X97407200Y-71095237D01*
X97407200Y-71095237D02*
X97311961Y-71190475D01*
X97311961Y-71190475D02*
X97216723Y-71238094D01*
X97216723Y-71238094D02*
X97026247Y-71285713D01*
X97026247Y-71285713D02*
X96883390Y-71285713D01*
X96883390Y-71285713D02*
X96692914Y-71238094D01*
X96692914Y-71238094D02*
X96597676Y-71190475D01*
X96597676Y-71190475D02*
X96502438Y-71095237D01*
X96502438Y-71095237D02*
X96454819Y-70952380D01*
X96454819Y-70952380D02*
X96454819Y-70857142D01*
X96454819Y-70857142D02*
X96502438Y-70714285D01*
X96502438Y-70714285D02*
X96550057Y-70666666D01*
X96550057Y-70285713D02*
X96502438Y-70238094D01*
X96502438Y-70238094D02*
X96454819Y-70142856D01*
X96454819Y-70142856D02*
X96454819Y-69904761D01*
X96454819Y-69904761D02*
X96502438Y-69809523D01*
X96502438Y-69809523D02*
X96550057Y-69761904D01*
X96550057Y-69761904D02*
X96645295Y-69714285D01*
X96645295Y-69714285D02*
X96740533Y-69714285D01*
X96740533Y-69714285D02*
X96883390Y-69761904D01*
X96883390Y-69761904D02*
X97454819Y-70333332D01*
X97454819Y-70333332D02*
X97454819Y-69714285D01*
X118127142Y-80079580D02*
X118079523Y-80127200D01*
X118079523Y-80127200D02*
X117936666Y-80174819D01*
X117936666Y-80174819D02*
X117841428Y-80174819D01*
X117841428Y-80174819D02*
X117698571Y-80127200D01*
X117698571Y-80127200D02*
X117603333Y-80031961D01*
X117603333Y-80031961D02*
X117555714Y-79936723D01*
X117555714Y-79936723D02*
X117508095Y-79746247D01*
X117508095Y-79746247D02*
X117508095Y-79603390D01*
X117508095Y-79603390D02*
X117555714Y-79412914D01*
X117555714Y-79412914D02*
X117603333Y-79317676D01*
X117603333Y-79317676D02*
X117698571Y-79222438D01*
X117698571Y-79222438D02*
X117841428Y-79174819D01*
X117841428Y-79174819D02*
X117936666Y-79174819D01*
X117936666Y-79174819D02*
X118079523Y-79222438D01*
X118079523Y-79222438D02*
X118127142Y-79270057D01*
X119079523Y-80174819D02*
X118508095Y-80174819D01*
X118793809Y-80174819D02*
X118793809Y-79174819D01*
X118793809Y-79174819D02*
X118698571Y-79317676D01*
X118698571Y-79317676D02*
X118603333Y-79412914D01*
X118603333Y-79412914D02*
X118508095Y-79460533D01*
X119698571Y-79174819D02*
X119793809Y-79174819D01*
X119793809Y-79174819D02*
X119889047Y-79222438D01*
X119889047Y-79222438D02*
X119936666Y-79270057D01*
X119936666Y-79270057D02*
X119984285Y-79365295D01*
X119984285Y-79365295D02*
X120031904Y-79555771D01*
X120031904Y-79555771D02*
X120031904Y-79793866D01*
X120031904Y-79793866D02*
X119984285Y-79984342D01*
X119984285Y-79984342D02*
X119936666Y-80079580D01*
X119936666Y-80079580D02*
X119889047Y-80127200D01*
X119889047Y-80127200D02*
X119793809Y-80174819D01*
X119793809Y-80174819D02*
X119698571Y-80174819D01*
X119698571Y-80174819D02*
X119603333Y-80127200D01*
X119603333Y-80127200D02*
X119555714Y-80079580D01*
X119555714Y-80079580D02*
X119508095Y-79984342D01*
X119508095Y-79984342D02*
X119460476Y-79793866D01*
X119460476Y-79793866D02*
X119460476Y-79555771D01*
X119460476Y-79555771D02*
X119508095Y-79365295D01*
X119508095Y-79365295D02*
X119555714Y-79270057D01*
X119555714Y-79270057D02*
X119603333Y-79222438D01*
X119603333Y-79222438D02*
X119698571Y-79174819D01*
X118037142Y-78304819D02*
X117703809Y-77828628D01*
X117465714Y-78304819D02*
X117465714Y-77304819D01*
X117465714Y-77304819D02*
X117846666Y-77304819D01*
X117846666Y-77304819D02*
X117941904Y-77352438D01*
X117941904Y-77352438D02*
X117989523Y-77400057D01*
X117989523Y-77400057D02*
X118037142Y-77495295D01*
X118037142Y-77495295D02*
X118037142Y-77638152D01*
X118037142Y-77638152D02*
X117989523Y-77733390D01*
X117989523Y-77733390D02*
X117941904Y-77781009D01*
X117941904Y-77781009D02*
X117846666Y-77828628D01*
X117846666Y-77828628D02*
X117465714Y-77828628D01*
X118989523Y-78304819D02*
X118418095Y-78304819D01*
X118703809Y-78304819D02*
X118703809Y-77304819D01*
X118703809Y-77304819D02*
X118608571Y-77447676D01*
X118608571Y-77447676D02*
X118513333Y-77542914D01*
X118513333Y-77542914D02*
X118418095Y-77590533D01*
X119322857Y-77304819D02*
X119941904Y-77304819D01*
X119941904Y-77304819D02*
X119608571Y-77685771D01*
X119608571Y-77685771D02*
X119751428Y-77685771D01*
X119751428Y-77685771D02*
X119846666Y-77733390D01*
X119846666Y-77733390D02*
X119894285Y-77781009D01*
X119894285Y-77781009D02*
X119941904Y-77876247D01*
X119941904Y-77876247D02*
X119941904Y-78114342D01*
X119941904Y-78114342D02*
X119894285Y-78209580D01*
X119894285Y-78209580D02*
X119846666Y-78257200D01*
X119846666Y-78257200D02*
X119751428Y-78304819D01*
X119751428Y-78304819D02*
X119465714Y-78304819D01*
X119465714Y-78304819D02*
X119370476Y-78257200D01*
X119370476Y-78257200D02*
X119322857Y-78209580D01*
X103563333Y-52429580D02*
X103515714Y-52477200D01*
X103515714Y-52477200D02*
X103372857Y-52524819D01*
X103372857Y-52524819D02*
X103277619Y-52524819D01*
X103277619Y-52524819D02*
X103134762Y-52477200D01*
X103134762Y-52477200D02*
X103039524Y-52381961D01*
X103039524Y-52381961D02*
X102991905Y-52286723D01*
X102991905Y-52286723D02*
X102944286Y-52096247D01*
X102944286Y-52096247D02*
X102944286Y-51953390D01*
X102944286Y-51953390D02*
X102991905Y-51762914D01*
X102991905Y-51762914D02*
X103039524Y-51667676D01*
X103039524Y-51667676D02*
X103134762Y-51572438D01*
X103134762Y-51572438D02*
X103277619Y-51524819D01*
X103277619Y-51524819D02*
X103372857Y-51524819D01*
X103372857Y-51524819D02*
X103515714Y-51572438D01*
X103515714Y-51572438D02*
X103563333Y-51620057D01*
X104515714Y-52524819D02*
X103944286Y-52524819D01*
X104230000Y-52524819D02*
X104230000Y-51524819D01*
X104230000Y-51524819D02*
X104134762Y-51667676D01*
X104134762Y-51667676D02*
X104039524Y-51762914D01*
X104039524Y-51762914D02*
X103944286Y-51810533D01*
X112134819Y-60562857D02*
X111658628Y-60896190D01*
X112134819Y-61134285D02*
X111134819Y-61134285D01*
X111134819Y-61134285D02*
X111134819Y-60753333D01*
X111134819Y-60753333D02*
X111182438Y-60658095D01*
X111182438Y-60658095D02*
X111230057Y-60610476D01*
X111230057Y-60610476D02*
X111325295Y-60562857D01*
X111325295Y-60562857D02*
X111468152Y-60562857D01*
X111468152Y-60562857D02*
X111563390Y-60610476D01*
X111563390Y-60610476D02*
X111611009Y-60658095D01*
X111611009Y-60658095D02*
X111658628Y-60753333D01*
X111658628Y-60753333D02*
X111658628Y-61134285D01*
X112134819Y-59610476D02*
X112134819Y-60181904D01*
X112134819Y-59896190D02*
X111134819Y-59896190D01*
X111134819Y-59896190D02*
X111277676Y-59991428D01*
X111277676Y-59991428D02*
X111372914Y-60086666D01*
X111372914Y-60086666D02*
X111420533Y-60181904D01*
X112134819Y-59134285D02*
X112134819Y-58943809D01*
X112134819Y-58943809D02*
X112087200Y-58848571D01*
X112087200Y-58848571D02*
X112039580Y-58800952D01*
X112039580Y-58800952D02*
X111896723Y-58705714D01*
X111896723Y-58705714D02*
X111706247Y-58658095D01*
X111706247Y-58658095D02*
X111325295Y-58658095D01*
X111325295Y-58658095D02*
X111230057Y-58705714D01*
X111230057Y-58705714D02*
X111182438Y-58753333D01*
X111182438Y-58753333D02*
X111134819Y-58848571D01*
X111134819Y-58848571D02*
X111134819Y-59039047D01*
X111134819Y-59039047D02*
X111182438Y-59134285D01*
X111182438Y-59134285D02*
X111230057Y-59181904D01*
X111230057Y-59181904D02*
X111325295Y-59229523D01*
X111325295Y-59229523D02*
X111563390Y-59229523D01*
X111563390Y-59229523D02*
X111658628Y-59181904D01*
X111658628Y-59181904D02*
X111706247Y-59134285D01*
X111706247Y-59134285D02*
X111753866Y-59039047D01*
X111753866Y-59039047D02*
X111753866Y-58848571D01*
X111753866Y-58848571D02*
X111706247Y-58753333D01*
X111706247Y-58753333D02*
X111658628Y-58705714D01*
X111658628Y-58705714D02*
X111563390Y-58658095D01*
X121614761Y-72490057D02*
X121519523Y-72442438D01*
X121519523Y-72442438D02*
X121424285Y-72347200D01*
X121424285Y-72347200D02*
X121281428Y-72204342D01*
X121281428Y-72204342D02*
X121186190Y-72156723D01*
X121186190Y-72156723D02*
X121090952Y-72156723D01*
X121138571Y-72394819D02*
X121043333Y-72347200D01*
X121043333Y-72347200D02*
X120948095Y-72251961D01*
X120948095Y-72251961D02*
X120900476Y-72061485D01*
X120900476Y-72061485D02*
X120900476Y-71728152D01*
X120900476Y-71728152D02*
X120948095Y-71537676D01*
X120948095Y-71537676D02*
X121043333Y-71442438D01*
X121043333Y-71442438D02*
X121138571Y-71394819D01*
X121138571Y-71394819D02*
X121329047Y-71394819D01*
X121329047Y-71394819D02*
X121424285Y-71442438D01*
X121424285Y-71442438D02*
X121519523Y-71537676D01*
X121519523Y-71537676D02*
X121567142Y-71728152D01*
X121567142Y-71728152D02*
X121567142Y-72061485D01*
X121567142Y-72061485D02*
X121519523Y-72251961D01*
X121519523Y-72251961D02*
X121424285Y-72347200D01*
X121424285Y-72347200D02*
X121329047Y-72394819D01*
X121329047Y-72394819D02*
X121138571Y-72394819D01*
X121948095Y-71490057D02*
X121995714Y-71442438D01*
X121995714Y-71442438D02*
X122090952Y-71394819D01*
X122090952Y-71394819D02*
X122329047Y-71394819D01*
X122329047Y-71394819D02*
X122424285Y-71442438D01*
X122424285Y-71442438D02*
X122471904Y-71490057D01*
X122471904Y-71490057D02*
X122519523Y-71585295D01*
X122519523Y-71585295D02*
X122519523Y-71680533D01*
X122519523Y-71680533D02*
X122471904Y-71823390D01*
X122471904Y-71823390D02*
X121900476Y-72394819D01*
X121900476Y-72394819D02*
X122519523Y-72394819D01*
X122498095Y-74944819D02*
X122498095Y-75754342D01*
X122498095Y-75754342D02*
X122545714Y-75849580D01*
X122545714Y-75849580D02*
X122593333Y-75897200D01*
X122593333Y-75897200D02*
X122688571Y-75944819D01*
X122688571Y-75944819D02*
X122879047Y-75944819D01*
X122879047Y-75944819D02*
X122974285Y-75897200D01*
X122974285Y-75897200D02*
X123021904Y-75849580D01*
X123021904Y-75849580D02*
X123069523Y-75754342D01*
X123069523Y-75754342D02*
X123069523Y-74944819D01*
X124021904Y-74944819D02*
X123545714Y-74944819D01*
X123545714Y-74944819D02*
X123498095Y-75421009D01*
X123498095Y-75421009D02*
X123545714Y-75373390D01*
X123545714Y-75373390D02*
X123640952Y-75325771D01*
X123640952Y-75325771D02*
X123879047Y-75325771D01*
X123879047Y-75325771D02*
X123974285Y-75373390D01*
X123974285Y-75373390D02*
X124021904Y-75421009D01*
X124021904Y-75421009D02*
X124069523Y-75516247D01*
X124069523Y-75516247D02*
X124069523Y-75754342D01*
X124069523Y-75754342D02*
X124021904Y-75849580D01*
X124021904Y-75849580D02*
X123974285Y-75897200D01*
X123974285Y-75897200D02*
X123879047Y-75944819D01*
X123879047Y-75944819D02*
X123640952Y-75944819D01*
X123640952Y-75944819D02*
X123545714Y-75897200D01*
X123545714Y-75897200D02*
X123498095Y-75849580D01*
X108491905Y-52184819D02*
X108491905Y-51184819D01*
X108491905Y-51184819D02*
X108730000Y-51184819D01*
X108730000Y-51184819D02*
X108872857Y-51232438D01*
X108872857Y-51232438D02*
X108968095Y-51327676D01*
X108968095Y-51327676D02*
X109015714Y-51422914D01*
X109015714Y-51422914D02*
X109063333Y-51613390D01*
X109063333Y-51613390D02*
X109063333Y-51756247D01*
X109063333Y-51756247D02*
X109015714Y-51946723D01*
X109015714Y-51946723D02*
X108968095Y-52041961D01*
X108968095Y-52041961D02*
X108872857Y-52137200D01*
X108872857Y-52137200D02*
X108730000Y-52184819D01*
X108730000Y-52184819D02*
X108491905Y-52184819D01*
X109396667Y-51184819D02*
X110063333Y-51184819D01*
X110063333Y-51184819D02*
X109634762Y-52184819D01*
X126362857Y-72371009D02*
X126505714Y-72418628D01*
X126505714Y-72418628D02*
X126553333Y-72466247D01*
X126553333Y-72466247D02*
X126600952Y-72561485D01*
X126600952Y-72561485D02*
X126600952Y-72704342D01*
X126600952Y-72704342D02*
X126553333Y-72799580D01*
X126553333Y-72799580D02*
X126505714Y-72847200D01*
X126505714Y-72847200D02*
X126410476Y-72894819D01*
X126410476Y-72894819D02*
X126029524Y-72894819D01*
X126029524Y-72894819D02*
X126029524Y-71894819D01*
X126029524Y-71894819D02*
X126362857Y-71894819D01*
X126362857Y-71894819D02*
X126458095Y-71942438D01*
X126458095Y-71942438D02*
X126505714Y-71990057D01*
X126505714Y-71990057D02*
X126553333Y-72085295D01*
X126553333Y-72085295D02*
X126553333Y-72180533D01*
X126553333Y-72180533D02*
X126505714Y-72275771D01*
X126505714Y-72275771D02*
X126458095Y-72323390D01*
X126458095Y-72323390D02*
X126362857Y-72371009D01*
X126362857Y-72371009D02*
X126029524Y-72371009D01*
X127220000Y-71894819D02*
X127410476Y-71894819D01*
X127410476Y-71894819D02*
X127505714Y-71942438D01*
X127505714Y-71942438D02*
X127600952Y-72037676D01*
X127600952Y-72037676D02*
X127648571Y-72228152D01*
X127648571Y-72228152D02*
X127648571Y-72561485D01*
X127648571Y-72561485D02*
X127600952Y-72751961D01*
X127600952Y-72751961D02*
X127505714Y-72847200D01*
X127505714Y-72847200D02*
X127410476Y-72894819D01*
X127410476Y-72894819D02*
X127220000Y-72894819D01*
X127220000Y-72894819D02*
X127124762Y-72847200D01*
X127124762Y-72847200D02*
X127029524Y-72751961D01*
X127029524Y-72751961D02*
X126981905Y-72561485D01*
X126981905Y-72561485D02*
X126981905Y-72228152D01*
X126981905Y-72228152D02*
X127029524Y-72037676D01*
X127029524Y-72037676D02*
X127124762Y-71942438D01*
X127124762Y-71942438D02*
X127220000Y-71894819D01*
X128267619Y-71894819D02*
X128458095Y-71894819D01*
X128458095Y-71894819D02*
X128553333Y-71942438D01*
X128553333Y-71942438D02*
X128648571Y-72037676D01*
X128648571Y-72037676D02*
X128696190Y-72228152D01*
X128696190Y-72228152D02*
X128696190Y-72561485D01*
X128696190Y-72561485D02*
X128648571Y-72751961D01*
X128648571Y-72751961D02*
X128553333Y-72847200D01*
X128553333Y-72847200D02*
X128458095Y-72894819D01*
X128458095Y-72894819D02*
X128267619Y-72894819D01*
X128267619Y-72894819D02*
X128172381Y-72847200D01*
X128172381Y-72847200D02*
X128077143Y-72751961D01*
X128077143Y-72751961D02*
X128029524Y-72561485D01*
X128029524Y-72561485D02*
X128029524Y-72228152D01*
X128029524Y-72228152D02*
X128077143Y-72037676D01*
X128077143Y-72037676D02*
X128172381Y-71942438D01*
X128172381Y-71942438D02*
X128267619Y-71894819D01*
X128981905Y-71894819D02*
X129553333Y-71894819D01*
X129267619Y-72894819D02*
X129267619Y-71894819D01*
X85269048Y-72933866D02*
X86030953Y-72933866D01*
X85650000Y-73314819D02*
X85650000Y-72552914D01*
X126614819Y-49422857D02*
X126138628Y-49756190D01*
X126614819Y-49994285D02*
X125614819Y-49994285D01*
X125614819Y-49994285D02*
X125614819Y-49613333D01*
X125614819Y-49613333D02*
X125662438Y-49518095D01*
X125662438Y-49518095D02*
X125710057Y-49470476D01*
X125710057Y-49470476D02*
X125805295Y-49422857D01*
X125805295Y-49422857D02*
X125948152Y-49422857D01*
X125948152Y-49422857D02*
X126043390Y-49470476D01*
X126043390Y-49470476D02*
X126091009Y-49518095D01*
X126091009Y-49518095D02*
X126138628Y-49613333D01*
X126138628Y-49613333D02*
X126138628Y-49994285D01*
X126614819Y-48470476D02*
X126614819Y-49041904D01*
X126614819Y-48756190D02*
X125614819Y-48756190D01*
X125614819Y-48756190D02*
X125757676Y-48851428D01*
X125757676Y-48851428D02*
X125852914Y-48946666D01*
X125852914Y-48946666D02*
X125900533Y-49041904D01*
X125614819Y-48137142D02*
X125614819Y-47470476D01*
X125614819Y-47470476D02*
X126614819Y-47899047D01*
X106032080Y-71126666D02*
X106079700Y-71174285D01*
X106079700Y-71174285D02*
X106127319Y-71317142D01*
X106127319Y-71317142D02*
X106127319Y-71412380D01*
X106127319Y-71412380D02*
X106079700Y-71555237D01*
X106079700Y-71555237D02*
X105984461Y-71650475D01*
X105984461Y-71650475D02*
X105889223Y-71698094D01*
X105889223Y-71698094D02*
X105698747Y-71745713D01*
X105698747Y-71745713D02*
X105555890Y-71745713D01*
X105555890Y-71745713D02*
X105365414Y-71698094D01*
X105365414Y-71698094D02*
X105270176Y-71650475D01*
X105270176Y-71650475D02*
X105174938Y-71555237D01*
X105174938Y-71555237D02*
X105127319Y-71412380D01*
X105127319Y-71412380D02*
X105127319Y-71317142D01*
X105127319Y-71317142D02*
X105174938Y-71174285D01*
X105174938Y-71174285D02*
X105222557Y-71126666D01*
X105127319Y-70221904D02*
X105127319Y-70698094D01*
X105127319Y-70698094D02*
X105603509Y-70745713D01*
X105603509Y-70745713D02*
X105555890Y-70698094D01*
X105555890Y-70698094D02*
X105508271Y-70602856D01*
X105508271Y-70602856D02*
X105508271Y-70364761D01*
X105508271Y-70364761D02*
X105555890Y-70269523D01*
X105555890Y-70269523D02*
X105603509Y-70221904D01*
X105603509Y-70221904D02*
X105698747Y-70174285D01*
X105698747Y-70174285D02*
X105936842Y-70174285D01*
X105936842Y-70174285D02*
X106032080Y-70221904D01*
X106032080Y-70221904D02*
X106079700Y-70269523D01*
X106079700Y-70269523D02*
X106127319Y-70364761D01*
X106127319Y-70364761D02*
X106127319Y-70602856D01*
X106127319Y-70602856D02*
X106079700Y-70698094D01*
X106079700Y-70698094D02*
X106032080Y-70745713D01*
X107761905Y-60204819D02*
X107761905Y-59204819D01*
X107761905Y-59204819D02*
X108000000Y-59204819D01*
X108000000Y-59204819D02*
X108142857Y-59252438D01*
X108142857Y-59252438D02*
X108238095Y-59347676D01*
X108238095Y-59347676D02*
X108285714Y-59442914D01*
X108285714Y-59442914D02*
X108333333Y-59633390D01*
X108333333Y-59633390D02*
X108333333Y-59776247D01*
X108333333Y-59776247D02*
X108285714Y-59966723D01*
X108285714Y-59966723D02*
X108238095Y-60061961D01*
X108238095Y-60061961D02*
X108142857Y-60157200D01*
X108142857Y-60157200D02*
X108000000Y-60204819D01*
X108000000Y-60204819D02*
X107761905Y-60204819D01*
X108714286Y-59300057D02*
X108761905Y-59252438D01*
X108761905Y-59252438D02*
X108857143Y-59204819D01*
X108857143Y-59204819D02*
X109095238Y-59204819D01*
X109095238Y-59204819D02*
X109190476Y-59252438D01*
X109190476Y-59252438D02*
X109238095Y-59300057D01*
X109238095Y-59300057D02*
X109285714Y-59395295D01*
X109285714Y-59395295D02*
X109285714Y-59490533D01*
X109285714Y-59490533D02*
X109238095Y-59633390D01*
X109238095Y-59633390D02*
X108666667Y-60204819D01*
X108666667Y-60204819D02*
X109285714Y-60204819D01*
X92738095Y-71704819D02*
X92738095Y-72514342D01*
X92738095Y-72514342D02*
X92785714Y-72609580D01*
X92785714Y-72609580D02*
X92833333Y-72657200D01*
X92833333Y-72657200D02*
X92928571Y-72704819D01*
X92928571Y-72704819D02*
X93119047Y-72704819D01*
X93119047Y-72704819D02*
X93214285Y-72657200D01*
X93214285Y-72657200D02*
X93261904Y-72609580D01*
X93261904Y-72609580D02*
X93309523Y-72514342D01*
X93309523Y-72514342D02*
X93309523Y-71704819D01*
X93690476Y-71704819D02*
X94357142Y-71704819D01*
X94357142Y-71704819D02*
X93928571Y-72704819D01*
X88363333Y-49924819D02*
X88030000Y-49448628D01*
X87791905Y-49924819D02*
X87791905Y-48924819D01*
X87791905Y-48924819D02*
X88172857Y-48924819D01*
X88172857Y-48924819D02*
X88268095Y-48972438D01*
X88268095Y-48972438D02*
X88315714Y-49020057D01*
X88315714Y-49020057D02*
X88363333Y-49115295D01*
X88363333Y-49115295D02*
X88363333Y-49258152D01*
X88363333Y-49258152D02*
X88315714Y-49353390D01*
X88315714Y-49353390D02*
X88268095Y-49401009D01*
X88268095Y-49401009D02*
X88172857Y-49448628D01*
X88172857Y-49448628D02*
X87791905Y-49448628D01*
X89220476Y-48924819D02*
X89030000Y-48924819D01*
X89030000Y-48924819D02*
X88934762Y-48972438D01*
X88934762Y-48972438D02*
X88887143Y-49020057D01*
X88887143Y-49020057D02*
X88791905Y-49162914D01*
X88791905Y-49162914D02*
X88744286Y-49353390D01*
X88744286Y-49353390D02*
X88744286Y-49734342D01*
X88744286Y-49734342D02*
X88791905Y-49829580D01*
X88791905Y-49829580D02*
X88839524Y-49877200D01*
X88839524Y-49877200D02*
X88934762Y-49924819D01*
X88934762Y-49924819D02*
X89125238Y-49924819D01*
X89125238Y-49924819D02*
X89220476Y-49877200D01*
X89220476Y-49877200D02*
X89268095Y-49829580D01*
X89268095Y-49829580D02*
X89315714Y-49734342D01*
X89315714Y-49734342D02*
X89315714Y-49496247D01*
X89315714Y-49496247D02*
X89268095Y-49401009D01*
X89268095Y-49401009D02*
X89220476Y-49353390D01*
X89220476Y-49353390D02*
X89125238Y-49305771D01*
X89125238Y-49305771D02*
X88934762Y-49305771D01*
X88934762Y-49305771D02*
X88839524Y-49353390D01*
X88839524Y-49353390D02*
X88791905Y-49401009D01*
X88791905Y-49401009D02*
X88744286Y-49496247D01*
X99704819Y-51416666D02*
X99228628Y-51749999D01*
X99704819Y-51988094D02*
X98704819Y-51988094D01*
X98704819Y-51988094D02*
X98704819Y-51607142D01*
X98704819Y-51607142D02*
X98752438Y-51511904D01*
X98752438Y-51511904D02*
X98800057Y-51464285D01*
X98800057Y-51464285D02*
X98895295Y-51416666D01*
X98895295Y-51416666D02*
X99038152Y-51416666D01*
X99038152Y-51416666D02*
X99133390Y-51464285D01*
X99133390Y-51464285D02*
X99181009Y-51511904D01*
X99181009Y-51511904D02*
X99228628Y-51607142D01*
X99228628Y-51607142D02*
X99228628Y-51988094D01*
X98704819Y-51083332D02*
X98704819Y-50464285D01*
X98704819Y-50464285D02*
X99085771Y-50797618D01*
X99085771Y-50797618D02*
X99085771Y-50654761D01*
X99085771Y-50654761D02*
X99133390Y-50559523D01*
X99133390Y-50559523D02*
X99181009Y-50511904D01*
X99181009Y-50511904D02*
X99276247Y-50464285D01*
X99276247Y-50464285D02*
X99514342Y-50464285D01*
X99514342Y-50464285D02*
X99609580Y-50511904D01*
X99609580Y-50511904D02*
X99657200Y-50559523D01*
X99657200Y-50559523D02*
X99704819Y-50654761D01*
X99704819Y-50654761D02*
X99704819Y-50940475D01*
X99704819Y-50940475D02*
X99657200Y-51035713D01*
X99657200Y-51035713D02*
X99609580Y-51083332D01*
X97666666Y-65454819D02*
X97666666Y-66169104D01*
X97666666Y-66169104D02*
X97619047Y-66311961D01*
X97619047Y-66311961D02*
X97523809Y-66407200D01*
X97523809Y-66407200D02*
X97380952Y-66454819D01*
X97380952Y-66454819D02*
X97285714Y-66454819D01*
X98142857Y-66454819D02*
X98142857Y-65454819D01*
X98142857Y-65454819D02*
X98523809Y-65454819D01*
X98523809Y-65454819D02*
X98619047Y-65502438D01*
X98619047Y-65502438D02*
X98666666Y-65550057D01*
X98666666Y-65550057D02*
X98714285Y-65645295D01*
X98714285Y-65645295D02*
X98714285Y-65788152D01*
X98714285Y-65788152D02*
X98666666Y-65883390D01*
X98666666Y-65883390D02*
X98619047Y-65931009D01*
X98619047Y-65931009D02*
X98523809Y-65978628D01*
X98523809Y-65978628D02*
X98142857Y-65978628D01*
X99047619Y-65454819D02*
X99666666Y-65454819D01*
X99666666Y-65454819D02*
X99333333Y-65835771D01*
X99333333Y-65835771D02*
X99476190Y-65835771D01*
X99476190Y-65835771D02*
X99571428Y-65883390D01*
X99571428Y-65883390D02*
X99619047Y-65931009D01*
X99619047Y-65931009D02*
X99666666Y-66026247D01*
X99666666Y-66026247D02*
X99666666Y-66264342D01*
X99666666Y-66264342D02*
X99619047Y-66359580D01*
X99619047Y-66359580D02*
X99571428Y-66407200D01*
X99571428Y-66407200D02*
X99476190Y-66454819D01*
X99476190Y-66454819D02*
X99190476Y-66454819D01*
X99190476Y-66454819D02*
X99095238Y-66407200D01*
X99095238Y-66407200D02*
X99047619Y-66359580D01*
X111204819Y-63166666D02*
X110728628Y-63499999D01*
X111204819Y-63738094D02*
X110204819Y-63738094D01*
X110204819Y-63738094D02*
X110204819Y-63357142D01*
X110204819Y-63357142D02*
X110252438Y-63261904D01*
X110252438Y-63261904D02*
X110300057Y-63214285D01*
X110300057Y-63214285D02*
X110395295Y-63166666D01*
X110395295Y-63166666D02*
X110538152Y-63166666D01*
X110538152Y-63166666D02*
X110633390Y-63214285D01*
X110633390Y-63214285D02*
X110681009Y-63261904D01*
X110681009Y-63261904D02*
X110728628Y-63357142D01*
X110728628Y-63357142D02*
X110728628Y-63738094D01*
X110538152Y-62309523D02*
X111204819Y-62309523D01*
X110157200Y-62547618D02*
X110871485Y-62785713D01*
X110871485Y-62785713D02*
X110871485Y-62166666D01*
X94106666Y-44544819D02*
X94106666Y-45259104D01*
X94106666Y-45259104D02*
X94059047Y-45401961D01*
X94059047Y-45401961D02*
X93963809Y-45497200D01*
X93963809Y-45497200D02*
X93820952Y-45544819D01*
X93820952Y-45544819D02*
X93725714Y-45544819D01*
X95011428Y-44878152D02*
X95011428Y-45544819D01*
X94773333Y-44497200D02*
X94535238Y-45211485D01*
X94535238Y-45211485D02*
X95154285Y-45211485D01*
X117583333Y-85859580D02*
X117535714Y-85907200D01*
X117535714Y-85907200D02*
X117392857Y-85954819D01*
X117392857Y-85954819D02*
X117297619Y-85954819D01*
X117297619Y-85954819D02*
X117154762Y-85907200D01*
X117154762Y-85907200D02*
X117059524Y-85811961D01*
X117059524Y-85811961D02*
X117011905Y-85716723D01*
X117011905Y-85716723D02*
X116964286Y-85526247D01*
X116964286Y-85526247D02*
X116964286Y-85383390D01*
X116964286Y-85383390D02*
X117011905Y-85192914D01*
X117011905Y-85192914D02*
X117059524Y-85097676D01*
X117059524Y-85097676D02*
X117154762Y-85002438D01*
X117154762Y-85002438D02*
X117297619Y-84954819D01*
X117297619Y-84954819D02*
X117392857Y-84954819D01*
X117392857Y-84954819D02*
X117535714Y-85002438D01*
X117535714Y-85002438D02*
X117583333Y-85050057D01*
X118154762Y-85383390D02*
X118059524Y-85335771D01*
X118059524Y-85335771D02*
X118011905Y-85288152D01*
X118011905Y-85288152D02*
X117964286Y-85192914D01*
X117964286Y-85192914D02*
X117964286Y-85145295D01*
X117964286Y-85145295D02*
X118011905Y-85050057D01*
X118011905Y-85050057D02*
X118059524Y-85002438D01*
X118059524Y-85002438D02*
X118154762Y-84954819D01*
X118154762Y-84954819D02*
X118345238Y-84954819D01*
X118345238Y-84954819D02*
X118440476Y-85002438D01*
X118440476Y-85002438D02*
X118488095Y-85050057D01*
X118488095Y-85050057D02*
X118535714Y-85145295D01*
X118535714Y-85145295D02*
X118535714Y-85192914D01*
X118535714Y-85192914D02*
X118488095Y-85288152D01*
X118488095Y-85288152D02*
X118440476Y-85335771D01*
X118440476Y-85335771D02*
X118345238Y-85383390D01*
X118345238Y-85383390D02*
X118154762Y-85383390D01*
X118154762Y-85383390D02*
X118059524Y-85431009D01*
X118059524Y-85431009D02*
X118011905Y-85478628D01*
X118011905Y-85478628D02*
X117964286Y-85573866D01*
X117964286Y-85573866D02*
X117964286Y-85764342D01*
X117964286Y-85764342D02*
X118011905Y-85859580D01*
X118011905Y-85859580D02*
X118059524Y-85907200D01*
X118059524Y-85907200D02*
X118154762Y-85954819D01*
X118154762Y-85954819D02*
X118345238Y-85954819D01*
X118345238Y-85954819D02*
X118440476Y-85907200D01*
X118440476Y-85907200D02*
X118488095Y-85859580D01*
X118488095Y-85859580D02*
X118535714Y-85764342D01*
X118535714Y-85764342D02*
X118535714Y-85573866D01*
X118535714Y-85573866D02*
X118488095Y-85478628D01*
X118488095Y-85478628D02*
X118440476Y-85431009D01*
X118440476Y-85431009D02*
X118345238Y-85383390D01*
X102394819Y-85832857D02*
X101918628Y-86166190D01*
X102394819Y-86404285D02*
X101394819Y-86404285D01*
X101394819Y-86404285D02*
X101394819Y-86023333D01*
X101394819Y-86023333D02*
X101442438Y-85928095D01*
X101442438Y-85928095D02*
X101490057Y-85880476D01*
X101490057Y-85880476D02*
X101585295Y-85832857D01*
X101585295Y-85832857D02*
X101728152Y-85832857D01*
X101728152Y-85832857D02*
X101823390Y-85880476D01*
X101823390Y-85880476D02*
X101871009Y-85928095D01*
X101871009Y-85928095D02*
X101918628Y-86023333D01*
X101918628Y-86023333D02*
X101918628Y-86404285D01*
X102394819Y-84880476D02*
X102394819Y-85451904D01*
X102394819Y-85166190D02*
X101394819Y-85166190D01*
X101394819Y-85166190D02*
X101537676Y-85261428D01*
X101537676Y-85261428D02*
X101632914Y-85356666D01*
X101632914Y-85356666D02*
X101680533Y-85451904D01*
X101394819Y-84023333D02*
X101394819Y-84213809D01*
X101394819Y-84213809D02*
X101442438Y-84309047D01*
X101442438Y-84309047D02*
X101490057Y-84356666D01*
X101490057Y-84356666D02*
X101632914Y-84451904D01*
X101632914Y-84451904D02*
X101823390Y-84499523D01*
X101823390Y-84499523D02*
X102204342Y-84499523D01*
X102204342Y-84499523D02*
X102299580Y-84451904D01*
X102299580Y-84451904D02*
X102347200Y-84404285D01*
X102347200Y-84404285D02*
X102394819Y-84309047D01*
X102394819Y-84309047D02*
X102394819Y-84118571D01*
X102394819Y-84118571D02*
X102347200Y-84023333D01*
X102347200Y-84023333D02*
X102299580Y-83975714D01*
X102299580Y-83975714D02*
X102204342Y-83928095D01*
X102204342Y-83928095D02*
X101966247Y-83928095D01*
X101966247Y-83928095D02*
X101871009Y-83975714D01*
X101871009Y-83975714D02*
X101823390Y-84023333D01*
X101823390Y-84023333D02*
X101775771Y-84118571D01*
X101775771Y-84118571D02*
X101775771Y-84309047D01*
X101775771Y-84309047D02*
X101823390Y-84404285D01*
X101823390Y-84404285D02*
X101871009Y-84451904D01*
X101871009Y-84451904D02*
X101966247Y-84499523D01*
X107473333Y-54214819D02*
X107140000Y-53738628D01*
X106901905Y-54214819D02*
X106901905Y-53214819D01*
X106901905Y-53214819D02*
X107282857Y-53214819D01*
X107282857Y-53214819D02*
X107378095Y-53262438D01*
X107378095Y-53262438D02*
X107425714Y-53310057D01*
X107425714Y-53310057D02*
X107473333Y-53405295D01*
X107473333Y-53405295D02*
X107473333Y-53548152D01*
X107473333Y-53548152D02*
X107425714Y-53643390D01*
X107425714Y-53643390D02*
X107378095Y-53691009D01*
X107378095Y-53691009D02*
X107282857Y-53738628D01*
X107282857Y-53738628D02*
X106901905Y-53738628D01*
X108425714Y-54214819D02*
X107854286Y-54214819D01*
X108140000Y-54214819D02*
X108140000Y-53214819D01*
X108140000Y-53214819D02*
X108044762Y-53357676D01*
X108044762Y-53357676D02*
X107949524Y-53452914D01*
X107949524Y-53452914D02*
X107854286Y-53500533D01*
X97289580Y-78832857D02*
X97337200Y-78880476D01*
X97337200Y-78880476D02*
X97384819Y-79023333D01*
X97384819Y-79023333D02*
X97384819Y-79118571D01*
X97384819Y-79118571D02*
X97337200Y-79261428D01*
X97337200Y-79261428D02*
X97241961Y-79356666D01*
X97241961Y-79356666D02*
X97146723Y-79404285D01*
X97146723Y-79404285D02*
X96956247Y-79451904D01*
X96956247Y-79451904D02*
X96813390Y-79451904D01*
X96813390Y-79451904D02*
X96622914Y-79404285D01*
X96622914Y-79404285D02*
X96527676Y-79356666D01*
X96527676Y-79356666D02*
X96432438Y-79261428D01*
X96432438Y-79261428D02*
X96384819Y-79118571D01*
X96384819Y-79118571D02*
X96384819Y-79023333D01*
X96384819Y-79023333D02*
X96432438Y-78880476D01*
X96432438Y-78880476D02*
X96480057Y-78832857D01*
X97384819Y-77880476D02*
X97384819Y-78451904D01*
X97384819Y-78166190D02*
X96384819Y-78166190D01*
X96384819Y-78166190D02*
X96527676Y-78261428D01*
X96527676Y-78261428D02*
X96622914Y-78356666D01*
X96622914Y-78356666D02*
X96670533Y-78451904D01*
X96718152Y-77023333D02*
X97384819Y-77023333D01*
X96337200Y-77261428D02*
X97051485Y-77499523D01*
X97051485Y-77499523D02*
X97051485Y-76880476D01*
X108576666Y-44524819D02*
X108576666Y-45239104D01*
X108576666Y-45239104D02*
X108529047Y-45381961D01*
X108529047Y-45381961D02*
X108433809Y-45477200D01*
X108433809Y-45477200D02*
X108290952Y-45524819D01*
X108290952Y-45524819D02*
X108195714Y-45524819D01*
X109529047Y-44524819D02*
X109052857Y-44524819D01*
X109052857Y-44524819D02*
X109005238Y-45001009D01*
X109005238Y-45001009D02*
X109052857Y-44953390D01*
X109052857Y-44953390D02*
X109148095Y-44905771D01*
X109148095Y-44905771D02*
X109386190Y-44905771D01*
X109386190Y-44905771D02*
X109481428Y-44953390D01*
X109481428Y-44953390D02*
X109529047Y-45001009D01*
X109529047Y-45001009D02*
X109576666Y-45096247D01*
X109576666Y-45096247D02*
X109576666Y-45334342D01*
X109576666Y-45334342D02*
X109529047Y-45429580D01*
X109529047Y-45429580D02*
X109481428Y-45477200D01*
X109481428Y-45477200D02*
X109386190Y-45524819D01*
X109386190Y-45524819D02*
X109148095Y-45524819D01*
X109148095Y-45524819D02*
X109052857Y-45477200D01*
X109052857Y-45477200D02*
X109005238Y-45429580D01*
X93359580Y-48416666D02*
X93407200Y-48464285D01*
X93407200Y-48464285D02*
X93454819Y-48607142D01*
X93454819Y-48607142D02*
X93454819Y-48702380D01*
X93454819Y-48702380D02*
X93407200Y-48845237D01*
X93407200Y-48845237D02*
X93311961Y-48940475D01*
X93311961Y-48940475D02*
X93216723Y-48988094D01*
X93216723Y-48988094D02*
X93026247Y-49035713D01*
X93026247Y-49035713D02*
X92883390Y-49035713D01*
X92883390Y-49035713D02*
X92692914Y-48988094D01*
X92692914Y-48988094D02*
X92597676Y-48940475D01*
X92597676Y-48940475D02*
X92502438Y-48845237D01*
X92502438Y-48845237D02*
X92454819Y-48702380D01*
X92454819Y-48702380D02*
X92454819Y-48607142D01*
X92454819Y-48607142D02*
X92502438Y-48464285D01*
X92502438Y-48464285D02*
X92550057Y-48416666D01*
X92454819Y-47559523D02*
X92454819Y-47749999D01*
X92454819Y-47749999D02*
X92502438Y-47845237D01*
X92502438Y-47845237D02*
X92550057Y-47892856D01*
X92550057Y-47892856D02*
X92692914Y-47988094D01*
X92692914Y-47988094D02*
X92883390Y-48035713D01*
X92883390Y-48035713D02*
X93264342Y-48035713D01*
X93264342Y-48035713D02*
X93359580Y-47988094D01*
X93359580Y-47988094D02*
X93407200Y-47940475D01*
X93407200Y-47940475D02*
X93454819Y-47845237D01*
X93454819Y-47845237D02*
X93454819Y-47654761D01*
X93454819Y-47654761D02*
X93407200Y-47559523D01*
X93407200Y-47559523D02*
X93359580Y-47511904D01*
X93359580Y-47511904D02*
X93264342Y-47464285D01*
X93264342Y-47464285D02*
X93026247Y-47464285D01*
X93026247Y-47464285D02*
X92931009Y-47511904D01*
X92931009Y-47511904D02*
X92883390Y-47559523D01*
X92883390Y-47559523D02*
X92835771Y-47654761D01*
X92835771Y-47654761D02*
X92835771Y-47845237D01*
X92835771Y-47845237D02*
X92883390Y-47940475D01*
X92883390Y-47940475D02*
X92931009Y-47988094D01*
X92931009Y-47988094D02*
X93026247Y-48035713D01*
X96213095Y-47117819D02*
X96213095Y-47927342D01*
X96213095Y-47927342D02*
X96260714Y-48022580D01*
X96260714Y-48022580D02*
X96308333Y-48070200D01*
X96308333Y-48070200D02*
X96403571Y-48117819D01*
X96403571Y-48117819D02*
X96594047Y-48117819D01*
X96594047Y-48117819D02*
X96689285Y-48070200D01*
X96689285Y-48070200D02*
X96736904Y-48022580D01*
X96736904Y-48022580D02*
X96784523Y-47927342D01*
X96784523Y-47927342D02*
X96784523Y-47117819D01*
X97165476Y-47117819D02*
X97784523Y-47117819D01*
X97784523Y-47117819D02*
X97451190Y-47498771D01*
X97451190Y-47498771D02*
X97594047Y-47498771D01*
X97594047Y-47498771D02*
X97689285Y-47546390D01*
X97689285Y-47546390D02*
X97736904Y-47594009D01*
X97736904Y-47594009D02*
X97784523Y-47689247D01*
X97784523Y-47689247D02*
X97784523Y-47927342D01*
X97784523Y-47927342D02*
X97736904Y-48022580D01*
X97736904Y-48022580D02*
X97689285Y-48070200D01*
X97689285Y-48070200D02*
X97594047Y-48117819D01*
X97594047Y-48117819D02*
X97308333Y-48117819D01*
X97308333Y-48117819D02*
X97213095Y-48070200D01*
X97213095Y-48070200D02*
X97165476Y-48022580D01*
X92166666Y-88004819D02*
X92166666Y-88719104D01*
X92166666Y-88719104D02*
X92119047Y-88861961D01*
X92119047Y-88861961D02*
X92023809Y-88957200D01*
X92023809Y-88957200D02*
X91880952Y-89004819D01*
X91880952Y-89004819D02*
X91785714Y-89004819D01*
X92547619Y-88004819D02*
X93166666Y-88004819D01*
X93166666Y-88004819D02*
X92833333Y-88385771D01*
X92833333Y-88385771D02*
X92976190Y-88385771D01*
X92976190Y-88385771D02*
X93071428Y-88433390D01*
X93071428Y-88433390D02*
X93119047Y-88481009D01*
X93119047Y-88481009D02*
X93166666Y-88576247D01*
X93166666Y-88576247D02*
X93166666Y-88814342D01*
X93166666Y-88814342D02*
X93119047Y-88909580D01*
X93119047Y-88909580D02*
X93071428Y-88957200D01*
X93071428Y-88957200D02*
X92976190Y-89004819D01*
X92976190Y-89004819D02*
X92690476Y-89004819D01*
X92690476Y-89004819D02*
X92595238Y-88957200D01*
X92595238Y-88957200D02*
X92547619Y-88909580D01*
X120783333Y-88184819D02*
X120450000Y-87708628D01*
X120211905Y-88184819D02*
X120211905Y-87184819D01*
X120211905Y-87184819D02*
X120592857Y-87184819D01*
X120592857Y-87184819D02*
X120688095Y-87232438D01*
X120688095Y-87232438D02*
X120735714Y-87280057D01*
X120735714Y-87280057D02*
X120783333Y-87375295D01*
X120783333Y-87375295D02*
X120783333Y-87518152D01*
X120783333Y-87518152D02*
X120735714Y-87613390D01*
X120735714Y-87613390D02*
X120688095Y-87661009D01*
X120688095Y-87661009D02*
X120592857Y-87708628D01*
X120592857Y-87708628D02*
X120211905Y-87708628D01*
X121259524Y-88184819D02*
X121450000Y-88184819D01*
X121450000Y-88184819D02*
X121545238Y-88137200D01*
X121545238Y-88137200D02*
X121592857Y-88089580D01*
X121592857Y-88089580D02*
X121688095Y-87946723D01*
X121688095Y-87946723D02*
X121735714Y-87756247D01*
X121735714Y-87756247D02*
X121735714Y-87375295D01*
X121735714Y-87375295D02*
X121688095Y-87280057D01*
X121688095Y-87280057D02*
X121640476Y-87232438D01*
X121640476Y-87232438D02*
X121545238Y-87184819D01*
X121545238Y-87184819D02*
X121354762Y-87184819D01*
X121354762Y-87184819D02*
X121259524Y-87232438D01*
X121259524Y-87232438D02*
X121211905Y-87280057D01*
X121211905Y-87280057D02*
X121164286Y-87375295D01*
X121164286Y-87375295D02*
X121164286Y-87613390D01*
X121164286Y-87613390D02*
X121211905Y-87708628D01*
X121211905Y-87708628D02*
X121259524Y-87756247D01*
X121259524Y-87756247D02*
X121354762Y-87803866D01*
X121354762Y-87803866D02*
X121545238Y-87803866D01*
X121545238Y-87803866D02*
X121640476Y-87756247D01*
X121640476Y-87756247D02*
X121688095Y-87708628D01*
X121688095Y-87708628D02*
X121735714Y-87613390D01*
X125166666Y-40454819D02*
X125166666Y-41169104D01*
X125166666Y-41169104D02*
X125119047Y-41311961D01*
X125119047Y-41311961D02*
X125023809Y-41407200D01*
X125023809Y-41407200D02*
X124880952Y-41454819D01*
X124880952Y-41454819D02*
X124785714Y-41454819D01*
X125547619Y-40454819D02*
X126214285Y-40454819D01*
X126214285Y-40454819D02*
X125785714Y-41454819D01*
D12*
%TO.C,G\u002A\u002A\u002A*%
G36*
X127200747Y-85419773D02*
G01*
X127321837Y-85422314D01*
X127398408Y-85428384D01*
X127440595Y-85439486D01*
X127458537Y-85457121D01*
X127462369Y-85482790D01*
X127462372Y-85484055D01*
X127454592Y-85521585D01*
X127420993Y-85541087D01*
X127346183Y-85548189D01*
X127285211Y-85548851D01*
X127108051Y-85548851D01*
X127098923Y-85929136D01*
X127093521Y-86096013D01*
X127085763Y-86208309D01*
X127074098Y-86276232D01*
X127056971Y-86309992D01*
X127039619Y-86319031D01*
X126982018Y-86314989D01*
X126966723Y-86305923D01*
X126957661Y-86266207D01*
X126950316Y-86175667D01*
X126945501Y-86048271D01*
X126944005Y-85916028D01*
X126944005Y-85548851D01*
X126765816Y-85548851D01*
X126662841Y-85546039D01*
X126609197Y-85533879D01*
X126589527Y-85506787D01*
X126587627Y-85484055D01*
X126591092Y-85458019D01*
X126608244Y-85440079D01*
X126649220Y-85428735D01*
X126724157Y-85422485D01*
X126843192Y-85419827D01*
X127016462Y-85419260D01*
X127024999Y-85419259D01*
X127200747Y-85419773D01*
G37*
G36*
X129655569Y-85423702D02*
G01*
X129746428Y-85425987D01*
X129898352Y-85432187D01*
X129995891Y-85441355D01*
X130049443Y-85455355D01*
X130069411Y-85476051D01*
X130070408Y-85484055D01*
X130058387Y-85506918D01*
X130015652Y-85523478D01*
X129932195Y-85535624D01*
X129798005Y-85545243D01*
X129726919Y-85548851D01*
X129548276Y-85559380D01*
X129424414Y-85576048D01*
X129345332Y-85606100D01*
X129301025Y-85656783D01*
X129281489Y-85735342D01*
X129276720Y-85849023D01*
X129276658Y-85874961D01*
X129280891Y-85999804D01*
X129300017Y-86087494D01*
X129343671Y-86144531D01*
X129421490Y-86177419D01*
X129543109Y-86192659D01*
X129718166Y-86196755D01*
X129753637Y-86196810D01*
X129909411Y-86198620D01*
X130010221Y-86204931D01*
X130065820Y-86217065D01*
X130085963Y-86236344D01*
X130086607Y-86241941D01*
X130060367Y-86291365D01*
X130035360Y-86306737D01*
X129969554Y-86317945D01*
X129858494Y-86323648D01*
X129721449Y-86324275D01*
X129577689Y-86320257D01*
X129446484Y-86312025D01*
X129347102Y-86300008D01*
X129309056Y-86290514D01*
X129217210Y-86238924D01*
X129158114Y-86162343D01*
X129126096Y-86048437D01*
X129115482Y-85884871D01*
X129115388Y-85869462D01*
X129117534Y-85737934D01*
X129127894Y-85652005D01*
X129150941Y-85592587D01*
X129191149Y-85540591D01*
X129192901Y-85538693D01*
X129247717Y-85487198D01*
X129308168Y-85452644D01*
X129387478Y-85432338D01*
X129498870Y-85423589D01*
X129655569Y-85423702D01*
G37*
G36*
X131336295Y-85426512D02*
G01*
X131385050Y-85435002D01*
X131407911Y-85449657D01*
X131414598Y-85471632D01*
X131414923Y-85483189D01*
X131408546Y-85518768D01*
X131379825Y-85538566D01*
X131314378Y-85547090D01*
X131205364Y-85548851D01*
X130995806Y-85548851D01*
X130986678Y-85929136D01*
X130981276Y-86096013D01*
X130973518Y-86208309D01*
X130961853Y-86276232D01*
X130944726Y-86309992D01*
X130927374Y-86319031D01*
X130869773Y-86314989D01*
X130854478Y-86305923D01*
X130845416Y-86266207D01*
X130838071Y-86175667D01*
X130833257Y-86048271D01*
X130831760Y-85916028D01*
X130831760Y-85548851D01*
X130634996Y-85548851D01*
X130525884Y-85546439D01*
X130468051Y-85536475D01*
X130448072Y-85514862D01*
X130449115Y-85492155D01*
X130459552Y-85469889D01*
X130487446Y-85453860D01*
X130542534Y-85442758D01*
X130634557Y-85435274D01*
X130773253Y-85430099D01*
X130937460Y-85426493D01*
X131122221Y-85423412D01*
X131251926Y-85423034D01*
X131336295Y-85426512D01*
G37*
G36*
X132660375Y-85426044D02*
G01*
X132678443Y-85438171D01*
X132659104Y-85469787D01*
X132607220Y-85538933D01*
X132531992Y-85633582D01*
X132485896Y-85689861D01*
X132394443Y-85803014D01*
X132336990Y-85885316D01*
X132304948Y-85954749D01*
X132289729Y-86029298D01*
X132283409Y-86113862D01*
X132268479Y-86240917D01*
X132240766Y-86310590D01*
X132201742Y-86320088D01*
X132182350Y-86305478D01*
X132169690Y-86262769D01*
X132161621Y-86177803D01*
X132160076Y-86114785D01*
X132157316Y-86031957D01*
X132144289Y-85963230D01*
X132113872Y-85895271D01*
X132058942Y-85814748D01*
X131972376Y-85708328D01*
X131894243Y-85617185D01*
X131814351Y-85519487D01*
X131778664Y-85459095D01*
X131784806Y-85428270D01*
X131830405Y-85419275D01*
X131833505Y-85419259D01*
X131884893Y-85442585D01*
X131962345Y-85504714D01*
X132051421Y-85593870D01*
X132061957Y-85605548D01*
X132137728Y-85692288D01*
X132189303Y-85743956D01*
X132230035Y-85758074D01*
X132273278Y-85732162D01*
X132332384Y-85663742D01*
X132420707Y-85550336D01*
X132431204Y-85537002D01*
X132520854Y-85448952D01*
X132601294Y-85419259D01*
X132660375Y-85426044D01*
G37*
G36*
X133140114Y-85425105D02*
G01*
X133171564Y-85432965D01*
X133193096Y-85453492D01*
X133207342Y-85498001D01*
X133216934Y-85577803D01*
X133224503Y-85704210D01*
X133229209Y-85808035D01*
X133245408Y-86180611D01*
X133612052Y-86189792D01*
X133771243Y-86194747D01*
X133876074Y-86201370D01*
X133936981Y-86211560D01*
X133964398Y-86227217D01*
X133968761Y-86250240D01*
X133968045Y-86254588D01*
X133955079Y-86279933D01*
X133920146Y-86296845D01*
X133851826Y-86307333D01*
X133738701Y-86313409D01*
X133617600Y-86316278D01*
X133471536Y-86317126D01*
X133346828Y-86314595D01*
X133259532Y-86309194D01*
X133229209Y-86303951D01*
X133163714Y-86273782D01*
X133118598Y-86233807D01*
X133090128Y-86172440D01*
X133074576Y-86078090D01*
X133068210Y-85939171D01*
X133067219Y-85800760D01*
X133067628Y-85637724D01*
X133070220Y-85528944D01*
X133077040Y-85463878D01*
X133090134Y-85431986D01*
X133111546Y-85422728D01*
X133140114Y-85425105D01*
G37*
G36*
X128290031Y-85445321D02*
G01*
X128347704Y-85517119D01*
X128425075Y-85625071D01*
X128515121Y-85759595D01*
X128561760Y-85832333D01*
X128665748Y-85999868D01*
X128735485Y-86120203D01*
X128773893Y-86199212D01*
X128783891Y-86242769D01*
X128772520Y-86256247D01*
X128725319Y-86259961D01*
X128681691Y-86243375D01*
X128633661Y-86198211D01*
X128573255Y-86116189D01*
X128492497Y-85989032D01*
X128453626Y-85925192D01*
X128376612Y-85802631D01*
X128310178Y-85705665D01*
X128261914Y-85644815D01*
X128240357Y-85629578D01*
X128214371Y-85662087D01*
X128163135Y-85738340D01*
X128094477Y-85846361D01*
X128028796Y-85953332D01*
X127941422Y-86093552D01*
X127876774Y-86185387D01*
X127827269Y-86237723D01*
X127785325Y-86259445D01*
X127765721Y-86261606D01*
X127706933Y-86254194D01*
X127689158Y-86241081D01*
X127705587Y-86206774D01*
X127749679Y-86130643D01*
X127813635Y-86025098D01*
X127889661Y-85902548D01*
X127969960Y-85775403D01*
X128046735Y-85656072D01*
X128112190Y-85556965D01*
X128158529Y-85490491D01*
X128169851Y-85475956D01*
X128224582Y-85430665D01*
X128259078Y-85419259D01*
X128290031Y-85445321D01*
G37*
G36*
X130448822Y-80121525D02*
G01*
X130531909Y-80194305D01*
X130582045Y-80295673D01*
X130586383Y-80419996D01*
X130576412Y-80462345D01*
X130563663Y-80538180D01*
X130553076Y-80666729D01*
X130545279Y-80835931D01*
X130540902Y-81033721D01*
X130540178Y-81156963D01*
X130540619Y-81362778D01*
X130542518Y-81512396D01*
X130546741Y-81614416D01*
X130554154Y-81677432D01*
X130565622Y-81710044D01*
X130582011Y-81720846D01*
X130596874Y-81720035D01*
X130632858Y-81683784D01*
X130673168Y-81595461D01*
X130714527Y-81467343D01*
X130753657Y-81311706D01*
X130787282Y-81140826D01*
X130812125Y-80966982D01*
X130820169Y-80883545D01*
X130840865Y-80713188D01*
X130873334Y-80602721D01*
X130935282Y-80602721D01*
X130935501Y-80623829D01*
X130941186Y-80624361D01*
X130968229Y-80602221D01*
X130997882Y-80567665D01*
X131025901Y-80529290D01*
X131009124Y-80537335D01*
X130985650Y-80555433D01*
X130935282Y-80602721D01*
X130873334Y-80602721D01*
X130875072Y-80596807D01*
X130928330Y-80524074D01*
X130954218Y-80510968D01*
X131178803Y-80510968D01*
X131240167Y-80596890D01*
X131285657Y-80651478D01*
X131314553Y-80669735D01*
X131315929Y-80668885D01*
X131305241Y-80639884D01*
X131259852Y-80588055D01*
X131254566Y-80582964D01*
X131178803Y-80510968D01*
X130954218Y-80510968D01*
X131006181Y-80484662D01*
X131038165Y-80477217D01*
X131148604Y-80477949D01*
X131256549Y-80512436D01*
X131337806Y-80570800D01*
X131362400Y-80609614D01*
X131381912Y-80722533D01*
X131366534Y-80839005D01*
X131338332Y-80900635D01*
X131308873Y-80963438D01*
X131273338Y-81069339D01*
X131234910Y-81204584D01*
X131196772Y-81355417D01*
X131162109Y-81508085D01*
X131134105Y-81648834D01*
X131115944Y-81763908D01*
X131110808Y-81839554D01*
X131116002Y-81861103D01*
X131166386Y-81879519D01*
X131185248Y-81873468D01*
X131223701Y-81829861D01*
X131278534Y-81744362D01*
X131340470Y-81634576D01*
X131400231Y-81518112D01*
X131448539Y-81412574D01*
X131458159Y-81385713D01*
X131544515Y-81385713D01*
X131560714Y-81401912D01*
X131576913Y-81385713D01*
X131560714Y-81369514D01*
X131544515Y-81385713D01*
X131458159Y-81385713D01*
X131476116Y-81335570D01*
X131479291Y-81315468D01*
X131492086Y-81239923D01*
X131544515Y-81239923D01*
X131556369Y-81266590D01*
X131566113Y-81261521D01*
X131569991Y-81223072D01*
X131566113Y-81218324D01*
X131546853Y-81222771D01*
X131544515Y-81239923D01*
X131492086Y-81239923D01*
X131498647Y-81201185D01*
X131506733Y-81191326D01*
X131868494Y-81191326D01*
X131884693Y-81207525D01*
X131900892Y-81191326D01*
X131884693Y-81175127D01*
X131868494Y-81191326D01*
X131506733Y-81191326D01*
X131533305Y-81158928D01*
X131609311Y-81158928D01*
X131625510Y-81175127D01*
X131641709Y-81158928D01*
X131625510Y-81142729D01*
X131609311Y-81158928D01*
X131533305Y-81158928D01*
X131562939Y-81122796D01*
X131565667Y-81121130D01*
X131717304Y-81121130D01*
X131721751Y-81140391D01*
X131738903Y-81142729D01*
X131765570Y-81130875D01*
X131760501Y-81121130D01*
X131722052Y-81117253D01*
X131717304Y-81121130D01*
X131565667Y-81121130D01*
X131612957Y-81092246D01*
X131734935Y-81060850D01*
X131849179Y-81091956D01*
X131933803Y-81166938D01*
X131989386Y-81272038D01*
X131984640Y-81375398D01*
X131918518Y-81484800D01*
X131886216Y-81520313D01*
X131821600Y-81600774D01*
X131742254Y-81719781D01*
X131661125Y-81857292D01*
X131624863Y-81924930D01*
X131568405Y-82037015D01*
X131525910Y-82132211D01*
X131493341Y-82225241D01*
X131466659Y-82330829D01*
X131441826Y-82463698D01*
X131414803Y-82638574D01*
X131398822Y-82749059D01*
X131364497Y-82975044D01*
X131331471Y-83150622D01*
X131294752Y-83289876D01*
X131249352Y-83406890D01*
X131190281Y-83515745D01*
X131112549Y-83630527D01*
X131062721Y-83697730D01*
X130980473Y-83806685D01*
X131068106Y-83870521D01*
X131106478Y-83900980D01*
X131131610Y-83934374D01*
X131146303Y-83984092D01*
X131153356Y-84063523D01*
X131155570Y-84186057D01*
X131155739Y-84289580D01*
X131154981Y-84446232D01*
X131150863Y-84552071D01*
X131140622Y-84621075D01*
X131121494Y-84667224D01*
X131090716Y-84704498D01*
X131069755Y-84724489D01*
X130954024Y-84798726D01*
X130790839Y-84859306D01*
X130596591Y-84903646D01*
X130387669Y-84929163D01*
X130180463Y-84933273D01*
X129991363Y-84913394D01*
X129940816Y-84902417D01*
X129809997Y-84861174D01*
X129678507Y-84805852D01*
X129570994Y-84747579D01*
X129528928Y-84716446D01*
X129502534Y-84682967D01*
X129485420Y-84631252D01*
X129475731Y-84548455D01*
X129471614Y-84421731D01*
X129471045Y-84315357D01*
X129471970Y-84222523D01*
X129573345Y-84222523D01*
X129575166Y-84308435D01*
X129584438Y-84623120D01*
X129694523Y-84697210D01*
X129792880Y-84745607D01*
X129891405Y-84767913D01*
X129905109Y-84768097D01*
X129961367Y-84764765D01*
X129967122Y-84756354D01*
X129917859Y-84737586D01*
X129864386Y-84720533D01*
X129753012Y-84681219D01*
X129684582Y-84638186D01*
X129648711Y-84575354D01*
X129642998Y-84534191D01*
X130063137Y-84534191D01*
X130064934Y-84582836D01*
X130112024Y-84681961D01*
X130188482Y-84761424D01*
X130274279Y-84801921D01*
X130294086Y-84803698D01*
X130372382Y-84783976D01*
X130454806Y-84736557D01*
X130454814Y-84736551D01*
X130515955Y-84656233D01*
X130536826Y-84557227D01*
X130521724Y-84457280D01*
X130474948Y-84374137D01*
X130400795Y-84325545D01*
X130353890Y-84319782D01*
X130328680Y-84327573D01*
X130364394Y-84348507D01*
X130377274Y-84353794D01*
X130459008Y-84401210D01*
X130498120Y-84471706D01*
X130507284Y-84568066D01*
X130482376Y-84669406D01*
X130417569Y-84735127D01*
X130329412Y-84761416D01*
X130234456Y-84744463D01*
X130149253Y-84680457D01*
X130130242Y-84654882D01*
X130096599Y-84551884D01*
X130117009Y-84465461D01*
X130213572Y-84465461D01*
X130224298Y-84469653D01*
X130271535Y-84514156D01*
X130286179Y-84587387D01*
X130291364Y-84690305D01*
X130304281Y-84587021D01*
X130330730Y-84504689D01*
X130371992Y-84469287D01*
X130378618Y-84460564D01*
X130331400Y-84455422D01*
X130297193Y-84454837D01*
X130230603Y-84457852D01*
X130213572Y-84465461D01*
X130117009Y-84465461D01*
X130120509Y-84450642D01*
X130196771Y-84369049D01*
X130216736Y-84357252D01*
X130262844Y-84328770D01*
X130250606Y-84322251D01*
X130235831Y-84324166D01*
X130159360Y-84364418D01*
X130096035Y-84443146D01*
X130063137Y-84534191D01*
X129642998Y-84534191D01*
X129635012Y-84476643D01*
X129633035Y-84362359D01*
X129636056Y-84247327D01*
X129644039Y-84162714D01*
X129655361Y-84124449D01*
X129657334Y-84123692D01*
X129699884Y-84132767D01*
X129782343Y-84155618D01*
X129843622Y-84174021D01*
X129995085Y-84204770D01*
X130184925Y-84220472D01*
X130388498Y-84221136D01*
X130581159Y-84206769D01*
X130738262Y-84177381D01*
X130750765Y-84173709D01*
X130872267Y-84138292D01*
X130944515Y-84129766D01*
X130980311Y-84156385D01*
X130992457Y-84226400D01*
X130993749Y-84330338D01*
X130983231Y-84483821D01*
X130945468Y-84589980D01*
X130871147Y-84663754D01*
X130750954Y-84720086D01*
X130750765Y-84720154D01*
X130674717Y-84748976D01*
X130655541Y-84763082D01*
X130688638Y-84768248D01*
X130711876Y-84769017D01*
X130831532Y-84749112D01*
X130940948Y-84692592D01*
X131016197Y-84613066D01*
X131027539Y-84589450D01*
X131041174Y-84525307D01*
X131050989Y-84425632D01*
X131056732Y-84307578D01*
X131058146Y-84188299D01*
X131054977Y-84084945D01*
X131046972Y-84014670D01*
X131036376Y-83993749D01*
X130996810Y-84006988D01*
X130920167Y-84040805D01*
X130866287Y-84066644D01*
X130796885Y-84097351D01*
X130726260Y-84118083D01*
X130639678Y-84130722D01*
X130522402Y-84137149D01*
X130359699Y-84139247D01*
X130297193Y-84139312D01*
X130118328Y-84138058D01*
X129989908Y-84133275D01*
X129897605Y-84123089D01*
X129827091Y-84105626D01*
X129764037Y-84079015D01*
X129739619Y-84066416D01*
X129655810Y-84023681D01*
X129597654Y-83997558D01*
X129584556Y-83993749D01*
X129577505Y-84023801D01*
X129573630Y-84104692D01*
X129573345Y-84222523D01*
X129471970Y-84222523D01*
X129472867Y-84132478D01*
X129479478Y-84005151D01*
X129492594Y-83924205D01*
X129513931Y-83880471D01*
X129545207Y-83864777D01*
X129555506Y-83864157D01*
X129592412Y-83851964D01*
X129592879Y-83812077D01*
X129554494Y-83739533D01*
X129474845Y-83629371D01*
X129389416Y-83522540D01*
X129276707Y-83384431D01*
X129193594Y-83277567D01*
X129132195Y-83186750D01*
X129084627Y-83096779D01*
X129043010Y-82992454D01*
X128999460Y-82858578D01*
X128946096Y-82679949D01*
X128937650Y-82651373D01*
X128874796Y-82446850D01*
X128821847Y-82294738D01*
X128774379Y-82184257D01*
X128727973Y-82104626D01*
X128697398Y-82065566D01*
X128652306Y-81994362D01*
X128731115Y-81994362D01*
X128738998Y-82012468D01*
X128771619Y-82047248D01*
X128790373Y-82040114D01*
X128790688Y-82035585D01*
X128767677Y-82008182D01*
X128753285Y-81998181D01*
X128731115Y-81994362D01*
X128652306Y-81994362D01*
X128617531Y-81939450D01*
X128604425Y-81855484D01*
X128666212Y-81855484D01*
X128671303Y-81901477D01*
X128682553Y-81895981D01*
X128684757Y-81861811D01*
X128775379Y-81861811D01*
X128796506Y-81930646D01*
X128855841Y-81968990D01*
X128887900Y-81999336D01*
X128931500Y-82076108D01*
X128988600Y-82203557D01*
X129061159Y-82385937D01*
X129119337Y-82540813D01*
X129323665Y-83093856D01*
X129559345Y-83304789D01*
X129795025Y-83515722D01*
X129801151Y-83698039D01*
X129807277Y-83880356D01*
X129819132Y-83688524D01*
X129830987Y-83496693D01*
X129603473Y-83267351D01*
X129521270Y-83183578D01*
X129458291Y-83113840D01*
X129407887Y-83046153D01*
X129363408Y-82968534D01*
X129318206Y-82868998D01*
X129265631Y-82735562D01*
X129199034Y-82556240D01*
X129179638Y-82503443D01*
X129108530Y-82303077D01*
X129053231Y-82133349D01*
X129016225Y-82002655D01*
X129000002Y-81919395D01*
X129000425Y-81898324D01*
X128992084Y-81815397D01*
X128966592Y-81776832D01*
X128963520Y-81774489D01*
X129082270Y-81774489D01*
X129098469Y-81790688D01*
X129114668Y-81774489D01*
X129098469Y-81758290D01*
X129082270Y-81774489D01*
X128963520Y-81774489D01*
X128908275Y-81732349D01*
X128858872Y-81741085D01*
X128811127Y-81786003D01*
X128775379Y-81861811D01*
X128684757Y-81861811D01*
X128686832Y-81829651D01*
X128682553Y-81814986D01*
X128670728Y-81810916D01*
X128666212Y-81855484D01*
X128604425Y-81855484D01*
X128598641Y-81818426D01*
X128626106Y-81746058D01*
X128693494Y-81746058D01*
X128709254Y-81755755D01*
X128752323Y-81714137D01*
X128755901Y-81709693D01*
X129049872Y-81709693D01*
X129066071Y-81725892D01*
X129082270Y-81709693D01*
X129066071Y-81693494D01*
X129049872Y-81709693D01*
X128755901Y-81709693D01*
X128762423Y-81701593D01*
X128780164Y-81677295D01*
X128985076Y-81677295D01*
X129001275Y-81693494D01*
X129017474Y-81677295D01*
X129001275Y-81661096D01*
X128985076Y-81677295D01*
X128780164Y-81677295D01*
X128790442Y-81663218D01*
X128773665Y-81671263D01*
X128750191Y-81689361D01*
X128705321Y-81729327D01*
X128693494Y-81746058D01*
X128626106Y-81746058D01*
X128639696Y-81710248D01*
X128706796Y-81651464D01*
X128843315Y-81651464D01*
X128887882Y-81655981D01*
X128933875Y-81650889D01*
X128928380Y-81639639D01*
X128862050Y-81635360D01*
X128847385Y-81639639D01*
X128843315Y-81651464D01*
X128706796Y-81651464D01*
X128739664Y-81622669D01*
X128757642Y-81612834D01*
X128878567Y-81569468D01*
X128979965Y-81581988D01*
X129078859Y-81652775D01*
X129084762Y-81658604D01*
X129151459Y-81743307D01*
X129177840Y-81837868D01*
X129180452Y-81893489D01*
X129192947Y-81998009D01*
X129234960Y-82102811D01*
X129301944Y-82211861D01*
X129387235Y-82326359D01*
X129449896Y-82381367D01*
X129492799Y-82376960D01*
X129518819Y-82313215D01*
X129529509Y-82217835D01*
X129526364Y-82114843D01*
X129509934Y-81969381D01*
X129483001Y-81795009D01*
X129448349Y-81605290D01*
X129408758Y-81413785D01*
X129367011Y-81234056D01*
X129325890Y-81079665D01*
X129288177Y-80964174D01*
X129260385Y-80906006D01*
X129245459Y-80867346D01*
X129309056Y-80867346D01*
X129325255Y-80883545D01*
X129341454Y-80867346D01*
X129325255Y-80851147D01*
X129309056Y-80867346D01*
X129245459Y-80867346D01*
X129220442Y-80802550D01*
X129276658Y-80802550D01*
X129292857Y-80818749D01*
X129309056Y-80802550D01*
X129292857Y-80786351D01*
X129276658Y-80802550D01*
X129220442Y-80802550D01*
X129218595Y-80797766D01*
X129218968Y-80758851D01*
X129389584Y-80758851D01*
X129422507Y-80818814D01*
X129442651Y-80843987D01*
X129461233Y-80876902D01*
X129480464Y-80925462D01*
X129502557Y-80997570D01*
X129529722Y-81101131D01*
X129564172Y-81244048D01*
X129608120Y-81434225D01*
X129663776Y-81679566D01*
X129665380Y-81686668D01*
X129717423Y-81940873D01*
X129748603Y-82156236D01*
X129761757Y-82354222D01*
X129762627Y-82422595D01*
X129763745Y-82566831D01*
X129769738Y-82663233D01*
X129784567Y-82728754D01*
X129812194Y-82780349D01*
X129856577Y-82834971D01*
X129859821Y-82838672D01*
X129919757Y-82918061D01*
X129948391Y-82996532D01*
X129956007Y-83104523D01*
X129955984Y-83123281D01*
X129953887Y-83220801D01*
X129946293Y-83263203D01*
X129928972Y-83260156D01*
X129907387Y-83234304D01*
X129868970Y-83152684D01*
X129859821Y-83096613D01*
X129841566Y-83035984D01*
X129796937Y-83021810D01*
X129728152Y-83036953D01*
X129715438Y-83079857D01*
X129758271Y-83146740D01*
X129822715Y-83207209D01*
X129898543Y-83274173D01*
X129938626Y-83330066D01*
X129954328Y-83400324D01*
X129957015Y-83507817D01*
X129961061Y-83621833D01*
X129971484Y-83715956D01*
X129981313Y-83756214D01*
X129989828Y-83744943D01*
X129998829Y-83677765D01*
X130007630Y-83563557D01*
X130015546Y-83411198D01*
X130021811Y-83232397D01*
X130028297Y-83042910D01*
X130036357Y-82874975D01*
X130045271Y-82739689D01*
X130054322Y-82648153D01*
X130061951Y-82612407D01*
X130060412Y-82564798D01*
X130036280Y-82534405D01*
X129978118Y-82513613D01*
X129936783Y-82540364D01*
X129930135Y-82597416D01*
X129941685Y-82625744D01*
X129960885Y-82696362D01*
X129963022Y-82788578D01*
X129962898Y-82789889D01*
X129953308Y-82860730D01*
X129935217Y-82876408D01*
X129895278Y-82846377D01*
X129889945Y-82841564D01*
X129861911Y-82808554D01*
X129843642Y-82761561D01*
X129833141Y-82687454D01*
X129828406Y-82573107D01*
X129827423Y-82431059D01*
X129825132Y-82285113D01*
X129816737Y-82151731D01*
X129799954Y-82014872D01*
X129772500Y-81858499D01*
X129732091Y-81666573D01*
X129695748Y-81506274D01*
X129652580Y-81321707D01*
X129613332Y-81158734D01*
X129580660Y-81027994D01*
X129557216Y-80940127D01*
X129546136Y-80906389D01*
X129546661Y-80859339D01*
X129570404Y-80798505D01*
X129595493Y-80733482D01*
X129578088Y-80686674D01*
X129560539Y-80667572D01*
X129493619Y-80631478D01*
X129433636Y-80644722D01*
X129394366Y-80692212D01*
X129389584Y-80758851D01*
X129218968Y-80758851D01*
X129219771Y-80675005D01*
X129223390Y-80666126D01*
X129276658Y-80666126D01*
X129283026Y-80688957D01*
X129285825Y-80686457D01*
X129310021Y-80652703D01*
X129342522Y-80608162D01*
X129372994Y-80564102D01*
X129361716Y-80566197D01*
X129333354Y-80587831D01*
X129287867Y-80637200D01*
X129276658Y-80666126D01*
X129223390Y-80666126D01*
X129263153Y-80568576D01*
X129268889Y-80561114D01*
X129339752Y-80510968D01*
X129552040Y-80510968D01*
X129612601Y-80582586D01*
X129659390Y-80685151D01*
X129658961Y-80750964D01*
X129656522Y-80813072D01*
X129669932Y-80832049D01*
X129671295Y-80831325D01*
X129690765Y-80790200D01*
X129697831Y-80724664D01*
X129669802Y-80627386D01*
X129624936Y-80572686D01*
X129552040Y-80510968D01*
X129339752Y-80510968D01*
X129351691Y-80502519D01*
X129460814Y-80472594D01*
X129557030Y-80467208D01*
X129623354Y-80490130D01*
X129678779Y-80537568D01*
X129727293Y-80595876D01*
X129751417Y-80660759D01*
X129758127Y-80756262D01*
X129757490Y-80808786D01*
X129762874Y-80929565D01*
X129781742Y-81074093D01*
X129810885Y-81230039D01*
X129847096Y-81385069D01*
X129887168Y-81526851D01*
X129927894Y-81643052D01*
X129966065Y-81721339D01*
X129998475Y-81749380D01*
X130001949Y-81748743D01*
X130016447Y-81713169D01*
X130028525Y-81624895D01*
X130038018Y-81495976D01*
X130044762Y-81338470D01*
X130048592Y-81164431D01*
X130049345Y-80985917D01*
X130046855Y-80814983D01*
X130040958Y-80663686D01*
X130031491Y-80544081D01*
X130019348Y-80471893D01*
X130003944Y-80398731D01*
X130055707Y-80398731D01*
X130075807Y-80440773D01*
X130103258Y-80460242D01*
X130103643Y-80429457D01*
X130096009Y-80397633D01*
X130099259Y-80340630D01*
X130187504Y-80340630D01*
X130202654Y-80419007D01*
X130211085Y-80433826D01*
X130220363Y-80470408D01*
X130228385Y-80550353D01*
X130235227Y-80676662D01*
X130240964Y-80852335D01*
X130245670Y-81080373D01*
X130249422Y-81363776D01*
X130252295Y-81705544D01*
X130254362Y-82108679D01*
X130254594Y-82170924D01*
X130256046Y-82530367D01*
X130257637Y-82827086D01*
X130259427Y-83063150D01*
X130261471Y-83240633D01*
X130263826Y-83361604D01*
X130266551Y-83428134D01*
X130269701Y-83442296D01*
X130271483Y-83424571D01*
X130442984Y-83424571D01*
X130449422Y-83668663D01*
X130455859Y-83912754D01*
X130466925Y-83683574D01*
X130471601Y-83586739D01*
X130608323Y-83586739D01*
X130608761Y-83647318D01*
X130612549Y-83815560D01*
X130642040Y-83637498D01*
X130665894Y-83530633D01*
X130704695Y-83446211D01*
X130771999Y-83359967D01*
X130832641Y-83296301D01*
X130915071Y-83203512D01*
X130972719Y-83120507D01*
X130993749Y-83065256D01*
X131015711Y-82990303D01*
X131042346Y-82957014D01*
X131071639Y-82940960D01*
X131086160Y-82963854D01*
X131090768Y-83036928D01*
X131090943Y-83069373D01*
X131085572Y-83159263D01*
X131062725Y-83232246D01*
X131012301Y-83310725D01*
X130945153Y-83392713D01*
X130864604Y-83493229D01*
X130821101Y-83568850D01*
X130805112Y-83639726D01*
X130804808Y-83689461D01*
X130810254Y-83815560D01*
X130822878Y-83695491D01*
X130852086Y-83593074D01*
X130923894Y-83480948D01*
X130979421Y-83415348D01*
X131123341Y-83255275D01*
X131116996Y-82838861D01*
X131114002Y-82704832D01*
X131110071Y-82618605D01*
X131105637Y-82585182D01*
X131101135Y-82609564D01*
X131099425Y-82636379D01*
X131092024Y-82750313D01*
X131081028Y-82812937D01*
X131060568Y-82837697D01*
X131024774Y-82838040D01*
X131012374Y-82835816D01*
X130942308Y-82840665D01*
X130906038Y-82875933D01*
X130917828Y-82925551D01*
X130925297Y-82933919D01*
X130957735Y-82992813D01*
X130945959Y-83067272D01*
X130887007Y-83164638D01*
X130783163Y-83286610D01*
X130694412Y-83384978D01*
X130641691Y-83455376D01*
X130615995Y-83516423D01*
X130608323Y-83586739D01*
X130471601Y-83586739D01*
X130477991Y-83454393D01*
X130654875Y-83279706D01*
X130831760Y-83105019D01*
X130825098Y-82812330D01*
X130818435Y-82519642D01*
X130807722Y-82797293D01*
X130797009Y-83074944D01*
X130619997Y-83249758D01*
X130442984Y-83424571D01*
X130271483Y-83424571D01*
X130273334Y-83406160D01*
X130277345Y-83325101D01*
X130313392Y-83325101D01*
X130333504Y-83325760D01*
X130384157Y-83288875D01*
X130410586Y-83264795D01*
X130473055Y-83193035D01*
X130501430Y-83117198D01*
X130507780Y-83015309D01*
X130515842Y-82908208D01*
X130536188Y-82819924D01*
X130547466Y-82795394D01*
X130567474Y-82727616D01*
X130544970Y-82682864D01*
X130494609Y-82677333D01*
X130459183Y-82697831D01*
X130427419Y-82745099D01*
X130441611Y-82774213D01*
X130461051Y-82824129D01*
X130473258Y-82914100D01*
X130475382Y-82974046D01*
X130468608Y-83085789D01*
X130442467Y-83159709D01*
X130394387Y-83216198D01*
X130339409Y-83276618D01*
X130313658Y-83322193D01*
X130313392Y-83325101D01*
X130277345Y-83325101D01*
X130277508Y-83321797D01*
X130282279Y-83191279D01*
X130282527Y-83183800D01*
X130288511Y-82971158D01*
X130294207Y-82710069D01*
X130298612Y-82459225D01*
X130750001Y-82459225D01*
X130754971Y-82477851D01*
X130800987Y-82503127D01*
X130857178Y-82487558D01*
X130885675Y-82452668D01*
X130883561Y-82388815D01*
X130868460Y-82365194D01*
X130847653Y-82333430D01*
X130844697Y-82319851D01*
X131037579Y-82319851D01*
X131059507Y-82374198D01*
X131106829Y-82400305D01*
X131118946Y-82399368D01*
X131169360Y-82362782D01*
X131182060Y-82332884D01*
X131166863Y-82278597D01*
X131116953Y-82249690D01*
X131061613Y-82261398D01*
X131055306Y-82266938D01*
X131037579Y-82319851D01*
X130844697Y-82319851D01*
X130836949Y-82284257D01*
X130837218Y-82210152D01*
X130840412Y-82182045D01*
X131220535Y-82182045D01*
X131230591Y-82206315D01*
X131261974Y-82181314D01*
X131316503Y-82104579D01*
X131396000Y-81973648D01*
X131468216Y-81847117D01*
X131551774Y-81705656D01*
X131635332Y-81576865D01*
X131707511Y-81477508D01*
X131782100Y-81477508D01*
X131786547Y-81496768D01*
X131803698Y-81499106D01*
X131830366Y-81487252D01*
X131825297Y-81477508D01*
X131786848Y-81473630D01*
X131782100Y-81477508D01*
X131707511Y-81477508D01*
X131708184Y-81476581D01*
X131752421Y-81426731D01*
X131781314Y-81396265D01*
X131891937Y-81396265D01*
X131905503Y-81409748D01*
X131909097Y-81406667D01*
X131927764Y-81354270D01*
X131926721Y-81300356D01*
X131917290Y-81258277D01*
X131907839Y-81272747D01*
X131897042Y-81330035D01*
X131891937Y-81396265D01*
X131781314Y-81396265D01*
X131814370Y-81361409D01*
X131829922Y-81314085D01*
X131817156Y-81281935D01*
X131772297Y-81230799D01*
X131748448Y-81216106D01*
X131696871Y-81227530D01*
X131649062Y-81275388D01*
X131627105Y-81333962D01*
X131630189Y-81353827D01*
X131621563Y-81398172D01*
X131585143Y-81486157D01*
X131526474Y-81605859D01*
X131451101Y-81745357D01*
X131434425Y-81774732D01*
X131355110Y-81915709D01*
X131289104Y-82037624D01*
X131242454Y-82128962D01*
X131221205Y-82178210D01*
X131220535Y-82182045D01*
X130840412Y-82182045D01*
X130849328Y-82103592D01*
X130874151Y-81957052D01*
X130912556Y-81763009D01*
X130965413Y-81513941D01*
X130968625Y-81499106D01*
X131021135Y-81263440D01*
X131064516Y-81084880D01*
X131100736Y-80956693D01*
X131131763Y-80872146D01*
X131134564Y-80867346D01*
X131252933Y-80867346D01*
X131269132Y-80883545D01*
X131285331Y-80867346D01*
X131269132Y-80851147D01*
X131252933Y-80867346D01*
X131134564Y-80867346D01*
X131159566Y-80824507D01*
X131168420Y-80815696D01*
X131177532Y-80802550D01*
X131285331Y-80802550D01*
X131301530Y-80818749D01*
X131317729Y-80802550D01*
X131301530Y-80786351D01*
X131285331Y-80802550D01*
X131177532Y-80802550D01*
X131212694Y-80751822D01*
X131210474Y-80709668D01*
X131159440Y-80646795D01*
X131088318Y-80636483D01*
X131032368Y-80669052D01*
X130997065Y-80720988D01*
X131012736Y-80776502D01*
X131019779Y-80788193D01*
X131046418Y-80847497D01*
X131046954Y-80876763D01*
X131035574Y-80914658D01*
X131012928Y-81004742D01*
X130981676Y-81135920D01*
X130944478Y-81297101D01*
X130917160Y-81418111D01*
X130866554Y-81654802D01*
X130823194Y-81878324D01*
X130788470Y-82079601D01*
X130763771Y-82249560D01*
X130750485Y-82379126D01*
X130750001Y-82459225D01*
X130298612Y-82459225D01*
X130299356Y-82416882D01*
X130303699Y-82107944D01*
X130306980Y-81799605D01*
X130308927Y-81511173D01*
X130310567Y-81223856D01*
X130312900Y-80994625D01*
X130316273Y-80816773D01*
X130321037Y-80683591D01*
X130327540Y-80588370D01*
X130336130Y-80524403D01*
X130336488Y-80523123D01*
X130451402Y-80523123D01*
X130475135Y-80507595D01*
X130479402Y-80503409D01*
X130504993Y-80460931D01*
X130501523Y-80445315D01*
X130477423Y-80455038D01*
X130461266Y-80485273D01*
X130451402Y-80523123D01*
X130336488Y-80523123D01*
X130347157Y-80484981D01*
X130360971Y-80463396D01*
X130363553Y-80461074D01*
X130405684Y-80394193D01*
X130397468Y-80346279D01*
X130510338Y-80346279D01*
X130516294Y-80388299D01*
X130527354Y-80388801D01*
X130535088Y-80345440D01*
X130529912Y-80326705D01*
X130515526Y-80314433D01*
X130510338Y-80346279D01*
X130397468Y-80346279D01*
X130394111Y-80326700D01*
X130335773Y-80280814D01*
X130305109Y-80273914D01*
X130224552Y-80287339D01*
X130187504Y-80340630D01*
X130099259Y-80340630D01*
X130100142Y-80325132D01*
X130133363Y-80243743D01*
X130177633Y-80171036D01*
X130412708Y-80171036D01*
X130420753Y-80187813D01*
X130438852Y-80211287D01*
X130486140Y-80261656D01*
X130507248Y-80261437D01*
X130507780Y-80255752D01*
X130485640Y-80228708D01*
X130451084Y-80199055D01*
X130412708Y-80171036D01*
X130177633Y-80171036D01*
X130182499Y-80163044D01*
X130262648Y-80163044D01*
X130294494Y-80168232D01*
X130336514Y-80162276D01*
X130337016Y-80151216D01*
X130293655Y-80143482D01*
X130274920Y-80148658D01*
X130262648Y-80163044D01*
X130182499Y-80163044D01*
X130187646Y-80154591D01*
X130120927Y-80231075D01*
X130067236Y-80318386D01*
X130055707Y-80398731D01*
X130003944Y-80398731D01*
X129999068Y-80375572D01*
X130006987Y-80304562D01*
X130043889Y-80228908D01*
X130130317Y-80131024D01*
X130235179Y-80084253D01*
X130345629Y-80082964D01*
X130448822Y-80121525D01*
G37*
G36*
X128846125Y-81132851D02*
G01*
X128811144Y-81195970D01*
X128739528Y-81293029D01*
X128723668Y-81312818D01*
X128515930Y-81618075D01*
X128366569Y-81944330D01*
X128275896Y-82284780D01*
X128244218Y-82632620D01*
X128271845Y-82981047D01*
X128359085Y-83323257D01*
X128506248Y-83652447D01*
X128609812Y-83821033D01*
X128721965Y-83964648D01*
X128866217Y-84119055D01*
X129021470Y-84263433D01*
X129166626Y-84376964D01*
X129186767Y-84390398D01*
X129284487Y-84460259D01*
X129336351Y-84511951D01*
X129338018Y-84540352D01*
X129317155Y-84544210D01*
X129278278Y-84529112D01*
X129201148Y-84490073D01*
X129114668Y-84442405D01*
X128954989Y-84331567D01*
X128784921Y-84180552D01*
X128622049Y-84007628D01*
X128483960Y-83831066D01*
X128407497Y-83707740D01*
X128294976Y-83475674D01*
X128219864Y-83263360D01*
X128174628Y-83043875D01*
X128151951Y-82794525D01*
X128160071Y-82429329D01*
X128225544Y-82086371D01*
X128350832Y-81753465D01*
X128370216Y-81713178D01*
X128437185Y-81592270D01*
X128520526Y-81463669D01*
X128610871Y-81339381D01*
X128698851Y-81231415D01*
X128775096Y-81151776D01*
X128830238Y-81112473D01*
X128840625Y-81110331D01*
X128846125Y-81132851D01*
G37*
G36*
X132101986Y-81465563D02*
G01*
X132133677Y-81499106D01*
X132205545Y-81605535D01*
X132283211Y-81755622D01*
X132358265Y-81929804D01*
X132422301Y-82108519D01*
X132466911Y-82272206D01*
X132467855Y-82276647D01*
X132509790Y-82626937D01*
X132491252Y-82977086D01*
X132414895Y-83317900D01*
X132283371Y-83640184D01*
X132099334Y-83934741D01*
X131934292Y-84126023D01*
X131817264Y-84235492D01*
X131692649Y-84336773D01*
X131569881Y-84424128D01*
X131458396Y-84491820D01*
X131367630Y-84534112D01*
X131307019Y-84545266D01*
X131285974Y-84520216D01*
X131312007Y-84492039D01*
X131378827Y-84443880D01*
X131451120Y-84398724D01*
X131661152Y-84244621D01*
X131863592Y-84040489D01*
X132047550Y-83801009D01*
X132202139Y-83540863D01*
X132316470Y-83274733D01*
X132340117Y-83199999D01*
X132383850Y-82974919D01*
X132399696Y-82715959D01*
X132388320Y-82447404D01*
X132350388Y-82193540D01*
X132308273Y-82037231D01*
X132256533Y-81896159D01*
X132199440Y-81760048D01*
X132148314Y-81655651D01*
X132142582Y-81645610D01*
X132091178Y-81547501D01*
X132066964Y-81479625D01*
X132070409Y-81449730D01*
X132101986Y-81465563D01*
G37*
G36*
X129826481Y-83078862D02*
G01*
X129827423Y-83086606D01*
X129802769Y-83118063D01*
X129795025Y-83119004D01*
X129763568Y-83094350D01*
X129762627Y-83086606D01*
X129787281Y-83055150D01*
X129795025Y-83054208D01*
X129826481Y-83078862D01*
G37*
G36*
X130020869Y-82592893D02*
G01*
X130021811Y-82600637D01*
X129997157Y-82632093D01*
X129989413Y-82633035D01*
X129957956Y-82608381D01*
X129957015Y-82600637D01*
X129981669Y-82569180D01*
X129989413Y-82568239D01*
X130020869Y-82592893D01*
G37*
G36*
X131025275Y-82884532D02*
G01*
X131026147Y-82892218D01*
X130999777Y-82920651D01*
X130975638Y-82924616D01*
X130942105Y-82908910D01*
X130945153Y-82892218D01*
X130986572Y-82861056D01*
X130995661Y-82859821D01*
X131025275Y-82884532D01*
G37*
G36*
X130507780Y-82714030D02*
G01*
X130538687Y-82743143D01*
X130540178Y-82748340D01*
X130515112Y-82762255D01*
X130507780Y-82762627D01*
X130476627Y-82737721D01*
X130475382Y-82728317D01*
X130495230Y-82708967D01*
X130507780Y-82714030D01*
G37*
G36*
X130838953Y-82394993D02*
G01*
X130846248Y-82403482D01*
X130843016Y-82445840D01*
X130834527Y-82453136D01*
X130792169Y-82449903D01*
X130784873Y-82441414D01*
X130788106Y-82399056D01*
X130796595Y-82391760D01*
X130838953Y-82394993D01*
G37*
G36*
X131150952Y-82315634D02*
G01*
X131132938Y-82344816D01*
X131092339Y-82360764D01*
X131077873Y-82346515D01*
X131080737Y-82302631D01*
X131092570Y-82291851D01*
X131138564Y-82284294D01*
X131150952Y-82315634D01*
G37*
%TO.C,C7*%
D13*
X120330000Y-84090580D02*
X120330000Y-83809420D01*
X121350000Y-84090580D02*
X121350000Y-83809420D01*
%TO.C,R2*%
X100897500Y-52987258D02*
X100897500Y-52512742D01*
X101942500Y-52987258D02*
X101942500Y-52512742D01*
%TO.C,R14*%
X115217742Y-75802500D02*
X115692258Y-75802500D01*
X115217742Y-76847500D02*
X115692258Y-76847500D01*
%TO.C,R10*%
X124237258Y-85787500D02*
X123762742Y-85787500D01*
X124237258Y-86832500D02*
X123762742Y-86832500D01*
%TO.C,RST*%
D14*
X130400000Y-74010000D02*
X133400000Y-74010000D01*
X130400000Y-74180000D02*
X130400000Y-74010000D01*
X130400000Y-76510000D02*
X130400000Y-76340000D01*
X133400000Y-74010000D02*
X130400000Y-74010000D01*
X133400000Y-74010000D02*
X133400000Y-74170000D01*
X133400000Y-76340000D02*
X133400000Y-76510000D01*
X133400000Y-76510000D02*
X130400000Y-76510000D01*
X133400000Y-76510000D02*
X130400000Y-76510000D01*
X132700000Y-75260000D02*
G75*
G02*
X131100000Y-75260000I-800000J0D01*
G01*
X131100000Y-75260000D02*
G75*
G02*
X132700000Y-75260000I800000J0D01*
G01*
D15*
X133930000Y-76510000D02*
G75*
G02*
X133870000Y-76510000I-30000J0D01*
G01*
X133870000Y-76510000D02*
G75*
G02*
X133930000Y-76510000I30000J0D01*
G01*
%TO.C,R8*%
D13*
X113397500Y-61620242D02*
X113397500Y-62094758D01*
X114442500Y-61620242D02*
X114442500Y-62094758D01*
%TO.C,JP2*%
X97680000Y-60545000D02*
X97680000Y-61145000D01*
X97680000Y-61145000D02*
X97980000Y-60845000D01*
X97980000Y-60845000D02*
X97680000Y-60545000D01*
X98230000Y-59495000D02*
X100180000Y-59495000D01*
X98230000Y-64995000D02*
X98230000Y-59495000D01*
X100180000Y-59495000D02*
X100180000Y-64995000D01*
X100180000Y-64995000D02*
X98230000Y-64995000D01*
%TO.C,C9*%
X117270000Y-81639420D02*
X117270000Y-81920580D01*
X118290000Y-81639420D02*
X118290000Y-81920580D01*
%TO.C,Q1*%
X91202500Y-55530000D02*
X92722500Y-55530000D01*
X91202500Y-56530000D02*
X91202500Y-55530000D01*
X91202500Y-58650000D02*
X91202500Y-57650000D01*
X92722500Y-55530000D02*
X92722500Y-55580000D01*
X92722500Y-56700000D02*
X92722500Y-57480000D01*
X92722500Y-58600000D02*
X92722500Y-58650000D01*
X92722500Y-58650000D02*
X91202500Y-58650000D01*
X93262500Y-57470000D02*
X93022500Y-57140000D01*
X93502500Y-57140000D01*
X93262500Y-57470000D01*
G36*
X93262500Y-57470000D02*
G01*
X93022500Y-57140000D01*
X93502500Y-57140000D01*
X93262500Y-57470000D01*
G37*
%TO.C,R20*%
X111587742Y-49487500D02*
X112062258Y-49487500D01*
X111587742Y-50532500D02*
X112062258Y-50532500D01*
%TO.C,U2*%
X100332500Y-69500000D02*
X102152500Y-69500000D01*
X100332500Y-69550000D02*
X100332500Y-69500000D01*
X100332500Y-72620000D02*
X100332500Y-72570000D01*
X102152500Y-69500000D02*
X102152500Y-69550000D01*
X102152500Y-70670000D02*
X102152500Y-71450000D01*
X102152500Y-72570000D02*
X102152500Y-72620000D01*
X102152500Y-72620000D02*
X100332500Y-72620000D01*
X99792500Y-69550000D02*
X99552500Y-69220000D01*
X100032500Y-69220000D01*
X99792500Y-69550000D01*
G36*
X99792500Y-69550000D02*
G01*
X99552500Y-69220000D01*
X100032500Y-69220000D01*
X99792500Y-69550000D01*
G37*
%TO.C,S1*%
D14*
X84072500Y-56340000D02*
X85572500Y-56340000D01*
X84072500Y-57640000D02*
X84072500Y-56340000D01*
X85572500Y-57640000D02*
X84072500Y-57640000D01*
X85572500Y-59540000D02*
X85572500Y-53140000D01*
X86462500Y-53040000D02*
X87392500Y-53040000D01*
X86462500Y-59640000D02*
X87392500Y-59640000D01*
X88272500Y-56430000D02*
X88272500Y-54750000D01*
X88272500Y-57930000D02*
X88272500Y-57750000D01*
D15*
X89332500Y-52440000D02*
G75*
G02*
X89272500Y-52440000I-30000J0D01*
G01*
X89272500Y-52440000D02*
G75*
G02*
X89332500Y-52440000I30000J0D01*
G01*
%TO.C,D3*%
D13*
X85165000Y-48555000D02*
X85165000Y-50840000D01*
X86635000Y-48555000D02*
X85165000Y-48555000D01*
X86635000Y-50840000D02*
X86635000Y-48555000D01*
%TO.C,U1*%
X100620000Y-54872500D02*
X101095000Y-54872500D01*
X100620000Y-55347500D02*
X100620000Y-54872500D01*
X100620000Y-58092500D02*
X100620000Y-57617500D01*
X101095000Y-58092500D02*
X100620000Y-58092500D01*
X103365000Y-54872500D02*
X103840000Y-54872500D01*
X103840000Y-54872500D02*
X103840000Y-55347500D01*
X103840000Y-57617500D02*
X103840000Y-58092500D01*
X103840000Y-58092500D02*
X103365000Y-58092500D01*
X100090000Y-55732500D02*
X99760000Y-55972500D01*
X99760000Y-55492500D01*
X100090000Y-55732500D01*
G36*
X100090000Y-55732500D02*
G01*
X99760000Y-55972500D01*
X99760000Y-55492500D01*
X100090000Y-55732500D01*
G37*
%TO.C,Q3*%
X114020000Y-72802500D02*
X115020000Y-72802500D01*
X114020000Y-74322500D02*
X114020000Y-72802500D01*
X114070000Y-74322500D02*
X114020000Y-74322500D01*
X115970000Y-74322500D02*
X115190000Y-74322500D01*
X116140000Y-72802500D02*
X117140000Y-72802500D01*
X117140000Y-72802500D02*
X117140000Y-74322500D01*
X117140000Y-74322500D02*
X117090000Y-74322500D01*
X115200000Y-74862500D02*
X115530000Y-74622500D01*
X115530000Y-75102500D01*
X115200000Y-74862500D01*
G36*
X115530000Y-75102500D02*
G01*
X115200000Y-74862500D01*
X115530000Y-74622500D01*
X115530000Y-75102500D01*
G37*
%TO.C,J6*%
D14*
X116510000Y-40160000D02*
X116510000Y-41280000D01*
X116510000Y-40160000D02*
X123010000Y-40160000D01*
X116510000Y-43550000D02*
X116510000Y-45540000D01*
X116510000Y-45540000D02*
X118130000Y-45540000D01*
X123010000Y-40160000D02*
X123010000Y-41280000D01*
X123010000Y-43550000D02*
X123010000Y-45560000D01*
X123010000Y-45560000D02*
X121410000Y-45560000D01*
D15*
X116540000Y-45920000D02*
G75*
G02*
X116480000Y-45920000I-30000J0D01*
G01*
X116480000Y-45920000D02*
G75*
G02*
X116540000Y-45920000I30000J0D01*
G01*
D14*
X117890000Y-46040000D02*
G75*
G02*
X117630000Y-46040000I-130000J0D01*
G01*
X117630000Y-46040000D02*
G75*
G02*
X117890000Y-46040000I130000J0D01*
G01*
%TO.C,D4*%
D11*
X96070000Y-54960000D02*
X96320000Y-54960000D01*
X96070000Y-57310000D02*
X97930000Y-57310000D01*
X96070000Y-57720000D02*
X96070000Y-54960000D01*
X97930000Y-54960000D02*
X97680000Y-54960000D01*
X97930000Y-57720000D02*
X97930000Y-54960000D01*
D15*
X97830000Y-58190000D02*
G75*
G02*
X97770000Y-58190000I-30000J0D01*
G01*
X97770000Y-58190000D02*
G75*
G02*
X97830000Y-58190000I30000J0D01*
G01*
D12*
G36*
X96367591Y-57944797D02*
G01*
X95997589Y-57944797D01*
X95997589Y-57639997D01*
X96367591Y-57639997D01*
X96367591Y-57944797D01*
G37*
G36*
X98002411Y-57944797D02*
G01*
X97632409Y-57944797D01*
X97632409Y-57639997D01*
X98002411Y-57639997D01*
X98002411Y-57944797D01*
G37*
%TO.C,JP1*%
D13*
X100580000Y-60535000D02*
X100580000Y-61135000D01*
X100580000Y-61135000D02*
X100880000Y-60835000D01*
X100880000Y-60835000D02*
X100580000Y-60535000D01*
X101130000Y-59485000D02*
X103080000Y-59485000D01*
X101130000Y-64985000D02*
X101130000Y-59485000D01*
X103080000Y-59485000D02*
X103080000Y-64985000D01*
X103080000Y-64985000D02*
X101130000Y-64985000D01*
%TO.C,C4*%
X104670000Y-57379420D02*
X104670000Y-57660580D01*
X105690000Y-57379420D02*
X105690000Y-57660580D01*
%TO.C,D6*%
X102685000Y-87550000D02*
X102685000Y-89835000D01*
X102685000Y-89835000D02*
X104155000Y-89835000D01*
X104155000Y-89835000D02*
X104155000Y-87550000D01*
%TO.C,C16*%
X132854420Y-48490000D02*
X133135580Y-48490000D01*
X132854420Y-49510000D02*
X133135580Y-49510000D01*
%TO.C,JP4*%
X90475000Y-52940000D02*
X93275000Y-52940000D01*
X90475000Y-54940000D02*
X90475000Y-52940000D01*
X93275000Y-52940000D02*
X93275000Y-54940000D01*
X93275000Y-54940000D02*
X90475000Y-54940000D01*
%TO.C,U4*%
X108960000Y-79445000D02*
X108960000Y-80495000D01*
X110940000Y-79445000D02*
X110940000Y-80745000D01*
X108960000Y-80865000D02*
X108960000Y-81145000D01*
X108680000Y-80865000D01*
X108960000Y-80865000D01*
G36*
X108960000Y-81145000D02*
G01*
X108680000Y-80865000D01*
X108960000Y-80865000D01*
X108960000Y-81145000D01*
G37*
%TO.C,C11*%
X117960580Y-71220000D02*
X117679420Y-71220000D01*
X117960580Y-72240000D02*
X117679420Y-72240000D01*
%TO.C,D5*%
X89890000Y-59040000D02*
X89890000Y-61040000D01*
X89890000Y-59040000D02*
X93750000Y-59040000D01*
X89890000Y-61040000D02*
X93750000Y-61040000D01*
%TO.C,C15*%
X132859420Y-50060000D02*
X133140580Y-50060000D01*
X132859420Y-51080000D02*
X133140580Y-51080000D01*
%TO.C,C12*%
X130150000Y-49950580D02*
X130150000Y-49669420D01*
X131170000Y-49950580D02*
X131170000Y-49669420D01*
%TO.C,C13*%
X90590000Y-78009420D02*
X90590000Y-78290580D01*
X91610000Y-78009420D02*
X91610000Y-78290580D01*
%TO.C,C3*%
X98770000Y-57504420D02*
X98770000Y-57785580D01*
X99790000Y-57504420D02*
X99790000Y-57785580D01*
%TO.C,R11*%
X122427500Y-83707742D02*
X122427500Y-84182258D01*
X123472500Y-83707742D02*
X123472500Y-84182258D01*
%TO.C,D1*%
X104467500Y-60710000D02*
X104467500Y-62180000D01*
X104467500Y-62180000D02*
X106752500Y-62180000D01*
X106752500Y-60710000D02*
X104467500Y-60710000D01*
%TO.C,U6*%
X110940000Y-56287500D02*
X112240000Y-56287500D01*
X110940000Y-58267500D02*
X111990000Y-58267500D01*
X112360000Y-58267500D02*
X112640000Y-58267500D01*
X112360000Y-58547500D01*
X112360000Y-58267500D01*
G36*
X112360000Y-58547500D02*
G01*
X112360000Y-58267500D01*
X112640000Y-58267500D01*
X112360000Y-58547500D01*
G37*
%TO.C,R5*%
X106207500Y-57752258D02*
X106207500Y-57277742D01*
X107252500Y-57752258D02*
X107252500Y-57277742D01*
%TO.C,J1*%
D14*
X85197500Y-61997500D02*
X91197500Y-61997500D01*
X85197500Y-65697500D02*
X85197500Y-65697500D01*
X85197500Y-65697500D02*
X89447500Y-65697500D01*
X85197500Y-67997500D02*
X85197500Y-61997500D01*
X86897500Y-62917500D02*
X91197500Y-62917500D01*
X86897500Y-63867500D02*
X86897500Y-62917500D01*
X86897500Y-66147500D02*
X91197500Y-66147500D01*
X86897500Y-67097500D02*
X86897500Y-66147500D01*
X88797500Y-63867500D02*
X88797500Y-62917500D01*
X88797500Y-67097500D02*
X88797500Y-66147500D01*
X89447500Y-64347500D02*
X85197500Y-64347500D01*
X89447500Y-65697500D02*
X89447500Y-64347500D01*
X91197500Y-61997500D02*
X92797500Y-61997500D01*
X91197500Y-63097500D02*
X91197500Y-61997500D01*
X91197500Y-63867500D02*
X86897500Y-63867500D01*
X91197500Y-65097500D02*
X91197500Y-64897500D01*
X91197500Y-67097500D02*
X86897500Y-67097500D01*
X91197500Y-67997500D02*
X85197500Y-67997500D01*
X91197500Y-67997500D02*
X91197500Y-66897500D01*
X91197500Y-67997500D02*
X92797500Y-67997500D01*
X91697500Y-62297500D02*
X92397500Y-62447500D01*
X91697500Y-62597500D02*
X91697500Y-62297500D01*
X92397500Y-62447500D02*
X91697500Y-62597500D01*
X92797500Y-61997500D02*
X92797500Y-62897500D01*
X92797500Y-62897500D02*
X91197500Y-62897500D01*
X92797500Y-67097500D02*
X91197500Y-67097500D01*
X92797500Y-67997500D02*
X92797500Y-67097500D01*
D15*
X85097500Y-61867500D02*
G75*
G02*
X85037500Y-61867500I-30000J0D01*
G01*
X85037500Y-61867500D02*
G75*
G02*
X85097500Y-61867500I30000J0D01*
G01*
%TO.C,R18*%
D13*
X113397500Y-56027258D02*
X113397500Y-55552742D01*
X114442500Y-56027258D02*
X114442500Y-55552742D01*
%TO.C,R7*%
X94577500Y-58702742D02*
X94577500Y-59177258D01*
X95622500Y-58702742D02*
X95622500Y-59177258D01*
%TO.C,R12*%
X112877258Y-80347500D02*
X112402742Y-80347500D01*
X112877258Y-81392500D02*
X112402742Y-81392500D01*
%TO.C,R15*%
X107057742Y-80337500D02*
X107532258Y-80337500D01*
X107057742Y-81382500D02*
X107532258Y-81382500D01*
%TO.C,-*%
X88960000Y-76860000D02*
G75*
G02*
X86560000Y-76860000I-1200000J0D01*
G01*
X86560000Y-76860000D02*
G75*
G02*
X88960000Y-76860000I1200000J0D01*
G01*
%TO.C,U8*%
X115300000Y-51940000D02*
X115300000Y-53440000D01*
X115300000Y-70340000D02*
X115300000Y-68840000D01*
X115300000Y-70340000D02*
X116300000Y-70340000D01*
X116300000Y-51940000D02*
X115300000Y-51940000D01*
X141150000Y-51940000D02*
X134950000Y-51940000D01*
X141150000Y-51940000D02*
X141150000Y-70340000D01*
X141150000Y-70340000D02*
X134950000Y-70340000D01*
X134275000Y-51940000D02*
X134275000Y-51440000D01*
X134775000Y-51940000D01*
X134275000Y-51940000D01*
G36*
X134775000Y-51940000D02*
G01*
X134275000Y-51940000D01*
X134275000Y-51440000D01*
X134775000Y-51940000D01*
G37*
%TO.C,J2*%
D14*
X105480000Y-84325000D02*
X105480000Y-86125000D01*
X105480000Y-88355000D02*
X105480000Y-89855000D01*
X105480000Y-89855000D02*
X114420000Y-89855000D01*
X114420000Y-86125000D02*
X114420000Y-84325000D01*
X114420000Y-89855000D02*
X114420000Y-88355000D01*
D15*
X105510000Y-82275000D02*
G75*
G02*
X105450000Y-82275000I-30000J0D01*
G01*
X105450000Y-82275000D02*
G75*
G02*
X105510000Y-82275000I30000J0D01*
G01*
%TO.C,C2*%
D13*
X97832500Y-70719420D02*
X97832500Y-71000580D01*
X98852500Y-70719420D02*
X98852500Y-71000580D01*
%TO.C,C10*%
X118820000Y-81629420D02*
X118820000Y-81910580D01*
X119840000Y-81629420D02*
X119840000Y-81910580D01*
%TO.C,R13*%
X118817258Y-75802500D02*
X118342742Y-75802500D01*
X118817258Y-76847500D02*
X118342742Y-76847500D01*
%TO.C,C1*%
X103589420Y-52990000D02*
X103870580Y-52990000D01*
X103589420Y-54010000D02*
X103870580Y-54010000D01*
%TO.C,R19*%
X113397500Y-58587742D02*
X113397500Y-59062258D01*
X114442500Y-58587742D02*
X114442500Y-59062258D01*
%TO.C,Q2*%
X118480000Y-72810000D02*
X119480000Y-72810000D01*
X118480000Y-74330000D02*
X118480000Y-72810000D01*
X118530000Y-74330000D02*
X118480000Y-74330000D01*
X120430000Y-74330000D02*
X119650000Y-74330000D01*
X120600000Y-72810000D02*
X121600000Y-72810000D01*
X121600000Y-72810000D02*
X121600000Y-74330000D01*
X121600000Y-74330000D02*
X121550000Y-74330000D01*
X119660000Y-74870000D02*
X119990000Y-74630000D01*
X119990000Y-75110000D01*
X119660000Y-74870000D01*
G36*
X119990000Y-75110000D02*
G01*
X119660000Y-74870000D01*
X119990000Y-74630000D01*
X119990000Y-75110000D01*
G37*
%TO.C,U5*%
X120650000Y-76680000D02*
X121375000Y-76680000D01*
X120650000Y-77405000D02*
X120650000Y-76680000D01*
X120650000Y-81900000D02*
X120650000Y-81175000D01*
X121375000Y-81900000D02*
X120650000Y-81900000D01*
X125145000Y-76680000D02*
X125870000Y-76680000D01*
X125870000Y-76680000D02*
X125870000Y-77405000D01*
X125870000Y-81175000D02*
X125870000Y-81900000D01*
X125870000Y-81900000D02*
X125145000Y-81900000D01*
X120150000Y-77790000D02*
X119820000Y-78030000D01*
X119820000Y-77550000D01*
X120150000Y-77790000D01*
G36*
X120150000Y-77790000D02*
G01*
X119820000Y-78030000D01*
X119820000Y-77550000D01*
X120150000Y-77790000D01*
G37*
%TO.C,D7*%
X111000000Y-52375000D02*
X113285000Y-52375000D01*
X113285000Y-50905000D02*
X111000000Y-50905000D01*
X113285000Y-52375000D02*
X113285000Y-50905000D01*
%TO.C,BOOT*%
D14*
X130380000Y-71100000D02*
X133380000Y-71100000D01*
X130380000Y-71270000D02*
X130380000Y-71100000D01*
X130380000Y-73600000D02*
X130380000Y-73430000D01*
X133380000Y-71100000D02*
X130380000Y-71100000D01*
X133380000Y-71100000D02*
X133380000Y-71260000D01*
X133380000Y-73430000D02*
X133380000Y-73600000D01*
X133380000Y-73600000D02*
X130380000Y-73600000D01*
X133380000Y-73600000D02*
X130380000Y-73600000D01*
X132680000Y-72350000D02*
G75*
G02*
X131080000Y-72350000I-800000J0D01*
G01*
X131080000Y-72350000D02*
G75*
G02*
X132680000Y-72350000I800000J0D01*
G01*
D15*
X133910000Y-73600000D02*
G75*
G02*
X133850000Y-73600000I-30000J0D01*
G01*
X133850000Y-73600000D02*
G75*
G02*
X133910000Y-73600000I30000J0D01*
G01*
%TO.C,+*%
D13*
X88910000Y-72960000D02*
G75*
G02*
X86510000Y-72960000I-1200000J0D01*
G01*
X86510000Y-72960000D02*
G75*
G02*
X88910000Y-72960000I1200000J0D01*
G01*
%TO.C,R17*%
X128597500Y-48942742D02*
X128597500Y-49417258D01*
X129642500Y-48942742D02*
X129642500Y-49417258D01*
%TO.C,C5*%
X103732500Y-70819420D02*
X103732500Y-71100580D01*
X104752500Y-70819420D02*
X104752500Y-71100580D01*
%TO.C,D2*%
X104482500Y-59110000D02*
X104482500Y-60580000D01*
X104482500Y-60580000D02*
X106767500Y-60580000D01*
X106767500Y-59110000D02*
X104482500Y-59110000D01*
%TO.C,U7*%
X91720000Y-73210000D02*
X94940000Y-73210000D01*
X91720000Y-73410000D02*
X91720000Y-73210000D01*
X91720000Y-76430000D02*
X91720000Y-76230000D01*
X94940000Y-73210000D02*
X94940000Y-73410000D01*
X94940000Y-76230000D02*
X94940000Y-76430000D01*
X94940000Y-76430000D02*
X91720000Y-76430000D01*
X95490000Y-76230000D02*
X95730000Y-76560000D01*
X95250000Y-76560000D01*
X95490000Y-76230000D01*
G36*
X95730000Y-76560000D02*
G01*
X95250000Y-76560000D01*
X95490000Y-76230000D01*
X95730000Y-76560000D01*
G37*
%TO.C,R6*%
X88062742Y-50317500D02*
X88537258Y-50317500D01*
X88062742Y-51362500D02*
X88537258Y-51362500D01*
%TO.C,R3*%
X98757500Y-54782258D02*
X98757500Y-54307742D01*
X99802500Y-54782258D02*
X99802500Y-54307742D01*
%TO.C,JP3*%
X95592500Y-66960000D02*
X101092500Y-66960000D01*
X95592500Y-68910000D02*
X95592500Y-66960000D01*
X96642500Y-69460000D02*
X97242500Y-69460000D01*
X96942500Y-69160000D02*
X96642500Y-69460000D01*
X97242500Y-69460000D02*
X96942500Y-69160000D01*
X101092500Y-66960000D02*
X101092500Y-68910000D01*
X101092500Y-68910000D02*
X95592500Y-68910000D01*
%TO.C,R4*%
X107757500Y-57767258D02*
X107757500Y-57292742D01*
X108802500Y-57767258D02*
X108802500Y-57292742D01*
%TO.C,J4*%
D14*
X86760000Y-40160000D02*
X86760000Y-41280000D01*
X86760000Y-40160000D02*
X93260000Y-40160000D01*
X86760000Y-43550000D02*
X86760000Y-45540000D01*
X86760000Y-45540000D02*
X88380000Y-45540000D01*
X93260000Y-40160000D02*
X93260000Y-41280000D01*
X93260000Y-43550000D02*
X93260000Y-45560000D01*
X93260000Y-45560000D02*
X91660000Y-45560000D01*
D15*
X86790000Y-45920000D02*
G75*
G02*
X86730000Y-45920000I-30000J0D01*
G01*
X86730000Y-45920000D02*
G75*
G02*
X86790000Y-45920000I30000J0D01*
G01*
D14*
X88140000Y-46040000D02*
G75*
G02*
X87880000Y-46040000I-130000J0D01*
G01*
X87880000Y-46040000D02*
G75*
G02*
X88140000Y-46040000I130000J0D01*
G01*
%TO.C,C8*%
D13*
X118399420Y-83580000D02*
X118680580Y-83580000D01*
X118399420Y-84600000D02*
X118680580Y-84600000D01*
%TO.C,R16*%
X102887500Y-85522258D02*
X102887500Y-85047742D01*
X103932500Y-85522258D02*
X103932500Y-85047742D01*
%TO.C,R1*%
X105722742Y-54662500D02*
X106197258Y-54662500D01*
X105722742Y-55707500D02*
X106197258Y-55707500D01*
%TO.C,C14*%
X94990000Y-78049420D02*
X94990000Y-78330580D01*
X96010000Y-78049420D02*
X96010000Y-78330580D01*
%TO.C,J5*%
D14*
X101260000Y-40165000D02*
X101260000Y-41285000D01*
X101260000Y-40165000D02*
X107760000Y-40165000D01*
X101260000Y-43555000D02*
X101260000Y-45545000D01*
X101260000Y-45545000D02*
X102880000Y-45545000D01*
X107760000Y-40165000D02*
X107760000Y-41285000D01*
X107760000Y-43555000D02*
X107760000Y-45565000D01*
X107760000Y-45565000D02*
X106160000Y-45565000D01*
D15*
X101290000Y-45925000D02*
G75*
G02*
X101230000Y-45925000I-30000J0D01*
G01*
X101230000Y-45925000D02*
G75*
G02*
X101290000Y-45925000I30000J0D01*
G01*
D14*
X102640000Y-46045000D02*
G75*
G02*
X102380000Y-46045000I-130000J0D01*
G01*
X102380000Y-46045000D02*
G75*
G02*
X102640000Y-46045000I130000J0D01*
G01*
%TO.C,C6*%
D13*
X92670000Y-50619420D02*
X92670000Y-50900580D01*
X93690000Y-50619420D02*
X93690000Y-50900580D01*
%TO.C,U3*%
D16*
X94560000Y-48475000D02*
X96660000Y-48475000D01*
X94560000Y-50885000D02*
X96660000Y-50885000D01*
D17*
X93765000Y-48930000D02*
G75*
G02*
X93565000Y-48930000I-100000J0D01*
G01*
X93565000Y-48930000D02*
G75*
G02*
X93765000Y-48930000I100000J0D01*
G01*
%TO.C,J3*%
D14*
X85225000Y-82570000D02*
X86345000Y-82570000D01*
X85225000Y-89070000D02*
X85225000Y-82570000D01*
X85225000Y-89070000D02*
X86345000Y-89070000D01*
X88615000Y-82570000D02*
X90625000Y-82570000D01*
X88615000Y-89070000D02*
X90605000Y-89070000D01*
X90605000Y-89070000D02*
X90605000Y-87450000D01*
X90625000Y-82570000D02*
X90625000Y-84170000D01*
D15*
X91015000Y-89070000D02*
G75*
G02*
X90955000Y-89070000I-30000J0D01*
G01*
X90955000Y-89070000D02*
G75*
G02*
X91015000Y-89070000I30000J0D01*
G01*
D14*
X91235000Y-87820000D02*
G75*
G02*
X90975000Y-87820000I-130000J0D01*
G01*
X90975000Y-87820000D02*
G75*
G02*
X91235000Y-87820000I130000J0D01*
G01*
%TO.C,R9*%
D13*
X121187258Y-85777500D02*
X120712742Y-85777500D01*
X121187258Y-86822500D02*
X120712742Y-86822500D01*
%TO.C,J7*%
D14*
X126760000Y-40160000D02*
X126760000Y-41280000D01*
X126760000Y-40160000D02*
X133260000Y-40160000D01*
X126760000Y-43550000D02*
X126760000Y-45540000D01*
X126760000Y-45540000D02*
X128380000Y-45540000D01*
X133260000Y-40160000D02*
X133260000Y-41280000D01*
X133260000Y-43550000D02*
X133260000Y-45560000D01*
X133260000Y-45560000D02*
X131660000Y-45560000D01*
D15*
X126790000Y-45920000D02*
G75*
G02*
X126730000Y-45920000I-30000J0D01*
G01*
X126730000Y-45920000D02*
G75*
G02*
X126790000Y-45920000I30000J0D01*
G01*
D14*
X128140000Y-46040000D02*
G75*
G02*
X127880000Y-46040000I-130000J0D01*
G01*
X127880000Y-46040000D02*
G75*
G02*
X128140000Y-46040000I130000J0D01*
G01*
%TD*%
M02*
