%TF.GenerationSoftware,KiCad,Pcbnew,10.0.3*%
%TF.CreationDate,2026-07-16T14:01:45+10:00*%
%TF.ProjectId,TapType,54617054-7970-4652-9e6b-696361645f70,rev?*%
%TF.SameCoordinates,Original*%
%TF.FileFunction,Plated,1,4,PTH,Mixed*%
%TF.FilePolarity,Positive*%
%FSLAX46Y46*%
G04 Gerber Fmt 4.6, Leading zero omitted, Abs format (unit mm)*
G04 Created by KiCad (PCBNEW 10.0.3) date 2026-07-16 14:01:45*
%MOMM*%
%LPD*%
G01*
G04 APERTURE LIST*
%TA.AperFunction,ComponentDrill*%
%ADD10C,0.200000*%
%TD*%
%TA.AperFunction,ViaDrill*%
%ADD11C,0.300000*%
%TD*%
%TA.AperFunction,ComponentDrill*%
%ADD12C,0.650000*%
%TD*%
G04 aperture for slot hole*
%TA.AperFunction,ComponentDrill*%
%ADD13C,0.700024*%
%TD*%
%TA.AperFunction,ComponentDrill*%
%ADD14C,0.850000*%
%TD*%
%TA.AperFunction,ComponentDrill*%
%ADD15C,0.900024*%
%TD*%
G04 APERTURE END LIST*
D10*
%TO.C,U8*%
X124390000Y-58940000D03*
X124390000Y-60340000D03*
X125090000Y-58240000D03*
X125090000Y-59640000D03*
X125090000Y-61040000D03*
X125790000Y-58940000D03*
X125790000Y-60340000D03*
X126490000Y-58240000D03*
X126490000Y-59640000D03*
X126490000Y-61040000D03*
X127190000Y-58940000D03*
X127190000Y-60340000D03*
%TD*%
D11*
X87220000Y-49240000D03*
X87910000Y-45660000D03*
X89405000Y-86570000D03*
X89920000Y-76970000D03*
X89930000Y-78310000D03*
X90750000Y-44390000D03*
X91445000Y-83900000D03*
X92620000Y-74840000D03*
X93510000Y-61310000D03*
X94290000Y-78990000D03*
X94340000Y-52100000D03*
X94610000Y-51270000D03*
X95090000Y-60950000D03*
X95590000Y-51070000D03*
X95610000Y-48310000D03*
X97030000Y-71650000D03*
X97400000Y-60240000D03*
X98360000Y-72900000D03*
X98840000Y-48330000D03*
X99310000Y-52570000D03*
X100050000Y-49540000D03*
X100170000Y-51930000D03*
X100650000Y-63240000D03*
X102210000Y-89200000D03*
X102230000Y-56482500D03*
X102382500Y-69080000D03*
X102400000Y-45660000D03*
X102970000Y-47560000D03*
X102970000Y-49670000D03*
X103140000Y-71020000D03*
X103510000Y-59090000D03*
X103530000Y-60880000D03*
X103890000Y-54840000D03*
X104041027Y-57857500D03*
X104242500Y-68940000D03*
X104260000Y-47040000D03*
X104260000Y-49640000D03*
X104490000Y-52300000D03*
X105280000Y-44400000D03*
X105344265Y-81174265D03*
X105571472Y-75900000D03*
X106223190Y-54026810D03*
X107290000Y-75890000D03*
X108750000Y-84250000D03*
X109940000Y-76730000D03*
X110100000Y-68900000D03*
X110140000Y-59260000D03*
X110163174Y-84000000D03*
X110222738Y-80092738D03*
X112570000Y-61050000D03*
X112570000Y-66440000D03*
X112580000Y-52930000D03*
X112670000Y-59660000D03*
X113142040Y-57307453D03*
X113480000Y-79620000D03*
X113920000Y-53740000D03*
X113940000Y-63877500D03*
X115310000Y-50040000D03*
X116520000Y-82550000D03*
X116570000Y-84110000D03*
X116580000Y-81000000D03*
X116860000Y-50680000D03*
X117120000Y-49300000D03*
X117650000Y-45660000D03*
X117830000Y-72800000D03*
X119510000Y-46905000D03*
X119670000Y-78790000D03*
X119730000Y-85230000D03*
X120490000Y-44440000D03*
X122200000Y-79310000D03*
X122200000Y-80250000D03*
X122210000Y-78280000D03*
X123170000Y-74510000D03*
X123250000Y-78320000D03*
X123260000Y-79290000D03*
X123260000Y-80230000D03*
X124150000Y-84770000D03*
X124210000Y-79290000D03*
X124210000Y-80290000D03*
X124260000Y-78280000D03*
X124640000Y-73210000D03*
X124840000Y-75650000D03*
X124860000Y-87590000D03*
X125910000Y-74480000D03*
X126380000Y-71460000D03*
X127370000Y-50830000D03*
X127370000Y-53690000D03*
X127900000Y-45670000D03*
X129250000Y-73280000D03*
X130740000Y-47810000D03*
X130760000Y-44360000D03*
X131390000Y-47240000D03*
X131640000Y-68500000D03*
X131650000Y-71520000D03*
X132210000Y-47780000D03*
X132210000Y-54700000D03*
X132230000Y-53860000D03*
X132470000Y-72350000D03*
X132470000Y-75260000D03*
X133280000Y-53870000D03*
X133500000Y-68330000D03*
X133790000Y-47780000D03*
X134180000Y-53890000D03*
D12*
%TO.C,J2*%
X107060000Y-83535000D03*
X112840000Y-83535000D03*
D13*
X105630000Y-83554986D02*
X105630000Y-82555014D01*
X105630000Y-87584986D02*
X105630000Y-86885014D01*
X114270000Y-83554986D02*
X114270000Y-82555014D01*
X114270000Y-87584986D02*
X114270000Y-86885014D01*
D14*
%TO.C,S1*%
X86922500Y-54840000D03*
X86922500Y-57840000D03*
D15*
%TO.C,J1*%
X91447500Y-63997500D03*
X91447500Y-65997500D03*
M02*
