%TF.GenerationSoftware,KiCad,Pcbnew,10.0.3*%
%TF.CreationDate,2026-07-16T14:01:40+10:00*%
%TF.ProjectId,TapType,54617054-7970-4652-9e6b-696361645f70,rev?*%
%TF.SameCoordinates,Original*%
%TF.FileFunction,Copper,L1,Top*%
%TF.FilePolarity,Positive*%
%FSLAX46Y46*%
G04 Gerber Fmt 4.6, Leading zero omitted, Abs format (unit mm)*
G04 Created by KiCad (PCBNEW 10.0.3) date 2026-07-16 14:01:40*
%MOMM*%
%LPD*%
G01*
G04 APERTURE LIST*
G04 Aperture macros list*
%AMRoundRect*
0 Rectangle with rounded corners*
0 $1 Rounding radius*
0 $2 $3 $4 $5 $6 $7 $8 $9 X,Y pos of 4 corners*
0 Add a 4 corners polygon primitive as box body*
4,1,4,$2,$3,$4,$5,$6,$7,$8,$9,$2,$3,0*
0 Add four circle primitives for the rounded corners*
1,1,$1+$1,$2,$3*
1,1,$1+$1,$4,$5*
1,1,$1+$1,$6,$7*
1,1,$1+$1,$8,$9*
0 Add four rect primitives between the rounded corners*
20,1,$1+$1,$2,$3,$4,$5,0*
20,1,$1+$1,$4,$5,$6,$7,0*
20,1,$1+$1,$6,$7,$8,$9,0*
20,1,$1+$1,$8,$9,$2,$3,0*%
%AMFreePoly0*
4,1,6,1.000000,0.000000,0.500000,-0.750000,-0.500000,-0.750000,-0.500000,0.750000,0.500000,0.750000,1.000000,0.000000,1.000000,0.000000,$1*%
%AMFreePoly1*
4,1,7,0.700000,0.000000,1.200000,-0.750000,-1.200000,-0.750000,-0.700000,0.000000,-1.200000,0.750000,1.200000,0.750000,0.700000,0.000000,0.700000,0.000000,$1*%
%AMFreePoly2*
4,1,6,0.500000,-0.750000,-0.650000,-0.750000,-0.150000,0.000000,-0.650000,0.750000,0.500000,0.750000,0.500000,-0.750000,0.500000,-0.750000,$1*%
G04 Aperture macros list end*
%TA.AperFunction,WasherPad*%
%ADD10O,4.000000X2.000000*%
%TD*%
%TA.AperFunction,SMDPad,CuDef*%
%ADD11RoundRect,0.225000X0.250000X-0.225000X0.250000X0.225000X-0.250000X0.225000X-0.250000X-0.225000X0*%
%TD*%
%TA.AperFunction,SMDPad,CuDef*%
%ADD12RoundRect,0.200000X0.275000X-0.200000X0.275000X0.200000X-0.275000X0.200000X-0.275000X-0.200000X0*%
%TD*%
%TA.AperFunction,SMDPad,CuDef*%
%ADD13RoundRect,0.200000X-0.200000X-0.275000X0.200000X-0.275000X0.200000X0.275000X-0.200000X0.275000X0*%
%TD*%
%TA.AperFunction,SMDPad,CuDef*%
%ADD14RoundRect,0.200000X0.200000X0.275000X-0.200000X0.275000X-0.200000X-0.275000X0.200000X-0.275000X0*%
%TD*%
%TA.AperFunction,SMDPad,CuDef*%
%ADD15R,0.800000X1.700000*%
%TD*%
%TA.AperFunction,SMDPad,CuDef*%
%ADD16RoundRect,0.200000X-0.275000X0.200000X-0.275000X-0.200000X0.275000X-0.200000X0.275000X0.200000X0*%
%TD*%
%TA.AperFunction,SMDPad,CuDef*%
%ADD17FreePoly0,270.000000*%
%TD*%
%TA.AperFunction,SMDPad,CuDef*%
%ADD18FreePoly1,270.000000*%
%TD*%
%TA.AperFunction,SMDPad,CuDef*%
%ADD19FreePoly0,90.000000*%
%TD*%
%TA.AperFunction,SMDPad,CuDef*%
%ADD20RoundRect,0.225000X-0.250000X0.225000X-0.250000X-0.225000X0.250000X-0.225000X0.250000X0.225000X0*%
%TD*%
%TA.AperFunction,SMDPad,CuDef*%
%ADD21RoundRect,0.150000X0.587500X0.150000X-0.587500X0.150000X-0.587500X-0.150000X0.587500X-0.150000X0*%
%TD*%
%TA.AperFunction,SMDPad,CuDef*%
%ADD22RoundRect,0.150000X-0.512500X-0.150000X0.512500X-0.150000X0.512500X0.150000X-0.512500X0.150000X0*%
%TD*%
%TA.AperFunction,ComponentPad*%
%ADD23C,0.850000*%
%TD*%
%TA.AperFunction,SMDPad,CuDef*%
%ADD24R,2.000000X0.900000*%
%TD*%
%TA.AperFunction,SMDPad,CuDef*%
%ADD25R,0.930000X1.100000*%
%TD*%
%TA.AperFunction,SMDPad,CuDef*%
%ADD26RoundRect,0.218750X-0.256250X0.218750X-0.256250X-0.218750X0.256250X-0.218750X0.256250X0.218750X0*%
%TD*%
%TA.AperFunction,SMDPad,CuDef*%
%ADD27RoundRect,0.062500X-0.375000X-0.062500X0.375000X-0.062500X0.375000X0.062500X-0.375000X0.062500X0*%
%TD*%
%TA.AperFunction,SMDPad,CuDef*%
%ADD28RoundRect,0.062500X-0.062500X-0.375000X0.062500X-0.375000X0.062500X0.375000X-0.062500X0.375000X0*%
%TD*%
%TA.AperFunction,HeatsinkPad*%
%ADD29R,1.600000X1.600000*%
%TD*%
%TA.AperFunction,SMDPad,CuDef*%
%ADD30RoundRect,0.150000X0.150000X-0.587500X0.150000X0.587500X-0.150000X0.587500X-0.150000X-0.587500X0*%
%TD*%
%TA.AperFunction,SMDPad,CuDef*%
%ADD31R,0.300000X1.200000*%
%TD*%
%TA.AperFunction,SMDPad,CuDef*%
%ADD32R,2.000000X1.800000*%
%TD*%
%TA.AperFunction,SMDPad,CuDef*%
%ADD33R,1.220000X0.910000*%
%TD*%
%TA.AperFunction,SMDPad,CuDef*%
%ADD34RoundRect,0.218750X0.256250X-0.218750X0.256250X0.218750X-0.256250X0.218750X-0.256250X-0.218750X0*%
%TD*%
%TA.AperFunction,SMDPad,CuDef*%
%ADD35RoundRect,0.225000X-0.225000X-0.250000X0.225000X-0.250000X0.225000X0.250000X-0.225000X0.250000X0*%
%TD*%
%TA.AperFunction,SMDPad,CuDef*%
%ADD36FreePoly0,0.000000*%
%TD*%
%TA.AperFunction,SMDPad,CuDef*%
%ADD37FreePoly2,0.000000*%
%TD*%
%TA.AperFunction,SMDPad,CuDef*%
%ADD38RoundRect,0.093750X0.093750X-0.156250X0.093750X0.156250X-0.093750X0.156250X-0.093750X-0.156250X0*%
%TD*%
%TA.AperFunction,SMDPad,CuDef*%
%ADD39RoundRect,0.075000X0.075000X-0.250000X0.075000X0.250000X-0.075000X0.250000X-0.075000X-0.250000X0*%
%TD*%
%TA.AperFunction,SMDPad,CuDef*%
%ADD40RoundRect,0.225000X0.225000X0.250000X-0.225000X0.250000X-0.225000X-0.250000X0.225000X-0.250000X0*%
%TD*%
%TA.AperFunction,SMDPad,CuDef*%
%ADD41RoundRect,0.250000X-0.300000X-0.300000X0.300000X-0.300000X0.300000X0.300000X-0.300000X0.300000X0*%
%TD*%
%TA.AperFunction,SMDPad,CuDef*%
%ADD42RoundRect,0.218750X-0.218750X-0.256250X0.218750X-0.256250X0.218750X0.256250X-0.218750X0.256250X0*%
%TD*%
%TA.AperFunction,SMDPad,CuDef*%
%ADD43RoundRect,0.093750X0.156250X0.093750X-0.156250X0.093750X-0.156250X-0.093750X0.156250X-0.093750X0*%
%TD*%
%TA.AperFunction,SMDPad,CuDef*%
%ADD44RoundRect,0.075000X0.250000X0.075000X-0.250000X0.075000X-0.250000X-0.075000X0.250000X-0.075000X0*%
%TD*%
%TA.AperFunction,ComponentPad*%
%ADD45C,1.400000*%
%TD*%
%TA.AperFunction,SMDPad,CuDef*%
%ADD46C,2.000000*%
%TD*%
%TA.AperFunction,SMDPad,CuDef*%
%ADD47R,0.900000X1.500000*%
%TD*%
%TA.AperFunction,SMDPad,CuDef*%
%ADD48R,1.500000X0.900000*%
%TD*%
%TA.AperFunction,HeatsinkPad*%
%ADD49C,0.600000*%
%TD*%
%TA.AperFunction,HeatsinkPad*%
%ADD50R,3.900000X3.900000*%
%TD*%
%TA.AperFunction,ComponentPad*%
%ADD51C,0.650000*%
%TD*%
%TA.AperFunction,SMDPad,CuDef*%
%ADD52R,0.300000X1.150000*%
%TD*%
%TA.AperFunction,ComponentPad*%
%ADD53O,1.100000X2.100000*%
%TD*%
%TA.AperFunction,ComponentPad*%
%ADD54O,1.100000X1.800000*%
%TD*%
%TA.AperFunction,SMDPad,CuDef*%
%ADD55RoundRect,0.062500X-0.337500X-0.062500X0.337500X-0.062500X0.337500X0.062500X-0.337500X0.062500X0*%
%TD*%
%TA.AperFunction,SMDPad,CuDef*%
%ADD56RoundRect,0.062500X-0.062500X-0.337500X0.062500X-0.337500X0.062500X0.337500X-0.062500X0.337500X0*%
%TD*%
%TA.AperFunction,HeatsinkPad*%
%ADD57R,3.350000X3.350000*%
%TD*%
%TA.AperFunction,SMDPad,CuDef*%
%ADD58RoundRect,0.218750X0.218750X0.256250X-0.218750X0.256250X-0.218750X-0.256250X0.218750X-0.256250X0*%
%TD*%
%TA.AperFunction,SMDPad,CuDef*%
%ADD59RoundRect,0.075000X0.650000X0.075000X-0.650000X0.075000X-0.650000X-0.075000X0.650000X-0.075000X0*%
%TD*%
%TA.AperFunction,SMDPad,CuDef*%
%ADD60FreePoly1,0.000000*%
%TD*%
%TA.AperFunction,SMDPad,CuDef*%
%ADD61FreePoly0,180.000000*%
%TD*%
%TA.AperFunction,SMDPad,CuDef*%
%ADD62RoundRect,0.033750X-0.346250X-0.101250X0.346250X-0.101250X0.346250X0.101250X-0.346250X0.101250X0*%
%TD*%
%TA.AperFunction,SMDPad,CuDef*%
%ADD63R,0.900000X1.300000*%
%TD*%
%TA.AperFunction,SMDPad,CuDef*%
%ADD64R,1.200000X0.300000*%
%TD*%
%TA.AperFunction,SMDPad,CuDef*%
%ADD65R,1.800000X2.000000*%
%TD*%
%TA.AperFunction,ViaPad*%
%ADD66C,0.600000*%
%TD*%
%TA.AperFunction,Conductor*%
%ADD67C,0.200000*%
%TD*%
%TA.AperFunction,Conductor*%
%ADD68C,0.250000*%
%TD*%
%TA.AperFunction,Conductor*%
%ADD69C,0.150000*%
%TD*%
%TA.AperFunction,Conductor*%
%ADD70C,0.500000*%
%TD*%
%TA.AperFunction,Conductor*%
%ADD71C,0.149400*%
%TD*%
G04 APERTURE END LIST*
D10*
%TO.P,MOTOR_N_STRAIN_RELIEF1,*%
%TO.N,*%
X87740000Y-70215000D03*
%TD*%
D11*
%TO.P,C7,1*%
%TO.N,+3.3V*%
X120840000Y-84725000D03*
%TO.P,C7,2*%
%TO.N,GND*%
X120840000Y-83175000D03*
%TD*%
D12*
%TO.P,R2,1*%
%TO.N,Net-(U1-ISET)*%
X101420000Y-53575000D03*
%TO.P,R2,2*%
%TO.N,GND*%
X101420000Y-51925000D03*
%TD*%
D13*
%TO.P,R14,1*%
%TO.N,Net-(Q3-B)*%
X114630000Y-76325000D03*
%TO.P,R14,2*%
%TO.N,/RTS*%
X116280000Y-76325000D03*
%TD*%
D14*
%TO.P,R10,1*%
%TO.N,GND*%
X124825000Y-86310000D03*
%TO.P,R10,2*%
%TO.N,Net-(U5-VBUS)*%
X123175000Y-86310000D03*
%TD*%
D15*
%TO.P,RST,1,A_1*%
%TO.N,GND*%
X133600000Y-75260000D03*
%TO.P,RST,2,B_2*%
%TO.N,/EN*%
X130200000Y-75260000D03*
%TD*%
D10*
%TO.P,MOTOR_P_STRAIN_RELIEF1,*%
%TO.N,*%
X87720000Y-79660000D03*
%TD*%
D16*
%TO.P,R8,1*%
%TO.N,/ALERT*%
X113920000Y-61032500D03*
%TO.P,R8,2*%
%TO.N,+3.3V*%
X113920000Y-62682500D03*
%TD*%
D17*
%TO.P,JP2,1,A_1*%
%TO.N,GND*%
X99180000Y-60245000D03*
D18*
%TO.P,JP2,2,C_2*%
%TO.N,Net-(JP2-C)*%
X99180000Y-62245000D03*
D19*
%TO.P,JP2,3,B_3*%
%TO.N,VBUS*%
X99180000Y-64245000D03*
%TD*%
D20*
%TO.P,C9,1*%
%TO.N,+3.3V*%
X117780000Y-81005000D03*
%TO.P,C9,2*%
%TO.N,GND*%
X117780000Y-82555000D03*
%TD*%
D21*
%TO.P,Q1,1,G_1*%
%TO.N,Net-(D4-A)*%
X92900000Y-58040000D03*
%TO.P,Q1,2,S_2*%
%TO.N,V_BATT*%
X92900000Y-56140000D03*
%TO.P,Q1,3,D_3*%
%TO.N,Net-(D5-K)*%
X91025000Y-57090000D03*
%TD*%
D13*
%TO.P,R20,1*%
%TO.N,Net-(D7-A)*%
X111000000Y-50010000D03*
%TO.P,R20,2*%
%TO.N,Net-(U8-IO8)*%
X112650000Y-50010000D03*
%TD*%
D22*
%TO.P,U2,1,VIN_1*%
%TO.N,Net-(JP3-C)*%
X100105000Y-70110000D03*
%TO.P,U2,2,GND_2*%
%TO.N,GND*%
X100105000Y-71060000D03*
%TO.P,U2,3,EN_3*%
%TO.N,Net-(JP3-C)*%
X100105000Y-72010000D03*
%TO.P,U2,4,NC_4*%
%TO.N,unconnected-(U2-NC-Pad4)*%
X102380000Y-72010000D03*
%TO.P,U2,5,VOUT_5*%
%TO.N,+3.3V*%
X102380000Y-70110000D03*
%TD*%
D23*
%TO.P,S1,*%
%TO.N,*%
X86922500Y-54840000D03*
X86922500Y-57840000D03*
D24*
%TO.P,S1,1*%
%TO.N,unconnected-(S1-Pad1)*%
X88772500Y-54090000D03*
%TO.P,S1,2*%
%TO.N,Net-(D5-K)*%
X88772500Y-57090000D03*
%TO.P,S1,3*%
%TO.N,Net-(J1-Pin_1)*%
X88772500Y-58590000D03*
D25*
%TO.P,S1,4*%
%TO.N,N/C*%
X88062500Y-60140000D03*
%TO.P,S1,5*%
X85792500Y-60140000D03*
%TO.P,S1,6*%
X85792500Y-52540000D03*
%TO.P,S1,7*%
X88062500Y-52540000D03*
%TD*%
D26*
%TO.P,D3,1,K_1*%
%TO.N,GND*%
X85900000Y-49252500D03*
%TO.P,D3,2,A_2*%
%TO.N,Net-(D3-A)*%
X85900000Y-50827500D03*
%TD*%
D27*
%TO.P,U1,1,TS_1*%
%TO.N,Net-(U1-TS)*%
X100792500Y-55732500D03*
%TO.P,U1,2,BAT_2*%
%TO.N,V_BATT*%
X100792500Y-56232500D03*
%TO.P,U1,3,BAT_3*%
X100792500Y-56732500D03*
%TO.P,U1,4,~{CE}_4*%
%TO.N,GND*%
X100792500Y-57232500D03*
D28*
%TO.P,U1,5,EN2_5*%
%TO.N,Net-(JP2-C)*%
X101480000Y-57920000D03*
%TO.P,U1,6,EN1_6*%
%TO.N,Net-(JP1-C)*%
X101980000Y-57920000D03*
%TO.P,U1,7,~{PGOOD}_7*%
%TO.N,Net-(D1-K)*%
X102480000Y-57920000D03*
%TO.P,U1,8,VSS_8*%
%TO.N,GND*%
X102980000Y-57920000D03*
D27*
%TO.P,U1,9,~{CHG}_9*%
%TO.N,Net-(D2-K)*%
X103667500Y-57232500D03*
%TO.P,U1,10,OUT_10*%
%TO.N,VCC*%
X103667500Y-56732500D03*
%TO.P,U1,11,OUT_11*%
X103667500Y-56232500D03*
%TO.P,U1,12,ILIM_12*%
%TO.N,Net-(U1-ILIM)*%
X103667500Y-55732500D03*
D28*
%TO.P,U1,13,IN_13*%
%TO.N,VBUS*%
X102980000Y-55045000D03*
%TO.P,U1,14,TMR_14*%
%TO.N,unconnected-(U1-TMR-Pad14)*%
X102480000Y-55045000D03*
%TO.P,U1,15,ITERM_15*%
%TO.N,unconnected-(U1-ITERM-Pad15)*%
X101980000Y-55045000D03*
%TO.P,U1,16,ISET_16*%
%TO.N,Net-(U1-ISET)*%
X101480000Y-55045000D03*
D29*
%TO.P,U1,17,VSS_17*%
%TO.N,GND*%
X102230000Y-56482500D03*
%TD*%
D30*
%TO.P,Q3,1,B_1*%
%TO.N,Net-(Q3-B)*%
X114630000Y-74500000D03*
%TO.P,Q3,2,E_2*%
%TO.N,/DTR*%
X116530000Y-74500000D03*
%TO.P,Q3,3,C_3*%
%TO.N,/BOOT*%
X115580000Y-72625000D03*
%TD*%
D31*
%TO.P,J6,1,Pin_1_1*%
%TO.N,+3.3V*%
X118510000Y-45660000D03*
%TO.P,J6,2,Pin_2_2*%
%TO.N,/SDA*%
X119010000Y-45660000D03*
%TO.P,J6,3,Pin_3_3*%
%TO.N,/SCL*%
X119510000Y-45660000D03*
%TO.P,J6,4,Pin_4_4*%
%TO.N,/IMU4_SA0*%
X120010000Y-45660000D03*
%TO.P,J6,5,Pin_5_5*%
%TO.N,GND*%
X120510000Y-45660000D03*
%TO.P,J6,6,Pin_6_6*%
%TO.N,/IMU4_INT*%
X121010000Y-45660000D03*
D32*
%TO.P,J6,7*%
%TO.N,N/C*%
X122560000Y-42420000D03*
%TO.P,J6,8*%
X116960000Y-42420000D03*
%TD*%
D33*
%TO.P,D4,1,A_1*%
%TO.N,Net-(D4-A)*%
X97000000Y-57980000D03*
%TO.P,D4,2*%
%TO.N,N/C*%
X97000000Y-54700000D03*
%TD*%
D17*
%TO.P,JP1,1,A_1*%
%TO.N,GND*%
X102080000Y-60235000D03*
D18*
%TO.P,JP1,2,C_2*%
%TO.N,Net-(JP1-C)*%
X102080000Y-62235000D03*
D19*
%TO.P,JP1,3,B_3*%
%TO.N,VBUS*%
X102080000Y-64235000D03*
%TD*%
D20*
%TO.P,C4,1*%
%TO.N,VCC*%
X105180000Y-56745000D03*
%TO.P,C4,2*%
%TO.N,GND*%
X105180000Y-58295000D03*
%TD*%
D34*
%TO.P,D6,1,K_1*%
%TO.N,GND*%
X103420000Y-89137500D03*
%TO.P,D6,2,A_2*%
%TO.N,Net-(D6-A)*%
X103420000Y-87562500D03*
%TD*%
D35*
%TO.P,C16,1*%
%TO.N,+3.3V*%
X132220000Y-49000000D03*
%TO.P,C16,2*%
%TO.N,GND*%
X133770000Y-49000000D03*
%TD*%
D36*
%TO.P,JP4,1,A_1*%
%TO.N,Net-(D5-K)*%
X91150000Y-53940000D03*
D37*
%TO.P,JP4,2,B_2*%
%TO.N,V_BATT*%
X92600000Y-53940000D03*
%TD*%
D38*
%TO.P,U4,1,I/O1_1*%
%TO.N,/USB_DP*%
X109412500Y-80945000D03*
D39*
%TO.P,U4,2,GND_2*%
%TO.N,GND*%
X109950000Y-81020000D03*
D38*
%TO.P,U4,3,I/O2_3*%
%TO.N,/USB_DN*%
X110487500Y-80945000D03*
%TO.P,U4,4,I/O2_4*%
X110487500Y-79245000D03*
D39*
%TO.P,U4,5,VBUS_5*%
%TO.N,VBUS*%
X109950000Y-79170000D03*
D38*
%TO.P,U4,6,I/O1_6*%
%TO.N,/USB_DP*%
X109412500Y-79245000D03*
%TD*%
D40*
%TO.P,C11,1*%
%TO.N,GND*%
X118595000Y-71730000D03*
%TO.P,C11,2*%
%TO.N,/BOOT*%
X117045000Y-71730000D03*
%TD*%
D41*
%TO.P,D5,1,K_1*%
%TO.N,Net-(D5-K)*%
X90700000Y-60040000D03*
%TO.P,D5,2,A_2*%
%TO.N,GND*%
X93500000Y-60040000D03*
%TD*%
D35*
%TO.P,C15,1*%
%TO.N,+3.3V*%
X132225000Y-50570000D03*
%TO.P,C15,2*%
%TO.N,GND*%
X133775000Y-50570000D03*
%TD*%
D11*
%TO.P,C12,1*%
%TO.N,/EN*%
X130660000Y-50585000D03*
%TO.P,C12,2*%
%TO.N,GND*%
X130660000Y-49035000D03*
%TD*%
D20*
%TO.P,C13,1*%
%TO.N,+3.3V*%
X91100000Y-77375000D03*
%TO.P,C13,2*%
%TO.N,GND*%
X91100000Y-78925000D03*
%TD*%
%TO.P,C3,1*%
%TO.N,V_BATT*%
X99280000Y-56870000D03*
%TO.P,C3,2*%
%TO.N,GND*%
X99280000Y-58420000D03*
%TD*%
D16*
%TO.P,R11,1*%
%TO.N,Net-(U5-~{RST})*%
X122950000Y-83120000D03*
%TO.P,R11,2*%
%TO.N,+3.3V*%
X122950000Y-84770000D03*
%TD*%
D42*
%TO.P,D1,1,K_1*%
%TO.N,Net-(D1-K)*%
X105165000Y-61445000D03*
%TO.P,D1,2,A_2*%
%TO.N,Net-(D1-A)*%
X106740000Y-61445000D03*
%TD*%
D43*
%TO.P,U6,1,I/O1_1*%
%TO.N,/SDA*%
X112440000Y-57815000D03*
D44*
%TO.P,U6,2,GND_2*%
%TO.N,GND*%
X112515000Y-57277500D03*
D43*
%TO.P,U6,3,I/O2_3*%
%TO.N,/SCL*%
X112440000Y-56740000D03*
%TO.P,U6,4,I/O2_4*%
X110740000Y-56740000D03*
D44*
%TO.P,U6,5,VBUS_5*%
%TO.N,unconnected-(U6-VBUS-Pad5)*%
X110665000Y-57277500D03*
D43*
%TO.P,U6,6,I/O1_6*%
%TO.N,/SDA*%
X110740000Y-57815000D03*
%TD*%
D12*
%TO.P,R5,1*%
%TO.N,Net-(D2-A)*%
X106730000Y-58340000D03*
%TO.P,R5,2*%
%TO.N,VCC*%
X106730000Y-56690000D03*
%TD*%
D45*
%TO.P,J1,1,Pin_1_1*%
%TO.N,Net-(J1-Pin_1)*%
X91447500Y-63997500D03*
%TO.P,J1,2,Pin_2_2*%
%TO.N,GND*%
X91447500Y-65997500D03*
%TD*%
D12*
%TO.P,R18,1*%
%TO.N,/SCL*%
X113920000Y-56615000D03*
%TO.P,R18,2*%
%TO.N,+3.3V*%
X113920000Y-54965000D03*
%TD*%
D16*
%TO.P,R7,1*%
%TO.N,Net-(D4-A)*%
X95100000Y-58115000D03*
%TO.P,R7,2*%
%TO.N,GND*%
X95100000Y-59765000D03*
%TD*%
D14*
%TO.P,R12,1*%
%TO.N,GND*%
X113465000Y-80870000D03*
%TO.P,R12,2*%
%TO.N,Net-(J2-CC2)*%
X111815000Y-80870000D03*
%TD*%
D13*
%TO.P,R15,1*%
%TO.N,GND*%
X106470000Y-80860000D03*
%TO.P,R15,2*%
%TO.N,Net-(J2-CC1)*%
X108120000Y-80860000D03*
%TD*%
D46*
%TO.P,-,1,1_1*%
%TO.N,Net-(U7-OUT-)*%
X87760000Y-76860000D03*
%TD*%
D47*
%TO.P,U8,1,GND_1*%
%TO.N,GND*%
X133510000Y-52390000D03*
%TO.P,U8,2,3V3_2*%
%TO.N,+3.3V*%
X132240000Y-52390000D03*
%TO.P,U8,3,EN_3*%
%TO.N,/EN*%
X130970000Y-52390000D03*
%TO.P,U8,4,IO4_4*%
%TO.N,/IMU5_INT*%
X129700000Y-52390000D03*
%TO.P,U8,5,IO5_5*%
%TO.N,/IMU5_SA0*%
X128430000Y-52390000D03*
%TO.P,U8,6,IO6_6*%
%TO.N,/IMU4_INT*%
X127160000Y-52390000D03*
%TO.P,U8,7,IO7_7*%
%TO.N,/IMU4_SA0*%
X125890000Y-52390000D03*
%TO.P,U8,8,IO15_8*%
%TO.N,/IMU3_INT*%
X124620000Y-52390000D03*
%TO.P,U8,9,IO16_9*%
%TO.N,/IMU3_SA0*%
X123350000Y-52390000D03*
%TO.P,U8,10,IO17_10*%
%TO.N,/IMU2_INT*%
X122080000Y-52390000D03*
%TO.P,U8,11,IO18_11*%
%TO.N,/IMU2_SA0*%
X120810000Y-52390000D03*
%TO.P,U8,12,IO8_12*%
%TO.N,Net-(U8-IO8)*%
X119540000Y-52390000D03*
%TO.P,U8,13,USB_D-_13*%
%TO.N,unconnected-(U8-USB_D--Pad13)*%
X118270000Y-52390000D03*
%TO.P,U8,14,USB_D+_14*%
%TO.N,unconnected-(U8-USB_D+-Pad14)*%
X117000000Y-52390000D03*
D48*
%TO.P,U8,15,IO3_15*%
%TO.N,unconnected-(U8-IO3-Pad15)*%
X115750000Y-54155000D03*
%TO.P,U8,16,IO46_16*%
%TO.N,unconnected-(U8-IO46-Pad16)*%
X115750000Y-55425000D03*
%TO.P,U8,17,IO9_17*%
%TO.N,/SCL*%
X115750000Y-56695000D03*
%TO.P,U8,18,IO10_18*%
%TO.N,/SDA*%
X115750000Y-57965000D03*
%TO.P,U8,19,IO11_19*%
%TO.N,unconnected-(U8-IO11-Pad19)*%
X115750000Y-59235000D03*
%TO.P,U8,20,IO12_20*%
%TO.N,unconnected-(U8-IO12-Pad20)*%
X115750000Y-60505000D03*
%TO.P,U8,21,IO13_21*%
%TO.N,/ALERT*%
X115750000Y-61775000D03*
%TO.P,U8,22,IO14_22*%
%TO.N,unconnected-(U8-IO14-Pad22)*%
X115750000Y-63045000D03*
%TO.P,U8,23,IO21_23*%
%TO.N,/MOTOR_TRIG*%
X115750000Y-64315000D03*
%TO.P,U8,24,IO47_24*%
%TO.N,/IMU1_SA0*%
X115750000Y-65585000D03*
%TO.P,U8,25,IO48_25*%
%TO.N,/IMU1_INT*%
X115750000Y-66855000D03*
%TO.P,U8,26,IO45_26*%
%TO.N,unconnected-(U8-IO45-Pad26)*%
X115750000Y-68125000D03*
D47*
%TO.P,U8,27,IO0_27*%
%TO.N,/BOOT*%
X117000000Y-69890000D03*
%TO.P,U8,28,IO35_28*%
%TO.N,unconnected-(U8-IO35-Pad28)*%
X118270000Y-69890000D03*
%TO.P,U8,29,IO36_29*%
%TO.N,unconnected-(U8-IO36-Pad29)*%
X119540000Y-69890000D03*
%TO.P,U8,30,IO37_30*%
%TO.N,unconnected-(U8-IO37-Pad30)*%
X120810000Y-69890000D03*
%TO.P,U8,31,IO38_31*%
%TO.N,unconnected-(U8-IO38-Pad31)*%
X122080000Y-69890000D03*
%TO.P,U8,32,IO39_32*%
%TO.N,unconnected-(U8-IO39-Pad32)*%
X123350000Y-69890000D03*
%TO.P,U8,33,IO40_33*%
%TO.N,unconnected-(U8-IO40-Pad33)*%
X124620000Y-69890000D03*
%TO.P,U8,34,IO41_34*%
%TO.N,unconnected-(U8-IO41-Pad34)*%
X125890000Y-69890000D03*
%TO.P,U8,35,IO42_35*%
%TO.N,unconnected-(U8-IO42-Pad35)*%
X127160000Y-69890000D03*
%TO.P,U8,36,RXD0_36*%
%TO.N,/TXD*%
X128430000Y-69890000D03*
%TO.P,U8,37,TXD0_37*%
%TO.N,/RXD*%
X129700000Y-69890000D03*
%TO.P,U8,38,IO2_38*%
%TO.N,unconnected-(U8-IO2-Pad38)*%
X130970000Y-69890000D03*
%TO.P,U8,39,IO1_39*%
%TO.N,unconnected-(U8-IO1-Pad39)*%
X132240000Y-69890000D03*
%TO.P,U8,40,GND_40*%
%TO.N,GND*%
X133510000Y-69890000D03*
D49*
%TO.P,U8,41,GND_41*%
X126490000Y-58240000D03*
X125090000Y-58240000D03*
X127190000Y-58940000D03*
X125790000Y-58940000D03*
X124390000Y-58940000D03*
X126490000Y-59640000D03*
D50*
X125790000Y-59640000D03*
D49*
X125090000Y-59640000D03*
X127190000Y-60340000D03*
X125790000Y-60340000D03*
X124390000Y-60340000D03*
X126490000Y-61040000D03*
X125090000Y-61040000D03*
%TD*%
D51*
%TO.P,J2,*%
%TO.N,*%
X107060000Y-83535000D03*
X112840000Y-83535000D03*
D52*
%TO.P,J2,A1,GND_A1*%
%TO.N,GND*%
X106600000Y-82495000D03*
%TO.P,J2,A4,VBUS_A4*%
%TO.N,VBUS*%
X107400000Y-82495000D03*
%TO.P,J2,A5,CC1_A5*%
%TO.N,Net-(J2-CC1)*%
X108700000Y-82495000D03*
%TO.P,J2,A6,D+_A6*%
%TO.N,/USB_DP*%
X109700000Y-82495000D03*
%TO.P,J2,A7,D-_A7*%
%TO.N,/USB_DN*%
X110200000Y-82495000D03*
%TO.P,J2,A8,SBU1_A8*%
%TO.N,unconnected-(J2-SBU1-PadA8)*%
X111200000Y-82495000D03*
%TO.P,J2,A9,VBUS_A9*%
%TO.N,VBUS*%
X112500000Y-82495000D03*
%TO.P,J2,A12,GND_A12*%
%TO.N,GND*%
X113300000Y-82495000D03*
%TO.P,J2,B1,GND_B1*%
X113000000Y-82495000D03*
%TO.P,J2,B4,VBUS_B4*%
%TO.N,VBUS*%
X112200000Y-82495000D03*
%TO.P,J2,B5,CC2_B5*%
%TO.N,Net-(J2-CC2)*%
X111700000Y-82495000D03*
%TO.P,J2,B6,D+_B6*%
%TO.N,/USB_DP*%
X110700000Y-82495000D03*
%TO.P,J2,B7,D-_B7*%
%TO.N,/USB_DN*%
X109200000Y-82495000D03*
%TO.P,J2,B8,SBU2_B8*%
%TO.N,unconnected-(J2-SBU2-PadB8)*%
X108200000Y-82495000D03*
%TO.P,J2,B9,VBUS_B9*%
%TO.N,VBUS*%
X107700000Y-82495000D03*
%TO.P,J2,B12,GND_B12*%
%TO.N,GND*%
X106900000Y-82495000D03*
D53*
%TO.P,J2,S1*%
%TO.N,N/C*%
X105630000Y-83055000D03*
D54*
X105630000Y-87235000D03*
D53*
X114270000Y-83055000D03*
D54*
X114270000Y-87235000D03*
%TD*%
D20*
%TO.P,C2,1*%
%TO.N,Net-(JP3-C)*%
X98342500Y-70085000D03*
%TO.P,C2,2*%
%TO.N,GND*%
X98342500Y-71635000D03*
%TD*%
%TO.P,C10,1*%
%TO.N,+3.3V*%
X119330000Y-80995000D03*
%TO.P,C10,2*%
%TO.N,GND*%
X119330000Y-82545000D03*
%TD*%
D14*
%TO.P,R13,1*%
%TO.N,Net-(Q2-B)*%
X119405000Y-76325000D03*
%TO.P,R13,2*%
%TO.N,/DTR*%
X117755000Y-76325000D03*
%TD*%
D35*
%TO.P,C1,1*%
%TO.N,VBUS*%
X102955000Y-53500000D03*
%TO.P,C1,2*%
%TO.N,GND*%
X104505000Y-53500000D03*
%TD*%
D16*
%TO.P,R19,1*%
%TO.N,/SDA*%
X113920000Y-58000000D03*
%TO.P,R19,2*%
%TO.N,+3.3V*%
X113920000Y-59650000D03*
%TD*%
D30*
%TO.P,Q2,1,B_1*%
%TO.N,Net-(Q2-B)*%
X119090000Y-74507500D03*
%TO.P,Q2,2,E_2*%
%TO.N,/RTS*%
X120990000Y-74507500D03*
%TO.P,Q2,3,C_3*%
%TO.N,/EN*%
X120040000Y-72632500D03*
%TD*%
D55*
%TO.P,U5,1,~{DCD}_1*%
%TO.N,unconnected-(U5-~{DCD}-Pad1)*%
X120810000Y-77790000D03*
%TO.P,U5,2,~{RI}/CLK_2*%
%TO.N,unconnected-(U5-~{RI}{slash}CLK-Pad2)*%
X120810000Y-78290000D03*
%TO.P,U5,3,GND_3*%
%TO.N,GND*%
X120810000Y-78790000D03*
%TO.P,U5,4,D+_4*%
%TO.N,/USB_DP*%
X120810000Y-79290000D03*
%TO.P,U5,5,D-_5*%
%TO.N,/USB_DN*%
X120810000Y-79790000D03*
%TO.P,U5,6,VDD_6*%
%TO.N,+3.3V*%
X120810000Y-80290000D03*
%TO.P,U5,7,VREGIN_7*%
X120810000Y-80790000D03*
D56*
%TO.P,U5,8,VBUS_8*%
%TO.N,Net-(U5-VBUS)*%
X121760000Y-81740000D03*
%TO.P,U5,9,~{RST}_9*%
%TO.N,Net-(U5-~{RST})*%
X122260000Y-81740000D03*
%TO.P,U5,10,NC_10*%
%TO.N,unconnected-(U5-NC-Pad10)*%
X122760000Y-81740000D03*
%TO.P,U5,11,~{SUSPEND}_11*%
%TO.N,unconnected-(U5-~{SUSPEND}-Pad11)*%
X123260000Y-81740000D03*
%TO.P,U5,12,SUSPEND_12*%
%TO.N,unconnected-(U5-SUSPEND-Pad12)*%
X123760000Y-81740000D03*
%TO.P,U5,13,CHREN_13*%
%TO.N,unconnected-(U5-CHREN-Pad13)*%
X124260000Y-81740000D03*
%TO.P,U5,14,CHR1_14*%
%TO.N,unconnected-(U5-CHR1-Pad14)*%
X124760000Y-81740000D03*
D55*
%TO.P,U5,15,CHR0_15*%
%TO.N,unconnected-(U5-CHR0-Pad15)*%
X125710000Y-80790000D03*
%TO.P,U5,16,~{WAKEUP}/GPIO.3_16*%
%TO.N,unconnected-(U5-~{WAKEUP}{slash}GPIO.3-Pad16)*%
X125710000Y-80290000D03*
%TO.P,U5,17,RS485/GPIO.2_17*%
%TO.N,unconnected-(U5-RS485{slash}GPIO.2-Pad17)*%
X125710000Y-79790000D03*
%TO.P,U5,18,~{RXT}/GPIO.1_18*%
%TO.N,unconnected-(U5-~{RXT}{slash}GPIO.1-Pad18)*%
X125710000Y-79290000D03*
%TO.P,U5,19,~{TXT}/GPIO.0_19*%
%TO.N,unconnected-(U5-~{TXT}{slash}GPIO.0-Pad19)*%
X125710000Y-78790000D03*
%TO.P,U5,20,GPIO.6_20*%
%TO.N,unconnected-(U5-GPIO.6-Pad20)*%
X125710000Y-78290000D03*
%TO.P,U5,21,GPIO.5_21*%
%TO.N,unconnected-(U5-GPIO.5-Pad21)*%
X125710000Y-77790000D03*
D56*
%TO.P,U5,22,GPIO.4_22*%
%TO.N,unconnected-(U5-GPIO.4-Pad22)*%
X124760000Y-76840000D03*
%TO.P,U5,23,~{CTS}_23*%
%TO.N,unconnected-(U5-~{CTS}-Pad23)*%
X124260000Y-76840000D03*
%TO.P,U5,24,~{RTS}_24*%
%TO.N,/RTS*%
X123760000Y-76840000D03*
%TO.P,U5,25,RXD_25*%
%TO.N,/RXD*%
X123260000Y-76840000D03*
%TO.P,U5,26,TXD_26*%
%TO.N,/TXD*%
X122760000Y-76840000D03*
%TO.P,U5,27,~{DSR}_27*%
%TO.N,unconnected-(U5-~{DSR}-Pad27)*%
X122260000Y-76840000D03*
%TO.P,U5,28,~{DTR}_28*%
%TO.N,/DTR*%
X121760000Y-76840000D03*
D57*
%TO.P,U5,29,GND_29*%
%TO.N,GND*%
X123260000Y-79290000D03*
%TD*%
D58*
%TO.P,D7,1,K_1*%
%TO.N,GND*%
X112587500Y-51640000D03*
%TO.P,D7,2,A_2*%
%TO.N,Net-(D7-A)*%
X111012500Y-51640000D03*
%TD*%
D15*
%TO.P,BOOT,1,A_1*%
%TO.N,GND*%
X133580000Y-72350000D03*
%TO.P,BOOT,2,B_2*%
%TO.N,/BOOT*%
X130180000Y-72350000D03*
%TD*%
D46*
%TO.P,+,1,1_1*%
%TO.N,Net-(U7-OUT+)*%
X87710000Y-72960000D03*
%TD*%
D16*
%TO.P,R17,1*%
%TO.N,+3.3V*%
X129120000Y-48355000D03*
%TO.P,R17,2*%
%TO.N,/EN*%
X129120000Y-50005000D03*
%TD*%
D20*
%TO.P,C5,1*%
%TO.N,+3.3V*%
X104242500Y-70185000D03*
%TO.P,C5,2*%
%TO.N,GND*%
X104242500Y-71735000D03*
%TD*%
D42*
%TO.P,D2,1,K_1*%
%TO.N,Net-(D2-K)*%
X105180000Y-59845000D03*
%TO.P,D2,2,A_2*%
%TO.N,Net-(D2-A)*%
X106755000Y-59845000D03*
%TD*%
D59*
%TO.P,U7,1,REG_1*%
%TO.N,Net-(U7-REG)*%
X95480000Y-75820000D03*
%TO.P,U7,2,SCL_2*%
%TO.N,/SCL*%
X95480000Y-75320000D03*
%TO.P,U7,3,SDA_3*%
%TO.N,/SDA*%
X95480000Y-74820000D03*
%TO.P,U7,4,IN/TRIG_4*%
%TO.N,/MOTOR_TRIG*%
X95480000Y-74320000D03*
%TO.P,U7,5,EN_5*%
%TO.N,+3.3V*%
X95480000Y-73820000D03*
%TO.P,U7,6,VDD/NC_6*%
%TO.N,unconnected-(U7-VDD{slash}NC-Pad6)*%
X91180000Y-73820000D03*
%TO.P,U7,7,OUT+_7*%
%TO.N,Net-(U7-OUT+)*%
X91180000Y-74320000D03*
%TO.P,U7,8,GND_8*%
%TO.N,GND*%
X91180000Y-74820000D03*
%TO.P,U7,9,OUT-_9*%
%TO.N,Net-(U7-OUT-)*%
X91180000Y-75320000D03*
%TO.P,U7,10,VDD_10*%
%TO.N,+3.3V*%
X91180000Y-75820000D03*
%TD*%
D13*
%TO.P,R6,1*%
%TO.N,Net-(D3-A)*%
X87475000Y-50840000D03*
%TO.P,R6,2*%
%TO.N,V_BATT*%
X89125000Y-50840000D03*
%TD*%
D12*
%TO.P,R3,1*%
%TO.N,Net-(U1-TS)*%
X99280000Y-55370000D03*
%TO.P,R3,2*%
%TO.N,GND*%
X99280000Y-53720000D03*
%TD*%
D36*
%TO.P,JP3,1,A_1*%
%TO.N,V_BATT*%
X96342500Y-67960000D03*
D60*
%TO.P,JP3,2,C_2*%
%TO.N,Net-(JP3-C)*%
X98342500Y-67960000D03*
D61*
%TO.P,JP3,3,B_3*%
%TO.N,VCC*%
X100342500Y-67960000D03*
%TD*%
D12*
%TO.P,R4,1*%
%TO.N,Net-(D1-A)*%
X108280000Y-58355000D03*
%TO.P,R4,2*%
%TO.N,VCC*%
X108280000Y-56705000D03*
%TD*%
D31*
%TO.P,J4,1,Pin_1_1*%
%TO.N,+3.3V*%
X88760000Y-45660000D03*
%TO.P,J4,2,Pin_2_2*%
%TO.N,/SDA*%
X89260000Y-45660000D03*
%TO.P,J4,3,Pin_3_3*%
%TO.N,/SCL*%
X89760000Y-45660000D03*
%TO.P,J4,4,Pin_4_4*%
%TO.N,/IMU2_SA0*%
X90260000Y-45660000D03*
%TO.P,J4,5,Pin_5_5*%
%TO.N,GND*%
X90760000Y-45660000D03*
%TO.P,J4,6,Pin_6_6*%
%TO.N,/IMU2_INT*%
X91260000Y-45660000D03*
D32*
%TO.P,J4,7*%
%TO.N,N/C*%
X92810000Y-42420000D03*
%TO.P,J4,8*%
X87210000Y-42420000D03*
%TD*%
D35*
%TO.P,C8,1*%
%TO.N,+3.3V*%
X117765000Y-84090000D03*
%TO.P,C8,2*%
%TO.N,GND*%
X119315000Y-84090000D03*
%TD*%
D12*
%TO.P,R16,1*%
%TO.N,Net-(D6-A)*%
X103410000Y-86110000D03*
%TO.P,R16,2*%
%TO.N,VBUS*%
X103410000Y-84460000D03*
%TD*%
D13*
%TO.P,R1,1*%
%TO.N,Net-(U1-ILIM)*%
X105135000Y-55185000D03*
%TO.P,R1,2*%
%TO.N,GND*%
X106785000Y-55185000D03*
%TD*%
D20*
%TO.P,C14,1*%
%TO.N,Net-(U7-REG)*%
X95500000Y-77415000D03*
%TO.P,C14,2*%
%TO.N,GND*%
X95500000Y-78965000D03*
%TD*%
D31*
%TO.P,J5,1,Pin_1_1*%
%TO.N,+3.3V*%
X103260000Y-45665000D03*
%TO.P,J5,2,Pin_2_2*%
%TO.N,/SDA*%
X103760000Y-45665000D03*
%TO.P,J5,3,Pin_3_3*%
%TO.N,/SCL*%
X104260000Y-45665000D03*
%TO.P,J5,4,Pin_4_4*%
%TO.N,/IMU3_SA0*%
X104760000Y-45665000D03*
%TO.P,J5,5,Pin_5_5*%
%TO.N,GND*%
X105260000Y-45665000D03*
%TO.P,J5,6,Pin_6_6*%
%TO.N,/IMU3_INT*%
X105760000Y-45665000D03*
D32*
%TO.P,J5,7*%
%TO.N,N/C*%
X107310000Y-42425000D03*
%TO.P,J5,8*%
X101710000Y-42425000D03*
%TD*%
D20*
%TO.P,C6,1*%
%TO.N,V_BATT*%
X93180000Y-49985000D03*
%TO.P,C6,2*%
%TO.N,GND*%
X93180000Y-51535000D03*
%TD*%
D62*
%TO.P,U3,1,CTG_1*%
%TO.N,GND*%
X94625000Y-48930000D03*
%TO.P,U3,2,CELL_2*%
%TO.N,V_BATT*%
X94625000Y-49430000D03*
%TO.P,U3,3,VDD_3*%
X94625000Y-49930000D03*
%TO.P,U3,4,GND_4*%
%TO.N,GND*%
X94625000Y-50430000D03*
%TO.P,U3,5,~{ALERT}_5*%
%TO.N,/ALERT*%
X96595000Y-50430000D03*
%TO.P,U3,6,QSTRT_6*%
%TO.N,GND*%
X96595000Y-49930000D03*
%TO.P,U3,7,SCL_7*%
%TO.N,/SCL*%
X96595000Y-49430000D03*
%TO.P,U3,8,SDA_8*%
%TO.N,/SDA*%
X96595000Y-48930000D03*
D63*
%TO.P,U3,9,EP_9*%
%TO.N,GND*%
X95610000Y-49680000D03*
%TD*%
D64*
%TO.P,J3,1,Pin_1_1*%
%TO.N,/IMU1_INT*%
X90725000Y-87070000D03*
%TO.P,J3,2,Pin_2_2*%
%TO.N,GND*%
X90725000Y-86570000D03*
%TO.P,J3,3,Pin_3_3*%
%TO.N,/IMU1_SA0*%
X90725000Y-86070000D03*
%TO.P,J3,4,Pin_4_4*%
%TO.N,/SCL*%
X90725000Y-85570000D03*
%TO.P,J3,5,Pin_5_5*%
%TO.N,/SDA*%
X90725000Y-85070000D03*
%TO.P,J3,6,Pin_6_6*%
%TO.N,+3.3V*%
X90725000Y-84570000D03*
D65*
%TO.P,J3,7*%
%TO.N,N/C*%
X87485000Y-83020000D03*
%TO.P,J3,8*%
X87485000Y-88620000D03*
%TD*%
D14*
%TO.P,R9,1*%
%TO.N,Net-(U5-VBUS)*%
X121775000Y-86300000D03*
%TO.P,R9,2*%
%TO.N,VBUS*%
X120125000Y-86300000D03*
%TD*%
D31*
%TO.P,J7,1,Pin_1_1*%
%TO.N,+3.3V*%
X128760000Y-45660000D03*
%TO.P,J7,2,Pin_2_2*%
%TO.N,/SDA*%
X129260000Y-45660000D03*
%TO.P,J7,3,Pin_3_3*%
%TO.N,/SCL*%
X129760000Y-45660000D03*
%TO.P,J7,4,Pin_4_4*%
%TO.N,/IMU5_SA0*%
X130260000Y-45660000D03*
%TO.P,J7,5,Pin_5_5*%
%TO.N,GND*%
X130760000Y-45660000D03*
%TO.P,J7,6,Pin_6_6*%
%TO.N,/IMU5_INT*%
X131260000Y-45660000D03*
D32*
%TO.P,J7,7*%
%TO.N,N/C*%
X132810000Y-42420000D03*
%TO.P,J7,8*%
X127210000Y-42420000D03*
%TD*%
D66*
%TO.N,+3.3V*%
X87910000Y-45660000D03*
X119730000Y-85230000D03*
X132210000Y-54700000D03*
X124150000Y-84770000D03*
X104242500Y-68940000D03*
X91445000Y-83900000D03*
X132230000Y-53860000D03*
X89920000Y-76970000D03*
X102400000Y-45660000D03*
X112670000Y-59660000D03*
X116570000Y-84110000D03*
X102382500Y-69080000D03*
X117650000Y-45660000D03*
X116580000Y-81000000D03*
X113940000Y-63877500D03*
X132210000Y-47780000D03*
X127900000Y-45670000D03*
X113920000Y-53740000D03*
X130740000Y-47810000D03*
X133280000Y-53870000D03*
%TO.N,GND*%
X120490000Y-44440000D03*
X104490000Y-52300000D03*
X124210000Y-80290000D03*
X132470000Y-75260000D03*
X119670000Y-78790000D03*
X122200000Y-79310000D03*
X97400000Y-60240000D03*
X94340000Y-52100000D03*
X102230000Y-56482500D03*
X117830000Y-72800000D03*
X134180000Y-53890000D03*
X122200000Y-80250000D03*
X92620000Y-74840000D03*
X99310000Y-52570000D03*
X103530000Y-60880000D03*
X100170000Y-51930000D03*
X123260000Y-80230000D03*
X103510000Y-59090000D03*
X123250000Y-78320000D03*
X132470000Y-72350000D03*
X124860000Y-87590000D03*
X133500000Y-68330000D03*
X89405000Y-86570000D03*
X90750000Y-44390000D03*
X97030000Y-71650000D03*
X95090000Y-60950000D03*
X94290000Y-78990000D03*
X113480000Y-79620000D03*
X130760000Y-44360000D03*
X124260000Y-78280000D03*
X113142040Y-57307453D03*
X105280000Y-44400000D03*
X133790000Y-47780000D03*
X105344265Y-81174265D03*
X95610000Y-48310000D03*
X122210000Y-78280000D03*
X87220000Y-49240000D03*
X131390000Y-47240000D03*
X89930000Y-78310000D03*
X104041027Y-57857500D03*
X94610000Y-51270000D03*
X116520000Y-82550000D03*
X102210000Y-89200000D03*
X98360000Y-72900000D03*
X93510000Y-61310000D03*
X95590000Y-51070000D03*
X106223190Y-54026810D03*
X123260000Y-79290000D03*
X112580000Y-52930000D03*
X110222738Y-80092738D03*
X103140000Y-71020000D03*
X124210000Y-79290000D03*
%TO.N,/RTS*%
X124840000Y-75650000D03*
X123170000Y-74510000D03*
%TO.N,/EN*%
X131640000Y-68500000D03*
X125910000Y-74480000D03*
X131650000Y-71520000D03*
X124640000Y-73210000D03*
%TO.N,/ALERT*%
X110140000Y-59260000D03*
X112570000Y-61050000D03*
%TO.N,VBUS*%
X100650000Y-63240000D03*
X103890000Y-54840000D03*
X109940000Y-76730000D03*
%TO.N,Net-(U8-IO8)*%
X115310000Y-50040000D03*
X116860000Y-50680000D03*
%TO.N,/BOOT*%
X126380000Y-71460000D03*
X129250000Y-73280000D03*
%TO.N,/SDA*%
X102970000Y-47560000D03*
X102970000Y-49670000D03*
%TO.N,/SCL*%
X117120000Y-49300000D03*
X100050000Y-49540000D03*
X105571472Y-75900000D03*
X127370000Y-50830000D03*
X119510000Y-46905000D03*
X98840000Y-48330000D03*
X104260000Y-49640000D03*
X104260000Y-47040000D03*
X107290000Y-75890000D03*
X127370000Y-53690000D03*
%TO.N,/USB_DN*%
X108750000Y-84250000D03*
X110163174Y-84000000D03*
%TO.N,/MOTOR_TRIG*%
X110100000Y-68900000D03*
X112570000Y-66440000D03*
%TD*%
%TO.N,+3.3V*%
D67*
X91100000Y-77375000D02*
X90325000Y-77375000D01*
X120810000Y-80790000D02*
X120810000Y-80620000D01*
X88760000Y-45660000D02*
X87910000Y-45660000D01*
D68*
X132230000Y-54680000D02*
X132210000Y-54700000D01*
D67*
X127910000Y-45660000D02*
X127900000Y-45670000D01*
X104242500Y-70185000D02*
X104242500Y-68940000D01*
X117780000Y-81005000D02*
X116585000Y-81005000D01*
D68*
X91180000Y-75820000D02*
X92580000Y-75820000D01*
D67*
X113920000Y-54965000D02*
X113920000Y-53740000D01*
D69*
X90775000Y-84570000D02*
X91445000Y-83900000D01*
D67*
X132235000Y-47805000D02*
X132210000Y-47780000D01*
D70*
X132235000Y-49020000D02*
X132235000Y-47805000D01*
X132225000Y-50570000D02*
X132225000Y-49030000D01*
D67*
X120840000Y-84725000D02*
X120235000Y-84725000D01*
D69*
X90725000Y-84570000D02*
X90775000Y-84570000D01*
D68*
X133270000Y-53860000D02*
X133280000Y-53870000D01*
X92580000Y-75820000D02*
X94580000Y-73820000D01*
D67*
X116585000Y-81005000D02*
X116580000Y-81000000D01*
D68*
X132225000Y-49030000D02*
X132235000Y-49020000D01*
D67*
X117790000Y-80995000D02*
X117780000Y-81005000D01*
X120235000Y-84725000D02*
X119730000Y-85230000D01*
X122950000Y-84770000D02*
X124150000Y-84770000D01*
D70*
X132240000Y-52390000D02*
X132240000Y-50585000D01*
D67*
X90325000Y-77375000D02*
X89920000Y-76970000D01*
X103260000Y-45665000D02*
X102405000Y-45665000D01*
X129665000Y-47810000D02*
X130740000Y-47810000D01*
X117765000Y-84090000D02*
X116590000Y-84090000D01*
X128760000Y-45660000D02*
X127910000Y-45660000D01*
X116590000Y-84090000D02*
X116570000Y-84110000D01*
X120605000Y-80995000D02*
X120810000Y-80790000D01*
X112680000Y-59650000D02*
X112670000Y-59660000D01*
X113920000Y-62682500D02*
X113920000Y-63857500D01*
X91100000Y-77375000D02*
X91100000Y-75900000D01*
D70*
X132240000Y-52390000D02*
X132240000Y-53850000D01*
X132230000Y-53860000D02*
X132230000Y-54680000D01*
D68*
X132240000Y-50585000D02*
X132225000Y-50570000D01*
D67*
X120810000Y-80620000D02*
X120810000Y-80290000D01*
X113920000Y-59650000D02*
X112680000Y-59650000D01*
X102405000Y-45665000D02*
X102400000Y-45660000D01*
X129120000Y-48355000D02*
X129665000Y-47810000D01*
X118510000Y-45660000D02*
X117650000Y-45660000D01*
X119330000Y-80995000D02*
X120605000Y-80995000D01*
X120805000Y-80615000D02*
X120810000Y-80620000D01*
D70*
X132230000Y-53860000D02*
X133270000Y-53860000D01*
D67*
X119330000Y-80995000D02*
X117790000Y-80995000D01*
D68*
X94580000Y-73820000D02*
X95480000Y-73820000D01*
D67*
X102380000Y-70110000D02*
X102380000Y-69082500D01*
D68*
X132240000Y-53850000D02*
X132230000Y-53860000D01*
D67*
X120885000Y-84770000D02*
X120840000Y-84725000D01*
X91100000Y-75900000D02*
X91180000Y-75820000D01*
%TO.N,GND*%
X99180000Y-58520000D02*
X99280000Y-58420000D01*
X109950000Y-81020000D02*
X109950000Y-80365476D01*
D70*
X99180000Y-60245000D02*
X99180000Y-58520000D01*
X133775000Y-50570000D02*
X133775000Y-49030000D01*
X102080000Y-60235000D02*
X102885000Y-60235000D01*
D67*
X96595000Y-49930000D02*
X95860000Y-49930000D01*
D70*
X98342500Y-71635000D02*
X97045000Y-71635000D01*
D69*
X103420000Y-89137500D02*
X102272500Y-89137500D01*
D67*
X113112087Y-57277500D02*
X113142040Y-57307453D01*
X130660000Y-49035000D02*
X131390000Y-48305000D01*
X100175000Y-51925000D02*
X100170000Y-51930000D01*
X116525000Y-82555000D02*
X116520000Y-82550000D01*
X94625000Y-51255000D02*
X94610000Y-51270000D01*
X85900000Y-49252500D02*
X87207500Y-49252500D01*
X94625000Y-50430000D02*
X94625000Y-51255000D01*
D70*
X133510000Y-69890000D02*
X133510000Y-68340000D01*
D67*
X90760000Y-44400000D02*
X90750000Y-44390000D01*
X119315000Y-84090000D02*
X119315000Y-82560000D01*
X87207500Y-49252500D02*
X87220000Y-49240000D01*
D70*
X98342500Y-71635000D02*
X98342500Y-72882500D01*
D67*
X95610000Y-49494572D02*
X95610000Y-49680000D01*
D70*
X133785000Y-49020000D02*
X133785000Y-47785000D01*
D67*
X118595000Y-72035000D02*
X117830000Y-72800000D01*
D70*
X98917500Y-71060000D02*
X98342500Y-71635000D01*
D67*
X99280000Y-53720000D02*
X99280000Y-52600000D01*
X117790000Y-82545000D02*
X117780000Y-82555000D01*
X93500000Y-60040000D02*
X93500000Y-61300000D01*
X104478527Y-58295000D02*
X104041027Y-57857500D01*
X102980000Y-58560000D02*
X103510000Y-59090000D01*
X113300000Y-82495000D02*
X113300000Y-81035000D01*
X102905000Y-57157500D02*
X102230000Y-56482500D01*
X93180000Y-51535000D02*
X93775000Y-51535000D01*
D69*
X91100000Y-78925000D02*
X90545000Y-78925000D01*
D68*
X100792500Y-57232500D02*
X100467500Y-57232500D01*
D67*
X95100000Y-59765000D02*
X95100000Y-60940000D01*
D69*
X95500000Y-78965000D02*
X94315000Y-78965000D01*
D67*
X133600000Y-75260000D02*
X132470000Y-75260000D01*
X120230000Y-83175000D02*
X119315000Y-84090000D01*
X97405000Y-60245000D02*
X97400000Y-60240000D01*
D69*
X102272500Y-89137500D02*
X102210000Y-89200000D01*
D67*
X93500000Y-61300000D02*
X93510000Y-61310000D01*
X105180000Y-58295000D02*
X104478527Y-58295000D01*
X105260000Y-45665000D02*
X105260000Y-44420000D01*
X120510000Y-45660000D02*
X120510000Y-44460000D01*
X102980000Y-57920000D02*
X102905000Y-57845000D01*
X113300000Y-81035000D02*
X113465000Y-80870000D01*
X122760000Y-78790000D02*
X123260000Y-79290000D01*
X104505000Y-52315000D02*
X104490000Y-52300000D01*
X120810000Y-78790000D02*
X122760000Y-78790000D01*
X95610000Y-49865428D02*
X95610000Y-49680000D01*
X105658530Y-80860000D02*
X105344265Y-81174265D01*
D70*
X99180000Y-60245000D02*
X97405000Y-60245000D01*
D67*
X133785000Y-47785000D02*
X133790000Y-47780000D01*
X119960000Y-83175000D02*
X119330000Y-82545000D01*
X113465000Y-79635000D02*
X113480000Y-79620000D01*
X109950000Y-80365476D02*
X110222738Y-80092738D01*
X131390000Y-48305000D02*
X131390000Y-47240000D01*
D70*
X134180000Y-53060000D02*
X134180000Y-53890000D01*
D69*
X90725000Y-86570000D02*
X89405000Y-86570000D01*
D67*
X105260000Y-44420000D02*
X105280000Y-44400000D01*
X106785000Y-55185000D02*
X106785000Y-54588620D01*
X124825000Y-87555000D02*
X124860000Y-87590000D01*
X95860000Y-49930000D02*
X95610000Y-49680000D01*
X94625000Y-48930000D02*
X95045428Y-48930000D01*
D70*
X133510000Y-68340000D02*
X133500000Y-68330000D01*
D67*
X120510000Y-44460000D02*
X120490000Y-44440000D01*
X104505000Y-53500000D02*
X104505000Y-52315000D01*
D69*
X90545000Y-78925000D02*
X89930000Y-78310000D01*
D67*
X95610000Y-51050000D02*
X95590000Y-51070000D01*
D69*
X106600000Y-82495000D02*
X106600000Y-80990000D01*
D67*
X117780000Y-82555000D02*
X116525000Y-82555000D01*
X113465000Y-80870000D02*
X113465000Y-79635000D01*
X95100000Y-60940000D02*
X95090000Y-60950000D01*
D69*
X94315000Y-78965000D02*
X94290000Y-78990000D01*
D67*
X130760000Y-45660000D02*
X130760000Y-44360000D01*
X102905000Y-57845000D02*
X102905000Y-57157500D01*
X120810000Y-78790000D02*
X119670000Y-78790000D01*
D70*
X98342500Y-72882500D02*
X98360000Y-72900000D01*
D67*
X94625000Y-50430000D02*
X95045428Y-50430000D01*
X133580000Y-72350000D02*
X132470000Y-72350000D01*
D69*
X92600000Y-74820000D02*
X92620000Y-74840000D01*
D67*
X120840000Y-83175000D02*
X119960000Y-83175000D01*
D70*
X102885000Y-60235000D02*
X103530000Y-60880000D01*
D69*
X104242500Y-71735000D02*
X103855000Y-71735000D01*
D67*
X99280000Y-52600000D02*
X99310000Y-52570000D01*
D70*
X133775000Y-49030000D02*
X133785000Y-49020000D01*
X133510000Y-52390000D02*
X133510000Y-50835000D01*
D67*
X93775000Y-51535000D02*
X94340000Y-52100000D01*
D70*
X133510000Y-50835000D02*
X133775000Y-50570000D01*
D67*
X106785000Y-54588620D02*
X106223190Y-54026810D01*
X120840000Y-83175000D02*
X120230000Y-83175000D01*
D70*
X133510000Y-52390000D02*
X134180000Y-53060000D01*
D67*
X101420000Y-51925000D02*
X100175000Y-51925000D01*
X95610000Y-49680000D02*
X95610000Y-48310000D01*
X112587500Y-52922500D02*
X112580000Y-52930000D01*
X95610000Y-49680000D02*
X95610000Y-51050000D01*
D69*
X106600000Y-80990000D02*
X106470000Y-80860000D01*
D67*
X95045428Y-48930000D02*
X95610000Y-49494572D01*
D69*
X103855000Y-71735000D02*
X103140000Y-71020000D01*
D67*
X105658530Y-80860000D02*
X106470000Y-80860000D01*
D68*
X100467500Y-57232500D02*
X99280000Y-58420000D01*
D67*
X118595000Y-71730000D02*
X118595000Y-72035000D01*
D69*
X91180000Y-74820000D02*
X92600000Y-74820000D01*
D70*
X97045000Y-71635000D02*
X97030000Y-71650000D01*
D67*
X90760000Y-45660000D02*
X90760000Y-44400000D01*
X102980000Y-57920000D02*
X102980000Y-58560000D01*
X112515000Y-57277500D02*
X113112087Y-57277500D01*
X119315000Y-82560000D02*
X119330000Y-82545000D01*
X95045428Y-50430000D02*
X95610000Y-49865428D01*
D70*
X100105000Y-71060000D02*
X98917500Y-71060000D01*
D67*
X119330000Y-82545000D02*
X117790000Y-82545000D01*
X112587500Y-51640000D02*
X112587500Y-52922500D01*
X124825000Y-86310000D02*
X124825000Y-87555000D01*
%TO.N,Net-(U1-ISET)*%
X101480000Y-55045000D02*
X101480000Y-53635000D01*
X101480000Y-53635000D02*
X101420000Y-53575000D01*
%TO.N,Net-(Q3-B)*%
X114630000Y-76325000D02*
X114630000Y-74500000D01*
%TO.N,/RTS*%
X123760000Y-76840000D02*
X123760000Y-76425614D01*
X115720000Y-73931948D02*
X115720000Y-75765000D01*
X116231948Y-73420000D02*
X115720000Y-73931948D01*
X124535614Y-75650000D02*
X124840000Y-75650000D01*
X115720000Y-75765000D02*
X116280000Y-76325000D01*
X123167500Y-74507500D02*
X123170000Y-74510000D01*
X119380552Y-73420000D02*
X116231948Y-73420000D01*
X120990000Y-74507500D02*
X120468052Y-74507500D01*
X120468052Y-74507500D02*
X119380552Y-73420000D01*
X123760000Y-76425614D02*
X124535614Y-75650000D01*
X120990000Y-74507500D02*
X123167500Y-74507500D01*
%TO.N,Net-(U5-VBUS)*%
X121775000Y-81755000D02*
X121760000Y-81740000D01*
X121775000Y-86300000D02*
X123165000Y-86300000D01*
X123165000Y-86300000D02*
X123175000Y-86310000D01*
X121775000Y-86300000D02*
X121775000Y-81755000D01*
%TO.N,/EN*%
X130970000Y-50895000D02*
X130660000Y-50585000D01*
X130970000Y-52390000D02*
X130970000Y-50895000D01*
X129700000Y-50585000D02*
X129120000Y-50005000D01*
X126690000Y-75260000D02*
X125910000Y-74480000D01*
X124640000Y-73210000D02*
X124630000Y-73200000D01*
X120617500Y-73210000D02*
X124640000Y-73210000D01*
X130200000Y-75260000D02*
X131650000Y-73810000D01*
X130660000Y-50585000D02*
X129700000Y-50585000D01*
X120040000Y-72632500D02*
X120617500Y-73210000D01*
X131640000Y-68500000D02*
X130970000Y-67830000D01*
X131650000Y-73810000D02*
X131650000Y-71520000D01*
X130200000Y-75260000D02*
X126690000Y-75260000D01*
X130970000Y-67830000D02*
X130970000Y-52390000D01*
%TO.N,/ALERT*%
X115750000Y-61775000D02*
X114662500Y-61775000D01*
D69*
X104039554Y-51030000D02*
X109740000Y-56730446D01*
D67*
X113920000Y-61032500D02*
X112587500Y-61032500D01*
D69*
X109740000Y-56730446D02*
X109740000Y-58860000D01*
X97195000Y-51030000D02*
X104039554Y-51030000D01*
D67*
X114662500Y-61775000D02*
X113920000Y-61032500D01*
D69*
X96595000Y-50430000D02*
X97195000Y-51030000D01*
D67*
X115720000Y-61745000D02*
X115750000Y-61775000D01*
X112587500Y-61032500D02*
X112570000Y-61050000D01*
D69*
X109740000Y-58860000D02*
X110140000Y-59260000D01*
%TO.N,Net-(JP2-C)*%
D67*
X100340000Y-61085000D02*
X99180000Y-62245000D01*
X101480000Y-57920000D02*
X100340000Y-59060000D01*
X100340000Y-59060000D02*
X100340000Y-61085000D01*
%TO.N,VBUS*%
X109950000Y-76740000D02*
X109940000Y-76730000D01*
D68*
X103685000Y-55045000D02*
X103890000Y-54840000D01*
D67*
X103410000Y-84460000D02*
X104450000Y-85500000D01*
D68*
X102980000Y-55045000D02*
X102980000Y-53525000D01*
D67*
X112215000Y-82780000D02*
X112215000Y-83793883D01*
D70*
X102070000Y-64245000D02*
X102080000Y-64235000D01*
D67*
X113921117Y-85500000D02*
X114620000Y-85500000D01*
D70*
X100660000Y-64245000D02*
X102070000Y-64245000D01*
D67*
X120125000Y-86300000D02*
X115420000Y-86300000D01*
D70*
X100650000Y-63240000D02*
X100650000Y-64235000D01*
D68*
X107350000Y-80442352D02*
X107997352Y-79795000D01*
D70*
X99180000Y-64245000D02*
X100660000Y-64245000D01*
D67*
X100650000Y-64235000D02*
X100660000Y-64245000D01*
D68*
X107997352Y-79795000D02*
X109671946Y-79795000D01*
D67*
X112500000Y-82495000D02*
X112215000Y-82780000D01*
X105978884Y-85500000D02*
X113921117Y-85500000D01*
X102980000Y-53525000D02*
X102955000Y-53500000D01*
X105978884Y-85500000D02*
X107685000Y-83793884D01*
X113921117Y-85500000D02*
X114250000Y-85500000D01*
D68*
X107997352Y-78672648D02*
X107997352Y-79795000D01*
X109940000Y-76730000D02*
X107997352Y-78672648D01*
D67*
X107400000Y-82495000D02*
X107350000Y-82445000D01*
D68*
X102980000Y-55045000D02*
X103685000Y-55045000D01*
X109671946Y-79795000D02*
X109950000Y-79516946D01*
D67*
X119860000Y-86035000D02*
X120125000Y-86300000D01*
X107685000Y-82780000D02*
X107400000Y-82495000D01*
D68*
X107350000Y-82445000D02*
X107350000Y-80442352D01*
D67*
X107685000Y-83793884D02*
X107685000Y-82780000D01*
X115420000Y-86300000D02*
X114620000Y-85500000D01*
X104450000Y-85500000D02*
X105978884Y-85500000D01*
X112215000Y-83793883D02*
X113921117Y-85500000D01*
%TO.N,Net-(D4-A)*%
D70*
X96865000Y-58115000D02*
X97000000Y-57980000D01*
X95025000Y-58040000D02*
X95100000Y-58115000D01*
X92900000Y-58040000D02*
X95025000Y-58040000D01*
X95100000Y-58115000D02*
X96865000Y-58115000D01*
%TO.N,V_BATT*%
X98550000Y-56140000D02*
X99280000Y-56870000D01*
D68*
X92325000Y-51939052D02*
X92325000Y-50840000D01*
X98480000Y-58140000D02*
X98480000Y-57670000D01*
D70*
X92900000Y-54235097D02*
X92604903Y-53940000D01*
X89125000Y-50840000D02*
X92325000Y-50840000D01*
D67*
X99917500Y-56232500D02*
X99280000Y-56870000D01*
D70*
X92900000Y-56140000D02*
X98550000Y-56140000D01*
D67*
X94625000Y-49430000D02*
X93735000Y-49430000D01*
D68*
X92600000Y-53940000D02*
X92600000Y-52214052D01*
D67*
X100792500Y-56232500D02*
X99917500Y-56232500D01*
X99417500Y-56732500D02*
X99280000Y-56870000D01*
D70*
X92325000Y-50840000D02*
X93180000Y-49985000D01*
D68*
X98480000Y-57670000D02*
X99280000Y-56870000D01*
D67*
X93235000Y-49930000D02*
X93180000Y-49985000D01*
X100792500Y-56732500D02*
X99417500Y-56732500D01*
X94625000Y-49930000D02*
X93235000Y-49930000D01*
X93735000Y-49430000D02*
X93180000Y-49985000D01*
D68*
X96342500Y-60277500D02*
X98480000Y-58140000D01*
X92600000Y-52214052D02*
X92325000Y-51939052D01*
D70*
X92900000Y-56140000D02*
X92900000Y-54235097D01*
D68*
X96342500Y-67960000D02*
X96342500Y-60277500D01*
%TO.N,Net-(D5-K)*%
D70*
X91025000Y-57090000D02*
X88772500Y-57090000D01*
X90700000Y-57415000D02*
X91025000Y-57090000D01*
X91025000Y-57090000D02*
X91025000Y-54065000D01*
X91025000Y-54065000D02*
X91150000Y-53940000D01*
X90700000Y-60040000D02*
X90700000Y-57415000D01*
%TO.N,Net-(D7-A)*%
D67*
X111012500Y-51640000D02*
X111012500Y-50022500D01*
X111012500Y-50022500D02*
X111000000Y-50010000D01*
%TO.N,Net-(U8-IO8)*%
X119540000Y-52030000D02*
X119540000Y-52390000D01*
X115280000Y-50010000D02*
X115310000Y-50040000D01*
X118190000Y-50680000D02*
X119540000Y-52030000D01*
X112650000Y-50010000D02*
X115280000Y-50010000D01*
X116860000Y-50680000D02*
X118190000Y-50680000D01*
%TO.N,Net-(JP3-C)*%
D70*
X100670184Y-70110000D02*
X100105000Y-70110000D01*
X101217500Y-71462684D02*
X101217500Y-70657316D01*
X101217500Y-70657316D02*
X100670184Y-70110000D01*
X100670184Y-72010000D02*
X101217500Y-71462684D01*
X98367500Y-70110000D02*
X98342500Y-70085000D01*
X100105000Y-70110000D02*
X98367500Y-70110000D01*
X98342500Y-70085000D02*
X98342500Y-67960000D01*
X100105000Y-72010000D02*
X100670184Y-72010000D01*
%TO.N,Net-(J1-Pin_1)*%
X89240000Y-61790000D02*
X91447500Y-63997500D01*
X88772500Y-58590000D02*
X89240000Y-59057500D01*
X89240000Y-59057500D02*
X89240000Y-61790000D01*
%TO.N,Net-(D3-A)*%
X85900000Y-50827500D02*
X87462500Y-50827500D01*
X87462500Y-50827500D02*
X87475000Y-50840000D01*
%TO.N,Net-(U1-TS)*%
D67*
X99642500Y-55732500D02*
X99280000Y-55370000D01*
X100792500Y-55732500D02*
X99642500Y-55732500D01*
%TO.N,Net-(JP1-C)*%
X101980000Y-58500000D02*
X101025000Y-59455000D01*
X101980000Y-57920000D02*
X101980000Y-58500000D01*
X101025000Y-61180000D02*
X102080000Y-62235000D01*
X101025000Y-59455000D02*
X101025000Y-61180000D01*
%TO.N,Net-(D1-K)*%
X104971336Y-61445000D02*
X105165000Y-61445000D01*
X102480000Y-57920000D02*
X102480000Y-58953664D01*
X102480000Y-58953664D02*
X104971336Y-61445000D01*
%TO.N,Net-(D2-K)*%
X103405000Y-58070000D02*
X103405000Y-57495000D01*
X105180000Y-59845000D02*
X103405000Y-58070000D01*
X103405000Y-57495000D02*
X103667500Y-57232500D01*
%TO.N,VCC*%
X106675000Y-56745000D02*
X106730000Y-56690000D01*
X104667500Y-56232500D02*
X105180000Y-56745000D01*
X106730000Y-56690000D02*
X108265000Y-56690000D01*
D70*
X109205000Y-57630000D02*
X108280000Y-56705000D01*
X101651818Y-67960000D02*
X109205000Y-60406818D01*
X109205000Y-60406818D02*
X109205000Y-57630000D01*
D67*
X103667500Y-56232500D02*
X104667500Y-56232500D01*
X103667500Y-56732500D02*
X105167500Y-56732500D01*
X108265000Y-56690000D02*
X108280000Y-56705000D01*
X105180000Y-56745000D02*
X106675000Y-56745000D01*
X105167500Y-56732500D02*
X105180000Y-56745000D01*
D70*
X100342500Y-67960000D02*
X101651818Y-67960000D01*
%TO.N,Net-(U1-ILIM)*%
D67*
X103667500Y-55732500D02*
X104587500Y-55732500D01*
X104587500Y-55732500D02*
X105135000Y-55185000D01*
%TO.N,/DTR*%
X121500000Y-77100000D02*
X118530000Y-77100000D01*
X121760000Y-76840000D02*
X121500000Y-77100000D01*
X117755000Y-76325000D02*
X118530000Y-77100000D01*
X117755000Y-75725000D02*
X116530000Y-74500000D01*
X117755000Y-76325000D02*
X117755000Y-75725000D01*
%TO.N,/BOOT*%
X115580000Y-72625000D02*
X116150000Y-72625000D01*
X125860000Y-70940000D02*
X126380000Y-71460000D01*
X129250000Y-73280000D02*
X130180000Y-72350000D01*
X117045000Y-71730000D02*
X117835000Y-70940000D01*
X130150000Y-72320000D02*
X130180000Y-72350000D01*
X117045000Y-71730000D02*
X117045000Y-69935000D01*
X117835000Y-70940000D02*
X125860000Y-70940000D01*
X117045000Y-69935000D02*
X117000000Y-69890000D01*
X116150000Y-72625000D02*
X117045000Y-71730000D01*
%TO.N,/SDA*%
X110740000Y-57815000D02*
X110740000Y-71580000D01*
X105300000Y-48930000D02*
X111480000Y-55110000D01*
X128290000Y-43840000D02*
X119980000Y-43840000D01*
X103710000Y-48930000D02*
X105300000Y-48930000D01*
X110984910Y-57815000D02*
X110740000Y-57815000D01*
X129260000Y-45660000D02*
X129260000Y-44810000D01*
X129260000Y-44810000D02*
X128290000Y-43840000D01*
X97250001Y-85070000D02*
X107020000Y-75300000D01*
X102735000Y-43790000D02*
X90280000Y-43790000D01*
X113955000Y-57965000D02*
X113920000Y-58000000D01*
X119980000Y-43840000D02*
X119010000Y-44810000D01*
X104775000Y-43800000D02*
X103760000Y-44815000D01*
X119010000Y-45660000D02*
X119010000Y-44810000D01*
X98610000Y-74820000D02*
X95480000Y-74820000D01*
X103760000Y-45665000D02*
X103760000Y-44815000D01*
X115750000Y-57965000D02*
X113955000Y-57965000D01*
X112625000Y-58000000D02*
X112440000Y-57815000D01*
X102970000Y-47330000D02*
X102970000Y-47560000D01*
X103760000Y-45665000D02*
X103760000Y-46540000D01*
X107020000Y-75300000D02*
X99090000Y-75300000D01*
X111480000Y-57319910D02*
X110984910Y-57815000D01*
D71*
X95480000Y-74820000D02*
X95540000Y-74880000D01*
D67*
X103760000Y-46540000D02*
X102970000Y-47330000D01*
X90280000Y-43790000D02*
X89260000Y-44810000D01*
X113920000Y-58000000D02*
X112625000Y-58000000D01*
X96595000Y-48930000D02*
X103710000Y-48930000D01*
X99090000Y-75300000D02*
X98610000Y-74820000D01*
X111480000Y-55110000D02*
X111480000Y-57319910D01*
X90725000Y-85070000D02*
X97250001Y-85070000D01*
X103760000Y-44815000D02*
X102735000Y-43790000D01*
D71*
X95480000Y-74820000D02*
X95530000Y-74870000D01*
D67*
X118000000Y-43800000D02*
X104775000Y-43800000D01*
X110740000Y-71580000D02*
X107020000Y-75300000D01*
X89260000Y-44810000D02*
X89260000Y-45660000D01*
X119010000Y-44810000D02*
X118000000Y-43800000D01*
X102970000Y-49670000D02*
X103710000Y-48930000D01*
%TO.N,/SCL*%
X119510000Y-45660000D02*
X119510000Y-46905000D01*
X124365000Y-56695000D02*
X115750000Y-56695000D01*
X89760000Y-46490330D02*
X90979670Y-47710000D01*
X129760000Y-46510000D02*
X129710000Y-46560000D01*
X111890000Y-72200000D02*
X108200000Y-75890000D01*
X98250000Y-75320000D02*
X98830000Y-75900000D01*
X110740000Y-55540000D02*
X105610000Y-50410000D01*
X127370000Y-53690000D02*
X124365000Y-56695000D01*
X98220000Y-47710000D02*
X98840000Y-48330000D01*
X105030000Y-50410000D02*
X101040000Y-50410000D01*
X110740000Y-56740000D02*
X110740000Y-55540000D01*
X95480000Y-75320000D02*
X98250000Y-75320000D01*
X105610000Y-50410000D02*
X105030000Y-50410000D01*
X104260000Y-49640000D02*
X105030000Y-50410000D01*
X89760000Y-45660000D02*
X89760000Y-46490330D01*
X99540000Y-50410000D02*
X98560000Y-49430000D01*
X98500000Y-85570000D02*
X108180000Y-75890000D01*
X112190001Y-56740000D02*
X111890000Y-57040001D01*
X127370000Y-47927403D02*
X127370000Y-50830000D01*
X90725000Y-85570000D02*
X98500000Y-85570000D01*
X98830000Y-75900000D02*
X105571472Y-75900000D01*
X129710000Y-46560000D02*
X128737403Y-46560000D01*
X100920000Y-50410000D02*
X100050000Y-49540000D01*
X101040000Y-50410000D02*
X99540000Y-50410000D01*
X112440000Y-56740000D02*
X112190001Y-56740000D01*
X98560000Y-49430000D02*
X96595000Y-49430000D01*
X114000000Y-56695000D02*
X113920000Y-56615000D01*
X108180000Y-75890000D02*
X108200000Y-75890000D01*
X117120000Y-49300000D02*
X112440000Y-53980000D01*
X104260000Y-45665000D02*
X104260000Y-47040000D01*
X107290000Y-75890000D02*
X108200000Y-75890000D01*
X128737403Y-46560000D02*
X127370000Y-47927403D01*
X101040000Y-50410000D02*
X100920000Y-50410000D01*
X113920000Y-56615000D02*
X112565000Y-56615000D01*
D71*
X95480000Y-75320000D02*
X95555300Y-75395300D01*
D67*
X129760000Y-45660000D02*
X129760000Y-46510000D01*
X112565000Y-56615000D02*
X112440000Y-56740000D01*
X112440000Y-53980000D02*
X112440000Y-56740000D01*
X115750000Y-56695000D02*
X114000000Y-56695000D01*
X111890000Y-57040001D02*
X111890000Y-72200000D01*
X90979670Y-47710000D02*
X98220000Y-47710000D01*
%TO.N,/IMU4_SA0*%
D69*
X120010000Y-45660000D02*
X120010000Y-46460000D01*
X124550000Y-51000000D02*
X125400000Y-51000000D01*
X125400000Y-51000000D02*
X125890000Y-51490000D01*
X120010000Y-46030000D02*
X120085000Y-46105000D01*
X120010000Y-45660000D02*
X120010000Y-46030000D01*
X125890000Y-51490000D02*
X125890000Y-52390000D01*
X120010000Y-46460000D02*
X124550000Y-51000000D01*
%TO.N,/IMU4_INT*%
X127160000Y-51810000D02*
X127160000Y-52390000D01*
X121010000Y-45660000D02*
X127160000Y-51810000D01*
%TO.N,Net-(D6-A)*%
D67*
X103420000Y-86120000D02*
X103410000Y-86110000D01*
X103420000Y-87562500D02*
X103420000Y-86120000D01*
%TO.N,/USB_DP*%
D71*
X119431951Y-79364700D02*
X118637251Y-78570000D01*
X109425300Y-83793325D02*
X109625300Y-83593325D01*
X109625300Y-83593325D02*
X109625300Y-82569700D01*
X110000000Y-84750000D02*
X109425300Y-84175300D01*
X109425300Y-84175300D02*
X109425300Y-83793325D01*
X109775300Y-81666928D02*
X109412500Y-81304128D01*
X109700000Y-82495000D02*
X109775300Y-82419700D01*
X110750000Y-84225923D02*
X110225923Y-84750000D01*
X109775300Y-82419700D02*
X109775300Y-81666928D01*
X120735300Y-79364700D02*
X119431951Y-79364700D01*
X110225923Y-84750000D02*
X110000000Y-84750000D01*
X120810000Y-79290000D02*
X120735300Y-79364700D01*
X109728372Y-78570000D02*
X109412500Y-78885872D01*
X109412500Y-81304128D02*
X109412500Y-80945000D01*
X109625300Y-82569700D02*
X109700000Y-82495000D01*
X118637251Y-78570000D02*
X109728372Y-78570000D01*
X110750000Y-82545000D02*
X110750000Y-84225923D01*
X109412500Y-78885872D02*
X109412500Y-79245000D01*
X110700000Y-82495000D02*
X110750000Y-82545000D01*
%TO.N,/USB_DN*%
X110200000Y-82495000D02*
X110124700Y-82419700D01*
X110487500Y-81304128D02*
X110487500Y-80945000D01*
D67*
X110163174Y-82531826D02*
X110200000Y-82495000D01*
X109200000Y-82495000D02*
X109200000Y-83300000D01*
D71*
X120734100Y-79714100D02*
X120810000Y-79790000D01*
D67*
X109200000Y-83300000D02*
X108750000Y-83750000D01*
D71*
X110813100Y-78919400D02*
X118492525Y-78919400D01*
X110124700Y-81666928D02*
X110487500Y-81304128D01*
X120590574Y-79714100D02*
X120734100Y-79714100D01*
D67*
X108750000Y-83750000D02*
X108750000Y-84250000D01*
D71*
X110487500Y-79245000D02*
X110813100Y-78919400D01*
X119287225Y-79714100D02*
X120590574Y-79714100D01*
X118492525Y-78919400D02*
X119287225Y-79714100D01*
X110124700Y-82419700D02*
X110124700Y-81666928D01*
D67*
X109200000Y-82495000D02*
X109250000Y-82545000D01*
X110163174Y-84000000D02*
X110163174Y-82531826D01*
%TO.N,Net-(U5-~{RST})*%
X122950000Y-83120000D02*
X122260000Y-82430000D01*
X122260000Y-82430000D02*
X122260000Y-81740000D01*
%TO.N,Net-(D1-A)*%
X108280000Y-59905000D02*
X106740000Y-61445000D01*
X108280000Y-58355000D02*
X108280000Y-59905000D01*
%TO.N,Net-(D2-A)*%
X106755000Y-58365000D02*
X106730000Y-58340000D01*
X106755000Y-59845000D02*
X106755000Y-58365000D01*
%TO.N,Net-(J2-CC2)*%
X111700000Y-80985000D02*
X111815000Y-80870000D01*
X111700000Y-82495000D02*
X111700000Y-80985000D01*
%TO.N,Net-(J2-CC1)*%
X108700000Y-82495000D02*
X108700000Y-81440000D01*
X108700000Y-81440000D02*
X108120000Y-80860000D01*
%TO.N,Net-(U7-OUT-)*%
D68*
X87760000Y-76860000D02*
X89300000Y-75320000D01*
X89300000Y-75320000D02*
X91180000Y-75320000D01*
%TO.N,/IMU5_INT*%
D69*
X128942708Y-47380000D02*
X128370000Y-47952708D01*
X128370000Y-47952708D02*
X128370000Y-50580000D01*
X131260000Y-46460000D02*
X130340000Y-47380000D01*
X129700000Y-51910000D02*
X129700000Y-52390000D01*
X128370000Y-50580000D02*
X129700000Y-51910000D01*
X131260000Y-45660000D02*
X131260000Y-46460000D01*
X130340000Y-47380000D02*
X128942708Y-47380000D01*
%TO.N,/IMU5_SA0*%
X130260000Y-45660000D02*
X130260000Y-46560000D01*
X129790000Y-47030000D02*
X128797734Y-47030000D01*
X130260000Y-46560000D02*
X129790000Y-47030000D01*
X128797734Y-47030000D02*
X128020000Y-47807734D01*
X128020000Y-51980000D02*
X128430000Y-52390000D01*
X128020000Y-47807734D02*
X128020000Y-51980000D01*
%TO.N,/IMU3_INT*%
X124620000Y-52390000D02*
X124620000Y-51910000D01*
X124620000Y-51910000D02*
X120190000Y-47480000D01*
X107575000Y-47480000D02*
X105760000Y-45665000D01*
X120190000Y-47480000D02*
X107575000Y-47480000D01*
%TO.N,/IMU3_SA0*%
X123350000Y-51910000D02*
X119290000Y-47850000D01*
X123350000Y-52390000D02*
X123350000Y-51910000D01*
X119290000Y-47850000D02*
X106145000Y-47850000D01*
X104760000Y-46465000D02*
X104760000Y-45665000D01*
X106145000Y-47850000D02*
X104760000Y-46465000D01*
%TO.N,/IMU2_INT*%
X92410000Y-46810000D02*
X98990000Y-46810000D01*
X98990000Y-46810000D02*
X100385000Y-48205000D01*
X100385000Y-48205000D02*
X105600304Y-48205000D01*
X118800000Y-48210000D02*
X122080000Y-51490000D01*
X105600304Y-48205000D02*
X105605305Y-48210000D01*
X105605305Y-48210000D02*
X118800000Y-48210000D01*
X122080000Y-51490000D02*
X122080000Y-52390000D01*
X91260000Y-45660000D02*
X92410000Y-46810000D01*
%TO.N,/IMU2_SA0*%
X99975000Y-48555000D02*
X105455330Y-48555000D01*
X105460330Y-48560000D02*
X117880000Y-48560000D01*
X120810000Y-51490000D02*
X120810000Y-52390000D01*
X90260000Y-45660000D02*
X90260000Y-46460000D01*
X91040000Y-47240000D02*
X98660000Y-47240000D01*
X90260000Y-46460000D02*
X91040000Y-47240000D01*
X105455330Y-48555000D02*
X105460330Y-48560000D01*
X98660000Y-47240000D02*
X99975000Y-48555000D01*
X117880000Y-48560000D02*
X120810000Y-51490000D01*
%TO.N,/MOTOR_TRIG*%
X104680000Y-74320000D02*
X110100000Y-68900000D01*
X95480000Y-74320000D02*
X104680000Y-74320000D01*
X114695000Y-64315000D02*
X115750000Y-64315000D01*
X112570000Y-66440000D02*
X114695000Y-64315000D01*
%TO.N,/IMU1_SA0*%
D67*
X90725000Y-86070000D02*
X98790000Y-86070000D01*
X112890000Y-67495000D02*
X114800000Y-65585000D01*
X112890000Y-71970000D02*
X112890000Y-67495000D01*
X98790000Y-86070000D02*
X112890000Y-71970000D01*
X114800000Y-65585000D02*
X115750000Y-65585000D01*
%TO.N,/IMU1_INT*%
X113780000Y-68295000D02*
X115220000Y-66855000D01*
D71*
X115270600Y-66855000D02*
X115750000Y-66855000D01*
D67*
X90725000Y-87070000D02*
X98580000Y-87070000D01*
X115220000Y-66855000D02*
X115750000Y-66855000D01*
X113780000Y-71890000D02*
X113780000Y-68295000D01*
X113760000Y-71890000D02*
X113780000Y-71890000D01*
X98580000Y-87070000D02*
X113760000Y-71890000D01*
%TO.N,/TXD*%
X122760000Y-76840000D02*
X122760000Y-76040000D01*
X122760000Y-76040000D02*
X128430000Y-70370000D01*
X128430000Y-70370000D02*
X128430000Y-69890000D01*
%TO.N,/RXD*%
X129220000Y-71320000D02*
X128180000Y-71320000D01*
X128180000Y-71320000D02*
X123260000Y-76240000D01*
X123260000Y-76240000D02*
X123260000Y-76840000D01*
X129700000Y-70840000D02*
X129220000Y-71320000D01*
X129700000Y-69890000D02*
X129700000Y-70840000D01*
%TO.N,Net-(Q2-B)*%
X119405000Y-74822500D02*
X119090000Y-74507500D01*
X119405000Y-76325000D02*
X119405000Y-74822500D01*
%TO.N,Net-(U7-OUT+)*%
D68*
X87710000Y-72960000D02*
X89070000Y-74320000D01*
X89070000Y-74320000D02*
X91180000Y-74320000D01*
%TO.N,Net-(U7-REG)*%
D67*
X95500000Y-75840000D02*
X95480000Y-75820000D01*
X95500000Y-77415000D02*
X95500000Y-75840000D01*
%TD*%
M02*
