%TF.GenerationSoftware,KiCad,Pcbnew,10.0.3*%
%TF.CreationDate,2026-07-16T14:01:40+10:00*%
%TF.ProjectId,TapType,54617054-7970-4652-9e6b-696361645f70,rev?*%
%TF.SameCoordinates,Original*%
%TF.FileFunction,Copper,L3,Inr*%
%TF.FilePolarity,Positive*%
%FSLAX46Y46*%
G04 Gerber Fmt 4.6, Leading zero omitted, Abs format (unit mm)*
G04 Created by KiCad (PCBNEW 10.0.3) date 2026-07-16 14:01:40*
%MOMM*%
%LPD*%
G01*
G04 APERTURE LIST*
%TA.AperFunction,WasherPad*%
%ADD10O,4.000000X2.000000*%
%TD*%
%TA.AperFunction,ComponentPad*%
%ADD11C,0.850000*%
%TD*%
%TA.AperFunction,ComponentPad*%
%ADD12C,1.400000*%
%TD*%
%TA.AperFunction,HeatsinkPad*%
%ADD13C,0.600000*%
%TD*%
%TA.AperFunction,ComponentPad*%
%ADD14C,0.650000*%
%TD*%
%TA.AperFunction,ComponentPad*%
%ADD15O,1.100000X2.100000*%
%TD*%
%TA.AperFunction,ComponentPad*%
%ADD16O,1.100000X1.800000*%
%TD*%
%TA.AperFunction,ViaPad*%
%ADD17C,0.600000*%
%TD*%
G04 APERTURE END LIST*
D10*
%TO.N,*%
%TO.C,MOTOR_N_STRAIN_RELIEF1*%
X87740000Y-70215000D03*
%TD*%
%TO.N,*%
%TO.C,MOTOR_P_STRAIN_RELIEF1*%
X87720000Y-79660000D03*
%TD*%
D11*
%TO.N,*%
%TO.C,S1*%
X86922500Y-54840000D03*
X86922500Y-57840000D03*
%TD*%
D12*
%TO.N,Net-(J1-Pin_1)*%
%TO.C,J1*%
X91447500Y-63997500D03*
%TO.N,GND*%
X91447500Y-65997500D03*
%TD*%
D13*
%TO.N,GND*%
%TO.C,U8*%
X126490000Y-58240000D03*
X125090000Y-58240000D03*
X127190000Y-58940000D03*
X125790000Y-58940000D03*
X124390000Y-58940000D03*
X126490000Y-59640000D03*
X125090000Y-59640000D03*
X127190000Y-60340000D03*
X125790000Y-60340000D03*
X124390000Y-60340000D03*
X126490000Y-61040000D03*
X125090000Y-61040000D03*
%TD*%
D14*
%TO.N,*%
%TO.C,J2*%
X107060000Y-83535000D03*
X112840000Y-83535000D03*
D15*
%TO.N,N/C*%
X105630000Y-83055000D03*
D16*
X105630000Y-87235000D03*
D15*
X114270000Y-83055000D03*
D16*
X114270000Y-87235000D03*
%TD*%
D17*
%TO.N,+3.3V*%
X87910000Y-45660000D03*
X119730000Y-85230000D03*
X132210000Y-54700000D03*
X124150000Y-84770000D03*
X104242500Y-68940000D03*
X91445000Y-83900000D03*
X132230000Y-53860000D03*
X89920000Y-76970000D03*
X102400000Y-45660000D03*
X112670000Y-59660000D03*
X116570000Y-84110000D03*
X102382500Y-69080000D03*
X117650000Y-45660000D03*
X116580000Y-81000000D03*
X113940000Y-63877500D03*
X132210000Y-47780000D03*
X127900000Y-45670000D03*
X113920000Y-53740000D03*
X130740000Y-47810000D03*
X133280000Y-53870000D03*
%TO.N,GND*%
X120490000Y-44440000D03*
X104490000Y-52300000D03*
X124210000Y-80290000D03*
X132470000Y-75260000D03*
X119670000Y-78790000D03*
X122200000Y-79310000D03*
X97400000Y-60240000D03*
X94340000Y-52100000D03*
X102230000Y-56482500D03*
X117830000Y-72800000D03*
X134180000Y-53890000D03*
X122200000Y-80250000D03*
X92620000Y-74840000D03*
X99310000Y-52570000D03*
X103530000Y-60880000D03*
X100170000Y-51930000D03*
X123260000Y-80230000D03*
X103510000Y-59090000D03*
X123250000Y-78320000D03*
X132470000Y-72350000D03*
X124860000Y-87590000D03*
X133500000Y-68330000D03*
X89405000Y-86570000D03*
X90750000Y-44390000D03*
X97030000Y-71650000D03*
X95090000Y-60950000D03*
X94290000Y-78990000D03*
X113480000Y-79620000D03*
X130760000Y-44360000D03*
X124260000Y-78280000D03*
X113142040Y-57307453D03*
X105280000Y-44400000D03*
X133790000Y-47780000D03*
X105344265Y-81174265D03*
X95610000Y-48310000D03*
X122210000Y-78280000D03*
X87220000Y-49240000D03*
X131390000Y-47240000D03*
X89930000Y-78310000D03*
X104041027Y-57857500D03*
X94610000Y-51270000D03*
X116520000Y-82550000D03*
X102210000Y-89200000D03*
X98360000Y-72900000D03*
X93510000Y-61310000D03*
X95590000Y-51070000D03*
X106223190Y-54026810D03*
X123260000Y-79290000D03*
X112580000Y-52930000D03*
X110222738Y-80092738D03*
X103140000Y-71020000D03*
X124210000Y-79290000D03*
%TO.N,/RTS*%
X124840000Y-75650000D03*
X123170000Y-74510000D03*
%TO.N,/EN*%
X131640000Y-68500000D03*
X125910000Y-74480000D03*
X131650000Y-71520000D03*
X124640000Y-73210000D03*
%TO.N,/ALERT*%
X110140000Y-59260000D03*
X112570000Y-61050000D03*
%TO.N,VBUS*%
X100650000Y-63240000D03*
X103890000Y-54840000D03*
X109940000Y-76730000D03*
%TO.N,Net-(U8-IO8)*%
X115310000Y-50040000D03*
X116860000Y-50680000D03*
%TO.N,/BOOT*%
X126380000Y-71460000D03*
X129250000Y-73280000D03*
%TO.N,/SDA*%
X102970000Y-47560000D03*
X102970000Y-49670000D03*
%TO.N,/SCL*%
X117120000Y-49300000D03*
X100050000Y-49540000D03*
X105571472Y-75900000D03*
X127370000Y-50830000D03*
X119510000Y-46905000D03*
X98840000Y-48330000D03*
X104260000Y-49640000D03*
X104260000Y-47040000D03*
X107290000Y-75890000D03*
X127370000Y-53690000D03*
%TO.N,/USB_DN*%
X108750000Y-84250000D03*
X110163174Y-84000000D03*
%TO.N,/MOTOR_TRIG*%
X110100000Y-68900000D03*
X112570000Y-66440000D03*
%TD*%
%TA.AperFunction,Conductor*%
%TO.N,+3.3V*%
G36*
X134642539Y-40320185D02*
G01*
X134688294Y-40372989D01*
X134699500Y-40424500D01*
X134699500Y-47291526D01*
X134679815Y-47358565D01*
X134627011Y-47404320D01*
X134557853Y-47414264D01*
X134494297Y-47385239D01*
X134472398Y-47360417D01*
X134411789Y-47269711D01*
X134411786Y-47269707D01*
X134300292Y-47158213D01*
X134300288Y-47158210D01*
X134169185Y-47070609D01*
X134169172Y-47070602D01*
X134023501Y-47010264D01*
X134023489Y-47010261D01*
X133868845Y-46979500D01*
X133868842Y-46979500D01*
X133711158Y-46979500D01*
X133711155Y-46979500D01*
X133556510Y-47010261D01*
X133556498Y-47010264D01*
X133410827Y-47070602D01*
X133410814Y-47070609D01*
X133279711Y-47158210D01*
X133279707Y-47158213D01*
X133168213Y-47269707D01*
X133168210Y-47269711D01*
X133080609Y-47400814D01*
X133080602Y-47400827D01*
X133020264Y-47546498D01*
X133020261Y-47546510D01*
X132989500Y-47701153D01*
X132989500Y-47858846D01*
X133020261Y-48013489D01*
X133020264Y-48013501D01*
X133080602Y-48159172D01*
X133080609Y-48159185D01*
X133168210Y-48290288D01*
X133168213Y-48290292D01*
X133279707Y-48401786D01*
X133279711Y-48401789D01*
X133410814Y-48489390D01*
X133410827Y-48489397D01*
X133541419Y-48543489D01*
X133556503Y-48549737D01*
X133711153Y-48580499D01*
X133711156Y-48580500D01*
X133711158Y-48580500D01*
X133868844Y-48580500D01*
X133868845Y-48580499D01*
X134023497Y-48549737D01*
X134169179Y-48489394D01*
X134300289Y-48401789D01*
X134411789Y-48290289D01*
X134451301Y-48231155D01*
X134472398Y-48199582D01*
X134526010Y-48154777D01*
X134595335Y-48146070D01*
X134658363Y-48176224D01*
X134695082Y-48235668D01*
X134699500Y-48268473D01*
X134699500Y-53053149D01*
X134679815Y-53120188D01*
X134627011Y-53165943D01*
X134557853Y-53175887D01*
X134528048Y-53167711D01*
X134508827Y-53159750D01*
X134413497Y-53120263D01*
X134413492Y-53120262D01*
X134413489Y-53120261D01*
X134258845Y-53089500D01*
X134258842Y-53089500D01*
X134101158Y-53089500D01*
X134101155Y-53089500D01*
X133946510Y-53120261D01*
X133946498Y-53120264D01*
X133800827Y-53180602D01*
X133800814Y-53180609D01*
X133669711Y-53268210D01*
X133669707Y-53268213D01*
X133558213Y-53379707D01*
X133558210Y-53379711D01*
X133470609Y-53510814D01*
X133470602Y-53510827D01*
X133410264Y-53656498D01*
X133410261Y-53656510D01*
X133379500Y-53811153D01*
X133379500Y-53968846D01*
X133410261Y-54123489D01*
X133410264Y-54123501D01*
X133470602Y-54269172D01*
X133470609Y-54269185D01*
X133558210Y-54400288D01*
X133558213Y-54400292D01*
X133669707Y-54511786D01*
X133669711Y-54511789D01*
X133800814Y-54599390D01*
X133800827Y-54599397D01*
X133919606Y-54648596D01*
X133946503Y-54659737D01*
X134101153Y-54690499D01*
X134101156Y-54690500D01*
X134101158Y-54690500D01*
X134258844Y-54690500D01*
X134258845Y-54690499D01*
X134413497Y-54659737D01*
X134483807Y-54630613D01*
X134528048Y-54612289D01*
X134597517Y-54604820D01*
X134659996Y-54636095D01*
X134695648Y-54696184D01*
X134699500Y-54726850D01*
X134699500Y-89575500D01*
X134679815Y-89642539D01*
X134627011Y-89688294D01*
X134575500Y-89699500D01*
X103055134Y-89699500D01*
X102988095Y-89679815D01*
X102942340Y-89627011D01*
X102932396Y-89557853D01*
X102940573Y-89528047D01*
X102979737Y-89433497D01*
X103010500Y-89278842D01*
X103010500Y-89121158D01*
X103010500Y-89121155D01*
X103010499Y-89121153D01*
X102979738Y-88966510D01*
X102979737Y-88966503D01*
X102979735Y-88966498D01*
X102919397Y-88820827D01*
X102919390Y-88820814D01*
X102831789Y-88689711D01*
X102831786Y-88689707D01*
X102720292Y-88578213D01*
X102720288Y-88578210D01*
X102589185Y-88490609D01*
X102589172Y-88490602D01*
X102443501Y-88430264D01*
X102443489Y-88430261D01*
X102288845Y-88399500D01*
X102288842Y-88399500D01*
X102131158Y-88399500D01*
X102131155Y-88399500D01*
X101976510Y-88430261D01*
X101976498Y-88430264D01*
X101830827Y-88490602D01*
X101830814Y-88490609D01*
X101699711Y-88578210D01*
X101699707Y-88578213D01*
X101588213Y-88689707D01*
X101588210Y-88689711D01*
X101500609Y-88820814D01*
X101500602Y-88820827D01*
X101440264Y-88966498D01*
X101440261Y-88966510D01*
X101409500Y-89121153D01*
X101409500Y-89278846D01*
X101440261Y-89433489D01*
X101440263Y-89433497D01*
X101479427Y-89528047D01*
X101486896Y-89597517D01*
X101455621Y-89659996D01*
X101395532Y-89695648D01*
X101364866Y-89699500D01*
X85424500Y-89699500D01*
X85357461Y-89679815D01*
X85311706Y-89627011D01*
X85300500Y-89575500D01*
X85300500Y-86491153D01*
X88604500Y-86491153D01*
X88604500Y-86648846D01*
X88635261Y-86803489D01*
X88635264Y-86803501D01*
X88695602Y-86949172D01*
X88695609Y-86949185D01*
X88783210Y-87080288D01*
X88783213Y-87080292D01*
X88894707Y-87191786D01*
X88894711Y-87191789D01*
X89025814Y-87279390D01*
X89025827Y-87279397D01*
X89171498Y-87339735D01*
X89171503Y-87339737D01*
X89326153Y-87370499D01*
X89326156Y-87370500D01*
X89326158Y-87370500D01*
X89483844Y-87370500D01*
X89483845Y-87370499D01*
X89638497Y-87339737D01*
X89784179Y-87279394D01*
X89915289Y-87191789D01*
X90026789Y-87080289D01*
X90114394Y-86949179D01*
X90174737Y-86803497D01*
X90179107Y-86781530D01*
X104579500Y-86781530D01*
X104579500Y-87688469D01*
X104619868Y-87891412D01*
X104619870Y-87891420D01*
X104699058Y-88082596D01*
X104814024Y-88254657D01*
X104960342Y-88400975D01*
X104960345Y-88400977D01*
X105132402Y-88515941D01*
X105323580Y-88595130D01*
X105526530Y-88635499D01*
X105526534Y-88635500D01*
X105526535Y-88635500D01*
X105733466Y-88635500D01*
X105733467Y-88635499D01*
X105936420Y-88595130D01*
X106127598Y-88515941D01*
X106299655Y-88400977D01*
X106445977Y-88254655D01*
X106560941Y-88082598D01*
X106640130Y-87891420D01*
X106680500Y-87688465D01*
X106680500Y-86781535D01*
X106680499Y-86781530D01*
X113219500Y-86781530D01*
X113219500Y-87688469D01*
X113259868Y-87891412D01*
X113259870Y-87891420D01*
X113339058Y-88082596D01*
X113454024Y-88254657D01*
X113600342Y-88400975D01*
X113600345Y-88400977D01*
X113772402Y-88515941D01*
X113963580Y-88595130D01*
X114166530Y-88635499D01*
X114166534Y-88635500D01*
X114166535Y-88635500D01*
X114373466Y-88635500D01*
X114373467Y-88635499D01*
X114576420Y-88595130D01*
X114767598Y-88515941D01*
X114939655Y-88400977D01*
X115085977Y-88254655D01*
X115200941Y-88082598D01*
X115280130Y-87891420D01*
X115320500Y-87688465D01*
X115320500Y-87511153D01*
X124059500Y-87511153D01*
X124059500Y-87668846D01*
X124090261Y-87823489D01*
X124090264Y-87823501D01*
X124150602Y-87969172D01*
X124150609Y-87969185D01*
X124238210Y-88100288D01*
X124238213Y-88100292D01*
X124349707Y-88211786D01*
X124349711Y-88211789D01*
X124480814Y-88299390D01*
X124480827Y-88299397D01*
X124626498Y-88359735D01*
X124626503Y-88359737D01*
X124781153Y-88390499D01*
X124781156Y-88390500D01*
X124781158Y-88390500D01*
X124938844Y-88390500D01*
X124938845Y-88390499D01*
X125093497Y-88359737D01*
X125239179Y-88299394D01*
X125370289Y-88211789D01*
X125481789Y-88100289D01*
X125569394Y-87969179D01*
X125629737Y-87823497D01*
X125660500Y-87668842D01*
X125660500Y-87511158D01*
X125660500Y-87511155D01*
X125660499Y-87511153D01*
X125629738Y-87356510D01*
X125629737Y-87356503D01*
X125597796Y-87279390D01*
X125569397Y-87210827D01*
X125569390Y-87210814D01*
X125481789Y-87079711D01*
X125481786Y-87079707D01*
X125370292Y-86968213D01*
X125370288Y-86968210D01*
X125239185Y-86880609D01*
X125239172Y-86880602D01*
X125093501Y-86820264D01*
X125093489Y-86820261D01*
X124938845Y-86789500D01*
X124938842Y-86789500D01*
X124781158Y-86789500D01*
X124781155Y-86789500D01*
X124626510Y-86820261D01*
X124626498Y-86820264D01*
X124480827Y-86880602D01*
X124480814Y-86880609D01*
X124349711Y-86968210D01*
X124349707Y-86968213D01*
X124238213Y-87079707D01*
X124238210Y-87079711D01*
X124150609Y-87210814D01*
X124150602Y-87210827D01*
X124090264Y-87356498D01*
X124090261Y-87356510D01*
X124059500Y-87511153D01*
X115320500Y-87511153D01*
X115320500Y-86781535D01*
X115280130Y-86578580D01*
X115200941Y-86387402D01*
X115085977Y-86215345D01*
X115085975Y-86215342D01*
X114939657Y-86069024D01*
X114853626Y-86011541D01*
X114767598Y-85954059D01*
X114753477Y-85948210D01*
X114576420Y-85874870D01*
X114576412Y-85874868D01*
X114373469Y-85834500D01*
X114373465Y-85834500D01*
X114166535Y-85834500D01*
X114166530Y-85834500D01*
X113963587Y-85874868D01*
X113963579Y-85874870D01*
X113772403Y-85954058D01*
X113600342Y-86069024D01*
X113454024Y-86215342D01*
X113339058Y-86387403D01*
X113259870Y-86578579D01*
X113259868Y-86578587D01*
X113219500Y-86781530D01*
X106680499Y-86781530D01*
X106640130Y-86578580D01*
X106560941Y-86387402D01*
X106445977Y-86215345D01*
X106445975Y-86215342D01*
X106299657Y-86069024D01*
X106213626Y-86011541D01*
X106127598Y-85954059D01*
X106113477Y-85948210D01*
X105936420Y-85874870D01*
X105936412Y-85874868D01*
X105733469Y-85834500D01*
X105733465Y-85834500D01*
X105526535Y-85834500D01*
X105526530Y-85834500D01*
X105323587Y-85874868D01*
X105323579Y-85874870D01*
X105132403Y-85954058D01*
X104960342Y-86069024D01*
X104814024Y-86215342D01*
X104699058Y-86387403D01*
X104619870Y-86578579D01*
X104619868Y-86578587D01*
X104579500Y-86781530D01*
X90179107Y-86781530D01*
X90185130Y-86751251D01*
X90185130Y-86751250D01*
X90205499Y-86648846D01*
X90205500Y-86648844D01*
X90205500Y-86491155D01*
X90205499Y-86491153D01*
X90174737Y-86336503D01*
X90174735Y-86336498D01*
X90114397Y-86190827D01*
X90114390Y-86190814D01*
X90026789Y-86059711D01*
X90026786Y-86059707D01*
X89915292Y-85948213D01*
X89915288Y-85948210D01*
X89784185Y-85860609D01*
X89784172Y-85860602D01*
X89638501Y-85800264D01*
X89638489Y-85800261D01*
X89483845Y-85769500D01*
X89483842Y-85769500D01*
X89326158Y-85769500D01*
X89326155Y-85769500D01*
X89171510Y-85800261D01*
X89171498Y-85800264D01*
X89025827Y-85860602D01*
X89025814Y-85860609D01*
X88894711Y-85948210D01*
X88894707Y-85948213D01*
X88783213Y-86059707D01*
X88783210Y-86059711D01*
X88695609Y-86190814D01*
X88695602Y-86190827D01*
X88635264Y-86336498D01*
X88635261Y-86336510D01*
X88604500Y-86491153D01*
X85300500Y-86491153D01*
X85300500Y-80640661D01*
X85320185Y-80573622D01*
X85372989Y-80527867D01*
X85442147Y-80517923D01*
X85505703Y-80546948D01*
X85524815Y-80567771D01*
X85575483Y-80637510D01*
X85742490Y-80804517D01*
X85933567Y-80943343D01*
X85965075Y-80959397D01*
X86144003Y-81050566D01*
X86144005Y-81050566D01*
X86144008Y-81050568D01*
X86264412Y-81089689D01*
X86368631Y-81123553D01*
X86601903Y-81160500D01*
X86601908Y-81160500D01*
X88838097Y-81160500D01*
X89071368Y-81123553D01*
X89157958Y-81095418D01*
X104543765Y-81095418D01*
X104543765Y-81253111D01*
X104574526Y-81407754D01*
X104574529Y-81407766D01*
X104634867Y-81553437D01*
X104634874Y-81553450D01*
X104722475Y-81684553D01*
X104722478Y-81684557D01*
X104785821Y-81747900D01*
X104819306Y-81809223D01*
X104814322Y-81878915D01*
X104801243Y-81904471D01*
X104699058Y-82057403D01*
X104619870Y-82248579D01*
X104619868Y-82248587D01*
X104579500Y-82451530D01*
X104579500Y-83658469D01*
X104619868Y-83861412D01*
X104619870Y-83861420D01*
X104699059Y-84052598D01*
X104716595Y-84078842D01*
X104814024Y-84224657D01*
X104960342Y-84370975D01*
X104960345Y-84370977D01*
X105132402Y-84485941D01*
X105323580Y-84565130D01*
X105526530Y-84605499D01*
X105526534Y-84605500D01*
X105526535Y-84605500D01*
X105733466Y-84605500D01*
X105733467Y-84605499D01*
X105936420Y-84565130D01*
X106127598Y-84485941D01*
X106299655Y-84370977D01*
X106438230Y-84232401D01*
X106499549Y-84198919D01*
X106569241Y-84203903D01*
X106594797Y-84216981D01*
X106668978Y-84266547D01*
X106668982Y-84266550D01*
X106819206Y-84328774D01*
X106819211Y-84328776D01*
X106819215Y-84328776D01*
X106819216Y-84328777D01*
X106978692Y-84360500D01*
X106978695Y-84360500D01*
X107141307Y-84360500D01*
X107248598Y-84339157D01*
X107300789Y-84328776D01*
X107400943Y-84287290D01*
X107451019Y-84266549D01*
X107451023Y-84266547D01*
X107525202Y-84216982D01*
X107586225Y-84176208D01*
X107701208Y-84061225D01*
X107739545Y-84003848D01*
X107793156Y-83959045D01*
X107862481Y-83950337D01*
X107925509Y-83980491D01*
X107962228Y-84039933D01*
X107964264Y-84096931D01*
X107949500Y-84171153D01*
X107949500Y-84328846D01*
X107980261Y-84483489D01*
X107980264Y-84483501D01*
X108040602Y-84629172D01*
X108040609Y-84629185D01*
X108128210Y-84760288D01*
X108128213Y-84760292D01*
X108239707Y-84871786D01*
X108239711Y-84871789D01*
X108370814Y-84959390D01*
X108370827Y-84959397D01*
X108516498Y-85019735D01*
X108516503Y-85019737D01*
X108671153Y-85050499D01*
X108671156Y-85050500D01*
X108671158Y-85050500D01*
X108828844Y-85050500D01*
X108828845Y-85050499D01*
X108983497Y-85019737D01*
X109129179Y-84959394D01*
X109260289Y-84871789D01*
X109371789Y-84760289D01*
X109455912Y-84634389D01*
X109509524Y-84589585D01*
X109578849Y-84580878D01*
X109641876Y-84611032D01*
X109646695Y-84615600D01*
X109652881Y-84621786D01*
X109652885Y-84621789D01*
X109783988Y-84709390D01*
X109784001Y-84709397D01*
X109929672Y-84769735D01*
X109929677Y-84769737D01*
X110084327Y-84800499D01*
X110084330Y-84800500D01*
X110084332Y-84800500D01*
X110242018Y-84800500D01*
X110242019Y-84800499D01*
X110396671Y-84769737D01*
X110542353Y-84709394D01*
X110673463Y-84621789D01*
X110784963Y-84510289D01*
X110872568Y-84379179D01*
X110932911Y-84233497D01*
X110963674Y-84078842D01*
X110963674Y-83921158D01*
X110963674Y-83921155D01*
X110963673Y-83921153D01*
X110942410Y-83814259D01*
X110932911Y-83766503D01*
X110921814Y-83739713D01*
X110872571Y-83620827D01*
X110872564Y-83620814D01*
X110869552Y-83616307D01*
X112014499Y-83616307D01*
X112046222Y-83775783D01*
X112046225Y-83775793D01*
X112108450Y-83926019D01*
X112108452Y-83926023D01*
X112198788Y-84061220D01*
X112198794Y-84061228D01*
X112313771Y-84176205D01*
X112313779Y-84176211D01*
X112448976Y-84266547D01*
X112448980Y-84266549D01*
X112599206Y-84328774D01*
X112599211Y-84328776D01*
X112599215Y-84328776D01*
X112599216Y-84328777D01*
X112758692Y-84360500D01*
X112758695Y-84360500D01*
X112921307Y-84360500D01*
X113028598Y-84339157D01*
X113080789Y-84328776D01*
X113231021Y-84266548D01*
X113305202Y-84216982D01*
X113371876Y-84196105D01*
X113439256Y-84214589D01*
X113461771Y-84232404D01*
X113600342Y-84370975D01*
X113600345Y-84370977D01*
X113772402Y-84485941D01*
X113963580Y-84565130D01*
X114166530Y-84605499D01*
X114166534Y-84605500D01*
X114166535Y-84605500D01*
X114373466Y-84605500D01*
X114373467Y-84605499D01*
X114576420Y-84565130D01*
X114767598Y-84485941D01*
X114939655Y-84370977D01*
X115085977Y-84224655D01*
X115200941Y-84052598D01*
X115280130Y-83861420D01*
X115320500Y-83658465D01*
X115320500Y-82471153D01*
X115719500Y-82471153D01*
X115719500Y-82628846D01*
X115750261Y-82783489D01*
X115750264Y-82783501D01*
X115810602Y-82929172D01*
X115810609Y-82929185D01*
X115898210Y-83060288D01*
X115898213Y-83060292D01*
X116009707Y-83171786D01*
X116009711Y-83171789D01*
X116140814Y-83259390D01*
X116140827Y-83259397D01*
X116216181Y-83290609D01*
X116286503Y-83319737D01*
X116441153Y-83350499D01*
X116441156Y-83350500D01*
X116441158Y-83350500D01*
X116598844Y-83350500D01*
X116598845Y-83350499D01*
X116753497Y-83319737D01*
X116899179Y-83259394D01*
X117030289Y-83171789D01*
X117141789Y-83060289D01*
X117229394Y-82929179D01*
X117289737Y-82783497D01*
X117320500Y-82628842D01*
X117320500Y-82471158D01*
X117320500Y-82471155D01*
X117320499Y-82471153D01*
X117316597Y-82451535D01*
X117289737Y-82316503D01*
X117289735Y-82316498D01*
X117229397Y-82170827D01*
X117229390Y-82170814D01*
X117141789Y-82039711D01*
X117141786Y-82039707D01*
X117030292Y-81928213D01*
X117030288Y-81928210D01*
X116899185Y-81840609D01*
X116899172Y-81840602D01*
X116753501Y-81780264D01*
X116753489Y-81780261D01*
X116598845Y-81749500D01*
X116598842Y-81749500D01*
X116441158Y-81749500D01*
X116441155Y-81749500D01*
X116286510Y-81780261D01*
X116286498Y-81780264D01*
X116140827Y-81840602D01*
X116140814Y-81840609D01*
X116009711Y-81928210D01*
X116009707Y-81928213D01*
X115898213Y-82039707D01*
X115898210Y-82039711D01*
X115810609Y-82170814D01*
X115810602Y-82170827D01*
X115750264Y-82316498D01*
X115750261Y-82316510D01*
X115719500Y-82471153D01*
X115320500Y-82471153D01*
X115320500Y-82451535D01*
X115280130Y-82248580D01*
X115200941Y-82057402D01*
X115085977Y-81885345D01*
X115085975Y-81885342D01*
X114939657Y-81739024D01*
X114853626Y-81681541D01*
X114767598Y-81624059D01*
X114576420Y-81544870D01*
X114576412Y-81544868D01*
X114373469Y-81504500D01*
X114373465Y-81504500D01*
X114166535Y-81504500D01*
X114166530Y-81504500D01*
X113963587Y-81544868D01*
X113963579Y-81544870D01*
X113772403Y-81624058D01*
X113600342Y-81739024D01*
X113454024Y-81885342D01*
X113339058Y-82057403D01*
X113259870Y-82248579D01*
X113259868Y-82248587D01*
X113219500Y-82451530D01*
X113219500Y-82617720D01*
X113199815Y-82684759D01*
X113147011Y-82730514D01*
X113077853Y-82740458D01*
X113071309Y-82739337D01*
X112921308Y-82709500D01*
X112921305Y-82709500D01*
X112758695Y-82709500D01*
X112758693Y-82709500D01*
X112599216Y-82741222D01*
X112599206Y-82741225D01*
X112448980Y-82803450D01*
X112448976Y-82803452D01*
X112313779Y-82893788D01*
X112313771Y-82893794D01*
X112198794Y-83008771D01*
X112198788Y-83008779D01*
X112108452Y-83143976D01*
X112108450Y-83143980D01*
X112046225Y-83294206D01*
X112046222Y-83294216D01*
X112014500Y-83453692D01*
X112014500Y-83453695D01*
X112014500Y-83616305D01*
X112014500Y-83616307D01*
X112014499Y-83616307D01*
X110869552Y-83616307D01*
X110802859Y-83516494D01*
X110802858Y-83516492D01*
X110784966Y-83489715D01*
X110784960Y-83489707D01*
X110673466Y-83378213D01*
X110673462Y-83378210D01*
X110542359Y-83290609D01*
X110542346Y-83290602D01*
X110396675Y-83230264D01*
X110396663Y-83230261D01*
X110242019Y-83199500D01*
X110242016Y-83199500D01*
X110084332Y-83199500D01*
X110084329Y-83199500D01*
X109929684Y-83230261D01*
X109929672Y-83230264D01*
X109784001Y-83290602D01*
X109783988Y-83290609D01*
X109652885Y-83378210D01*
X109652881Y-83378213D01*
X109541387Y-83489707D01*
X109541384Y-83489711D01*
X109457261Y-83615609D01*
X109403648Y-83660414D01*
X109334323Y-83669121D01*
X109271296Y-83638966D01*
X109266478Y-83634399D01*
X109260292Y-83628213D01*
X109260288Y-83628210D01*
X109129185Y-83540609D01*
X109129172Y-83540602D01*
X108983501Y-83480264D01*
X108983489Y-83480261D01*
X108828845Y-83449500D01*
X108828842Y-83449500D01*
X108671158Y-83449500D01*
X108671155Y-83449500D01*
X108516510Y-83480261D01*
X108516498Y-83480264D01*
X108370827Y-83540602D01*
X108370814Y-83540609D01*
X108239711Y-83628210D01*
X108239707Y-83628213D01*
X108128213Y-83739707D01*
X108128208Y-83739713D01*
X108094003Y-83790904D01*
X108040390Y-83835709D01*
X107971065Y-83844415D01*
X107908038Y-83814259D01*
X107871320Y-83754816D01*
X107869285Y-83697821D01*
X107883132Y-83628210D01*
X107885500Y-83616306D01*
X107885500Y-83453692D01*
X107853777Y-83294216D01*
X107853776Y-83294215D01*
X107853776Y-83294211D01*
X107839356Y-83259397D01*
X107791549Y-83143980D01*
X107791547Y-83143976D01*
X107701211Y-83008779D01*
X107701205Y-83008771D01*
X107586228Y-82893794D01*
X107586220Y-82893788D01*
X107451023Y-82803452D01*
X107451019Y-82803450D01*
X107300793Y-82741225D01*
X107300783Y-82741222D01*
X107141307Y-82709500D01*
X107141305Y-82709500D01*
X106978695Y-82709500D01*
X106978692Y-82709500D01*
X106828691Y-82739337D01*
X106759100Y-82733110D01*
X106703922Y-82690247D01*
X106680678Y-82624357D01*
X106680500Y-82617720D01*
X106680500Y-82451534D01*
X106680499Y-82451530D01*
X106653642Y-82316510D01*
X106640130Y-82248580D01*
X106560941Y-82057402D01*
X106445977Y-81885345D01*
X106445975Y-81885342D01*
X106299658Y-81739025D01*
X106299654Y-81739022D01*
X106131391Y-81626592D01*
X106086586Y-81572980D01*
X106077879Y-81503655D01*
X106085719Y-81476043D01*
X106114002Y-81407762D01*
X106144765Y-81253107D01*
X106144765Y-81095423D01*
X106144765Y-81095420D01*
X106144764Y-81095418D01*
X106137667Y-81059738D01*
X106114002Y-80940768D01*
X106101999Y-80911789D01*
X106053662Y-80795092D01*
X106053655Y-80795079D01*
X105966054Y-80663976D01*
X105966051Y-80663972D01*
X105854557Y-80552478D01*
X105854553Y-80552475D01*
X105723450Y-80464874D01*
X105723437Y-80464867D01*
X105577766Y-80404529D01*
X105577754Y-80404526D01*
X105423110Y-80373765D01*
X105423107Y-80373765D01*
X105265423Y-80373765D01*
X105265420Y-80373765D01*
X105110775Y-80404526D01*
X105110763Y-80404529D01*
X104965092Y-80464867D01*
X104965079Y-80464874D01*
X104833976Y-80552475D01*
X104833972Y-80552478D01*
X104722478Y-80663972D01*
X104722475Y-80663976D01*
X104634874Y-80795079D01*
X104634867Y-80795092D01*
X104574529Y-80940763D01*
X104574526Y-80940775D01*
X104543765Y-81095418D01*
X89157958Y-81095418D01*
X89295992Y-81050568D01*
X89296126Y-81050500D01*
X89356505Y-81019735D01*
X89506433Y-80943343D01*
X89697510Y-80804517D01*
X89864517Y-80637510D01*
X90003343Y-80446433D01*
X90110568Y-80235992D01*
X90182733Y-80013891D01*
X109422238Y-80013891D01*
X109422238Y-80171584D01*
X109452999Y-80326227D01*
X109453002Y-80326239D01*
X109513340Y-80471910D01*
X109513347Y-80471923D01*
X109600948Y-80603026D01*
X109600951Y-80603030D01*
X109712445Y-80714524D01*
X109712449Y-80714527D01*
X109843552Y-80802128D01*
X109843565Y-80802135D01*
X109989236Y-80862473D01*
X109989241Y-80862475D01*
X110138959Y-80892256D01*
X110143891Y-80893237D01*
X110143894Y-80893238D01*
X110143896Y-80893238D01*
X110301582Y-80893238D01*
X110301583Y-80893237D01*
X110456235Y-80862475D01*
X110601917Y-80802132D01*
X110733027Y-80714527D01*
X110844527Y-80603027D01*
X110932132Y-80471917D01*
X110992475Y-80326235D01*
X111023238Y-80171580D01*
X111023238Y-80013896D01*
X111023238Y-80013893D01*
X111023237Y-80013891D01*
X111002735Y-79910821D01*
X110992475Y-79859241D01*
X110992473Y-79859236D01*
X110932135Y-79713565D01*
X110932128Y-79713552D01*
X110858899Y-79603957D01*
X110858898Y-79603956D01*
X110844529Y-79582451D01*
X110844524Y-79582445D01*
X110803232Y-79541153D01*
X112679500Y-79541153D01*
X112679500Y-79698846D01*
X112710261Y-79853489D01*
X112710264Y-79853501D01*
X112770602Y-79999172D01*
X112770609Y-79999185D01*
X112858210Y-80130288D01*
X112858213Y-80130292D01*
X112969707Y-80241786D01*
X112969711Y-80241789D01*
X113100814Y-80329390D01*
X113100827Y-80329397D01*
X113246498Y-80389735D01*
X113246503Y-80389737D01*
X113401153Y-80420499D01*
X113401156Y-80420500D01*
X113401158Y-80420500D01*
X113558844Y-80420500D01*
X113558845Y-80420499D01*
X113713497Y-80389737D01*
X113859179Y-80329394D01*
X113990289Y-80241789D01*
X114101789Y-80130289D01*
X114189394Y-79999179D01*
X114249737Y-79853497D01*
X114280500Y-79698842D01*
X114280500Y-79541158D01*
X114280500Y-79541155D01*
X114280499Y-79541153D01*
X114272371Y-79500292D01*
X114249737Y-79386503D01*
X114242423Y-79368846D01*
X114189397Y-79240827D01*
X114189390Y-79240814D01*
X114101789Y-79109711D01*
X114101786Y-79109707D01*
X113990292Y-78998213D01*
X113990288Y-78998210D01*
X113859185Y-78910609D01*
X113859172Y-78910602D01*
X113713501Y-78850264D01*
X113713489Y-78850261D01*
X113594956Y-78826683D01*
X113594955Y-78826683D01*
X113558844Y-78819500D01*
X113558842Y-78819500D01*
X113401158Y-78819500D01*
X113401155Y-78819500D01*
X113246510Y-78850261D01*
X113246498Y-78850264D01*
X113100827Y-78910602D01*
X113100814Y-78910609D01*
X112969711Y-78998210D01*
X112969707Y-78998213D01*
X112858213Y-79109707D01*
X112858210Y-79109711D01*
X112770609Y-79240814D01*
X112770602Y-79240827D01*
X112710264Y-79386498D01*
X112710261Y-79386510D01*
X112679500Y-79541153D01*
X110803232Y-79541153D01*
X110733030Y-79470951D01*
X110733026Y-79470948D01*
X110601923Y-79383347D01*
X110601910Y-79383340D01*
X110456239Y-79323002D01*
X110456227Y-79322999D01*
X110301583Y-79292238D01*
X110301580Y-79292238D01*
X110143896Y-79292238D01*
X110143893Y-79292238D01*
X109989248Y-79322999D01*
X109989236Y-79323002D01*
X109843565Y-79383340D01*
X109843552Y-79383347D01*
X109712449Y-79470948D01*
X109712445Y-79470951D01*
X109600951Y-79582445D01*
X109600948Y-79582449D01*
X109513347Y-79713552D01*
X109513340Y-79713565D01*
X109453002Y-79859236D01*
X109452999Y-79859248D01*
X109422238Y-80013891D01*
X90182733Y-80013891D01*
X90183553Y-80011368D01*
X90187190Y-79988406D01*
X90220500Y-79778097D01*
X90220500Y-79541902D01*
X90199891Y-79411786D01*
X90183553Y-79308632D01*
X90151042Y-79208577D01*
X90149047Y-79138741D01*
X90185127Y-79078908D01*
X90221518Y-79055703D01*
X90309179Y-79019394D01*
X90440289Y-78931789D01*
X90460925Y-78911153D01*
X93489500Y-78911153D01*
X93489500Y-79068846D01*
X93520261Y-79223489D01*
X93520264Y-79223501D01*
X93580602Y-79369172D01*
X93580609Y-79369185D01*
X93668210Y-79500288D01*
X93668213Y-79500292D01*
X93779707Y-79611786D01*
X93779711Y-79611789D01*
X93910814Y-79699390D01*
X93910827Y-79699397D01*
X93972241Y-79724835D01*
X94056503Y-79759737D01*
X94208644Y-79790000D01*
X94211153Y-79790499D01*
X94211156Y-79790500D01*
X94211158Y-79790500D01*
X94368844Y-79790500D01*
X94368845Y-79790499D01*
X94523497Y-79759737D01*
X94669179Y-79699394D01*
X94800289Y-79611789D01*
X94911789Y-79500289D01*
X94999394Y-79369179D01*
X95059737Y-79223497D01*
X95090500Y-79068842D01*
X95090500Y-78911158D01*
X95090500Y-78911155D01*
X95090499Y-78911153D01*
X95083023Y-78873567D01*
X95059737Y-78756503D01*
X95040955Y-78711158D01*
X95040953Y-78711153D01*
X118869500Y-78711153D01*
X118869500Y-78868846D01*
X118900261Y-79023489D01*
X118900264Y-79023501D01*
X118960602Y-79169172D01*
X118960609Y-79169185D01*
X119048210Y-79300288D01*
X119048213Y-79300292D01*
X119159707Y-79411786D01*
X119159711Y-79411789D01*
X119290814Y-79499390D01*
X119290827Y-79499397D01*
X119436498Y-79559735D01*
X119436503Y-79559737D01*
X119591153Y-79590499D01*
X119591156Y-79590500D01*
X119591158Y-79590500D01*
X119748844Y-79590500D01*
X119748845Y-79590499D01*
X119903497Y-79559737D01*
X120049179Y-79499394D01*
X120180289Y-79411789D01*
X120291789Y-79300289D01*
X120337984Y-79231153D01*
X121399500Y-79231153D01*
X121399500Y-79388846D01*
X121430261Y-79543489D01*
X121430264Y-79543501D01*
X121490602Y-79689171D01*
X121490604Y-79689175D01*
X121490606Y-79689179D01*
X121490609Y-79689184D01*
X121490610Y-79689185D01*
X121505260Y-79711112D01*
X121526136Y-79777790D01*
X121507649Y-79845170D01*
X121505260Y-79848888D01*
X121490610Y-79870814D01*
X121490602Y-79870828D01*
X121430264Y-80016498D01*
X121430261Y-80016510D01*
X121399500Y-80171153D01*
X121399500Y-80328846D01*
X121430261Y-80483489D01*
X121430264Y-80483501D01*
X121490602Y-80629172D01*
X121490609Y-80629185D01*
X121578210Y-80760288D01*
X121578213Y-80760292D01*
X121689707Y-80871786D01*
X121689711Y-80871789D01*
X121820814Y-80959390D01*
X121820827Y-80959397D01*
X121966498Y-81019735D01*
X121966503Y-81019737D01*
X122121153Y-81050499D01*
X122121156Y-81050500D01*
X122121158Y-81050500D01*
X122278844Y-81050500D01*
X122278845Y-81050499D01*
X122433497Y-81019737D01*
X122579179Y-80959394D01*
X122676077Y-80894648D01*
X122742750Y-80873772D01*
X122810131Y-80892256D01*
X122813856Y-80894650D01*
X122880814Y-80939390D01*
X122880827Y-80939397D01*
X122976067Y-80978846D01*
X123026503Y-80999737D01*
X123181153Y-81030499D01*
X123181156Y-81030500D01*
X123181158Y-81030500D01*
X123338844Y-81030500D01*
X123338845Y-81030499D01*
X123493497Y-80999737D01*
X123639179Y-80939394D01*
X123639180Y-80939393D01*
X123640815Y-80938716D01*
X123710285Y-80931247D01*
X123757159Y-80950175D01*
X123830814Y-80999390D01*
X123830827Y-80999397D01*
X123954362Y-81050566D01*
X123976503Y-81059737D01*
X124131153Y-81090499D01*
X124131156Y-81090500D01*
X124131158Y-81090500D01*
X124288844Y-81090500D01*
X124288845Y-81090499D01*
X124443497Y-81059737D01*
X124588351Y-80999737D01*
X124589172Y-80999397D01*
X124589172Y-80999396D01*
X124589179Y-80999394D01*
X124720289Y-80911789D01*
X124831789Y-80800289D01*
X124919394Y-80669179D01*
X124979737Y-80523497D01*
X125010500Y-80368842D01*
X125010500Y-80211158D01*
X125010500Y-80211155D01*
X125010499Y-80211153D01*
X124997728Y-80146948D01*
X124979737Y-80056503D01*
X124979735Y-80056498D01*
X124919396Y-79910825D01*
X124919394Y-79910822D01*
X124919394Y-79910821D01*
X124884694Y-79858889D01*
X124863816Y-79792215D01*
X124882300Y-79724835D01*
X124884676Y-79721136D01*
X124919394Y-79669179D01*
X124979737Y-79523497D01*
X125010500Y-79368842D01*
X125010500Y-79211158D01*
X125010500Y-79211155D01*
X125010499Y-79211153D01*
X124985208Y-79084008D01*
X124979737Y-79056503D01*
X124955592Y-78998211D01*
X124919397Y-78910828D01*
X124919396Y-78910827D01*
X124919394Y-78910821D01*
X124906352Y-78891303D01*
X124885476Y-78824627D01*
X124903961Y-78757247D01*
X124906331Y-78753559D01*
X124969394Y-78659179D01*
X125029737Y-78513497D01*
X125060500Y-78358842D01*
X125060500Y-78201158D01*
X125060500Y-78201155D01*
X125060499Y-78201153D01*
X125036521Y-78080609D01*
X125029737Y-78046503D01*
X124981823Y-77930827D01*
X124969397Y-77900827D01*
X124969390Y-77900814D01*
X124881789Y-77769711D01*
X124881786Y-77769707D01*
X124770292Y-77658213D01*
X124770288Y-77658210D01*
X124639185Y-77570609D01*
X124639172Y-77570602D01*
X124493501Y-77510264D01*
X124493489Y-77510261D01*
X124338845Y-77479500D01*
X124338842Y-77479500D01*
X124181158Y-77479500D01*
X124181155Y-77479500D01*
X124026510Y-77510261D01*
X124026498Y-77510264D01*
X123880827Y-77570602D01*
X123880814Y-77570609D01*
X123793959Y-77628645D01*
X123727282Y-77649523D01*
X123659901Y-77631039D01*
X123656177Y-77628645D01*
X123629185Y-77610609D01*
X123629172Y-77610602D01*
X123483501Y-77550264D01*
X123483489Y-77550261D01*
X123328845Y-77519500D01*
X123328842Y-77519500D01*
X123171158Y-77519500D01*
X123171155Y-77519500D01*
X123016510Y-77550261D01*
X123016498Y-77550264D01*
X122870828Y-77610602D01*
X122870812Y-77610611D01*
X122828821Y-77638668D01*
X122762143Y-77659545D01*
X122694763Y-77641059D01*
X122691042Y-77638667D01*
X122589190Y-77570612D01*
X122589172Y-77570602D01*
X122443501Y-77510264D01*
X122443489Y-77510261D01*
X122288845Y-77479500D01*
X122288842Y-77479500D01*
X122131158Y-77479500D01*
X122131155Y-77479500D01*
X121976510Y-77510261D01*
X121976498Y-77510264D01*
X121830827Y-77570602D01*
X121830814Y-77570609D01*
X121699711Y-77658210D01*
X121699707Y-77658213D01*
X121588213Y-77769707D01*
X121588210Y-77769711D01*
X121500609Y-77900814D01*
X121500602Y-77900827D01*
X121440264Y-78046498D01*
X121440261Y-78046510D01*
X121409500Y-78201153D01*
X121409500Y-78358846D01*
X121440261Y-78513489D01*
X121440264Y-78513501D01*
X121500602Y-78659172D01*
X121500609Y-78659185D01*
X121540326Y-78718625D01*
X121561204Y-78785303D01*
X121542719Y-78852683D01*
X121540327Y-78856406D01*
X121490608Y-78930816D01*
X121490602Y-78930827D01*
X121430264Y-79076498D01*
X121430261Y-79076510D01*
X121399500Y-79231153D01*
X120337984Y-79231153D01*
X120379394Y-79169179D01*
X120439737Y-79023497D01*
X120470500Y-78868842D01*
X120470500Y-78711158D01*
X120470500Y-78711155D01*
X120470499Y-78711153D01*
X120464799Y-78682496D01*
X120439737Y-78556503D01*
X120439735Y-78556498D01*
X120379397Y-78410827D01*
X120379390Y-78410814D01*
X120291789Y-78279711D01*
X120291786Y-78279707D01*
X120180292Y-78168213D01*
X120180288Y-78168210D01*
X120049185Y-78080609D01*
X120049172Y-78080602D01*
X119903501Y-78020264D01*
X119903489Y-78020261D01*
X119748845Y-77989500D01*
X119748842Y-77989500D01*
X119591158Y-77989500D01*
X119591155Y-77989500D01*
X119436510Y-78020261D01*
X119436498Y-78020264D01*
X119290827Y-78080602D01*
X119290814Y-78080609D01*
X119159711Y-78168210D01*
X119159707Y-78168213D01*
X119048213Y-78279707D01*
X119048210Y-78279711D01*
X118960609Y-78410814D01*
X118960602Y-78410827D01*
X118900264Y-78556498D01*
X118900261Y-78556510D01*
X118869500Y-78711153D01*
X95040953Y-78711153D01*
X94999397Y-78610827D01*
X94999390Y-78610814D01*
X94911789Y-78479711D01*
X94911786Y-78479707D01*
X94800292Y-78368213D01*
X94800288Y-78368210D01*
X94669185Y-78280609D01*
X94669172Y-78280602D01*
X94523501Y-78220264D01*
X94523489Y-78220261D01*
X94368845Y-78189500D01*
X94368842Y-78189500D01*
X94211158Y-78189500D01*
X94211155Y-78189500D01*
X94056510Y-78220261D01*
X94056498Y-78220264D01*
X93910827Y-78280602D01*
X93910814Y-78280609D01*
X93779711Y-78368210D01*
X93779707Y-78368213D01*
X93668213Y-78479707D01*
X93668210Y-78479711D01*
X93580609Y-78610814D01*
X93580602Y-78610827D01*
X93520264Y-78756498D01*
X93520261Y-78756510D01*
X93489500Y-78911153D01*
X90460925Y-78911153D01*
X90551789Y-78820289D01*
X90639394Y-78689179D01*
X90699737Y-78543497D01*
X90730500Y-78388842D01*
X90730500Y-78231158D01*
X90730500Y-78231155D01*
X90730499Y-78231153D01*
X90724532Y-78201153D01*
X90699737Y-78076503D01*
X90676441Y-78020261D01*
X90639397Y-77930827D01*
X90639390Y-77930814D01*
X90551789Y-77799711D01*
X90551786Y-77799707D01*
X90440292Y-77688213D01*
X90440288Y-77688210D01*
X90309185Y-77600609D01*
X90309172Y-77600602D01*
X90163501Y-77540264D01*
X90163489Y-77540261D01*
X90008845Y-77509500D01*
X90008842Y-77509500D01*
X89851158Y-77509500D01*
X89851155Y-77509500D01*
X89696510Y-77540261D01*
X89696498Y-77540264D01*
X89550827Y-77600602D01*
X89550814Y-77600609D01*
X89419711Y-77688210D01*
X89419707Y-77688213D01*
X89308213Y-77799707D01*
X89308210Y-77799711D01*
X89220609Y-77930814D01*
X89220602Y-77930827D01*
X89160264Y-78076498D01*
X89160261Y-78076507D01*
X89157677Y-78089502D01*
X89125291Y-78151412D01*
X89064575Y-78185986D01*
X89016662Y-78187782D01*
X88838097Y-78159500D01*
X88838092Y-78159500D01*
X86601908Y-78159500D01*
X86601903Y-78159500D01*
X86368631Y-78196446D01*
X86144003Y-78269433D01*
X85933566Y-78376657D01*
X85886554Y-78410814D01*
X85742490Y-78515483D01*
X85742488Y-78515485D01*
X85742487Y-78515485D01*
X85575485Y-78682487D01*
X85575478Y-78682496D01*
X85524817Y-78752224D01*
X85469487Y-78794890D01*
X85399874Y-78800868D01*
X85338079Y-78768262D01*
X85303722Y-78707423D01*
X85300500Y-78679338D01*
X85300500Y-75821153D01*
X104770972Y-75821153D01*
X104770972Y-75978846D01*
X104801733Y-76133489D01*
X104801736Y-76133501D01*
X104862074Y-76279172D01*
X104862081Y-76279185D01*
X104949682Y-76410288D01*
X104949685Y-76410292D01*
X105061179Y-76521786D01*
X105061183Y-76521789D01*
X105192286Y-76609390D01*
X105192299Y-76609397D01*
X105313835Y-76659738D01*
X105337975Y-76669737D01*
X105492625Y-76700499D01*
X105492628Y-76700500D01*
X105492630Y-76700500D01*
X105650316Y-76700500D01*
X105650317Y-76700499D01*
X105804969Y-76669737D01*
X105950651Y-76609394D01*
X106081761Y-76521789D01*
X106193261Y-76410289D01*
X106280866Y-76279179D01*
X106280867Y-76279176D01*
X106280869Y-76279173D01*
X106318246Y-76188935D01*
X106362086Y-76134531D01*
X106428380Y-76112466D01*
X106496080Y-76129745D01*
X106543690Y-76180882D01*
X106547368Y-76188935D01*
X106580602Y-76269172D01*
X106580609Y-76269185D01*
X106668210Y-76400288D01*
X106668213Y-76400292D01*
X106779707Y-76511786D01*
X106779711Y-76511789D01*
X106910814Y-76599390D01*
X106910827Y-76599397D01*
X107035779Y-76651153D01*
X107056503Y-76659737D01*
X107211153Y-76690499D01*
X107211156Y-76690500D01*
X107211158Y-76690500D01*
X107368844Y-76690500D01*
X107368845Y-76690499D01*
X107523497Y-76659737D01*
X107544220Y-76651153D01*
X109139500Y-76651153D01*
X109139500Y-76808846D01*
X109170261Y-76963489D01*
X109170264Y-76963501D01*
X109230602Y-77109172D01*
X109230609Y-77109185D01*
X109318210Y-77240288D01*
X109318213Y-77240292D01*
X109429707Y-77351786D01*
X109429711Y-77351789D01*
X109560814Y-77439390D01*
X109560827Y-77439397D01*
X109657646Y-77479500D01*
X109706503Y-77499737D01*
X109805858Y-77519500D01*
X109861153Y-77530499D01*
X109861156Y-77530500D01*
X109861158Y-77530500D01*
X110018844Y-77530500D01*
X110018845Y-77530499D01*
X110173497Y-77499737D01*
X110319179Y-77439394D01*
X110450289Y-77351789D01*
X110561789Y-77240289D01*
X110649394Y-77109179D01*
X110709737Y-76963497D01*
X110740500Y-76808842D01*
X110740500Y-76651158D01*
X110740500Y-76651155D01*
X110740499Y-76651153D01*
X110732193Y-76609397D01*
X110709737Y-76496503D01*
X110674028Y-76410292D01*
X110649397Y-76350827D01*
X110649390Y-76350814D01*
X110561789Y-76219711D01*
X110561786Y-76219707D01*
X110450292Y-76108213D01*
X110450288Y-76108210D01*
X110319185Y-76020609D01*
X110319172Y-76020602D01*
X110173501Y-75960264D01*
X110173489Y-75960261D01*
X110018845Y-75929500D01*
X110018842Y-75929500D01*
X109861158Y-75929500D01*
X109861155Y-75929500D01*
X109706510Y-75960261D01*
X109706498Y-75960264D01*
X109560827Y-76020602D01*
X109560814Y-76020609D01*
X109429711Y-76108210D01*
X109429707Y-76108213D01*
X109318213Y-76219707D01*
X109318210Y-76219711D01*
X109230609Y-76350814D01*
X109230602Y-76350827D01*
X109170264Y-76496498D01*
X109170261Y-76496510D01*
X109139500Y-76651153D01*
X107544220Y-76651153D01*
X107636166Y-76613067D01*
X107669172Y-76599397D01*
X107669172Y-76599396D01*
X107669179Y-76599394D01*
X107669185Y-76599390D01*
X107755130Y-76541964D01*
X107785327Y-76521786D01*
X107800289Y-76511789D01*
X107911789Y-76400289D01*
X107999394Y-76269179D01*
X108059737Y-76123497D01*
X108090500Y-75968842D01*
X108090500Y-75811158D01*
X108090500Y-75811155D01*
X108090499Y-75811153D01*
X108082371Y-75770292D01*
X108059737Y-75656503D01*
X108059309Y-75655469D01*
X107999397Y-75510827D01*
X107999390Y-75510814D01*
X107911789Y-75379711D01*
X107911786Y-75379707D01*
X107800292Y-75268213D01*
X107800288Y-75268210D01*
X107669185Y-75180609D01*
X107669172Y-75180602D01*
X107523501Y-75120264D01*
X107523489Y-75120261D01*
X107368845Y-75089500D01*
X107368842Y-75089500D01*
X107211158Y-75089500D01*
X107211155Y-75089500D01*
X107056510Y-75120261D01*
X107056498Y-75120264D01*
X106910827Y-75180602D01*
X106910814Y-75180609D01*
X106779711Y-75268210D01*
X106779707Y-75268213D01*
X106668213Y-75379707D01*
X106668210Y-75379711D01*
X106580609Y-75510814D01*
X106580604Y-75510824D01*
X106543225Y-75601065D01*
X106499384Y-75655469D01*
X106433089Y-75677533D01*
X106365390Y-75660253D01*
X106317780Y-75609116D01*
X106314113Y-75601088D01*
X106280866Y-75520821D01*
X106280862Y-75520814D01*
X106193261Y-75389711D01*
X106193258Y-75389707D01*
X106081764Y-75278213D01*
X106081760Y-75278210D01*
X105950657Y-75190609D01*
X105950644Y-75190602D01*
X105804973Y-75130264D01*
X105804961Y-75130261D01*
X105650317Y-75099500D01*
X105650314Y-75099500D01*
X105492630Y-75099500D01*
X105492627Y-75099500D01*
X105337982Y-75130261D01*
X105337970Y-75130264D01*
X105192299Y-75190602D01*
X105192286Y-75190609D01*
X105061183Y-75278210D01*
X105061179Y-75278213D01*
X104949685Y-75389707D01*
X104949682Y-75389711D01*
X104862081Y-75520814D01*
X104862074Y-75520827D01*
X104801736Y-75666498D01*
X104801733Y-75666510D01*
X104770972Y-75821153D01*
X85300500Y-75821153D01*
X85300500Y-74761153D01*
X91819500Y-74761153D01*
X91819500Y-74918846D01*
X91850261Y-75073489D01*
X91850264Y-75073501D01*
X91910602Y-75219172D01*
X91910609Y-75219185D01*
X91998210Y-75350288D01*
X91998213Y-75350292D01*
X92109707Y-75461786D01*
X92109711Y-75461789D01*
X92240814Y-75549390D01*
X92240827Y-75549397D01*
X92385004Y-75609116D01*
X92386503Y-75609737D01*
X92534482Y-75639172D01*
X92541153Y-75640499D01*
X92541156Y-75640500D01*
X92541158Y-75640500D01*
X92698844Y-75640500D01*
X92698845Y-75640499D01*
X92853497Y-75609737D01*
X92999179Y-75549394D01*
X93130289Y-75461789D01*
X93241789Y-75350289D01*
X93329394Y-75219179D01*
X93389737Y-75073497D01*
X93420500Y-74918842D01*
X93420500Y-74761158D01*
X93420500Y-74761155D01*
X93420499Y-74761153D01*
X93411020Y-74713501D01*
X93389737Y-74606503D01*
X93382423Y-74588846D01*
X93334240Y-74472518D01*
X93329396Y-74460826D01*
X93329390Y-74460814D01*
X93309571Y-74431153D01*
X122369500Y-74431153D01*
X122369500Y-74588846D01*
X122400261Y-74743489D01*
X122400264Y-74743501D01*
X122460602Y-74889172D01*
X122460609Y-74889185D01*
X122548210Y-75020288D01*
X122548213Y-75020292D01*
X122659707Y-75131786D01*
X122659711Y-75131789D01*
X122790814Y-75219390D01*
X122790827Y-75219397D01*
X122914992Y-75270827D01*
X122936503Y-75279737D01*
X123091153Y-75310499D01*
X123091156Y-75310500D01*
X123091158Y-75310500D01*
X123248844Y-75310500D01*
X123248845Y-75310499D01*
X123403497Y-75279737D01*
X123549179Y-75219394D01*
X123680289Y-75131789D01*
X123791789Y-75020289D01*
X123879394Y-74889179D01*
X123882854Y-74880827D01*
X123898225Y-74843716D01*
X123939737Y-74743497D01*
X123970500Y-74588842D01*
X123970500Y-74431158D01*
X123970500Y-74431155D01*
X123970499Y-74431153D01*
X123939738Y-74276510D01*
X123939737Y-74276503D01*
X123915592Y-74218211D01*
X123879397Y-74130827D01*
X123879390Y-74130814D01*
X123791789Y-73999711D01*
X123791786Y-73999707D01*
X123680292Y-73888213D01*
X123680288Y-73888210D01*
X123549185Y-73800609D01*
X123549172Y-73800602D01*
X123403501Y-73740264D01*
X123403489Y-73740261D01*
X123248845Y-73709500D01*
X123248842Y-73709500D01*
X123091158Y-73709500D01*
X123091155Y-73709500D01*
X122936510Y-73740261D01*
X122936498Y-73740264D01*
X122790827Y-73800602D01*
X122790814Y-73800609D01*
X122659711Y-73888210D01*
X122659707Y-73888213D01*
X122548213Y-73999707D01*
X122548210Y-73999711D01*
X122460609Y-74130814D01*
X122460602Y-74130827D01*
X122400264Y-74276498D01*
X122400261Y-74276510D01*
X122369500Y-74431153D01*
X93309571Y-74431153D01*
X93241789Y-74329711D01*
X93241786Y-74329707D01*
X93130292Y-74218213D01*
X93130288Y-74218210D01*
X92999185Y-74130609D01*
X92999172Y-74130602D01*
X92853501Y-74070264D01*
X92853489Y-74070261D01*
X92698845Y-74039500D01*
X92698842Y-74039500D01*
X92541158Y-74039500D01*
X92541155Y-74039500D01*
X92386510Y-74070261D01*
X92386498Y-74070264D01*
X92240827Y-74130602D01*
X92240814Y-74130609D01*
X92109711Y-74218210D01*
X92109707Y-74218213D01*
X91998213Y-74329707D01*
X91998210Y-74329711D01*
X91910609Y-74460814D01*
X91910602Y-74460827D01*
X91850264Y-74606498D01*
X91850261Y-74606510D01*
X91819500Y-74761153D01*
X85300500Y-74761153D01*
X85300500Y-71168133D01*
X85320185Y-71101094D01*
X85372989Y-71055339D01*
X85442147Y-71045395D01*
X85505703Y-71074420D01*
X85524817Y-71095246D01*
X85595483Y-71192510D01*
X85762490Y-71359517D01*
X85953567Y-71498343D01*
X86033051Y-71538842D01*
X86164003Y-71605566D01*
X86164005Y-71605566D01*
X86164008Y-71605568D01*
X86271831Y-71640602D01*
X86388631Y-71678553D01*
X86621903Y-71715500D01*
X86621908Y-71715500D01*
X88858097Y-71715500D01*
X89091368Y-71678553D01*
X89315992Y-71605568D01*
X89383535Y-71571153D01*
X96229500Y-71571153D01*
X96229500Y-71728846D01*
X96260261Y-71883489D01*
X96260264Y-71883501D01*
X96320602Y-72029172D01*
X96320609Y-72029185D01*
X96408210Y-72160288D01*
X96408213Y-72160292D01*
X96519707Y-72271786D01*
X96519711Y-72271789D01*
X96650814Y-72359390D01*
X96650827Y-72359397D01*
X96781315Y-72413446D01*
X96796503Y-72419737D01*
X96899699Y-72440264D01*
X96951153Y-72450499D01*
X96951156Y-72450500D01*
X96951158Y-72450500D01*
X97108844Y-72450500D01*
X97108845Y-72450499D01*
X97263497Y-72419737D01*
X97409179Y-72359394D01*
X97521863Y-72284100D01*
X97588537Y-72263224D01*
X97655917Y-72281708D01*
X97702607Y-72333686D01*
X97713784Y-72402656D01*
X97693854Y-72456094D01*
X97650608Y-72520816D01*
X97650602Y-72520827D01*
X97590264Y-72666498D01*
X97590261Y-72666510D01*
X97559500Y-72821153D01*
X97559500Y-72978846D01*
X97590261Y-73133489D01*
X97590264Y-73133501D01*
X97650602Y-73279172D01*
X97650609Y-73279185D01*
X97738210Y-73410288D01*
X97738213Y-73410292D01*
X97849707Y-73521786D01*
X97849711Y-73521789D01*
X97980814Y-73609390D01*
X97980827Y-73609397D01*
X98101028Y-73659185D01*
X98126503Y-73669737D01*
X98281153Y-73700499D01*
X98281156Y-73700500D01*
X98281158Y-73700500D01*
X98438844Y-73700500D01*
X98438845Y-73700499D01*
X98593497Y-73669737D01*
X98739179Y-73609394D01*
X98870289Y-73521789D01*
X98981789Y-73410289D01*
X99069394Y-73279179D01*
X99129737Y-73133497D01*
X99160500Y-72978842D01*
X99160500Y-72821158D01*
X99160500Y-72821155D01*
X99144209Y-72739258D01*
X99144209Y-72739257D01*
X99140608Y-72721153D01*
X117029500Y-72721153D01*
X117029500Y-72878846D01*
X117060261Y-73033489D01*
X117060264Y-73033501D01*
X117120602Y-73179172D01*
X117120609Y-73179185D01*
X117208210Y-73310288D01*
X117208213Y-73310292D01*
X117319707Y-73421786D01*
X117319711Y-73421789D01*
X117450814Y-73509390D01*
X117450827Y-73509397D01*
X117596498Y-73569735D01*
X117596503Y-73569737D01*
X117751153Y-73600499D01*
X117751156Y-73600500D01*
X117751158Y-73600500D01*
X117908844Y-73600500D01*
X117908845Y-73600499D01*
X118063497Y-73569737D01*
X118199264Y-73513501D01*
X118209172Y-73509397D01*
X118209172Y-73509396D01*
X118209179Y-73509394D01*
X118340289Y-73421789D01*
X118451789Y-73310289D01*
X118539394Y-73179179D01*
X118559287Y-73131153D01*
X123839500Y-73131153D01*
X123839500Y-73288846D01*
X123870261Y-73443489D01*
X123870264Y-73443501D01*
X123930602Y-73589172D01*
X123930609Y-73589185D01*
X124018210Y-73720288D01*
X124018213Y-73720292D01*
X124129707Y-73831786D01*
X124129711Y-73831789D01*
X124260814Y-73919390D01*
X124260827Y-73919397D01*
X124382288Y-73969707D01*
X124406503Y-73979737D01*
X124561153Y-74010499D01*
X124561156Y-74010500D01*
X124561158Y-74010500D01*
X124718844Y-74010500D01*
X124718845Y-74010499D01*
X124873497Y-73979737D01*
X125019179Y-73919394D01*
X125047607Y-73900398D01*
X125114283Y-73879520D01*
X125181664Y-73898003D01*
X125228355Y-73949981D01*
X125239533Y-74018951D01*
X125219602Y-74072389D01*
X125200611Y-74100811D01*
X125200602Y-74100827D01*
X125140264Y-74246498D01*
X125140261Y-74246510D01*
X125109500Y-74401153D01*
X125109500Y-74558846D01*
X125141346Y-74718947D01*
X125135119Y-74788538D01*
X125092256Y-74843716D01*
X125026366Y-74866960D01*
X124995538Y-74864755D01*
X124918846Y-74849500D01*
X124918842Y-74849500D01*
X124761158Y-74849500D01*
X124761155Y-74849500D01*
X124606510Y-74880261D01*
X124606498Y-74880264D01*
X124460827Y-74940602D01*
X124460814Y-74940609D01*
X124329711Y-75028210D01*
X124329707Y-75028213D01*
X124218213Y-75139707D01*
X124218210Y-75139711D01*
X124130609Y-75270814D01*
X124130602Y-75270827D01*
X124070264Y-75416498D01*
X124070261Y-75416510D01*
X124039500Y-75571153D01*
X124039500Y-75728846D01*
X124070261Y-75883489D01*
X124070264Y-75883501D01*
X124130602Y-76029172D01*
X124130609Y-76029185D01*
X124218210Y-76160288D01*
X124218213Y-76160292D01*
X124329707Y-76271786D01*
X124329711Y-76271789D01*
X124460814Y-76359390D01*
X124460827Y-76359397D01*
X124606498Y-76419735D01*
X124606503Y-76419737D01*
X124761153Y-76450499D01*
X124761156Y-76450500D01*
X124761158Y-76450500D01*
X124918844Y-76450500D01*
X124918845Y-76450499D01*
X125073497Y-76419737D01*
X125219179Y-76359394D01*
X125350289Y-76271789D01*
X125461789Y-76160289D01*
X125549394Y-76029179D01*
X125609737Y-75883497D01*
X125640500Y-75728842D01*
X125640500Y-75571158D01*
X125640500Y-75571155D01*
X125608653Y-75411053D01*
X125614880Y-75341461D01*
X125657743Y-75286284D01*
X125723633Y-75263039D01*
X125754461Y-75265243D01*
X125771545Y-75268642D01*
X125831156Y-75280500D01*
X125831158Y-75280500D01*
X125988844Y-75280500D01*
X125988845Y-75280499D01*
X126143497Y-75249737D01*
X126289179Y-75189394D01*
X126301513Y-75181153D01*
X131669500Y-75181153D01*
X131669500Y-75338846D01*
X131700261Y-75493489D01*
X131700264Y-75493501D01*
X131760602Y-75639172D01*
X131760609Y-75639185D01*
X131848210Y-75770288D01*
X131848213Y-75770292D01*
X131959707Y-75881786D01*
X131959711Y-75881789D01*
X132090814Y-75969390D01*
X132090827Y-75969397D01*
X132214466Y-76020609D01*
X132236503Y-76029737D01*
X132391153Y-76060499D01*
X132391156Y-76060500D01*
X132391158Y-76060500D01*
X132548844Y-76060500D01*
X132548845Y-76060499D01*
X132703497Y-76029737D01*
X132849179Y-75969394D01*
X132980289Y-75881789D01*
X133091789Y-75770289D01*
X133179394Y-75639179D01*
X133239737Y-75493497D01*
X133270500Y-75338842D01*
X133270500Y-75181158D01*
X133270500Y-75181155D01*
X133270499Y-75181153D01*
X133251847Y-75087385D01*
X133239737Y-75026503D01*
X133224737Y-74990289D01*
X133179397Y-74880827D01*
X133179390Y-74880814D01*
X133091789Y-74749711D01*
X133091786Y-74749707D01*
X132980292Y-74638213D01*
X132980288Y-74638210D01*
X132849185Y-74550609D01*
X132849172Y-74550602D01*
X132703501Y-74490264D01*
X132703489Y-74490261D01*
X132548845Y-74459500D01*
X132548842Y-74459500D01*
X132391158Y-74459500D01*
X132391155Y-74459500D01*
X132236510Y-74490261D01*
X132236498Y-74490264D01*
X132090827Y-74550602D01*
X132090814Y-74550609D01*
X131959711Y-74638210D01*
X131959707Y-74638213D01*
X131848213Y-74749707D01*
X131848210Y-74749711D01*
X131760609Y-74880814D01*
X131760602Y-74880827D01*
X131700264Y-75026498D01*
X131700261Y-75026510D01*
X131669500Y-75181153D01*
X126301513Y-75181153D01*
X126420289Y-75101789D01*
X126422578Y-75099500D01*
X126434694Y-75087385D01*
X126531786Y-74990292D01*
X126531789Y-74990289D01*
X126619394Y-74859179D01*
X126679737Y-74713497D01*
X126710500Y-74558842D01*
X126710500Y-74401158D01*
X126710500Y-74401155D01*
X126710499Y-74401153D01*
X126696287Y-74329707D01*
X126679737Y-74246503D01*
X126631823Y-74130827D01*
X126619397Y-74100827D01*
X126619390Y-74100814D01*
X126531789Y-73969711D01*
X126531786Y-73969707D01*
X126420292Y-73858213D01*
X126420288Y-73858210D01*
X126289185Y-73770609D01*
X126289172Y-73770602D01*
X126143501Y-73710264D01*
X126143489Y-73710261D01*
X125988845Y-73679500D01*
X125988842Y-73679500D01*
X125831158Y-73679500D01*
X125831155Y-73679500D01*
X125676510Y-73710261D01*
X125676498Y-73710264D01*
X125530827Y-73770602D01*
X125530811Y-73770611D01*
X125502389Y-73789602D01*
X125435712Y-73810479D01*
X125368332Y-73791994D01*
X125321642Y-73740014D01*
X125310467Y-73671044D01*
X125330398Y-73617608D01*
X125349394Y-73589179D01*
X125409737Y-73443497D01*
X125440500Y-73288842D01*
X125440500Y-73201153D01*
X128449500Y-73201153D01*
X128449500Y-73358846D01*
X128480261Y-73513489D01*
X128480264Y-73513501D01*
X128540602Y-73659172D01*
X128540609Y-73659185D01*
X128628210Y-73790288D01*
X128628213Y-73790292D01*
X128739707Y-73901786D01*
X128739711Y-73901789D01*
X128870814Y-73989390D01*
X128870827Y-73989397D01*
X129016498Y-74049735D01*
X129016503Y-74049737D01*
X129119699Y-74070264D01*
X129171153Y-74080499D01*
X129171156Y-74080500D01*
X129171158Y-74080500D01*
X129328844Y-74080500D01*
X129328845Y-74080499D01*
X129483497Y-74049737D01*
X129629179Y-73989394D01*
X129760289Y-73901789D01*
X129871789Y-73790289D01*
X129959394Y-73659179D01*
X130019737Y-73513497D01*
X130050500Y-73358842D01*
X130050500Y-73201158D01*
X130050500Y-73201155D01*
X130050499Y-73201153D01*
X130025925Y-73077613D01*
X130019737Y-73046503D01*
X130019735Y-73046498D01*
X129959397Y-72900827D01*
X129959390Y-72900814D01*
X129871789Y-72769711D01*
X129871786Y-72769707D01*
X129760292Y-72658213D01*
X129760288Y-72658210D01*
X129629185Y-72570609D01*
X129629172Y-72570602D01*
X129483501Y-72510264D01*
X129483489Y-72510261D01*
X129328845Y-72479500D01*
X129328842Y-72479500D01*
X129171158Y-72479500D01*
X129171155Y-72479500D01*
X129016510Y-72510261D01*
X129016498Y-72510264D01*
X128870827Y-72570602D01*
X128870814Y-72570609D01*
X128739711Y-72658210D01*
X128739707Y-72658213D01*
X128628213Y-72769707D01*
X128628210Y-72769711D01*
X128540609Y-72900814D01*
X128540602Y-72900827D01*
X128480264Y-73046498D01*
X128480261Y-73046510D01*
X128449500Y-73201153D01*
X125440500Y-73201153D01*
X125440500Y-73131158D01*
X125440500Y-73131155D01*
X125440499Y-73131153D01*
X125423660Y-73046498D01*
X125409737Y-72976503D01*
X125407783Y-72971786D01*
X125349397Y-72830827D01*
X125349390Y-72830814D01*
X125261789Y-72699711D01*
X125261786Y-72699707D01*
X125150292Y-72588213D01*
X125150288Y-72588210D01*
X125019185Y-72500609D01*
X125019172Y-72500602D01*
X124873501Y-72440264D01*
X124873489Y-72440261D01*
X124718845Y-72409500D01*
X124718842Y-72409500D01*
X124561158Y-72409500D01*
X124561155Y-72409500D01*
X124406510Y-72440261D01*
X124406498Y-72440264D01*
X124260827Y-72500602D01*
X124260814Y-72500609D01*
X124129711Y-72588210D01*
X124129707Y-72588213D01*
X124018213Y-72699707D01*
X124018210Y-72699711D01*
X123930609Y-72830814D01*
X123930602Y-72830827D01*
X123870264Y-72976498D01*
X123870261Y-72976510D01*
X123839500Y-73131153D01*
X118559287Y-73131153D01*
X118564015Y-73119738D01*
X118581464Y-73077613D01*
X118589010Y-73059394D01*
X118599737Y-73033497D01*
X118630500Y-72878842D01*
X118630500Y-72721158D01*
X118630500Y-72721155D01*
X118630499Y-72721153D01*
X118604055Y-72588211D01*
X118599737Y-72566503D01*
X118572440Y-72500602D01*
X118539397Y-72420827D01*
X118539390Y-72420814D01*
X118451789Y-72289711D01*
X118451786Y-72289707D01*
X118340292Y-72178213D01*
X118340288Y-72178210D01*
X118209185Y-72090609D01*
X118209172Y-72090602D01*
X118063501Y-72030264D01*
X118063489Y-72030261D01*
X117908845Y-71999500D01*
X117908842Y-71999500D01*
X117751158Y-71999500D01*
X117751155Y-71999500D01*
X117596510Y-72030261D01*
X117596498Y-72030264D01*
X117450827Y-72090602D01*
X117450814Y-72090609D01*
X117319711Y-72178210D01*
X117319707Y-72178213D01*
X117208213Y-72289707D01*
X117208210Y-72289711D01*
X117120609Y-72420814D01*
X117120602Y-72420827D01*
X117060264Y-72566498D01*
X117060261Y-72566510D01*
X117029500Y-72721153D01*
X99140608Y-72721153D01*
X99138834Y-72712237D01*
X99129737Y-72666503D01*
X99126302Y-72658210D01*
X99069397Y-72520827D01*
X99069390Y-72520814D01*
X98981789Y-72389711D01*
X98981786Y-72389707D01*
X98870292Y-72278213D01*
X98870288Y-72278210D01*
X98739185Y-72190609D01*
X98739172Y-72190602D01*
X98593501Y-72130264D01*
X98593489Y-72130261D01*
X98438845Y-72099500D01*
X98438842Y-72099500D01*
X98281158Y-72099500D01*
X98281155Y-72099500D01*
X98126510Y-72130261D01*
X98126498Y-72130264D01*
X97980827Y-72190602D01*
X97980814Y-72190609D01*
X97868139Y-72265897D01*
X97801461Y-72286775D01*
X97734081Y-72268290D01*
X97687391Y-72216312D01*
X97676215Y-72147341D01*
X97696145Y-72093905D01*
X97739394Y-72029179D01*
X97799737Y-71883497D01*
X97830500Y-71728842D01*
X97830500Y-71571158D01*
X97830500Y-71571155D01*
X97830499Y-71571153D01*
X97822371Y-71530292D01*
X97799737Y-71416503D01*
X97785097Y-71381158D01*
X97739397Y-71270827D01*
X97739390Y-71270814D01*
X97651789Y-71139711D01*
X97651786Y-71139707D01*
X97540290Y-71028211D01*
X97409999Y-70941153D01*
X102339500Y-70941153D01*
X102339500Y-71098846D01*
X102370261Y-71253489D01*
X102370264Y-71253501D01*
X102430602Y-71399172D01*
X102430609Y-71399185D01*
X102518210Y-71530288D01*
X102518213Y-71530292D01*
X102629707Y-71641786D01*
X102629711Y-71641789D01*
X102760814Y-71729390D01*
X102760827Y-71729397D01*
X102906498Y-71789735D01*
X102906503Y-71789737D01*
X103061153Y-71820499D01*
X103061156Y-71820500D01*
X103061158Y-71820500D01*
X103218844Y-71820500D01*
X103218845Y-71820499D01*
X103373497Y-71789737D01*
X103519179Y-71729394D01*
X103650289Y-71641789D01*
X103761789Y-71530289D01*
X103849394Y-71399179D01*
X103849395Y-71399176D01*
X103849397Y-71399173D01*
X103856861Y-71381153D01*
X125579500Y-71381153D01*
X125579500Y-71538846D01*
X125610261Y-71693489D01*
X125610264Y-71693501D01*
X125670602Y-71839172D01*
X125670609Y-71839185D01*
X125758210Y-71970288D01*
X125758213Y-71970292D01*
X125869707Y-72081786D01*
X125869711Y-72081789D01*
X126000814Y-72169390D01*
X126000827Y-72169397D01*
X126114092Y-72216312D01*
X126146503Y-72229737D01*
X126301153Y-72260499D01*
X126301156Y-72260500D01*
X126301158Y-72260500D01*
X126458844Y-72260500D01*
X126458845Y-72260499D01*
X126613497Y-72229737D01*
X126759179Y-72169394D01*
X126890289Y-72081789D01*
X127001789Y-71970289D01*
X127089394Y-71839179D01*
X127149737Y-71693497D01*
X127180500Y-71538842D01*
X127180500Y-71441153D01*
X130849500Y-71441153D01*
X130849500Y-71598846D01*
X130880261Y-71753489D01*
X130880264Y-71753501D01*
X130940602Y-71899172D01*
X130940609Y-71899185D01*
X131028210Y-72030288D01*
X131028213Y-72030292D01*
X131139707Y-72141786D01*
X131139711Y-72141789D01*
X131270814Y-72229390D01*
X131270827Y-72229397D01*
X131416440Y-72289711D01*
X131416503Y-72289737D01*
X131526186Y-72311554D01*
X131570383Y-72320346D01*
X131632294Y-72352731D01*
X131666868Y-72413446D01*
X131669097Y-72426820D01*
X131700261Y-72583489D01*
X131700264Y-72583501D01*
X131760602Y-72729172D01*
X131760609Y-72729185D01*
X131848210Y-72860288D01*
X131848213Y-72860292D01*
X131959707Y-72971786D01*
X131959711Y-72971789D01*
X132090814Y-73059390D01*
X132090827Y-73059397D01*
X132236498Y-73119735D01*
X132236503Y-73119737D01*
X132391153Y-73150499D01*
X132391156Y-73150500D01*
X132391158Y-73150500D01*
X132548844Y-73150500D01*
X132548845Y-73150499D01*
X132703497Y-73119737D01*
X132849179Y-73059394D01*
X132980289Y-72971789D01*
X133091789Y-72860289D01*
X133179394Y-72729179D01*
X133182719Y-72721153D01*
X133208790Y-72658210D01*
X133239737Y-72583497D01*
X133270500Y-72428842D01*
X133270500Y-72271158D01*
X133270500Y-72271155D01*
X133270499Y-72271153D01*
X133269930Y-72268290D01*
X133239737Y-72116503D01*
X133230376Y-72093903D01*
X133179397Y-71970827D01*
X133179390Y-71970814D01*
X133091789Y-71839711D01*
X133091786Y-71839707D01*
X132980292Y-71728213D01*
X132980288Y-71728210D01*
X132849185Y-71640609D01*
X132849172Y-71640602D01*
X132703501Y-71580264D01*
X132703491Y-71580261D01*
X132549615Y-71549653D01*
X132487704Y-71517268D01*
X132453130Y-71456552D01*
X132450904Y-71443186D01*
X132432024Y-71348273D01*
X132419737Y-71286503D01*
X132413241Y-71270821D01*
X132359397Y-71140827D01*
X132359390Y-71140814D01*
X132271789Y-71009711D01*
X132271786Y-71009707D01*
X132160292Y-70898213D01*
X132160288Y-70898210D01*
X132029185Y-70810609D01*
X132029172Y-70810602D01*
X131883501Y-70750264D01*
X131883489Y-70750261D01*
X131728845Y-70719500D01*
X131728842Y-70719500D01*
X131571158Y-70719500D01*
X131571155Y-70719500D01*
X131416510Y-70750261D01*
X131416498Y-70750264D01*
X131270827Y-70810602D01*
X131270814Y-70810609D01*
X131139711Y-70898210D01*
X131139707Y-70898213D01*
X131028213Y-71009707D01*
X131028210Y-71009711D01*
X130940609Y-71140814D01*
X130940602Y-71140827D01*
X130880264Y-71286498D01*
X130880261Y-71286510D01*
X130849500Y-71441153D01*
X127180500Y-71441153D01*
X127180500Y-71381158D01*
X127180500Y-71381155D01*
X127180499Y-71381153D01*
X127161671Y-71286498D01*
X127149737Y-71226503D01*
X127113787Y-71139711D01*
X127089397Y-71080827D01*
X127089390Y-71080814D01*
X127001789Y-70949711D01*
X127001786Y-70949707D01*
X126890292Y-70838213D01*
X126890288Y-70838210D01*
X126759185Y-70750609D01*
X126759172Y-70750602D01*
X126613501Y-70690264D01*
X126613489Y-70690261D01*
X126458845Y-70659500D01*
X126458842Y-70659500D01*
X126301158Y-70659500D01*
X126301155Y-70659500D01*
X126146510Y-70690261D01*
X126146498Y-70690264D01*
X126000827Y-70750602D01*
X126000814Y-70750609D01*
X125869711Y-70838210D01*
X125869707Y-70838213D01*
X125758213Y-70949707D01*
X125758210Y-70949711D01*
X125670609Y-71080814D01*
X125670602Y-71080827D01*
X125610264Y-71226498D01*
X125610261Y-71226510D01*
X125579500Y-71381153D01*
X103856861Y-71381153D01*
X103879037Y-71327614D01*
X103879037Y-71327613D01*
X103909737Y-71253497D01*
X103940500Y-71098842D01*
X103940500Y-70941158D01*
X103940500Y-70941155D01*
X103940499Y-70941153D01*
X103914531Y-70810606D01*
X103909737Y-70786503D01*
X103909735Y-70786498D01*
X103849397Y-70640827D01*
X103849390Y-70640814D01*
X103761789Y-70509711D01*
X103761786Y-70509707D01*
X103650292Y-70398213D01*
X103650288Y-70398210D01*
X103519185Y-70310609D01*
X103519172Y-70310602D01*
X103373501Y-70250264D01*
X103373489Y-70250261D01*
X103218845Y-70219500D01*
X103218842Y-70219500D01*
X103061158Y-70219500D01*
X103061155Y-70219500D01*
X102906510Y-70250261D01*
X102906498Y-70250264D01*
X102760827Y-70310602D01*
X102760814Y-70310609D01*
X102629711Y-70398210D01*
X102629707Y-70398213D01*
X102518213Y-70509707D01*
X102518210Y-70509711D01*
X102430609Y-70640814D01*
X102430602Y-70640827D01*
X102370264Y-70786498D01*
X102370261Y-70786510D01*
X102339500Y-70941153D01*
X97409999Y-70941153D01*
X97409185Y-70940609D01*
X97409172Y-70940602D01*
X97263501Y-70880264D01*
X97263489Y-70880261D01*
X97108845Y-70849500D01*
X97108842Y-70849500D01*
X96951158Y-70849500D01*
X96951155Y-70849500D01*
X96796510Y-70880261D01*
X96796498Y-70880264D01*
X96650827Y-70940602D01*
X96650814Y-70940609D01*
X96519711Y-71028210D01*
X96519707Y-71028213D01*
X96408213Y-71139707D01*
X96408210Y-71139711D01*
X96320609Y-71270814D01*
X96320602Y-71270827D01*
X96260264Y-71416498D01*
X96260261Y-71416510D01*
X96229500Y-71571153D01*
X89383535Y-71571153D01*
X89526433Y-71498343D01*
X89717510Y-71359517D01*
X89884517Y-71192510D01*
X90023343Y-71001433D01*
X90130568Y-70790992D01*
X90203553Y-70566368D01*
X90230186Y-70398213D01*
X90240500Y-70333097D01*
X90240500Y-70096902D01*
X90203553Y-69863631D01*
X90130566Y-69639003D01*
X90023342Y-69428566D01*
X89986180Y-69377417D01*
X89884517Y-69237490D01*
X89717510Y-69070483D01*
X89526433Y-68931657D01*
X89489333Y-68912753D01*
X89315996Y-68824433D01*
X89305901Y-68821153D01*
X109299500Y-68821153D01*
X109299500Y-68978846D01*
X109330261Y-69133489D01*
X109330264Y-69133501D01*
X109390602Y-69279172D01*
X109390609Y-69279185D01*
X109478210Y-69410288D01*
X109478213Y-69410292D01*
X109589707Y-69521786D01*
X109589711Y-69521789D01*
X109720814Y-69609390D01*
X109720827Y-69609397D01*
X109866498Y-69669735D01*
X109866503Y-69669737D01*
X110021153Y-69700499D01*
X110021156Y-69700500D01*
X110021158Y-69700500D01*
X110178844Y-69700500D01*
X110178845Y-69700499D01*
X110333497Y-69669737D01*
X110479179Y-69609394D01*
X110610289Y-69521789D01*
X110721789Y-69410289D01*
X110809394Y-69279179D01*
X110869737Y-69133497D01*
X110900500Y-68978842D01*
X110900500Y-68821158D01*
X110900500Y-68821155D01*
X110900499Y-68821153D01*
X110869737Y-68666503D01*
X110827068Y-68563489D01*
X110809397Y-68520827D01*
X110809390Y-68520814D01*
X110784763Y-68483957D01*
X110742798Y-68421153D01*
X130839500Y-68421153D01*
X130839500Y-68578846D01*
X130870261Y-68733489D01*
X130870264Y-68733501D01*
X130930602Y-68879172D01*
X130930609Y-68879185D01*
X131018210Y-69010288D01*
X131018213Y-69010292D01*
X131129707Y-69121786D01*
X131129711Y-69121789D01*
X131260814Y-69209390D01*
X131260827Y-69209397D01*
X131406498Y-69269735D01*
X131406503Y-69269737D01*
X131561153Y-69300499D01*
X131561156Y-69300500D01*
X131561158Y-69300500D01*
X131718844Y-69300500D01*
X131718845Y-69300499D01*
X131873497Y-69269737D01*
X132019179Y-69209394D01*
X132150289Y-69121789D01*
X132261789Y-69010289D01*
X132349394Y-68879179D01*
X132409737Y-68733497D01*
X132440500Y-68578842D01*
X132440500Y-68421158D01*
X132440500Y-68421155D01*
X132410285Y-68269258D01*
X132410285Y-68269256D01*
X132410284Y-68269253D01*
X132409738Y-68266510D01*
X132409737Y-68266503D01*
X132403379Y-68251153D01*
X132699500Y-68251153D01*
X132699500Y-68408846D01*
X132730261Y-68563489D01*
X132730264Y-68563501D01*
X132790602Y-68709172D01*
X132790609Y-68709185D01*
X132878210Y-68840288D01*
X132878213Y-68840292D01*
X132989707Y-68951786D01*
X132989711Y-68951789D01*
X133120814Y-69039390D01*
X133120827Y-69039397D01*
X133266498Y-69099735D01*
X133266503Y-69099737D01*
X133421153Y-69130499D01*
X133421156Y-69130500D01*
X133421158Y-69130500D01*
X133578844Y-69130500D01*
X133578845Y-69130499D01*
X133733497Y-69099737D01*
X133879179Y-69039394D01*
X134010289Y-68951789D01*
X134121789Y-68840289D01*
X134209394Y-68709179D01*
X134269737Y-68563497D01*
X134300500Y-68408842D01*
X134300500Y-68251158D01*
X134300500Y-68251155D01*
X134300499Y-68251153D01*
X134288455Y-68190606D01*
X134269737Y-68096503D01*
X134225501Y-67989707D01*
X134209397Y-67950827D01*
X134209390Y-67950814D01*
X134121789Y-67819711D01*
X134121786Y-67819707D01*
X134010292Y-67708213D01*
X134010288Y-67708210D01*
X133879185Y-67620609D01*
X133879172Y-67620602D01*
X133733501Y-67560264D01*
X133733489Y-67560261D01*
X133578845Y-67529500D01*
X133578842Y-67529500D01*
X133421158Y-67529500D01*
X133421155Y-67529500D01*
X133266510Y-67560261D01*
X133266498Y-67560264D01*
X133120827Y-67620602D01*
X133120814Y-67620609D01*
X132989711Y-67708210D01*
X132989707Y-67708213D01*
X132878213Y-67819707D01*
X132878210Y-67819711D01*
X132790609Y-67950814D01*
X132790602Y-67950827D01*
X132730264Y-68096498D01*
X132730261Y-68096510D01*
X132699500Y-68251153D01*
X132403379Y-68251153D01*
X132378298Y-68190602D01*
X132349397Y-68120827D01*
X132349390Y-68120814D01*
X132261789Y-67989711D01*
X132261786Y-67989707D01*
X132150292Y-67878213D01*
X132150288Y-67878210D01*
X132019185Y-67790609D01*
X132019172Y-67790602D01*
X131873501Y-67730264D01*
X131873489Y-67730261D01*
X131718845Y-67699500D01*
X131718842Y-67699500D01*
X131561158Y-67699500D01*
X131561155Y-67699500D01*
X131406510Y-67730261D01*
X131406498Y-67730264D01*
X131260827Y-67790602D01*
X131260814Y-67790609D01*
X131129711Y-67878210D01*
X131129707Y-67878213D01*
X131018213Y-67989707D01*
X131018210Y-67989711D01*
X130930609Y-68120814D01*
X130930602Y-68120827D01*
X130870264Y-68266498D01*
X130870261Y-68266510D01*
X130839500Y-68421153D01*
X110742798Y-68421153D01*
X110721789Y-68389711D01*
X110721786Y-68389707D01*
X110610292Y-68278213D01*
X110610288Y-68278210D01*
X110479185Y-68190609D01*
X110479172Y-68190602D01*
X110333501Y-68130264D01*
X110333489Y-68130261D01*
X110178845Y-68099500D01*
X110178842Y-68099500D01*
X110021158Y-68099500D01*
X110021155Y-68099500D01*
X109866510Y-68130261D01*
X109866498Y-68130264D01*
X109720827Y-68190602D01*
X109720814Y-68190609D01*
X109589711Y-68278210D01*
X109589707Y-68278213D01*
X109478213Y-68389707D01*
X109478210Y-68389711D01*
X109390609Y-68520814D01*
X109390602Y-68520827D01*
X109330264Y-68666498D01*
X109330261Y-68666510D01*
X109299500Y-68821153D01*
X89305901Y-68821153D01*
X89091368Y-68751446D01*
X88858097Y-68714500D01*
X88858092Y-68714500D01*
X86621908Y-68714500D01*
X86621903Y-68714500D01*
X86388631Y-68751446D01*
X86164003Y-68824433D01*
X85953566Y-68931657D01*
X85888617Y-68978846D01*
X85762490Y-69070483D01*
X85762488Y-69070485D01*
X85762487Y-69070485D01*
X85595485Y-69237487D01*
X85595485Y-69237488D01*
X85595483Y-69237490D01*
X85524818Y-69334752D01*
X85469488Y-69377417D01*
X85399874Y-69383396D01*
X85338079Y-69350790D01*
X85303722Y-69289951D01*
X85300500Y-69261866D01*
X85300500Y-63903013D01*
X90247000Y-63903013D01*
X90247000Y-64091986D01*
X90276559Y-64278618D01*
X90334954Y-64458336D01*
X90420740Y-64626699D01*
X90531810Y-64779573D01*
X90531812Y-64779575D01*
X90662056Y-64909819D01*
X90695541Y-64971142D01*
X90690557Y-65040834D01*
X90662056Y-65085181D01*
X90531812Y-65215424D01*
X90531812Y-65215425D01*
X90531810Y-65215427D01*
X90484110Y-65281079D01*
X90420740Y-65368300D01*
X90334954Y-65536663D01*
X90276559Y-65716381D01*
X90247000Y-65903013D01*
X90247000Y-66091986D01*
X90276559Y-66278618D01*
X90334954Y-66458336D01*
X90365784Y-66518842D01*
X90420740Y-66626699D01*
X90531810Y-66779573D01*
X90665427Y-66913190D01*
X90818301Y-67024260D01*
X90891950Y-67061786D01*
X90986663Y-67110045D01*
X90986665Y-67110045D01*
X90986668Y-67110047D01*
X91082997Y-67141346D01*
X91166381Y-67168440D01*
X91353014Y-67198000D01*
X91353019Y-67198000D01*
X91541986Y-67198000D01*
X91728618Y-67168440D01*
X91908332Y-67110047D01*
X92076699Y-67024260D01*
X92229573Y-66913190D01*
X92363190Y-66779573D01*
X92474260Y-66626699D01*
X92560047Y-66458332D01*
X92591623Y-66361153D01*
X111769500Y-66361153D01*
X111769500Y-66518846D01*
X111800261Y-66673489D01*
X111800264Y-66673501D01*
X111860602Y-66819172D01*
X111860609Y-66819185D01*
X111948210Y-66950288D01*
X111948213Y-66950292D01*
X112059707Y-67061786D01*
X112059711Y-67061789D01*
X112190814Y-67149390D01*
X112190827Y-67149397D01*
X112236802Y-67168440D01*
X112336503Y-67209737D01*
X112491153Y-67240499D01*
X112491156Y-67240500D01*
X112491158Y-67240500D01*
X112648844Y-67240500D01*
X112648845Y-67240499D01*
X112803497Y-67209737D01*
X112949179Y-67149394D01*
X113080289Y-67061789D01*
X113191789Y-66950289D01*
X113279394Y-66819179D01*
X113339737Y-66673497D01*
X113370500Y-66518842D01*
X113370500Y-66361158D01*
X113370500Y-66361155D01*
X113370499Y-66361153D01*
X113361666Y-66316747D01*
X113339737Y-66206503D01*
X113292301Y-66091981D01*
X113279397Y-66060827D01*
X113279390Y-66060814D01*
X113191789Y-65929711D01*
X113191786Y-65929707D01*
X113080292Y-65818213D01*
X113080288Y-65818210D01*
X112949185Y-65730609D01*
X112949172Y-65730602D01*
X112803501Y-65670264D01*
X112803489Y-65670261D01*
X112648845Y-65639500D01*
X112648842Y-65639500D01*
X112491158Y-65639500D01*
X112491155Y-65639500D01*
X112336510Y-65670261D01*
X112336498Y-65670264D01*
X112190827Y-65730602D01*
X112190814Y-65730609D01*
X112059711Y-65818210D01*
X112059707Y-65818213D01*
X111948213Y-65929707D01*
X111948210Y-65929711D01*
X111860609Y-66060814D01*
X111860602Y-66060827D01*
X111800264Y-66206498D01*
X111800261Y-66206510D01*
X111769500Y-66361153D01*
X92591623Y-66361153D01*
X92618440Y-66278618D01*
X92629863Y-66206498D01*
X92648000Y-66091986D01*
X92648000Y-65903013D01*
X92618440Y-65716381D01*
X92560045Y-65536663D01*
X92474259Y-65368300D01*
X92363190Y-65215427D01*
X92232944Y-65085181D01*
X92199459Y-65023858D01*
X92204443Y-64954166D01*
X92232944Y-64909819D01*
X92363190Y-64779573D01*
X92474260Y-64626699D01*
X92560047Y-64458332D01*
X92618440Y-64278618D01*
X92648000Y-64091986D01*
X92648000Y-63903013D01*
X92618440Y-63716381D01*
X92560045Y-63536663D01*
X92474259Y-63368300D01*
X92363190Y-63215427D01*
X92308916Y-63161153D01*
X99849500Y-63161153D01*
X99849500Y-63318846D01*
X99880261Y-63473489D01*
X99880264Y-63473501D01*
X99940602Y-63619172D01*
X99940609Y-63619185D01*
X100028210Y-63750288D01*
X100028213Y-63750292D01*
X100139707Y-63861786D01*
X100139711Y-63861789D01*
X100270814Y-63949390D01*
X100270827Y-63949397D01*
X100416498Y-64009735D01*
X100416503Y-64009737D01*
X100571153Y-64040499D01*
X100571156Y-64040500D01*
X100571158Y-64040500D01*
X100728844Y-64040500D01*
X100728845Y-64040499D01*
X100883497Y-64009737D01*
X101029179Y-63949394D01*
X101160289Y-63861789D01*
X101271789Y-63750289D01*
X101359394Y-63619179D01*
X101419737Y-63473497D01*
X101450500Y-63318842D01*
X101450500Y-63161158D01*
X101450500Y-63161155D01*
X101450499Y-63161153D01*
X101434717Y-63081812D01*
X101419737Y-63006503D01*
X101404924Y-62970740D01*
X101359397Y-62860827D01*
X101359390Y-62860814D01*
X101271789Y-62729711D01*
X101271786Y-62729707D01*
X101160292Y-62618213D01*
X101160288Y-62618210D01*
X101029185Y-62530609D01*
X101029172Y-62530602D01*
X100883501Y-62470264D01*
X100883489Y-62470261D01*
X100728845Y-62439500D01*
X100728842Y-62439500D01*
X100571158Y-62439500D01*
X100571155Y-62439500D01*
X100416510Y-62470261D01*
X100416498Y-62470264D01*
X100270827Y-62530602D01*
X100270814Y-62530609D01*
X100139711Y-62618210D01*
X100139707Y-62618213D01*
X100028213Y-62729707D01*
X100028210Y-62729711D01*
X99940609Y-62860814D01*
X99940602Y-62860827D01*
X99880264Y-63006498D01*
X99880261Y-63006510D01*
X99849500Y-63161153D01*
X92308916Y-63161153D01*
X92229573Y-63081810D01*
X92076699Y-62970740D01*
X91908336Y-62884954D01*
X91728618Y-62826559D01*
X91541986Y-62797000D01*
X91541981Y-62797000D01*
X91353019Y-62797000D01*
X91353014Y-62797000D01*
X91166381Y-62826559D01*
X90986663Y-62884954D01*
X90818300Y-62970740D01*
X90769068Y-63006510D01*
X90665427Y-63081810D01*
X90665425Y-63081812D01*
X90665424Y-63081812D01*
X90531812Y-63215424D01*
X90531812Y-63215425D01*
X90531810Y-63215427D01*
X90522710Y-63227952D01*
X90420740Y-63368300D01*
X90334954Y-63536663D01*
X90276559Y-63716381D01*
X90247000Y-63903013D01*
X85300500Y-63903013D01*
X85300500Y-61231153D01*
X92709500Y-61231153D01*
X92709500Y-61388846D01*
X92740261Y-61543489D01*
X92740264Y-61543501D01*
X92800602Y-61689172D01*
X92800609Y-61689185D01*
X92888210Y-61820288D01*
X92888213Y-61820292D01*
X92999707Y-61931786D01*
X92999711Y-61931789D01*
X93130814Y-62019390D01*
X93130827Y-62019397D01*
X93276498Y-62079735D01*
X93276503Y-62079737D01*
X93431153Y-62110499D01*
X93431156Y-62110500D01*
X93431158Y-62110500D01*
X93588844Y-62110500D01*
X93588845Y-62110499D01*
X93743497Y-62079737D01*
X93889179Y-62019394D01*
X94020289Y-61931789D01*
X94131789Y-61820289D01*
X94219394Y-61689179D01*
X94279737Y-61543497D01*
X94279738Y-61543489D01*
X94281506Y-61537665D01*
X94282874Y-61538080D01*
X94311923Y-61482524D01*
X94372633Y-61447939D01*
X94442403Y-61451667D01*
X94488851Y-61480930D01*
X94579707Y-61571786D01*
X94579711Y-61571789D01*
X94710814Y-61659390D01*
X94710827Y-61659397D01*
X94782743Y-61689185D01*
X94856503Y-61719737D01*
X95005578Y-61749390D01*
X95011153Y-61750499D01*
X95011156Y-61750500D01*
X95011158Y-61750500D01*
X95168844Y-61750500D01*
X95168845Y-61750499D01*
X95323497Y-61719737D01*
X95469179Y-61659394D01*
X95600289Y-61571789D01*
X95711789Y-61460289D01*
X95799394Y-61329179D01*
X95859737Y-61183497D01*
X95890500Y-61028842D01*
X95890500Y-60871158D01*
X95890500Y-60871155D01*
X95890499Y-60871153D01*
X95860897Y-60722335D01*
X95859737Y-60716503D01*
X95830745Y-60646510D01*
X95799397Y-60570827D01*
X95799390Y-60570814D01*
X95711789Y-60439711D01*
X95711786Y-60439707D01*
X95600292Y-60328213D01*
X95600288Y-60328210D01*
X95495463Y-60258168D01*
X95469184Y-60240609D01*
X95469172Y-60240602D01*
X95323501Y-60180264D01*
X95323489Y-60180261D01*
X95227428Y-60161153D01*
X96599500Y-60161153D01*
X96599500Y-60318846D01*
X96630261Y-60473489D01*
X96630264Y-60473501D01*
X96690602Y-60619172D01*
X96690609Y-60619185D01*
X96778210Y-60750288D01*
X96778213Y-60750292D01*
X96889707Y-60861786D01*
X96889711Y-60861789D01*
X97020814Y-60949390D01*
X97020827Y-60949397D01*
X97166498Y-61009735D01*
X97166503Y-61009737D01*
X97321153Y-61040499D01*
X97321156Y-61040500D01*
X97321158Y-61040500D01*
X97478844Y-61040500D01*
X97478845Y-61040499D01*
X97633497Y-61009737D01*
X97779179Y-60949394D01*
X97910289Y-60861789D01*
X98021789Y-60750289D01*
X98109394Y-60619179D01*
X98169737Y-60473497D01*
X98200500Y-60318842D01*
X98200500Y-60161158D01*
X98200500Y-60161155D01*
X98200499Y-60161153D01*
X98182813Y-60072240D01*
X98169737Y-60006503D01*
X98154366Y-59969394D01*
X98109397Y-59860827D01*
X98109390Y-59860814D01*
X98021789Y-59729711D01*
X98021786Y-59729707D01*
X97910292Y-59618213D01*
X97910288Y-59618210D01*
X97779185Y-59530609D01*
X97779172Y-59530602D01*
X97633501Y-59470264D01*
X97633489Y-59470261D01*
X97478845Y-59439500D01*
X97478842Y-59439500D01*
X97321158Y-59439500D01*
X97321155Y-59439500D01*
X97166510Y-59470261D01*
X97166498Y-59470264D01*
X97020827Y-59530602D01*
X97020814Y-59530609D01*
X96889711Y-59618210D01*
X96889707Y-59618213D01*
X96778213Y-59729707D01*
X96778210Y-59729711D01*
X96690609Y-59860814D01*
X96690602Y-59860827D01*
X96630264Y-60006498D01*
X96630261Y-60006510D01*
X96599500Y-60161153D01*
X95227428Y-60161153D01*
X95168845Y-60149500D01*
X95168842Y-60149500D01*
X95011158Y-60149500D01*
X95011155Y-60149500D01*
X94856510Y-60180261D01*
X94856498Y-60180264D01*
X94710827Y-60240602D01*
X94710814Y-60240609D01*
X94579711Y-60328210D01*
X94579707Y-60328213D01*
X94468213Y-60439707D01*
X94468210Y-60439711D01*
X94380609Y-60570814D01*
X94380602Y-60570827D01*
X94320264Y-60716498D01*
X94318494Y-60722335D01*
X94317130Y-60721921D01*
X94288056Y-60777495D01*
X94227339Y-60812066D01*
X94157570Y-60808322D01*
X94111148Y-60779069D01*
X94020292Y-60688213D01*
X94020288Y-60688210D01*
X93889185Y-60600609D01*
X93889172Y-60600602D01*
X93743501Y-60540264D01*
X93743489Y-60540261D01*
X93588845Y-60509500D01*
X93588842Y-60509500D01*
X93431158Y-60509500D01*
X93431155Y-60509500D01*
X93276510Y-60540261D01*
X93276498Y-60540264D01*
X93130827Y-60600602D01*
X93130814Y-60600609D01*
X92999711Y-60688210D01*
X92999707Y-60688213D01*
X92888213Y-60799707D01*
X92888210Y-60799711D01*
X92800609Y-60930814D01*
X92800602Y-60930827D01*
X92740264Y-61076498D01*
X92740261Y-61076510D01*
X92709500Y-61231153D01*
X85300500Y-61231153D01*
X85300500Y-59011153D01*
X102709500Y-59011153D01*
X102709500Y-59168846D01*
X102740261Y-59323489D01*
X102740264Y-59323501D01*
X102800602Y-59469172D01*
X102800609Y-59469185D01*
X102888210Y-59600288D01*
X102888213Y-59600292D01*
X102999707Y-59711786D01*
X102999711Y-59711789D01*
X103130814Y-59799390D01*
X103130827Y-59799397D01*
X103204013Y-59829711D01*
X103276503Y-59859737D01*
X103276507Y-59859737D01*
X103276508Y-59859738D01*
X103304830Y-59865372D01*
X103366741Y-59897757D01*
X103401315Y-59958473D01*
X103397575Y-60028242D01*
X103356708Y-60084914D01*
X103304832Y-60108606D01*
X103296505Y-60110262D01*
X103296498Y-60110264D01*
X103150827Y-60170602D01*
X103150814Y-60170609D01*
X103019711Y-60258210D01*
X103019707Y-60258213D01*
X102908213Y-60369707D01*
X102908210Y-60369711D01*
X102820609Y-60500814D01*
X102820602Y-60500827D01*
X102760264Y-60646498D01*
X102760261Y-60646510D01*
X102729500Y-60801153D01*
X102729500Y-60958846D01*
X102760261Y-61113489D01*
X102760264Y-61113501D01*
X102820602Y-61259172D01*
X102820609Y-61259185D01*
X102908210Y-61390288D01*
X102908213Y-61390292D01*
X103019707Y-61501786D01*
X103019711Y-61501789D01*
X103150814Y-61589390D01*
X103150827Y-61589397D01*
X103296498Y-61649735D01*
X103296503Y-61649737D01*
X103451153Y-61680499D01*
X103451156Y-61680500D01*
X103451158Y-61680500D01*
X103608844Y-61680500D01*
X103608845Y-61680499D01*
X103763497Y-61649737D01*
X103909179Y-61589394D01*
X104040289Y-61501789D01*
X104151789Y-61390289D01*
X104239394Y-61259179D01*
X104299737Y-61113497D01*
X104328051Y-60971153D01*
X111769500Y-60971153D01*
X111769500Y-61128846D01*
X111800261Y-61283489D01*
X111800264Y-61283501D01*
X111860602Y-61429172D01*
X111860609Y-61429185D01*
X111948210Y-61560288D01*
X111948213Y-61560292D01*
X112059707Y-61671786D01*
X112059711Y-61671789D01*
X112190814Y-61759390D01*
X112190827Y-61759397D01*
X112312363Y-61809738D01*
X112336503Y-61819737D01*
X112491153Y-61850499D01*
X112491156Y-61850500D01*
X112491158Y-61850500D01*
X112648844Y-61850500D01*
X112648845Y-61850499D01*
X112803497Y-61819737D01*
X112949179Y-61759394D01*
X113080289Y-61671789D01*
X113191789Y-61560289D01*
X113279394Y-61429179D01*
X113339737Y-61283497D01*
X113370500Y-61128842D01*
X113370500Y-60971158D01*
X113370500Y-60971155D01*
X113370499Y-60971153D01*
X113362475Y-60930814D01*
X113339737Y-60816503D01*
X113332780Y-60799707D01*
X113279397Y-60670827D01*
X113279390Y-60670814D01*
X113191789Y-60539711D01*
X113191786Y-60539707D01*
X113080292Y-60428213D01*
X113080288Y-60428210D01*
X112949185Y-60340609D01*
X112949172Y-60340602D01*
X112803501Y-60280264D01*
X112803489Y-60280261D01*
X112648845Y-60249500D01*
X112648842Y-60249500D01*
X112491158Y-60249500D01*
X112491155Y-60249500D01*
X112336510Y-60280261D01*
X112336498Y-60280264D01*
X112190827Y-60340602D01*
X112190814Y-60340609D01*
X112059711Y-60428210D01*
X112059707Y-60428213D01*
X111948213Y-60539707D01*
X111948210Y-60539711D01*
X111860609Y-60670814D01*
X111860602Y-60670827D01*
X111800264Y-60816498D01*
X111800261Y-60816510D01*
X111769500Y-60971153D01*
X104328051Y-60971153D01*
X104330500Y-60958842D01*
X104330500Y-60801158D01*
X104330500Y-60801155D01*
X104330499Y-60801153D01*
X104314821Y-60722335D01*
X104299737Y-60646503D01*
X104280726Y-60600606D01*
X104239397Y-60500827D01*
X104239390Y-60500814D01*
X104151789Y-60369711D01*
X104151786Y-60369707D01*
X104040292Y-60258213D01*
X104040288Y-60258210D01*
X103909185Y-60170609D01*
X103909172Y-60170602D01*
X103763501Y-60110264D01*
X103763493Y-60110262D01*
X103735167Y-60104627D01*
X103673256Y-60072240D01*
X103638684Y-60011524D01*
X103642425Y-59941754D01*
X103683293Y-59885083D01*
X103735173Y-59861392D01*
X103743497Y-59859737D01*
X103889179Y-59799394D01*
X104020289Y-59711789D01*
X104131789Y-59600289D01*
X104219394Y-59469179D01*
X104279737Y-59323497D01*
X104308051Y-59181153D01*
X109339500Y-59181153D01*
X109339500Y-59338846D01*
X109370261Y-59493489D01*
X109370264Y-59493501D01*
X109430602Y-59639172D01*
X109430609Y-59639185D01*
X109518210Y-59770288D01*
X109518213Y-59770292D01*
X109629707Y-59881786D01*
X109629711Y-59881789D01*
X109760814Y-59969390D01*
X109760827Y-59969397D01*
X109902894Y-60028242D01*
X109906503Y-60029737D01*
X110061153Y-60060499D01*
X110061156Y-60060500D01*
X110061158Y-60060500D01*
X110218844Y-60060500D01*
X110218845Y-60060499D01*
X110373497Y-60029737D01*
X110519179Y-59969394D01*
X110650289Y-59881789D01*
X110761789Y-59770289D01*
X110849394Y-59639179D01*
X110909737Y-59493497D01*
X110940500Y-59338842D01*
X110940500Y-59181158D01*
X110940500Y-59181155D01*
X110940499Y-59181153D01*
X110909738Y-59026510D01*
X110909737Y-59026503D01*
X110909735Y-59026498D01*
X110858382Y-58902518D01*
X110849395Y-58880824D01*
X110849394Y-58880821D01*
X110849392Y-58880818D01*
X110849390Y-58880814D01*
X110836253Y-58861153D01*
X123589500Y-58861153D01*
X123589500Y-59018846D01*
X123620261Y-59173489D01*
X123620264Y-59173501D01*
X123680602Y-59319172D01*
X123680609Y-59319185D01*
X123768210Y-59450288D01*
X123768213Y-59450292D01*
X123870240Y-59552319D01*
X123903725Y-59613642D01*
X123898741Y-59683334D01*
X123870240Y-59727681D01*
X123768213Y-59829707D01*
X123768210Y-59829711D01*
X123680609Y-59960814D01*
X123680602Y-59960827D01*
X123620264Y-60106498D01*
X123620261Y-60106510D01*
X123589500Y-60261153D01*
X123589500Y-60418846D01*
X123620261Y-60573489D01*
X123620264Y-60573501D01*
X123680602Y-60719172D01*
X123680609Y-60719185D01*
X123768210Y-60850288D01*
X123768213Y-60850292D01*
X123879707Y-60961786D01*
X123879711Y-60961789D01*
X124010814Y-61049390D01*
X124010827Y-61049397D01*
X124076256Y-61076498D01*
X124156503Y-61109737D01*
X124211831Y-61120742D01*
X124273740Y-61153126D01*
X124308315Y-61213841D01*
X124309256Y-61218166D01*
X124320261Y-61273492D01*
X124320264Y-61273501D01*
X124380602Y-61419172D01*
X124380609Y-61419185D01*
X124468210Y-61550288D01*
X124468213Y-61550292D01*
X124579707Y-61661786D01*
X124579711Y-61661789D01*
X124710814Y-61749390D01*
X124710827Y-61749397D01*
X124856498Y-61809735D01*
X124856503Y-61809737D01*
X125011153Y-61840499D01*
X125011156Y-61840500D01*
X125011158Y-61840500D01*
X125168844Y-61840500D01*
X125168845Y-61840499D01*
X125323497Y-61809737D01*
X125436166Y-61763067D01*
X125469172Y-61749397D01*
X125469172Y-61749396D01*
X125469179Y-61749394D01*
X125600289Y-61661789D01*
X125612343Y-61649735D01*
X125702319Y-61559760D01*
X125763642Y-61526275D01*
X125833334Y-61531259D01*
X125877681Y-61559760D01*
X125979707Y-61661786D01*
X125979711Y-61661789D01*
X126110814Y-61749390D01*
X126110827Y-61749397D01*
X126256498Y-61809735D01*
X126256503Y-61809737D01*
X126411153Y-61840499D01*
X126411156Y-61840500D01*
X126411158Y-61840500D01*
X126568844Y-61840500D01*
X126568845Y-61840499D01*
X126723497Y-61809737D01*
X126836166Y-61763067D01*
X126869172Y-61749397D01*
X126869172Y-61749396D01*
X126869179Y-61749394D01*
X127000289Y-61661789D01*
X127111789Y-61550289D01*
X127199394Y-61419179D01*
X127259737Y-61273497D01*
X127270743Y-61218166D01*
X127303125Y-61156258D01*
X127363841Y-61121683D01*
X127368118Y-61120752D01*
X127423497Y-61109737D01*
X127569179Y-61049394D01*
X127700289Y-60961789D01*
X127811789Y-60850289D01*
X127899394Y-60719179D01*
X127900503Y-60716503D01*
X127929499Y-60646498D01*
X127959737Y-60573497D01*
X127990500Y-60418842D01*
X127990500Y-60261158D01*
X127990500Y-60261155D01*
X127990499Y-60261153D01*
X127988181Y-60249500D01*
X127959737Y-60106503D01*
X127927939Y-60029735D01*
X127899397Y-59960827D01*
X127899390Y-59960814D01*
X127811789Y-59829711D01*
X127811786Y-59829707D01*
X127709760Y-59727681D01*
X127676275Y-59666358D01*
X127681259Y-59596666D01*
X127709760Y-59552319D01*
X127811786Y-59450292D01*
X127811789Y-59450289D01*
X127899394Y-59319179D01*
X127959737Y-59173497D01*
X127990500Y-59018842D01*
X127990500Y-58861158D01*
X127990500Y-58861155D01*
X127990499Y-58861153D01*
X127989573Y-58856498D01*
X127959737Y-58706503D01*
X127959735Y-58706498D01*
X127899397Y-58560827D01*
X127899390Y-58560814D01*
X127811789Y-58429711D01*
X127811786Y-58429707D01*
X127700292Y-58318213D01*
X127700288Y-58318210D01*
X127569185Y-58230609D01*
X127569172Y-58230602D01*
X127423501Y-58170264D01*
X127423492Y-58170261D01*
X127368166Y-58159256D01*
X127306256Y-58126870D01*
X127271682Y-58066154D01*
X127270750Y-58061874D01*
X127259737Y-58006503D01*
X127230677Y-57936346D01*
X127199397Y-57860827D01*
X127199390Y-57860814D01*
X127111789Y-57729711D01*
X127111786Y-57729707D01*
X127000292Y-57618213D01*
X127000288Y-57618210D01*
X126869185Y-57530609D01*
X126869172Y-57530602D01*
X126723501Y-57470264D01*
X126723489Y-57470261D01*
X126568845Y-57439500D01*
X126568842Y-57439500D01*
X126411158Y-57439500D01*
X126411155Y-57439500D01*
X126256510Y-57470261D01*
X126256498Y-57470264D01*
X126110827Y-57530602D01*
X126110814Y-57530609D01*
X125979711Y-57618210D01*
X125979707Y-57618213D01*
X125877681Y-57720240D01*
X125816358Y-57753725D01*
X125746666Y-57748741D01*
X125702319Y-57720240D01*
X125600292Y-57618213D01*
X125600288Y-57618210D01*
X125469185Y-57530609D01*
X125469172Y-57530602D01*
X125323501Y-57470264D01*
X125323489Y-57470261D01*
X125168845Y-57439500D01*
X125168842Y-57439500D01*
X125011158Y-57439500D01*
X125011155Y-57439500D01*
X124856510Y-57470261D01*
X124856498Y-57470264D01*
X124710827Y-57530602D01*
X124710814Y-57530609D01*
X124579711Y-57618210D01*
X124579707Y-57618213D01*
X124468213Y-57729707D01*
X124468210Y-57729711D01*
X124380609Y-57860814D01*
X124380602Y-57860827D01*
X124320264Y-58006498D01*
X124320262Y-58006505D01*
X124309256Y-58061833D01*
X124276870Y-58123743D01*
X124216153Y-58158316D01*
X124211833Y-58159256D01*
X124156505Y-58170262D01*
X124156498Y-58170264D01*
X124010827Y-58230602D01*
X124010814Y-58230609D01*
X123879711Y-58318210D01*
X123879707Y-58318213D01*
X123768213Y-58429707D01*
X123768210Y-58429711D01*
X123680609Y-58560814D01*
X123680602Y-58560827D01*
X123620264Y-58706498D01*
X123620261Y-58706510D01*
X123589500Y-58861153D01*
X110836253Y-58861153D01*
X110761789Y-58749711D01*
X110761786Y-58749707D01*
X110650292Y-58638213D01*
X110650288Y-58638210D01*
X110519185Y-58550609D01*
X110519172Y-58550602D01*
X110373501Y-58490264D01*
X110373489Y-58490261D01*
X110218845Y-58459500D01*
X110218842Y-58459500D01*
X110061158Y-58459500D01*
X110061155Y-58459500D01*
X109906510Y-58490261D01*
X109906498Y-58490264D01*
X109760827Y-58550602D01*
X109760814Y-58550609D01*
X109629711Y-58638210D01*
X109629707Y-58638213D01*
X109518213Y-58749707D01*
X109518210Y-58749711D01*
X109430609Y-58880814D01*
X109430602Y-58880827D01*
X109370264Y-59026498D01*
X109370261Y-59026510D01*
X109339500Y-59181153D01*
X104308051Y-59181153D01*
X104310500Y-59168842D01*
X104310500Y-59011158D01*
X104310500Y-59011155D01*
X104310499Y-59011153D01*
X104284575Y-58880827D01*
X104279737Y-58856503D01*
X104245367Y-58773527D01*
X104237899Y-58704061D01*
X104269174Y-58641581D01*
X104312471Y-58611518D01*
X104420206Y-58566894D01*
X104551316Y-58479289D01*
X104662816Y-58367789D01*
X104750421Y-58236679D01*
X104752937Y-58230606D01*
X104802910Y-58109958D01*
X104810764Y-58090997D01*
X104841527Y-57936342D01*
X104841527Y-57778658D01*
X104841527Y-57778655D01*
X104841526Y-57778653D01*
X104810765Y-57624010D01*
X104810764Y-57624003D01*
X104808365Y-57618211D01*
X104750424Y-57478327D01*
X104750417Y-57478314D01*
X104662816Y-57347211D01*
X104662813Y-57347207D01*
X104551319Y-57235713D01*
X104551315Y-57235710D01*
X104540683Y-57228606D01*
X112341540Y-57228606D01*
X112341540Y-57386299D01*
X112372301Y-57540942D01*
X112372304Y-57540954D01*
X112432642Y-57686625D01*
X112432649Y-57686638D01*
X112520250Y-57817741D01*
X112520253Y-57817745D01*
X112631747Y-57929239D01*
X112631751Y-57929242D01*
X112762854Y-58016843D01*
X112762867Y-58016850D01*
X112908538Y-58077188D01*
X112908543Y-58077190D01*
X113063193Y-58107952D01*
X113063196Y-58107953D01*
X113063198Y-58107953D01*
X113220884Y-58107953D01*
X113220885Y-58107952D01*
X113375537Y-58077190D01*
X113521219Y-58016847D01*
X113652329Y-57929242D01*
X113763829Y-57817742D01*
X113851434Y-57686632D01*
X113911777Y-57540950D01*
X113942540Y-57386295D01*
X113942540Y-57228611D01*
X113942540Y-57228608D01*
X113942539Y-57228606D01*
X113926526Y-57148106D01*
X113911777Y-57073956D01*
X113878157Y-56992789D01*
X113851437Y-56928280D01*
X113851430Y-56928267D01*
X113763829Y-56797164D01*
X113763826Y-56797160D01*
X113652332Y-56685666D01*
X113652328Y-56685663D01*
X113521225Y-56598062D01*
X113521212Y-56598055D01*
X113375541Y-56537717D01*
X113375529Y-56537714D01*
X113220885Y-56506953D01*
X113220882Y-56506953D01*
X113063198Y-56506953D01*
X113063195Y-56506953D01*
X112908550Y-56537714D01*
X112908538Y-56537717D01*
X112762867Y-56598055D01*
X112762854Y-56598062D01*
X112631751Y-56685663D01*
X112631747Y-56685666D01*
X112520253Y-56797160D01*
X112520250Y-56797164D01*
X112432649Y-56928267D01*
X112432642Y-56928280D01*
X112372304Y-57073951D01*
X112372301Y-57073963D01*
X112341540Y-57228606D01*
X104540683Y-57228606D01*
X104420212Y-57148109D01*
X104420199Y-57148102D01*
X104274528Y-57087764D01*
X104274516Y-57087761D01*
X104119872Y-57057000D01*
X104119869Y-57057000D01*
X103962185Y-57057000D01*
X103962182Y-57057000D01*
X103807537Y-57087761D01*
X103807525Y-57087764D01*
X103661854Y-57148102D01*
X103661841Y-57148109D01*
X103530738Y-57235710D01*
X103530734Y-57235713D01*
X103419240Y-57347207D01*
X103419237Y-57347211D01*
X103331636Y-57478314D01*
X103331629Y-57478327D01*
X103271291Y-57623998D01*
X103271288Y-57624010D01*
X103240527Y-57778653D01*
X103240527Y-57936346D01*
X103271288Y-58090989D01*
X103271291Y-58091001D01*
X103305658Y-58173970D01*
X103313127Y-58243439D01*
X103281852Y-58305918D01*
X103238550Y-58335983D01*
X103130823Y-58380604D01*
X103130814Y-58380609D01*
X102999711Y-58468210D01*
X102999707Y-58468213D01*
X102888213Y-58579707D01*
X102888210Y-58579711D01*
X102800609Y-58710814D01*
X102800602Y-58710827D01*
X102740264Y-58856498D01*
X102740261Y-58856510D01*
X102709500Y-59011153D01*
X85300500Y-59011153D01*
X85300500Y-57931156D01*
X85996999Y-57931156D01*
X86032565Y-58109952D01*
X86032568Y-58109962D01*
X86102331Y-58278387D01*
X86102333Y-58278391D01*
X86203613Y-58429967D01*
X86203619Y-58429975D01*
X86332524Y-58558880D01*
X86332532Y-58558886D01*
X86484108Y-58660166D01*
X86484112Y-58660168D01*
X86652537Y-58729931D01*
X86652542Y-58729933D01*
X86652546Y-58729933D01*
X86652547Y-58729934D01*
X86831343Y-58765500D01*
X86831346Y-58765500D01*
X87013656Y-58765500D01*
X87133945Y-58741572D01*
X87192458Y-58729933D01*
X87360889Y-58660167D01*
X87360891Y-58660166D01*
X87436172Y-58609864D01*
X87512472Y-58558883D01*
X87641383Y-58429972D01*
X87742667Y-58278389D01*
X87812433Y-58109958D01*
X87830955Y-58016843D01*
X87848000Y-57931156D01*
X87848000Y-57748843D01*
X87812434Y-57570047D01*
X87812433Y-57570046D01*
X87812433Y-57570042D01*
X87812431Y-57570037D01*
X87742668Y-57401612D01*
X87742666Y-57401608D01*
X87641386Y-57250032D01*
X87641380Y-57250024D01*
X87512475Y-57121119D01*
X87512467Y-57121113D01*
X87360891Y-57019833D01*
X87360887Y-57019831D01*
X87192462Y-56950068D01*
X87192452Y-56950065D01*
X87013656Y-56914500D01*
X87013654Y-56914500D01*
X86831346Y-56914500D01*
X86831344Y-56914500D01*
X86652547Y-56950065D01*
X86652537Y-56950068D01*
X86484112Y-57019831D01*
X86484108Y-57019833D01*
X86332532Y-57121113D01*
X86332524Y-57121119D01*
X86203619Y-57250024D01*
X86203613Y-57250032D01*
X86102333Y-57401608D01*
X86102331Y-57401612D01*
X86032568Y-57570037D01*
X86032565Y-57570047D01*
X85997000Y-57748843D01*
X85997000Y-57748846D01*
X85997000Y-57931154D01*
X85997000Y-57931156D01*
X85996999Y-57931156D01*
X85300500Y-57931156D01*
X85300500Y-56403653D01*
X101429500Y-56403653D01*
X101429500Y-56561346D01*
X101460261Y-56715989D01*
X101460264Y-56716001D01*
X101520602Y-56861672D01*
X101520609Y-56861685D01*
X101608210Y-56992788D01*
X101608213Y-56992792D01*
X101719707Y-57104286D01*
X101719711Y-57104289D01*
X101850814Y-57191890D01*
X101850827Y-57191897D01*
X101996498Y-57252235D01*
X101996503Y-57252237D01*
X102151153Y-57282999D01*
X102151156Y-57283000D01*
X102151158Y-57283000D01*
X102308844Y-57283000D01*
X102308845Y-57282999D01*
X102463497Y-57252237D01*
X102609179Y-57191894D01*
X102740289Y-57104289D01*
X102851789Y-56992789D01*
X102939394Y-56861679D01*
X102999737Y-56715997D01*
X103030500Y-56561342D01*
X103030500Y-56403658D01*
X103030500Y-56403655D01*
X103030499Y-56403653D01*
X102999738Y-56249010D01*
X102999737Y-56249003D01*
X102999735Y-56248998D01*
X102939397Y-56103327D01*
X102939390Y-56103314D01*
X102851789Y-55972211D01*
X102851786Y-55972207D01*
X102740292Y-55860713D01*
X102740288Y-55860710D01*
X102609185Y-55773109D01*
X102609172Y-55773102D01*
X102463501Y-55712764D01*
X102463489Y-55712761D01*
X102308845Y-55682000D01*
X102308842Y-55682000D01*
X102151158Y-55682000D01*
X102151155Y-55682000D01*
X101996510Y-55712761D01*
X101996498Y-55712764D01*
X101850827Y-55773102D01*
X101850814Y-55773109D01*
X101719711Y-55860710D01*
X101719707Y-55860713D01*
X101608213Y-55972207D01*
X101608210Y-55972211D01*
X101520609Y-56103314D01*
X101520602Y-56103327D01*
X101460264Y-56248998D01*
X101460261Y-56249010D01*
X101429500Y-56403653D01*
X85300500Y-56403653D01*
X85300500Y-54931156D01*
X85996999Y-54931156D01*
X86032565Y-55109952D01*
X86032568Y-55109962D01*
X86102331Y-55278387D01*
X86102333Y-55278391D01*
X86203613Y-55429967D01*
X86203619Y-55429975D01*
X86332524Y-55558880D01*
X86332532Y-55558886D01*
X86484108Y-55660166D01*
X86484112Y-55660168D01*
X86611092Y-55712764D01*
X86652542Y-55729933D01*
X86652546Y-55729933D01*
X86652547Y-55729934D01*
X86831343Y-55765500D01*
X86831346Y-55765500D01*
X87013656Y-55765500D01*
X87133945Y-55741572D01*
X87192458Y-55729933D01*
X87360889Y-55660167D01*
X87360891Y-55660166D01*
X87436366Y-55609735D01*
X87512472Y-55558883D01*
X87641383Y-55429972D01*
X87742667Y-55278389D01*
X87812433Y-55109958D01*
X87848000Y-54931154D01*
X87848000Y-54761153D01*
X103089500Y-54761153D01*
X103089500Y-54918846D01*
X103120261Y-55073489D01*
X103120264Y-55073501D01*
X103180602Y-55219172D01*
X103180609Y-55219185D01*
X103268210Y-55350288D01*
X103268213Y-55350292D01*
X103379707Y-55461786D01*
X103379711Y-55461789D01*
X103510814Y-55549390D01*
X103510827Y-55549397D01*
X103656498Y-55609735D01*
X103656503Y-55609737D01*
X103811153Y-55640499D01*
X103811156Y-55640500D01*
X103811158Y-55640500D01*
X103968844Y-55640500D01*
X103968845Y-55640499D01*
X104123497Y-55609737D01*
X104269179Y-55549394D01*
X104400289Y-55461789D01*
X104511789Y-55350289D01*
X104599394Y-55219179D01*
X104659737Y-55073497D01*
X104690500Y-54918842D01*
X104690500Y-54761158D01*
X104690500Y-54761155D01*
X104690499Y-54761153D01*
X104685536Y-54736204D01*
X104659737Y-54606503D01*
X104644637Y-54570047D01*
X104599397Y-54460827D01*
X104599390Y-54460814D01*
X104511789Y-54329711D01*
X104511786Y-54329707D01*
X104400292Y-54218213D01*
X104400288Y-54218210D01*
X104269185Y-54130609D01*
X104269172Y-54130602D01*
X104123501Y-54070264D01*
X104123491Y-54070261D01*
X104089464Y-54063493D01*
X104089463Y-54063492D01*
X103968845Y-54039500D01*
X103968842Y-54039500D01*
X103811158Y-54039500D01*
X103811155Y-54039500D01*
X103656510Y-54070261D01*
X103656498Y-54070264D01*
X103510827Y-54130602D01*
X103510814Y-54130609D01*
X103379711Y-54218210D01*
X103379707Y-54218213D01*
X103268213Y-54329707D01*
X103268210Y-54329711D01*
X103180609Y-54460814D01*
X103180602Y-54460827D01*
X103120264Y-54606498D01*
X103120261Y-54606510D01*
X103089500Y-54761153D01*
X87848000Y-54761153D01*
X87848000Y-54748846D01*
X87848000Y-54748843D01*
X87812434Y-54570047D01*
X87812433Y-54570046D01*
X87812433Y-54570042D01*
X87779486Y-54490500D01*
X87742668Y-54401612D01*
X87742666Y-54401608D01*
X87641386Y-54250032D01*
X87641380Y-54250024D01*
X87512475Y-54121119D01*
X87512467Y-54121113D01*
X87360891Y-54019833D01*
X87360887Y-54019831D01*
X87192462Y-53950068D01*
X87192452Y-53950065D01*
X87181885Y-53947963D01*
X105422690Y-53947963D01*
X105422690Y-54105656D01*
X105453451Y-54260299D01*
X105453454Y-54260311D01*
X105513792Y-54405982D01*
X105513799Y-54405995D01*
X105601400Y-54537098D01*
X105601403Y-54537102D01*
X105712897Y-54648596D01*
X105712901Y-54648599D01*
X105844004Y-54736200D01*
X105844017Y-54736207D01*
X105989688Y-54796545D01*
X105989693Y-54796547D01*
X106144343Y-54827309D01*
X106144346Y-54827310D01*
X106144348Y-54827310D01*
X106302034Y-54827310D01*
X106302035Y-54827309D01*
X106456687Y-54796547D01*
X106602369Y-54736204D01*
X106733479Y-54648599D01*
X106844979Y-54537099D01*
X106932584Y-54405989D01*
X106934398Y-54401611D01*
X106964181Y-54329707D01*
X106992927Y-54260307D01*
X107023690Y-54105652D01*
X107023690Y-53947968D01*
X107023690Y-53947965D01*
X107023689Y-53947963D01*
X107017033Y-53914500D01*
X106992927Y-53793313D01*
X106966909Y-53730499D01*
X106932587Y-53647637D01*
X106932580Y-53647624D01*
X106844979Y-53516521D01*
X106844976Y-53516517D01*
X106733482Y-53405023D01*
X106733478Y-53405020D01*
X106602375Y-53317419D01*
X106602362Y-53317412D01*
X106456691Y-53257074D01*
X106456679Y-53257071D01*
X106302035Y-53226310D01*
X106302032Y-53226310D01*
X106144348Y-53226310D01*
X106144345Y-53226310D01*
X105989700Y-53257071D01*
X105989688Y-53257074D01*
X105844017Y-53317412D01*
X105844004Y-53317419D01*
X105712901Y-53405020D01*
X105712897Y-53405023D01*
X105601403Y-53516517D01*
X105601400Y-53516521D01*
X105513799Y-53647624D01*
X105513792Y-53647637D01*
X105453454Y-53793308D01*
X105453451Y-53793320D01*
X105422690Y-53947963D01*
X87181885Y-53947963D01*
X87013656Y-53914500D01*
X87013654Y-53914500D01*
X86831346Y-53914500D01*
X86831344Y-53914500D01*
X86652547Y-53950065D01*
X86652537Y-53950068D01*
X86484112Y-54019831D01*
X86484108Y-54019833D01*
X86332532Y-54121113D01*
X86332524Y-54121119D01*
X86203619Y-54250024D01*
X86203613Y-54250032D01*
X86102333Y-54401608D01*
X86102331Y-54401612D01*
X86032568Y-54570037D01*
X86032565Y-54570047D01*
X85997000Y-54748843D01*
X85997000Y-54748846D01*
X85997000Y-54931154D01*
X85997000Y-54931156D01*
X85996999Y-54931156D01*
X85300500Y-54931156D01*
X85300500Y-52021153D01*
X93539500Y-52021153D01*
X93539500Y-52178846D01*
X93570261Y-52333489D01*
X93570264Y-52333501D01*
X93630602Y-52479172D01*
X93630609Y-52479185D01*
X93718210Y-52610288D01*
X93718213Y-52610292D01*
X93829707Y-52721786D01*
X93829711Y-52721789D01*
X93960814Y-52809390D01*
X93960827Y-52809397D01*
X94106498Y-52869735D01*
X94106503Y-52869737D01*
X94205858Y-52889500D01*
X94261153Y-52900499D01*
X94261156Y-52900500D01*
X94261158Y-52900500D01*
X94418844Y-52900500D01*
X94418845Y-52900499D01*
X94573497Y-52869737D01*
X94719179Y-52809394D01*
X94850289Y-52721789D01*
X94961789Y-52610289D01*
X95041393Y-52491153D01*
X98509500Y-52491153D01*
X98509500Y-52648846D01*
X98540261Y-52803489D01*
X98540264Y-52803501D01*
X98600602Y-52949172D01*
X98600609Y-52949185D01*
X98688210Y-53080288D01*
X98688213Y-53080292D01*
X98799707Y-53191786D01*
X98799711Y-53191789D01*
X98930814Y-53279390D01*
X98930827Y-53279397D01*
X99022622Y-53317419D01*
X99076503Y-53339737D01*
X99231153Y-53370499D01*
X99231156Y-53370500D01*
X99231158Y-53370500D01*
X99388844Y-53370500D01*
X99388845Y-53370499D01*
X99543497Y-53339737D01*
X99689179Y-53279394D01*
X99820289Y-53191789D01*
X99931789Y-53080289D01*
X100019394Y-52949179D01*
X100030741Y-52921786D01*
X100052300Y-52869737D01*
X100078266Y-52807047D01*
X100122106Y-52752644D01*
X100188400Y-52730579D01*
X100192827Y-52730500D01*
X100248844Y-52730500D01*
X100248845Y-52730499D01*
X100403497Y-52699737D01*
X100549179Y-52639394D01*
X100680289Y-52551789D01*
X100791789Y-52440289D01*
X100879394Y-52309179D01*
X100915853Y-52221158D01*
X100915855Y-52221153D01*
X103689500Y-52221153D01*
X103689500Y-52378846D01*
X103720261Y-52533489D01*
X103720264Y-52533501D01*
X103780602Y-52679172D01*
X103780609Y-52679185D01*
X103868210Y-52810288D01*
X103868213Y-52810292D01*
X103979707Y-52921786D01*
X103979711Y-52921789D01*
X104110814Y-53009390D01*
X104110827Y-53009397D01*
X104252816Y-53068210D01*
X104256503Y-53069737D01*
X104355858Y-53089500D01*
X104411153Y-53100499D01*
X104411156Y-53100500D01*
X104411158Y-53100500D01*
X104568844Y-53100500D01*
X104568845Y-53100499D01*
X104723497Y-53069737D01*
X104869179Y-53009394D01*
X105000289Y-52921789D01*
X105070925Y-52851153D01*
X111779500Y-52851153D01*
X111779500Y-53008846D01*
X111810261Y-53163489D01*
X111810264Y-53163501D01*
X111870602Y-53309172D01*
X111870609Y-53309185D01*
X111958210Y-53440288D01*
X111958213Y-53440292D01*
X112069707Y-53551786D01*
X112069711Y-53551789D01*
X112200814Y-53639390D01*
X112200827Y-53639397D01*
X112346498Y-53699735D01*
X112346503Y-53699737D01*
X112501153Y-53730499D01*
X112501156Y-53730500D01*
X112501158Y-53730500D01*
X112658844Y-53730500D01*
X112658845Y-53730499D01*
X112813497Y-53699737D01*
X112926166Y-53653067D01*
X112959172Y-53639397D01*
X112959172Y-53639396D01*
X112959179Y-53639394D01*
X113001445Y-53611153D01*
X126569500Y-53611153D01*
X126569500Y-53768846D01*
X126600261Y-53923489D01*
X126600264Y-53923501D01*
X126660602Y-54069172D01*
X126660609Y-54069185D01*
X126748210Y-54200288D01*
X126748213Y-54200292D01*
X126859707Y-54311786D01*
X126859711Y-54311789D01*
X126990814Y-54399390D01*
X126990827Y-54399397D01*
X127136498Y-54459735D01*
X127136503Y-54459737D01*
X127291153Y-54490499D01*
X127291156Y-54490500D01*
X127291158Y-54490500D01*
X127448844Y-54490500D01*
X127448845Y-54490499D01*
X127603497Y-54459737D01*
X127749179Y-54399394D01*
X127880289Y-54311789D01*
X127991789Y-54200289D01*
X128079394Y-54069179D01*
X128139737Y-53923497D01*
X128170500Y-53768842D01*
X128170500Y-53611158D01*
X128170500Y-53611155D01*
X128170499Y-53611153D01*
X128151675Y-53516521D01*
X128139737Y-53456503D01*
X128133021Y-53440288D01*
X128079397Y-53310827D01*
X128079390Y-53310814D01*
X127991789Y-53179711D01*
X127991786Y-53179707D01*
X127880292Y-53068213D01*
X127880288Y-53068210D01*
X127749185Y-52980609D01*
X127749172Y-52980602D01*
X127603501Y-52920264D01*
X127603489Y-52920261D01*
X127448845Y-52889500D01*
X127448842Y-52889500D01*
X127291158Y-52889500D01*
X127291155Y-52889500D01*
X127136510Y-52920261D01*
X127136498Y-52920264D01*
X126990827Y-52980602D01*
X126990814Y-52980609D01*
X126859711Y-53068210D01*
X126859707Y-53068213D01*
X126748213Y-53179707D01*
X126748210Y-53179711D01*
X126660609Y-53310814D01*
X126660602Y-53310827D01*
X126600264Y-53456498D01*
X126600261Y-53456510D01*
X126569500Y-53611153D01*
X113001445Y-53611153D01*
X113090289Y-53551789D01*
X113090292Y-53551786D01*
X113124694Y-53517385D01*
X113201786Y-53440292D01*
X113201789Y-53440289D01*
X113289394Y-53309179D01*
X113349737Y-53163497D01*
X113380500Y-53008842D01*
X113380500Y-52851158D01*
X113380500Y-52851155D01*
X113380499Y-52851153D01*
X113372371Y-52810292D01*
X113349737Y-52696503D01*
X113329997Y-52648846D01*
X113289397Y-52550827D01*
X113289390Y-52550814D01*
X113201789Y-52419711D01*
X113201786Y-52419707D01*
X113090292Y-52308213D01*
X113090288Y-52308210D01*
X112959185Y-52220609D01*
X112959172Y-52220602D01*
X112813501Y-52160264D01*
X112813489Y-52160261D01*
X112658845Y-52129500D01*
X112658842Y-52129500D01*
X112501158Y-52129500D01*
X112501155Y-52129500D01*
X112346510Y-52160261D01*
X112346498Y-52160264D01*
X112200827Y-52220602D01*
X112200814Y-52220609D01*
X112069711Y-52308210D01*
X112069707Y-52308213D01*
X111958213Y-52419707D01*
X111958210Y-52419711D01*
X111870609Y-52550814D01*
X111870602Y-52550827D01*
X111810264Y-52696498D01*
X111810261Y-52696510D01*
X111779500Y-52851153D01*
X105070925Y-52851153D01*
X105111789Y-52810289D01*
X105122696Y-52793965D01*
X105134584Y-52776175D01*
X105199390Y-52679185D01*
X105199390Y-52679184D01*
X105199394Y-52679179D01*
X105259737Y-52533497D01*
X105290500Y-52378842D01*
X105290500Y-52221158D01*
X105290500Y-52221155D01*
X105290499Y-52221153D01*
X105284467Y-52190827D01*
X105259737Y-52066503D01*
X105210740Y-51948213D01*
X105199397Y-51920827D01*
X105199390Y-51920814D01*
X105111789Y-51789711D01*
X105111786Y-51789707D01*
X105000292Y-51678213D01*
X105000288Y-51678210D01*
X104869185Y-51590609D01*
X104869172Y-51590602D01*
X104723501Y-51530264D01*
X104723489Y-51530261D01*
X104568845Y-51499500D01*
X104568842Y-51499500D01*
X104411158Y-51499500D01*
X104411155Y-51499500D01*
X104256510Y-51530261D01*
X104256498Y-51530264D01*
X104110827Y-51590602D01*
X104110814Y-51590609D01*
X103979711Y-51678210D01*
X103979707Y-51678213D01*
X103868213Y-51789707D01*
X103868210Y-51789711D01*
X103780609Y-51920814D01*
X103780602Y-51920827D01*
X103720264Y-52066498D01*
X103720261Y-52066510D01*
X103689500Y-52221153D01*
X100915855Y-52221153D01*
X100938032Y-52167614D01*
X100939735Y-52163501D01*
X100939737Y-52163497D01*
X100970500Y-52008842D01*
X100970500Y-51851158D01*
X100970500Y-51851155D01*
X100970499Y-51851153D01*
X100958277Y-51789711D01*
X100939737Y-51696503D01*
X100912398Y-51630500D01*
X100879397Y-51550827D01*
X100879390Y-51550814D01*
X100791789Y-51419711D01*
X100791786Y-51419707D01*
X100680292Y-51308213D01*
X100680288Y-51308210D01*
X100549185Y-51220609D01*
X100549172Y-51220602D01*
X100403501Y-51160264D01*
X100403489Y-51160261D01*
X100248845Y-51129500D01*
X100248842Y-51129500D01*
X100091158Y-51129500D01*
X100091155Y-51129500D01*
X99936510Y-51160261D01*
X99936498Y-51160264D01*
X99790827Y-51220602D01*
X99790814Y-51220609D01*
X99659711Y-51308210D01*
X99659707Y-51308213D01*
X99548213Y-51419707D01*
X99548210Y-51419711D01*
X99460609Y-51550814D01*
X99460602Y-51550827D01*
X99401734Y-51692952D01*
X99357894Y-51747356D01*
X99291600Y-51769421D01*
X99287173Y-51769500D01*
X99231155Y-51769500D01*
X99076510Y-51800261D01*
X99076498Y-51800264D01*
X98930827Y-51860602D01*
X98930814Y-51860609D01*
X98799711Y-51948210D01*
X98799707Y-51948213D01*
X98688213Y-52059707D01*
X98688210Y-52059711D01*
X98600609Y-52190814D01*
X98600602Y-52190827D01*
X98540264Y-52336498D01*
X98540261Y-52336510D01*
X98509500Y-52491153D01*
X95041393Y-52491153D01*
X95049394Y-52479179D01*
X95049397Y-52479172D01*
X95066611Y-52437614D01*
X95109735Y-52333501D01*
X95109737Y-52333497D01*
X95140500Y-52178842D01*
X95140500Y-52021158D01*
X95128613Y-51961400D01*
X95129321Y-51953487D01*
X95126545Y-51946043D01*
X95132389Y-51919190D01*
X95134839Y-51891810D01*
X95140093Y-51883792D01*
X95141404Y-51877772D01*
X95162552Y-51849525D01*
X95167703Y-51844374D01*
X95229029Y-51810896D01*
X95298720Y-51815887D01*
X95302821Y-51817501D01*
X95356503Y-51839737D01*
X95491039Y-51866498D01*
X95511153Y-51870499D01*
X95511156Y-51870500D01*
X95511158Y-51870500D01*
X95668844Y-51870500D01*
X95668845Y-51870499D01*
X95823497Y-51839737D01*
X95969179Y-51779394D01*
X96100289Y-51691789D01*
X96211789Y-51580289D01*
X96299394Y-51449179D01*
X96359737Y-51303497D01*
X96390500Y-51148842D01*
X96390500Y-50991158D01*
X96390500Y-50991155D01*
X96390499Y-50991153D01*
X96375052Y-50913497D01*
X96359737Y-50836503D01*
X96348650Y-50809737D01*
X96299397Y-50690827D01*
X96299390Y-50690814D01*
X96211789Y-50559711D01*
X96211786Y-50559707D01*
X96100292Y-50448213D01*
X96100288Y-50448210D01*
X95969185Y-50360609D01*
X95969172Y-50360602D01*
X95823501Y-50300264D01*
X95823489Y-50300261D01*
X95668845Y-50269500D01*
X95668842Y-50269500D01*
X95511158Y-50269500D01*
X95511155Y-50269500D01*
X95356510Y-50300261D01*
X95356498Y-50300264D01*
X95210827Y-50360602D01*
X95210814Y-50360609D01*
X95079714Y-50448208D01*
X95032304Y-50495617D01*
X94970980Y-50529101D01*
X94901288Y-50524115D01*
X94897173Y-50522496D01*
X94894753Y-50521493D01*
X94843497Y-50500263D01*
X94843493Y-50500262D01*
X94843488Y-50500260D01*
X94688845Y-50469500D01*
X94688842Y-50469500D01*
X94531158Y-50469500D01*
X94531155Y-50469500D01*
X94376510Y-50500261D01*
X94376498Y-50500264D01*
X94230827Y-50560602D01*
X94230814Y-50560609D01*
X94099711Y-50648210D01*
X94099707Y-50648213D01*
X93988213Y-50759707D01*
X93988210Y-50759711D01*
X93900609Y-50890814D01*
X93900602Y-50890827D01*
X93840264Y-51036498D01*
X93840261Y-51036510D01*
X93809500Y-51191153D01*
X93809500Y-51348843D01*
X93821386Y-51408597D01*
X93815159Y-51478189D01*
X93787451Y-51520470D01*
X93718210Y-51589711D01*
X93630609Y-51720814D01*
X93630602Y-51720827D01*
X93570264Y-51866498D01*
X93570261Y-51866510D01*
X93539500Y-52021153D01*
X85300500Y-52021153D01*
X85300500Y-49161153D01*
X86419500Y-49161153D01*
X86419500Y-49318846D01*
X86450261Y-49473489D01*
X86450264Y-49473501D01*
X86510602Y-49619172D01*
X86510609Y-49619185D01*
X86598210Y-49750288D01*
X86598213Y-49750292D01*
X86709707Y-49861786D01*
X86709711Y-49861789D01*
X86840814Y-49949390D01*
X86840827Y-49949397D01*
X86979666Y-50006905D01*
X86986503Y-50009737D01*
X87118309Y-50035955D01*
X87141153Y-50040499D01*
X87141156Y-50040500D01*
X87141158Y-50040500D01*
X87298844Y-50040500D01*
X87298845Y-50040499D01*
X87453497Y-50009737D01*
X87570790Y-49961153D01*
X87599172Y-49949397D01*
X87599172Y-49949396D01*
X87599179Y-49949394D01*
X87730289Y-49861789D01*
X87841789Y-49750289D01*
X87929394Y-49619179D01*
X87989737Y-49473497D01*
X88020500Y-49318842D01*
X88020500Y-49161158D01*
X88020500Y-49161155D01*
X88020499Y-49161153D01*
X88014402Y-49130500D01*
X87989737Y-49006503D01*
X87970726Y-48960606D01*
X87929397Y-48860827D01*
X87929390Y-48860814D01*
X87841789Y-48729711D01*
X87841786Y-48729707D01*
X87730292Y-48618213D01*
X87730288Y-48618210D01*
X87599185Y-48530609D01*
X87599172Y-48530602D01*
X87453501Y-48470264D01*
X87453489Y-48470261D01*
X87298845Y-48439500D01*
X87298842Y-48439500D01*
X87141158Y-48439500D01*
X87141155Y-48439500D01*
X86986510Y-48470261D01*
X86986498Y-48470264D01*
X86840827Y-48530602D01*
X86840814Y-48530609D01*
X86709711Y-48618210D01*
X86709707Y-48618213D01*
X86598213Y-48729707D01*
X86598210Y-48729711D01*
X86510609Y-48860814D01*
X86510602Y-48860827D01*
X86450264Y-49006498D01*
X86450261Y-49006510D01*
X86419500Y-49161153D01*
X85300500Y-49161153D01*
X85300500Y-48231153D01*
X94809500Y-48231153D01*
X94809500Y-48388846D01*
X94840261Y-48543489D01*
X94840264Y-48543501D01*
X94900602Y-48689172D01*
X94900609Y-48689185D01*
X94988210Y-48820288D01*
X94988213Y-48820292D01*
X95099707Y-48931786D01*
X95099711Y-48931789D01*
X95230814Y-49019390D01*
X95230827Y-49019397D01*
X95330357Y-49060623D01*
X95376503Y-49079737D01*
X95522315Y-49108741D01*
X95531153Y-49110499D01*
X95531156Y-49110500D01*
X95531158Y-49110500D01*
X95688844Y-49110500D01*
X95688845Y-49110499D01*
X95843497Y-49079737D01*
X95989179Y-49019394D01*
X96120289Y-48931789D01*
X96231789Y-48820289D01*
X96319394Y-48689179D01*
X96323938Y-48678210D01*
X96360224Y-48590606D01*
X96379737Y-48543497D01*
X96410500Y-48388842D01*
X96410500Y-48251153D01*
X98039500Y-48251153D01*
X98039500Y-48408846D01*
X98070261Y-48563489D01*
X98070264Y-48563501D01*
X98130602Y-48709172D01*
X98130609Y-48709185D01*
X98218210Y-48840288D01*
X98218213Y-48840292D01*
X98329707Y-48951786D01*
X98329711Y-48951789D01*
X98460814Y-49039390D01*
X98460827Y-49039397D01*
X98587578Y-49091898D01*
X98606503Y-49099737D01*
X98761153Y-49130499D01*
X98761156Y-49130500D01*
X98761158Y-49130500D01*
X98918844Y-49130500D01*
X98918845Y-49130499D01*
X99073497Y-49099737D01*
X99149896Y-49068091D01*
X99219362Y-49060623D01*
X99281841Y-49091898D01*
X99317494Y-49151986D01*
X99315001Y-49221811D01*
X99311907Y-49230105D01*
X99280264Y-49306498D01*
X99280261Y-49306510D01*
X99249500Y-49461153D01*
X99249500Y-49618846D01*
X99280261Y-49773489D01*
X99280264Y-49773501D01*
X99340602Y-49919172D01*
X99340609Y-49919185D01*
X99428210Y-50050288D01*
X99428213Y-50050292D01*
X99539707Y-50161786D01*
X99539711Y-50161789D01*
X99670814Y-50249390D01*
X99670827Y-50249397D01*
X99794992Y-50300827D01*
X99816503Y-50309737D01*
X99971153Y-50340499D01*
X99971156Y-50340500D01*
X99971158Y-50340500D01*
X100128844Y-50340500D01*
X100128845Y-50340499D01*
X100283497Y-50309737D01*
X100429179Y-50249394D01*
X100560289Y-50161789D01*
X100671789Y-50050289D01*
X100759394Y-49919179D01*
X100764182Y-49907621D01*
X100778319Y-49873489D01*
X100819737Y-49773497D01*
X100850500Y-49618842D01*
X100850500Y-49591153D01*
X102169500Y-49591153D01*
X102169500Y-49748846D01*
X102200261Y-49903489D01*
X102200264Y-49903501D01*
X102260602Y-50049172D01*
X102260609Y-50049185D01*
X102348210Y-50180288D01*
X102348213Y-50180292D01*
X102459707Y-50291786D01*
X102459711Y-50291789D01*
X102590814Y-50379390D01*
X102590827Y-50379397D01*
X102736498Y-50439735D01*
X102736503Y-50439737D01*
X102886131Y-50469500D01*
X102891153Y-50470499D01*
X102891156Y-50470500D01*
X102891158Y-50470500D01*
X103048844Y-50470500D01*
X103048845Y-50470499D01*
X103203497Y-50439737D01*
X103349179Y-50379394D01*
X103480289Y-50291789D01*
X103542320Y-50229757D01*
X103603639Y-50196274D01*
X103673331Y-50201258D01*
X103717680Y-50229759D01*
X103749707Y-50261786D01*
X103749711Y-50261789D01*
X103880814Y-50349390D01*
X103880827Y-50349397D01*
X104026498Y-50409735D01*
X104026503Y-50409737D01*
X104177312Y-50439735D01*
X104181153Y-50440499D01*
X104181156Y-50440500D01*
X104181158Y-50440500D01*
X104338844Y-50440500D01*
X104338845Y-50440499D01*
X104493497Y-50409737D01*
X104639179Y-50349394D01*
X104770289Y-50261789D01*
X104881789Y-50150289D01*
X104969394Y-50019179D01*
X104986281Y-49978410D01*
X104993429Y-49961153D01*
X114509500Y-49961153D01*
X114509500Y-50118846D01*
X114540261Y-50273489D01*
X114540264Y-50273501D01*
X114600602Y-50419172D01*
X114600609Y-50419185D01*
X114688210Y-50550288D01*
X114688213Y-50550292D01*
X114799707Y-50661786D01*
X114799711Y-50661789D01*
X114930814Y-50749390D01*
X114930827Y-50749397D01*
X115076498Y-50809735D01*
X115076503Y-50809737D01*
X115211039Y-50836498D01*
X115231153Y-50840499D01*
X115231156Y-50840500D01*
X115231158Y-50840500D01*
X115388844Y-50840500D01*
X115388845Y-50840499D01*
X115543497Y-50809737D01*
X115666369Y-50758842D01*
X115689172Y-50749397D01*
X115689172Y-50749396D01*
X115689179Y-50749394D01*
X115820289Y-50661789D01*
X115833868Y-50648210D01*
X115847819Y-50634260D01*
X115909142Y-50600775D01*
X115978834Y-50605759D01*
X116034767Y-50647631D01*
X116059184Y-50713095D01*
X116059500Y-50721941D01*
X116059500Y-50758846D01*
X116090261Y-50913489D01*
X116090264Y-50913501D01*
X116150602Y-51059172D01*
X116150609Y-51059185D01*
X116238210Y-51190288D01*
X116238213Y-51190292D01*
X116349707Y-51301786D01*
X116349711Y-51301789D01*
X116480814Y-51389390D01*
X116480827Y-51389397D01*
X116554013Y-51419711D01*
X116626503Y-51449737D01*
X116781153Y-51480499D01*
X116781156Y-51480500D01*
X116781158Y-51480500D01*
X116938844Y-51480500D01*
X116938845Y-51480499D01*
X117093497Y-51449737D01*
X117239179Y-51389394D01*
X117370289Y-51301789D01*
X117481789Y-51190289D01*
X117569394Y-51059179D01*
X117629737Y-50913497D01*
X117660500Y-50758842D01*
X117660500Y-50751153D01*
X126569500Y-50751153D01*
X126569500Y-50908846D01*
X126600261Y-51063489D01*
X126600264Y-51063501D01*
X126660602Y-51209172D01*
X126660609Y-51209185D01*
X126748210Y-51340288D01*
X126748213Y-51340292D01*
X126859707Y-51451786D01*
X126859711Y-51451789D01*
X126990814Y-51539390D01*
X126990827Y-51539397D01*
X127114466Y-51590609D01*
X127136503Y-51599737D01*
X127291153Y-51630499D01*
X127291156Y-51630500D01*
X127291158Y-51630500D01*
X127448844Y-51630500D01*
X127448845Y-51630499D01*
X127603497Y-51599737D01*
X127721592Y-51550821D01*
X127749172Y-51539397D01*
X127749172Y-51539396D01*
X127749179Y-51539394D01*
X127880289Y-51451789D01*
X127991789Y-51340289D01*
X128079394Y-51209179D01*
X128086859Y-51191158D01*
X128099655Y-51160264D01*
X128139737Y-51063497D01*
X128170500Y-50908842D01*
X128170500Y-50751158D01*
X128170500Y-50751155D01*
X128170499Y-50751153D01*
X128152723Y-50661789D01*
X128139737Y-50596503D01*
X128139735Y-50596498D01*
X128079397Y-50450827D01*
X128079390Y-50450814D01*
X127991789Y-50319711D01*
X127991786Y-50319707D01*
X127880292Y-50208213D01*
X127880288Y-50208210D01*
X127749185Y-50120609D01*
X127749172Y-50120602D01*
X127603501Y-50060264D01*
X127603489Y-50060261D01*
X127448845Y-50029500D01*
X127448842Y-50029500D01*
X127291158Y-50029500D01*
X127291155Y-50029500D01*
X127136510Y-50060261D01*
X127136498Y-50060264D01*
X126990827Y-50120602D01*
X126990814Y-50120609D01*
X126859711Y-50208210D01*
X126859707Y-50208213D01*
X126748213Y-50319707D01*
X126748210Y-50319711D01*
X126660609Y-50450814D01*
X126660602Y-50450827D01*
X126600264Y-50596498D01*
X126600261Y-50596510D01*
X126569500Y-50751153D01*
X117660500Y-50751153D01*
X117660500Y-50601158D01*
X117660500Y-50601155D01*
X117660499Y-50601153D01*
X117640431Y-50500264D01*
X117629737Y-50446503D01*
X117629735Y-50446498D01*
X117569397Y-50300827D01*
X117569390Y-50300814D01*
X117481990Y-50170012D01*
X117461112Y-50103335D01*
X117479596Y-50035955D01*
X117516197Y-49998022D01*
X117630289Y-49921789D01*
X117741789Y-49810289D01*
X117829394Y-49679179D01*
X117889737Y-49533497D01*
X117920500Y-49378842D01*
X117920500Y-49221158D01*
X117920500Y-49221155D01*
X117920499Y-49221153D01*
X117908565Y-49161158D01*
X117889737Y-49066503D01*
X117889735Y-49066498D01*
X117829397Y-48920827D01*
X117829390Y-48920814D01*
X117741789Y-48789711D01*
X117741786Y-48789707D01*
X117630292Y-48678213D01*
X117630288Y-48678210D01*
X117499185Y-48590609D01*
X117499172Y-48590602D01*
X117353501Y-48530264D01*
X117353489Y-48530261D01*
X117198845Y-48499500D01*
X117198842Y-48499500D01*
X117041158Y-48499500D01*
X117041155Y-48499500D01*
X116886510Y-48530261D01*
X116886498Y-48530264D01*
X116740827Y-48590602D01*
X116740814Y-48590609D01*
X116609711Y-48678210D01*
X116609707Y-48678213D01*
X116498213Y-48789707D01*
X116498210Y-48789711D01*
X116410609Y-48920814D01*
X116410602Y-48920827D01*
X116350264Y-49066498D01*
X116350261Y-49066510D01*
X116319500Y-49221153D01*
X116319500Y-49378846D01*
X116350261Y-49533489D01*
X116350264Y-49533501D01*
X116410602Y-49679172D01*
X116410609Y-49679185D01*
X116498008Y-49809986D01*
X116499777Y-49815637D01*
X116503951Y-49819841D01*
X116510099Y-49848601D01*
X116518886Y-49876664D01*
X116517319Y-49882375D01*
X116518557Y-49888167D01*
X116508181Y-49915684D01*
X116500401Y-49944044D01*
X116495456Y-49949431D01*
X116493906Y-49953543D01*
X116477210Y-49969310D01*
X116468859Y-49978410D01*
X116466336Y-49980284D01*
X116349711Y-50058211D01*
X116315756Y-50092165D01*
X116308453Y-50097592D01*
X116283862Y-50106663D01*
X116260858Y-50119225D01*
X116251605Y-50118563D01*
X116242902Y-50121774D01*
X116217311Y-50116110D01*
X116191166Y-50114241D01*
X116183739Y-50108681D01*
X116174683Y-50106677D01*
X116156215Y-50088076D01*
X116135233Y-50072369D01*
X116131991Y-50063678D01*
X116125455Y-50057095D01*
X116119975Y-50031462D01*
X116110816Y-50006905D01*
X116110500Y-49998059D01*
X116110500Y-49961155D01*
X116110499Y-49961153D01*
X116102669Y-49921789D01*
X116079737Y-49806503D01*
X116027001Y-49679185D01*
X116019397Y-49660827D01*
X116019390Y-49660814D01*
X115931789Y-49529711D01*
X115931786Y-49529707D01*
X115820292Y-49418213D01*
X115820288Y-49418210D01*
X115689185Y-49330609D01*
X115689172Y-49330602D01*
X115543501Y-49270264D01*
X115543489Y-49270261D01*
X115388845Y-49239500D01*
X115388842Y-49239500D01*
X115231158Y-49239500D01*
X115231155Y-49239500D01*
X115076510Y-49270261D01*
X115076498Y-49270264D01*
X114930827Y-49330602D01*
X114930814Y-49330609D01*
X114799711Y-49418210D01*
X114799707Y-49418213D01*
X114688213Y-49529707D01*
X114688210Y-49529711D01*
X114600609Y-49660814D01*
X114600602Y-49660827D01*
X114540264Y-49806498D01*
X114540261Y-49806510D01*
X114509500Y-49961153D01*
X104993429Y-49961153D01*
X105015603Y-49907621D01*
X105015605Y-49907614D01*
X105029737Y-49873497D01*
X105060500Y-49718842D01*
X105060500Y-49561158D01*
X105060500Y-49561155D01*
X105060499Y-49561153D01*
X105043061Y-49473489D01*
X105029737Y-49406503D01*
X105018281Y-49378846D01*
X104969397Y-49260827D01*
X104969390Y-49260814D01*
X104881789Y-49129711D01*
X104881786Y-49129707D01*
X104770292Y-49018213D01*
X104770288Y-49018210D01*
X104639185Y-48930609D01*
X104639172Y-48930602D01*
X104493501Y-48870264D01*
X104493489Y-48870261D01*
X104338845Y-48839500D01*
X104338842Y-48839500D01*
X104181158Y-48839500D01*
X104181155Y-48839500D01*
X104026510Y-48870261D01*
X104026498Y-48870264D01*
X103880827Y-48930602D01*
X103880814Y-48930609D01*
X103749711Y-49018210D01*
X103749707Y-49018213D01*
X103687681Y-49080240D01*
X103626358Y-49113725D01*
X103556666Y-49108741D01*
X103512319Y-49080240D01*
X103480292Y-49048213D01*
X103480288Y-49048210D01*
X103349185Y-48960609D01*
X103349172Y-48960602D01*
X103203501Y-48900264D01*
X103203489Y-48900261D01*
X103048845Y-48869500D01*
X103048842Y-48869500D01*
X102891158Y-48869500D01*
X102891155Y-48869500D01*
X102736510Y-48900261D01*
X102736498Y-48900264D01*
X102590827Y-48960602D01*
X102590814Y-48960609D01*
X102459711Y-49048210D01*
X102459707Y-49048213D01*
X102348213Y-49159707D01*
X102348210Y-49159711D01*
X102260609Y-49290814D01*
X102260602Y-49290827D01*
X102200264Y-49436498D01*
X102200261Y-49436510D01*
X102169500Y-49591153D01*
X100850500Y-49591153D01*
X100850500Y-49461158D01*
X100850500Y-49461155D01*
X100850499Y-49461153D01*
X100834127Y-49378846D01*
X100819737Y-49306503D01*
X100813241Y-49290821D01*
X100759397Y-49160827D01*
X100759390Y-49160814D01*
X100671789Y-49029711D01*
X100671786Y-49029707D01*
X100560292Y-48918213D01*
X100560288Y-48918210D01*
X100429185Y-48830609D01*
X100429172Y-48830602D01*
X100283501Y-48770264D01*
X100283489Y-48770261D01*
X100128845Y-48739500D01*
X100128842Y-48739500D01*
X99971158Y-48739500D01*
X99971155Y-48739500D01*
X99816510Y-48770261D01*
X99816498Y-48770264D01*
X99740105Y-48801907D01*
X99670635Y-48809376D01*
X99608156Y-48778100D01*
X99572504Y-48718011D01*
X99574999Y-48648186D01*
X99578083Y-48639916D01*
X99609737Y-48563497D01*
X99640500Y-48408842D01*
X99640500Y-48251158D01*
X99640500Y-48251155D01*
X99640499Y-48251153D01*
X99630241Y-48199582D01*
X99609737Y-48096503D01*
X99598879Y-48070289D01*
X99549397Y-47950827D01*
X99549390Y-47950814D01*
X99461789Y-47819711D01*
X99461786Y-47819707D01*
X99350292Y-47708213D01*
X99350288Y-47708210D01*
X99219185Y-47620609D01*
X99219172Y-47620602D01*
X99144389Y-47589627D01*
X99073501Y-47560264D01*
X99073489Y-47560261D01*
X98918845Y-47529500D01*
X98918842Y-47529500D01*
X98761158Y-47529500D01*
X98761155Y-47529500D01*
X98606510Y-47560261D01*
X98606498Y-47560264D01*
X98460827Y-47620602D01*
X98460814Y-47620609D01*
X98329711Y-47708210D01*
X98329707Y-47708213D01*
X98218213Y-47819707D01*
X98218210Y-47819711D01*
X98130609Y-47950814D01*
X98130602Y-47950827D01*
X98070264Y-48096498D01*
X98070261Y-48096510D01*
X98039500Y-48251153D01*
X96410500Y-48251153D01*
X96410500Y-48231158D01*
X96410500Y-48231155D01*
X96410499Y-48231153D01*
X96399573Y-48176224D01*
X96379737Y-48076503D01*
X96353641Y-48013501D01*
X96319397Y-47930827D01*
X96319390Y-47930814D01*
X96231789Y-47799711D01*
X96231786Y-47799707D01*
X96120292Y-47688213D01*
X96120288Y-47688210D01*
X95989185Y-47600609D01*
X95989172Y-47600602D01*
X95843501Y-47540264D01*
X95843489Y-47540261D01*
X95688845Y-47509500D01*
X95688842Y-47509500D01*
X95531158Y-47509500D01*
X95531155Y-47509500D01*
X95376510Y-47540261D01*
X95376498Y-47540264D01*
X95230827Y-47600602D01*
X95230814Y-47600609D01*
X95099711Y-47688210D01*
X95099707Y-47688213D01*
X94988213Y-47799707D01*
X94988210Y-47799711D01*
X94900609Y-47930814D01*
X94900602Y-47930827D01*
X94840264Y-48076498D01*
X94840261Y-48076510D01*
X94809500Y-48231153D01*
X85300500Y-48231153D01*
X85300500Y-47481153D01*
X102169500Y-47481153D01*
X102169500Y-47638846D01*
X102200261Y-47793489D01*
X102200264Y-47793501D01*
X102260602Y-47939172D01*
X102260609Y-47939185D01*
X102348210Y-48070288D01*
X102348213Y-48070292D01*
X102459707Y-48181786D01*
X102459711Y-48181789D01*
X102590814Y-48269390D01*
X102590827Y-48269397D01*
X102736498Y-48329735D01*
X102736503Y-48329737D01*
X102891153Y-48360499D01*
X102891156Y-48360500D01*
X102891158Y-48360500D01*
X103048844Y-48360500D01*
X103048845Y-48360499D01*
X103203497Y-48329737D01*
X103349179Y-48269394D01*
X103480289Y-48181789D01*
X103591789Y-48070289D01*
X103679394Y-47939179D01*
X103728539Y-47820529D01*
X103772378Y-47766129D01*
X103838672Y-47744064D01*
X103890549Y-47753423D01*
X104026503Y-47809737D01*
X104181153Y-47840499D01*
X104181156Y-47840500D01*
X104181158Y-47840500D01*
X104338844Y-47840500D01*
X104338845Y-47840499D01*
X104493497Y-47809737D01*
X104639179Y-47749394D01*
X104770289Y-47661789D01*
X104881789Y-47550289D01*
X104969394Y-47419179D01*
X105029737Y-47273497D01*
X105060500Y-47118842D01*
X105060500Y-46961158D01*
X105060500Y-46961155D01*
X105037248Y-46844263D01*
X105037247Y-46844262D01*
X105033645Y-46826153D01*
X118709500Y-46826153D01*
X118709500Y-46983846D01*
X118740261Y-47138489D01*
X118740264Y-47138501D01*
X118800602Y-47284172D01*
X118800609Y-47284185D01*
X118888210Y-47415288D01*
X118888213Y-47415292D01*
X118999707Y-47526786D01*
X118999711Y-47526789D01*
X119130814Y-47614390D01*
X119130827Y-47614397D01*
X119268345Y-47671358D01*
X119276503Y-47674737D01*
X119431153Y-47705499D01*
X119431156Y-47705500D01*
X119431158Y-47705500D01*
X119588844Y-47705500D01*
X119588845Y-47705499D01*
X119743497Y-47674737D01*
X119874182Y-47620606D01*
X119889172Y-47614397D01*
X119889172Y-47614396D01*
X119889179Y-47614394D01*
X120020289Y-47526789D01*
X120131789Y-47415289D01*
X120219394Y-47284179D01*
X120225389Y-47269707D01*
X120262209Y-47180814D01*
X120270353Y-47161153D01*
X130589500Y-47161153D01*
X130589500Y-47318846D01*
X130620261Y-47473489D01*
X130620264Y-47473501D01*
X130680602Y-47619172D01*
X130680609Y-47619185D01*
X130768210Y-47750288D01*
X130768213Y-47750292D01*
X130879707Y-47861786D01*
X130879711Y-47861789D01*
X131010814Y-47949390D01*
X131010827Y-47949397D01*
X131156498Y-48009735D01*
X131156503Y-48009737D01*
X131311153Y-48040499D01*
X131311156Y-48040500D01*
X131311158Y-48040500D01*
X131468844Y-48040500D01*
X131468845Y-48040499D01*
X131623497Y-48009737D01*
X131736166Y-47963067D01*
X131769172Y-47949397D01*
X131769172Y-47949396D01*
X131769179Y-47949394D01*
X131900289Y-47861789D01*
X132011789Y-47750289D01*
X132099394Y-47619179D01*
X132159737Y-47473497D01*
X132190500Y-47318842D01*
X132190500Y-47161158D01*
X132190500Y-47161155D01*
X132190499Y-47161153D01*
X132185991Y-47138489D01*
X132159737Y-47006503D01*
X132150352Y-46983846D01*
X132099397Y-46860827D01*
X132099390Y-46860814D01*
X132011789Y-46729711D01*
X132011786Y-46729707D01*
X131900292Y-46618213D01*
X131900288Y-46618210D01*
X131769185Y-46530609D01*
X131769172Y-46530602D01*
X131623501Y-46470264D01*
X131623489Y-46470261D01*
X131468845Y-46439500D01*
X131468842Y-46439500D01*
X131311158Y-46439500D01*
X131311155Y-46439500D01*
X131156510Y-46470261D01*
X131156498Y-46470264D01*
X131010827Y-46530602D01*
X131010814Y-46530609D01*
X130879711Y-46618210D01*
X130879707Y-46618213D01*
X130768213Y-46729707D01*
X130768210Y-46729711D01*
X130680609Y-46860814D01*
X130680602Y-46860827D01*
X130620264Y-47006498D01*
X130620261Y-47006510D01*
X130589500Y-47161153D01*
X120270353Y-47161153D01*
X120279737Y-47138497D01*
X120283647Y-47118844D01*
X120305244Y-47010264D01*
X120310500Y-46983842D01*
X120310500Y-46826158D01*
X120310500Y-46826155D01*
X120310499Y-46826153D01*
X120303360Y-46790263D01*
X120279737Y-46671503D01*
X120275313Y-46660823D01*
X120219397Y-46525827D01*
X120219390Y-46525814D01*
X120131789Y-46394711D01*
X120131786Y-46394707D01*
X120020292Y-46283213D01*
X120020288Y-46283210D01*
X119889185Y-46195609D01*
X119889172Y-46195602D01*
X119743501Y-46135264D01*
X119743489Y-46135261D01*
X119588845Y-46104500D01*
X119588842Y-46104500D01*
X119431158Y-46104500D01*
X119431155Y-46104500D01*
X119276510Y-46135261D01*
X119276498Y-46135264D01*
X119130827Y-46195602D01*
X119130814Y-46195609D01*
X118999711Y-46283210D01*
X118999707Y-46283213D01*
X118888213Y-46394707D01*
X118888210Y-46394711D01*
X118800609Y-46525814D01*
X118800602Y-46525827D01*
X118740264Y-46671498D01*
X118740261Y-46671510D01*
X118709500Y-46826153D01*
X105033645Y-46826153D01*
X105029737Y-46806503D01*
X105023010Y-46790263D01*
X104969397Y-46660827D01*
X104969390Y-46660814D01*
X104881789Y-46529711D01*
X104881786Y-46529707D01*
X104770292Y-46418213D01*
X104770288Y-46418210D01*
X104639185Y-46330609D01*
X104639172Y-46330602D01*
X104493501Y-46270264D01*
X104493489Y-46270261D01*
X104338845Y-46239500D01*
X104338842Y-46239500D01*
X104181158Y-46239500D01*
X104181155Y-46239500D01*
X104026510Y-46270261D01*
X104026498Y-46270264D01*
X103880827Y-46330602D01*
X103880814Y-46330609D01*
X103749711Y-46418210D01*
X103749707Y-46418213D01*
X103638213Y-46529707D01*
X103638210Y-46529711D01*
X103550609Y-46660814D01*
X103550604Y-46660823D01*
X103501461Y-46779467D01*
X103457620Y-46833870D01*
X103391326Y-46855935D01*
X103339448Y-46846575D01*
X103203501Y-46790264D01*
X103203489Y-46790261D01*
X103048845Y-46759500D01*
X103048842Y-46759500D01*
X102891158Y-46759500D01*
X102891155Y-46759500D01*
X102736510Y-46790261D01*
X102736498Y-46790264D01*
X102590827Y-46850602D01*
X102590814Y-46850609D01*
X102459711Y-46938210D01*
X102459707Y-46938213D01*
X102348213Y-47049707D01*
X102348210Y-47049711D01*
X102260609Y-47180814D01*
X102260602Y-47180827D01*
X102200264Y-47326498D01*
X102200261Y-47326510D01*
X102169500Y-47481153D01*
X85300500Y-47481153D01*
X85300500Y-44311153D01*
X89949500Y-44311153D01*
X89949500Y-44468846D01*
X89980261Y-44623489D01*
X89980264Y-44623501D01*
X90040602Y-44769172D01*
X90040609Y-44769185D01*
X90128210Y-44900288D01*
X90128213Y-44900292D01*
X90239707Y-45011786D01*
X90239711Y-45011789D01*
X90370814Y-45099390D01*
X90370827Y-45099397D01*
X90516498Y-45159735D01*
X90516503Y-45159737D01*
X90671153Y-45190499D01*
X90671156Y-45190500D01*
X90671158Y-45190500D01*
X90828844Y-45190500D01*
X90828845Y-45190499D01*
X90983497Y-45159737D01*
X91096166Y-45113067D01*
X91129172Y-45099397D01*
X91129172Y-45099396D01*
X91129179Y-45099394D01*
X91260289Y-45011789D01*
X91371789Y-44900289D01*
X91459394Y-44769179D01*
X91519737Y-44623497D01*
X91550500Y-44468842D01*
X91550500Y-44321153D01*
X104479500Y-44321153D01*
X104479500Y-44478846D01*
X104510261Y-44633489D01*
X104510264Y-44633501D01*
X104570602Y-44779172D01*
X104570609Y-44779185D01*
X104658210Y-44910288D01*
X104658213Y-44910292D01*
X104769707Y-45021786D01*
X104769711Y-45021789D01*
X104900814Y-45109390D01*
X104900827Y-45109397D01*
X105046498Y-45169735D01*
X105046503Y-45169737D01*
X105201153Y-45200499D01*
X105201156Y-45200500D01*
X105201158Y-45200500D01*
X105358844Y-45200500D01*
X105358845Y-45200499D01*
X105513497Y-45169737D01*
X105659179Y-45109394D01*
X105790289Y-45021789D01*
X105901789Y-44910289D01*
X105989394Y-44779179D01*
X106049737Y-44633497D01*
X106080500Y-44478842D01*
X106080500Y-44361153D01*
X119689500Y-44361153D01*
X119689500Y-44518846D01*
X119720261Y-44673489D01*
X119720264Y-44673501D01*
X119780602Y-44819172D01*
X119780609Y-44819185D01*
X119868210Y-44950288D01*
X119868213Y-44950292D01*
X119979707Y-45061786D01*
X119979711Y-45061789D01*
X120110814Y-45149390D01*
X120110827Y-45149397D01*
X120256498Y-45209735D01*
X120256503Y-45209737D01*
X120411153Y-45240499D01*
X120411156Y-45240500D01*
X120411158Y-45240500D01*
X120568844Y-45240500D01*
X120568845Y-45240499D01*
X120723497Y-45209737D01*
X120869179Y-45149394D01*
X121000289Y-45061789D01*
X121111789Y-44950289D01*
X121199394Y-44819179D01*
X121259737Y-44673497D01*
X121290500Y-44518842D01*
X121290500Y-44361158D01*
X121290500Y-44361155D01*
X121290499Y-44361153D01*
X121278188Y-44299257D01*
X121274587Y-44281153D01*
X129959500Y-44281153D01*
X129959500Y-44438846D01*
X129990261Y-44593489D01*
X129990264Y-44593501D01*
X130050602Y-44739172D01*
X130050609Y-44739185D01*
X130138210Y-44870288D01*
X130138213Y-44870292D01*
X130249707Y-44981786D01*
X130249711Y-44981789D01*
X130380814Y-45069390D01*
X130380827Y-45069397D01*
X130526498Y-45129735D01*
X130526503Y-45129737D01*
X130677312Y-45159735D01*
X130681153Y-45160499D01*
X130681156Y-45160500D01*
X130681158Y-45160500D01*
X130838844Y-45160500D01*
X130838845Y-45160499D01*
X130993497Y-45129737D01*
X131139179Y-45069394D01*
X131270289Y-44981789D01*
X131381789Y-44870289D01*
X131469394Y-44739179D01*
X131529737Y-44593497D01*
X131560500Y-44438842D01*
X131560500Y-44281158D01*
X131560500Y-44281155D01*
X131560499Y-44281153D01*
X131537695Y-44166510D01*
X131529737Y-44126503D01*
X131529735Y-44126498D01*
X131469397Y-43980827D01*
X131469390Y-43980814D01*
X131381789Y-43849711D01*
X131381786Y-43849707D01*
X131270292Y-43738213D01*
X131270288Y-43738210D01*
X131139185Y-43650609D01*
X131139172Y-43650602D01*
X130993501Y-43590264D01*
X130993489Y-43590261D01*
X130838845Y-43559500D01*
X130838842Y-43559500D01*
X130681158Y-43559500D01*
X130681155Y-43559500D01*
X130526510Y-43590261D01*
X130526498Y-43590264D01*
X130380827Y-43650602D01*
X130380814Y-43650609D01*
X130249711Y-43738210D01*
X130249707Y-43738213D01*
X130138213Y-43849707D01*
X130138210Y-43849711D01*
X130050609Y-43980814D01*
X130050602Y-43980827D01*
X129990264Y-44126498D01*
X129990261Y-44126510D01*
X129959500Y-44281153D01*
X121274587Y-44281153D01*
X121259738Y-44206508D01*
X121259737Y-44206507D01*
X121259737Y-44206503D01*
X121259735Y-44206498D01*
X121199397Y-44060827D01*
X121199390Y-44060814D01*
X121111789Y-43929711D01*
X121111786Y-43929707D01*
X121000292Y-43818213D01*
X121000288Y-43818210D01*
X120869185Y-43730609D01*
X120869172Y-43730602D01*
X120723501Y-43670264D01*
X120723489Y-43670261D01*
X120568845Y-43639500D01*
X120568842Y-43639500D01*
X120411158Y-43639500D01*
X120411155Y-43639500D01*
X120256510Y-43670261D01*
X120256498Y-43670264D01*
X120110827Y-43730602D01*
X120110814Y-43730609D01*
X119979711Y-43818210D01*
X119979707Y-43818213D01*
X119868213Y-43929707D01*
X119868210Y-43929711D01*
X119780609Y-44060814D01*
X119780602Y-44060827D01*
X119720264Y-44206498D01*
X119720261Y-44206510D01*
X119689500Y-44361153D01*
X106080500Y-44361153D01*
X106080500Y-44321158D01*
X106080500Y-44321155D01*
X106080499Y-44321153D01*
X106057695Y-44206510D01*
X106049737Y-44166503D01*
X106045593Y-44156498D01*
X105989397Y-44020827D01*
X105989390Y-44020814D01*
X105901789Y-43889711D01*
X105901786Y-43889707D01*
X105790292Y-43778213D01*
X105790288Y-43778210D01*
X105659185Y-43690609D01*
X105659172Y-43690602D01*
X105513501Y-43630264D01*
X105513489Y-43630261D01*
X105358845Y-43599500D01*
X105358842Y-43599500D01*
X105201158Y-43599500D01*
X105201155Y-43599500D01*
X105046510Y-43630261D01*
X105046498Y-43630264D01*
X104900827Y-43690602D01*
X104900814Y-43690609D01*
X104769711Y-43778210D01*
X104769707Y-43778213D01*
X104658213Y-43889707D01*
X104658210Y-43889711D01*
X104570609Y-44020814D01*
X104570602Y-44020827D01*
X104510264Y-44166498D01*
X104510261Y-44166510D01*
X104479500Y-44321153D01*
X91550500Y-44321153D01*
X91550500Y-44311158D01*
X91550500Y-44311155D01*
X91550499Y-44311153D01*
X91529684Y-44206510D01*
X91519737Y-44156503D01*
X91463539Y-44020827D01*
X91459397Y-44010827D01*
X91459390Y-44010814D01*
X91371789Y-43879711D01*
X91371786Y-43879707D01*
X91260292Y-43768213D01*
X91260288Y-43768210D01*
X91129185Y-43680609D01*
X91129172Y-43680602D01*
X90983501Y-43620264D01*
X90983489Y-43620261D01*
X90828845Y-43589500D01*
X90828842Y-43589500D01*
X90671158Y-43589500D01*
X90671155Y-43589500D01*
X90516510Y-43620261D01*
X90516498Y-43620264D01*
X90370827Y-43680602D01*
X90370814Y-43680609D01*
X90239711Y-43768210D01*
X90239707Y-43768213D01*
X90128213Y-43879707D01*
X90128210Y-43879711D01*
X90040609Y-44010814D01*
X90040602Y-44010827D01*
X89980264Y-44156498D01*
X89980261Y-44156510D01*
X89949500Y-44311153D01*
X85300500Y-44311153D01*
X85300500Y-40424500D01*
X85320185Y-40357461D01*
X85372989Y-40311706D01*
X85424500Y-40300500D01*
X134575500Y-40300500D01*
X134642539Y-40320185D01*
G37*
%TD.AperFunction*%
%TD*%
M02*
